<svg xmlns="http://www.w3.org/2000/svg" xmlns:xlink="http://www.w3.org/1999/xlink" width="7044" height="263" viewBox="0 0 7044 263">
  <defs>
    <pattern id="_10_dpi_30_" data-name="10 dpi 30%" width="28.8" height="28.8" patternUnits="userSpaceOnUse" viewBox="0 0 28.8 28.8">
      <rect width="28.8" height="28.8" fill="none"/>
      <g>
        <circle cx="28.8" cy="28.8" r="2.16" fill="#004000"/>
        <circle cx="14.4" cy="28.8" r="2.16" fill="#004000"/>
        <circle cx="28.8" cy="14.4" r="2.16" fill="#004000"/>
        <circle cx="14.4" cy="14.4" r="2.16" fill="#004000"/>
        <circle cx="7.2" cy="21.6" r="2.16" fill="#004000"/>
        <circle cx="21.6" cy="21.6" r="2.16" fill="#004000"/>
        <circle cx="7.2" cy="7.2" r="2.16" fill="#004000"/>
        <circle cx="21.6" cy="7.2" r="2.16" fill="#004000"/>
      </g>
      <g>
        <circle cy="28.8" r="2.16" fill="#004000"/>
        <circle cy="14.4" r="2.16" fill="#004000"/>
      </g>
      <g>
        <circle cx="28.8" r="2.16" fill="#004000"/>
        <circle cx="14.4" r="2.16" fill="#004000"/>
      </g>
      <circle r="2.16" fill="#004000"/>
    </pattern>
  </defs>
  <title>northern_terminus</title>
  <g id="Layer_2" data-name="Layer 2">
    <g id="Layer_1-2" data-name="Layer 1">
      <g>
        <g>
          <path d="M6979,163.56V210.7a5.3,5.3,0,0,1-5.3,5.3h-5.19V163.56Z" fill="#8a5d3b"/>
          <path d="M6968.53,163.56V216h-5.19a5.3,5.3,0,0,1-5.3-5.3V163.56Z" fill="#68462c"/>
        </g>
        <path d="M6968.47,8V181.64h-61.79a3.9,3.9,0,0,1-3.37-5.86L6929.78,130a3.91,3.91,0,0,0-3.37-5.86h-7a3.89,3.89,0,0,1-3.37-5.84l21.31-36.9A3.91,3.91,0,0,0,6934,75.5a3.9,3.9,0,0,1-3.9-3.92,3.81,3.81,0,0,1,.52-1.94L6965.08,10A3.87,3.87,0,0,1,6968.47,8Z" fill="#004e2a"/>
        <path d="M6968.47,8V181.64h-61.79a3.9,3.9,0,0,1-3.37-5.86L6929.78,130a3.91,3.91,0,0,0-3.37-5.86h-7a3.89,3.89,0,0,1-3.37-5.84l21.31-36.9A3.91,3.91,0,0,0,6934,75.5a3.9,3.9,0,0,1-3.9-3.92,3.81,3.81,0,0,1,.52-1.94L6965.08,10A3.87,3.87,0,0,1,6968.47,8Z" fill="url(#_10_dpi_30_)"/>
        <path d="M7030.25,181.64h-61.77V8a3.86,3.86,0,0,1,3.37,2l34.47,59.69a3.9,3.9,0,0,1-3.37,5.86h0a3.91,3.91,0,0,0-3.37,5.86l21.31,36.9a3.9,3.9,0,0,1-3.39,5.84h-6.92a3.91,3.91,0,0,0-3.39,5.86l26.46,45.83A3.9,3.9,0,0,1,7030.25,181.64Z" fill="#006838"/>
      </g>
      <g>
        <g>
          <path d="M6724,155.56V202.7a5.3,5.3,0,0,1-5.3,5.3h-5.19V155.56Z" fill="#8a5d3b"/>
          <path d="M6713.53,155.56V208h-5.19a5.3,5.3,0,0,1-5.3-5.3V155.56Z" fill="#68462c"/>
        </g>
        <path d="M6713.47,0V173.64h-61.79a3.9,3.9,0,0,1-3.37-5.86L6674.78,122a3.91,3.91,0,0,0-3.37-5.86h-7a3.89,3.89,0,0,1-3.37-5.84l21.31-36.9A3.91,3.91,0,0,0,6679,67.5a3.9,3.9,0,0,1-3.9-3.92,3.81,3.81,0,0,1,.52-1.94L6710.08,2A3.87,3.87,0,0,1,6713.47,0Z" fill="#004e2a"/>
        <path d="M6713.47,0V173.64h-61.79a3.9,3.9,0,0,1-3.37-5.86L6674.78,122a3.91,3.91,0,0,0-3.37-5.86h-7a3.89,3.89,0,0,1-3.37-5.84l21.31-36.9A3.91,3.91,0,0,0,6679,67.5a3.9,3.9,0,0,1-3.9-3.92,3.81,3.81,0,0,1,.52-1.94L6710.08,2A3.87,3.87,0,0,1,6713.47,0Z" fill="url(#_10_dpi_30_)"/>
        <path d="M6775.25,173.64h-61.77V0a3.86,3.86,0,0,1,3.37,2l34.47,59.69a3.9,3.9,0,0,1-3.37,5.86h0a3.91,3.91,0,0,0-3.37,5.86l21.31,36.9a3.9,3.9,0,0,1-3.39,5.84h-6.92a3.91,3.91,0,0,0-3.39,5.86l26.46,45.83A3.9,3.9,0,0,1,6775.25,173.64Z" fill="#006838"/>
      </g>
      <g>
        <g>
          <path d="M6656.48,174.66v38.06a4.28,4.28,0,0,1-4.28,4.28H6648V174.66Z" fill="#8a5d3b"/>
          <path d="M6648,174.66V217h-4.19a4.28,4.28,0,0,1-4.28-4.28V174.66Z" fill="#68462c"/>
        </g>
        <path d="M6648,49.06v140.2h-49.89a3.15,3.15,0,0,1-2.72-4.73l21.37-37a3.15,3.15,0,0,0-2.72-4.73h-5.62a3.14,3.14,0,0,1-2.72-4.71l17.2-29.79a3.16,3.16,0,0,0-2.74-4.73,3.15,3.15,0,0,1-3.15-3.16,3.08,3.08,0,0,1,.42-1.57l27.83-48.2A3.13,3.13,0,0,1,6648,49.06Z" fill="#004e2a"/>
        <path d="M6648,49.06v140.2h-49.89a3.15,3.15,0,0,1-2.72-4.73l21.37-37a3.15,3.15,0,0,0-2.72-4.73h-5.62a3.14,3.14,0,0,1-2.72-4.71l17.2-29.79a3.16,3.16,0,0,0-2.74-4.73,3.15,3.15,0,0,1-3.15-3.16,3.08,3.08,0,0,1,.42-1.57l27.83-48.2A3.13,3.13,0,0,1,6648,49.06Z" fill="url(#_10_dpi_30_)"/>
        <path d="M6697.85,189.26H6648V49.06a3.12,3.12,0,0,1,2.72,1.58l27.83,48.2a3.15,3.15,0,0,1-2.72,4.73h0a3.15,3.15,0,0,0-2.72,4.73l17.2,29.79a3.15,3.15,0,0,1-2.74,4.71h-5.59a3.15,3.15,0,0,0-2.74,4.73l21.37,37A3.15,3.15,0,0,1,6697.85,189.26Z" fill="#006838"/>
      </g>
      <g>
        <g>
          <path d="M6566.65,170.48v31.94a3.59,3.59,0,0,1-3.59,3.59h-3.52V170.48Z" fill="#8a5d3b"/>
          <path d="M6559.54,170.48V206H6556a3.59,3.59,0,0,1-3.59-3.59V170.48Z" fill="#68462c"/>
        </g>
        <path d="M6559.51,65.08V182.72h-41.86a2.64,2.64,0,0,1-2.29-4l17.93-31a2.65,2.65,0,0,0-2.29-4h-4.71a2.64,2.64,0,0,1-2.29-4l14.44-25a2.65,2.65,0,0,0-2.3-4,2.64,2.64,0,0,1-2.64-2.65,2.58,2.58,0,0,1,.36-1.31l23.35-40.44A2.62,2.62,0,0,1,6559.51,65.08Z" fill="#004e2a"/>
        <path d="M6559.51,65.08V182.72h-41.86a2.64,2.64,0,0,1-2.29-4l17.93-31a2.65,2.65,0,0,0-2.29-4h-4.71a2.64,2.64,0,0,1-2.29-4l14.44-25a2.65,2.65,0,0,0-2.3-4,2.64,2.64,0,0,1-2.64-2.65,2.58,2.58,0,0,1,.36-1.31l23.35-40.44A2.62,2.62,0,0,1,6559.51,65.08Z" fill="url(#_10_dpi_30_)"/>
        <path d="M6601.36,182.72h-41.85V65.08a2.62,2.62,0,0,1,2.29,1.33l23.35,40.44a2.64,2.64,0,0,1-2.29,4h0a2.65,2.65,0,0,0-2.29,4l14.44,25a2.64,2.64,0,0,1-2.3,4H6588a2.65,2.65,0,0,0-2.3,4l17.93,31A2.64,2.64,0,0,1,6601.36,182.72Z" fill="#006838"/>
      </g>
      <g>
        <g>
          <path d="M6918,176.64v29.09a3.27,3.27,0,0,1-3.27,3.27h-3.2V176.64Z" fill="#8a5d3b"/>
          <path d="M6911.5,176.64V209h-3.2a3.27,3.27,0,0,1-3.27-3.27V176.64Z" fill="#68462c"/>
        </g>
        <path d="M6911.47,80.64V187.79h-38.13a2.41,2.41,0,0,1-2.08-3.61l16.33-28.28a2.41,2.41,0,0,0-2.08-3.61h-4.29a2.4,2.4,0,0,1-2.08-3.6l13.15-22.77a2.41,2.41,0,0,0-2.09-3.61,2.41,2.41,0,0,1-2.41-2.42,2.35,2.35,0,0,1,.32-1.2l21.27-36.84A2.39,2.39,0,0,1,6911.47,80.64Z" fill="#004e2a"/>
        <path d="M6911.47,80.64V187.79h-38.13a2.41,2.41,0,0,1-2.08-3.61l16.33-28.28a2.41,2.41,0,0,0-2.08-3.61h-4.29a2.4,2.4,0,0,1-2.08-3.6l13.15-22.77a2.41,2.41,0,0,0-2.09-3.61,2.41,2.41,0,0,1-2.41-2.42,2.35,2.35,0,0,1,.32-1.2l21.27-36.84A2.39,2.39,0,0,1,6911.47,80.64Z" fill="url(#_10_dpi_30_)"/>
        <path d="M6949.59,187.79h-38.12V80.64a2.38,2.38,0,0,1,2.08,1.21l21.27,36.84a2.41,2.41,0,0,1-2.08,3.61h0a2.41,2.41,0,0,0-2.08,3.61l13.15,22.77a2.41,2.41,0,0,1-2.09,3.6h-4.27a2.41,2.41,0,0,0-2.09,3.61l16.33,28.28A2.41,2.41,0,0,1,6949.59,187.79Z" fill="#006838"/>
      </g>
    </g>
    <g id="Layer_7" data-name="Layer 7">
      <rect y="206" width="7044" height="57" fill="#6d612f"/>
    </g>
  </g>
</svg>
