<svg xmlns="http://www.w3.org/2000/svg" width="146.68" height="346.2" viewBox="0 0 146.68 346.2">
  <title>Southern Terminus</title>
  <g id="Layer_2" data-name="Layer 2">
    <g id="Layer_1-2" data-name="Layer 1">
      <g id="Layer_1-2-2" data-name="Layer 1-2">
        <g id="fifth">
          <rect x="102.22" y="206.12" width="22.23" height="140.07" fill="#8a8a8b"/>
          <path d="M146.68,208.31V346.2H124.45V206.12h20a2.19,2.19,0,0,1,2.2,2.17Z" fill="#b7b9ba"/>
          <rect x="102.22" y="216.11" width="44.46" height="10.05" fill="#231f20"/>
        </g>
        <path d="M75.3,206.12h40.13a2.17,2.17,0,0,1,2.17,2.17h0V345.6H73.14V208.29A2.17,2.17,0,0,1,75.3,206.12Z" fill="#898b8d" opacity="0.32" style="isolation: isolate"/>
        <g id="fourth">
          <path d="M69.23,0V346.2H47V2a2,2,0,0,1,2-2Z" fill="#68696a"/>
          <path d="M91.46,2V346.2H69.23V0H89.48a2,2,0,0,1,2,2Z" fill="#898b8d"/>
          <rect x="47" y="8.97" width="44.46" height="10.05" fill="#231f20"/>
        </g>
        <g id="third">
          <path d="M95.41,70.94V346.2H73.18V73a2.06,2.06,0,0,1,2.06-2.06H95.41Z" fill="#7a7b7c"/>
          <path d="M117.64,73V346.2H95.41V70.94h20.17A2.06,2.06,0,0,1,117.64,73Z" fill="#a1a2a3"/>
          <rect x="73.18" y="80.79" width="44.46" height="10.05" fill="#231f20"/>
        </g>
        <g id="nameplate">
          <path d="M54.73,47.48a29.26,29.26,0,0,1,12.1-20.93,4.14,4.14,0,0,1,4.82,0A29.27,29.27,0,0,1,83.73,47.37a4.15,4.15,0,0,1-2.37,4.2,29.33,29.33,0,0,1-24.21.11A4.15,4.15,0,0,1,54.73,47.48Z" fill="#fff"/>
          <path d="M69.13,50.26A25.08,25.08,0,0,1,58.77,48a.19.19,0,0,1-.09-.18A25.31,25.31,0,0,1,69.14,29.78a.18.18,0,0,1,.2,0,25.33,25.33,0,0,1,10.45,18,.19.19,0,0,1-.09.19A25.09,25.09,0,0,1,69.13,50.26Z" fill="#225268"/>
        </g>
        <g id="second">
          <path d="M31.05,148.72H71.27a2.12,2.12,0,0,1,2.12,2.12h0V346.19H28.93V150.85A2.12,2.12,0,0,1,31,148.72Z" fill="#231f20" opacity="0.32" style="isolation: isolate"/>
          <path d="M48.18,346.2h-23V150.85a2.12,2.12,0,0,1,2.11-2.13h20Z" fill="#8a8a8b"/>
          <path d="M69.62,150.85V346.2H48.18l-.88-197.47H67.5a2.12,2.12,0,0,1,2.12,2.12Z" fill="#b7b9ba"/>
          <rect x="25.17" y="158.72" width="44.46" height="10.05" fill="#231f20"/>
          <line x1="47.31" y1="148.72" x2="47.31" y2="148.5" fill="none"/>
        </g>
        <g id="first">
          <path d="M25.34,247.46H47.88A2.17,2.17,0,0,1,50,249.63h0V346.2H25.34V247.46Z" fill="#898b8d" opacity="0.32" style="isolation: isolate"/>
          <path d="M22.23,249.61V346.2H0V251.77a2.16,2.16,0,0,1,2.16-2.17H22.23Z" fill="#aeaeaf"/>
          <path d="M44.46,251.77V346.2H22.23V249.61H42.29a2.17,2.17,0,0,1,2.17,2.17Z" fill="#e6e7e7"/>
          <rect y="258.22" width="44.46" height="10.05" fill="#231f20"/>
        </g>
      </g>
    </g>
  </g>
</svg>
