<svg xmlns="http://www.w3.org/2000/svg" width="504.1" height="114.99" viewBox="0 0 504.1 114.99">
  <title>b_gods</title>
  <g id="Layer_2" data-name="Layer 2">
    <g id="Pop_up_type">
      <g>
        <path d="M171.11,90.69h3.36v17.25h3.9v3h-7.26Z" fill="#fff"/>
        <path d="M181,90.69h7.47V93.6h-4.08v5.7h3.33v2.82h-3.33V108h4.08v2.91H181Z" fill="#fff"/>
        <path d="M194.63,99.54v11.4h-2.85V90.69h2.82l3.84,12.18V90.69h2.85v20.25H198.5Z" fill="#fff"/>
        <path d="M207.68,111.09a2.29,2.29,0,0,1-2.43-2.46V93a2.28,2.28,0,0,1,2.43-2.49h6.45v3.15h-5.28c-.09,0-.21.15-.21.33v13.68c0,.18.12.3.21.3h2c.15,0,.24-.12.24-.3v-6.24h-1.14V98.58h5.16v2.85h-1v7.2a2.31,2.31,0,0,1-2.46,2.46Z" fill="#fff"/>
        <path d="M222.23,93.6v17.34h-3.36V93.6h-2.55V90.69h8.46V93.6Z" fill="#fff"/>
        <path d="M227.33,110.94V90.69h3.33V99.6h2.76V90.69h3.33v20.25h-3.33v-8.55h-2.76v8.55Z" fill="#fff"/>
        <path d="M244,103.56H240.2V98.88H244Zm0,7.38H240.2v-4.68H244Z" fill="#fff"/>
        <path d="M251,110.94v-2.85h3.78V94l-2.94.66-.6-2.49,4.23-1.44h2.64v17.4h3.42v2.85Z" fill="#fff"/>
        <path d="M266.09,106.77h3.84l-2.7,8.22H264Z" fill="#fff"/>
        <path d="M280,100.44a2.39,2.39,0,0,1,2.19,2.28v6a2.17,2.17,0,0,1-2.34,2.34h-4.56a2.17,2.17,0,0,1-2.34-2.34v-6a2.37,2.37,0,0,1,2.22-2.28c-1.14,0-2.22-.6-2.22-1.77V92.88a2.17,2.17,0,0,1,2.34-2.34h4.56a2.17,2.17,0,0,1,2.34,2.34v5.79A2,2,0,0,1,280,100.44Zm-1.2-6.69a.35.35,0,0,0-.36-.36h-1.74a.35.35,0,0,0-.36.36v5.19a.35.35,0,0,0,.36.36h1.74a.35.35,0,0,0,.36-.36Zm0,8.7a.35.35,0,0,0-.36-.36h-1.74a.35.35,0,0,0-.36.36v5.43a.35.35,0,0,0,.36.36h1.74a.35.35,0,0,0,.36-.36Z" fill="#fff"/>
        <path d="M289.34,93.51V99H292a2.17,2.17,0,0,1,2.34,2.34v7.29a2.17,2.17,0,0,1-2.34,2.34h-5.82v-2.82h4.41a.35.35,0,0,0,.36-.36v-5.4a.35.35,0,0,0-.36-.36h-4.44V90.69h8.07v2.82Z" fill="#fff"/>
        <path d="M302.12,93.51a.35.35,0,0,0-.36.36v4h3.33a2.17,2.17,0,0,1,2.34,2.34v8.58a2.17,2.17,0,0,1-2.34,2.34h-4.38a2.17,2.17,0,0,1-2.34-2.34V93a2.17,2.17,0,0,1,2.34-2.34H307v2.82Zm-.15,7.14a.35.35,0,0,0-.36.36v6.87a.35.35,0,0,0,.36.36h1.86a.35.35,0,0,0,.36-.36V101a.35.35,0,0,0-.36-.36Z" fill="#fff"/>
        <path d="M315.8,90.69h7.53V93.6h-4.17v6.51h3.45V103h-3.45v7.92H315.8Z" fill="#fff"/>
        <path d="M330.44,93.6v17.34h-3.36V93.6h-2.55V90.69H333V93.6Z" fill="#fff"/>
      </g>
      <g>
        <path d="M0,78.44V44.69H20.8a4.14,4.14,0,0,1,4.5,4.25v7.5c0,2.3-1.5,4.5-4.6,5.25,3.1.75,4.85,2.85,4.85,5.1v7.35c0,2.65-1.75,4.3-4.5,4.3Zm17-26.5a.51.51,0,0,0-.5-.55H8.65v7h7.8a.49.49,0,0,0,.5-.55Zm0,13.2a.51.51,0,0,0-.5-.55H8.65V72h7.8a.47.47,0,0,0,.5-.5Z" fill="#fff"/>
        <path d="M55.55,44.69a3.8,3.8,0,0,1,3.8,3.8V63.94a3.86,3.86,0,0,1-3.8,3.8H55.3l4.15,10.7H51l-4.2-10.7h-3.7v10.7h-8.7V44.69ZM50.7,52.44a.54.54,0,0,0-.45-.5h-7.2v9h7.2a.53.53,0,0,0,.45-.45Z" fill="#fff"/>
        <path d="M76.95,78.44H68.3V44.69h8.65Z" fill="#fff"/>
        <path d="M104.7,44.69a6.89,6.89,0,0,1,6.85,6.85v20a6.9,6.9,0,0,1-6.85,6.9H86.55V44.69Zm-1.8,9.7a2.34,2.34,0,0,0-2.45-2.45h-5.2v19.2h5.2a2.34,2.34,0,0,0,2.45-2.45Z" fill="#fff"/>
        <path d="M132.7,57.74H148v7.15h-2.8v9.7a3.79,3.79,0,0,1-3.85,3.85h-16.9a3.83,3.83,0,0,1-3.9-3.85V48.49a3.89,3.89,0,0,1,3.9-3.8h20.9v7.25H129.7a.55.55,0,0,0-.5.55v18.1a.5.5,0,0,0,.5.5h7a.49.49,0,0,0,.55-.5v-5.7H132.7Z" fill="#fff"/>
        <path d="M156,44.69H178.1v7.25H164.7v5.9h11.6V65H164.7v6.1h13.4v7.3H156Z" fill="#fff"/>
        <path d="M219.65,44.69a3.75,3.75,0,0,1,4,4V74.49a3.75,3.75,0,0,1-4,3.95H202.3a3.75,3.75,0,0,1-4-3.95V48.64a3.75,3.75,0,0,1,4-4Zm-4.75,7.85a.56.56,0,0,0-.55-.55H207.5a.55.55,0,0,0-.45.55V70.69a.48.48,0,0,0,.45.45h6.85a.51.51,0,0,0,.55-.45Z" fill="#fff"/>
        <path d="M232.9,44.69h21.4v7.25H241.55v7.65h11v7.2h-11V78.44H232.9Z" fill="#fff"/>
        <path d="M294.9,44.69V52h-7.65V78.44h-8.7V52H270.9v-7.3Z" fill="#fff"/>
        <path d="M327,78.44h-8.7V65H310v13.4h-8.7V44.69H310v12.9h8.25V44.69H327Z" fill="#fff"/>
        <path d="M336.6,44.69h22.05v7.25h-13.4v5.9h11.6V65h-11.6v6.1h13.4v7.3H336.6Z" fill="#fff"/>
        <path d="M391,57.74h15.3v7.15h-2.8v9.7a3.79,3.79,0,0,1-3.85,3.85h-16.9a3.83,3.83,0,0,1-3.9-3.85V48.49a3.89,3.89,0,0,1,3.9-3.8h20.9v7.25H388a.55.55,0,0,0-.5.55v18.1a.5.5,0,0,0,.5.5h7a.49.49,0,0,0,.55-.5v-5.7H391Z" fill="#fff"/>
        <path d="M435.4,44.69a3.75,3.75,0,0,1,4,4V74.49a3.75,3.75,0,0,1-4,3.95H418a3.75,3.75,0,0,1-4-3.95V48.64a3.75,3.75,0,0,1,4-4Zm-4.75,7.85a.56.56,0,0,0-.55-.55h-6.85a.55.55,0,0,0-.45.55V70.69a.48.48,0,0,0,.45.45h6.85a.51.51,0,0,0,.55-.45Z" fill="#fff"/>
        <path d="M466.8,44.69a6.89,6.89,0,0,1,6.85,6.85v20a6.9,6.9,0,0,1-6.85,6.9H448.64V44.69Zm-1.8,9.7a2.34,2.34,0,0,0-2.45-2.45h-5.2v19.2h5.2A2.34,2.34,0,0,0,465,68.69Z" fill="#fff"/>
        <path d="M482.24,71.14h12.65c.35,0,.55-.2.55-.45v-4.9c0-.25-.2-.45-.55-.45h-8.7a3.75,3.75,0,0,1-4-4V48.64a3.75,3.75,0,0,1,4-4h17.45v7.25h-12.2a.51.51,0,0,0-.5.55v5a.49.49,0,0,0,.5.45h8.7a3.75,3.75,0,0,1,4,4V74.49a3.75,3.75,0,0,1-4,3.95h-17.9Z" fill="#fff"/>
      </g>
      <g>
        <path d="M210.62,25.55c1.48-.31,3.75-2.3,6.11-4.9.25-.29.43-.59.59-.59.31,0,.43,1.43.51,2.05,0,.25.16.47.16.74A1.91,1.91,0,0,1,217.5,24c-1.48,2-6.35,6-8.4,6a2.66,2.66,0,0,1-2.79-2.6,2.91,2.91,0,0,1,0-.41c.51-2.71,8.44-14,12.23-19.32C213.22,13.2,200.7,26.56,198,28.79a1.24,1.24,0,0,1-.84.27c-1,0-2.17-.78-2.17-1.68v-.1c.12-1.09,6.68-13.89,10-19.49C200.9,12.25,191.72,23.55,187,33a.91.91,0,0,1-.88.63,4.83,4.83,0,0,1-1.09-.21c-1-.27-1.72-.8-1.72-1.64,0-1.89,17.66-26.6,23.48-30.49a2.06,2.06,0,0,1,1.11-.43c.43,0,.61.25.76.25a.18.18,0,0,0,.14-.06,1.35,1.35,0,0,1,1-.31c.94,0,2.17.43,2.17,1a.46.46,0,0,1,0,.16c-.39,1.07-7.07,12.48-10.7,19.51C205.13,16.68,217.91,3,222.07.51a.88.88,0,0,1,.53-.14A5.3,5.3,0,0,1,224,.64a16.41,16.41,0,0,0,2.07.27c.39.08.76.37.76.72a.52.52,0,0,1-.12.31C224.14,5.35,212.87,20.51,210.62,25.55Z" fill="#fff"/>
        <path d="M228.28,25.76a8.48,8.48,0,0,1-6.89,4.36,3.71,3.71,0,0,1-3.55-3.36c0-2,4.3-8.2,4.3-8.52s-.8-.84-.8-1.29,3-3.63,4.71-3.63a1.87,1.87,0,0,1,1.45,1.56c0,.41-4.08,7.46-4.65,8.44-.47.78-1.46,2.19-1.46,3.13,0,.55.51.66,1,.66,2.36,0,4.92-3.95,5.53-3.95s.51,1.41.51,1.76A2,2,0,0,1,228.28,25.76Zm.12-14.53a1,1,0,0,1-1.15-1.15,3.55,3.55,0,0,1,3.16-3.32,1,1,0,0,1,1.15,1.11C231.56,9.32,229.88,11.23,228.4,11.23Z" fill="#fff"/>
        <path d="M231,23.36a15.64,15.64,0,0,0-.31,1.88,1.92,1.92,0,0,0,2.11,2c2.44,0,5.14-4,6-4,.51,0,.51,1.11.51,1.43V25a2.58,2.58,0,0,1-.92,1.86,10.08,10.08,0,0,1-6.87,3.24c-2.6,0-3.81-1.68-3.81-4.2,0-5.41,3.54-13.32,6.64-17.71,2.4-3.4,6.13-8.16,8.81-8.16a2.19,2.19,0,0,1,2.36,2C245.5,6.52,234.33,19.67,231,23.36ZM242.07,2.95c-1,0-6.58,8-7.36,9.38a40.5,40.5,0,0,0-2.89,6.6c1.89-2.25,10.45-13.57,10.45-15.68C242.26,3.09,242.22,2.95,242.07,2.95Z" fill="#fff"/>
        <path d="M247.28,17.95c-.62,0-.7-.31-.7-.88a2,2,0,0,1,.08-.51,9.27,9.27,0,0,0-1.6.76c-.64.35-3.32,2.11-3.32,2.83,0,.16.31.16.39.16,1.05,0,1.93-.64,2.93-.64a1.33,1.33,0,0,1,.39,0,2.3,2.3,0,0,1,.84,1.29c0,.33-.43.66-.68.88a9.69,9.69,0,0,1-1.84.84c-.8.45-4.12,2.29-4.12,3.16,0,1.37,1.56,1.52,2.6,1.52,2.85,0,5.57-2.7,7.36-4a.93.93,0,0,1,.45-.2c.51,0,.51,1.19.51,1.54a3.24,3.24,0,0,1-.12,1.05,2.72,2.72,0,0,1-.8.92c-1.87,1.52-4.75,3.4-7.91,3.4-2.32,0-5.37-.72-5.37-3.59,0-2.17,1.89-3.4,3.73-4.08-1.07-.49-1.17-1.25-1.17-2.29,0-3.85,6.48-6.6,9.8-6.6.68,0,2,.35,2,1.19A3.47,3.47,0,0,1,247.28,17.95Z" fill="#fff"/>
        <path d="M269.25,25.12c1,0,.66.53,1,.68s.55,1.5.57,1.91v.18c0,.39-.14.7-.51.78-3.24.68-8.42.76-11.13,1.13a4.7,4.7,0,0,1-1.31-.45,3.18,3.18,0,0,1-.59-1.29,4.59,4.59,0,0,1,.37-1.19c.12-.25,1.07-1.25,2.44-2.75s4.75-4.12,6.43-6c3.42-3.83,8.24-8.28,8.22-9.57,0-.25-.29-.37-.64-.37-1.15,0-4.69,1.62-8,6.25a.57.57,0,0,0-.12.41,1.92,1.92,0,0,1-1.54.9,2.87,2.87,0,0,1-1.5-.7,1,1,0,0,1-.18-.68c0-2.17,6.23-9.16,12.34-9.16,1.89,0,2.66,2.07,2.66,3.07,0,4-12.07,14.51-15.43,17.85A56.83,56.83,0,0,1,269.25,25.12Z" fill="#fff"/>
        <path d="M274.76,29.39a3.92,3.92,0,0,1-1.37.41c-.21,0-.33-.62-1-1.41-.1-.2-.47-.27-.47-.39a.07.07,0,0,1,0-.06,189.72,189.72,0,0,1,10.49-17.27c-.62.43-1.13.84-1.7,1.31-.14.1-.16.12-.27.12-.31,0-.31-.64-.45-.88s-.23-.25-.23-.45a2.5,2.5,0,0,1,.16-.47c.29-.8,5.25-5.08,6.45-5.08A2.17,2.17,0,0,1,288,7c-.06.49-3.26,5.16-6.62,10.66C278.41,22.64,275.33,27.75,274.76,29.39Z" fill="#fff"/>
        <path d="M296.42,17.64c2.52-.25,4-.41,4.69-.41a.16.16,0,0,1,.18.18A1.58,1.58,0,0,1,301,18a11.86,11.86,0,0,1-2.19,2.66c-.2,0-1.8.23-4.34.47-1,1.84-2.73,4.88-4.73,8.55-.37.82-2.29.84-3.09,1.17a1,1,0,0,1-.74-.72c.94-2,2.68-5,4.8-8.71-3.3.23-5.86.43-6.35.43s-.64-.92-.64-1.66a3.66,3.66,0,0,1,.12-1.05c1.52-3.52,15.23-14,17.4-14.36,0,0,.51.18,1.37.47.23.14.25.55.45.64a1.53,1.53,0,0,1,.16.55.15.15,0,0,1,0,.1C300.27,11,298.18,14.47,296.42,17.64Zm-3.71.39c1.41-2.38,3.55-5.78,6.09-9.36-3.54,2.93-8.54,7.68-11.41,10.2C289.24,18.52,290.78,18.28,292.71,18Z" fill="#fff"/>
        <path d="M314,17.64c2.52-.25,4-.41,4.69-.41a.16.16,0,0,1,.18.18,1.58,1.58,0,0,1-.29.63,11.86,11.86,0,0,1-2.19,2.66c-.2,0-1.8.23-4.34.47-1,1.84-2.73,4.88-4.73,8.55-.37.82-2.29.84-3.09,1.17a1,1,0,0,1-.74-.72c.94-2,2.68-5,4.8-8.71-3.3.23-5.86.43-6.35.43s-.64-.92-.64-1.66a3.66,3.66,0,0,1,.12-1.05c1.52-3.52,15.23-14,17.4-14.36,0,0,.51.18,1.37.47.23.14.25.55.45.64a1.53,1.53,0,0,1,.16.55.15.15,0,0,1,0,.1C317.85,11,315.76,14.47,314,17.64Zm-3.71.39c1.41-2.38,3.55-5.78,6.09-9.36-3.54,2.93-8.54,7.68-11.41,10.2C306.81,18.52,308.36,18.28,310.29,18Z" fill="#fff"/>
      </g>
    </g>
  </g>
</svg>
