<svg xmlns="http://www.w3.org/2000/svg" width="612.3" height="138.55" viewBox="0 0 612.3 138.55">
  <title>Header3</title>
  <g id="Layer_2" data-name="Layer 2">
    <g id="Layer_1-2" data-name="Layer 1">
      <g>
        <g style="isolation: isolate">
          <path d="M14.5,78.5V93.2H0v-48H23.4c11.2,0,17.2,7.9,17.2,17.2s-6,16.4-17.2,16.4H14.5Zm0-11.4H22a4.58,4.58,0,0,0,4.3-4.8c0-2.5-1.9-5-4.3-5H14.5Z" fill="#fff"/>
        </g>
        <g style="isolation: isolate">
          <path d="M70.4,88.9c-1.9,3.3-5.6,5.2-10.4,5.2-9.7,0-17-7.9-17-18.8s7.5-18.8,17-18.8c4.8,0,8.5,2.1,10.4,5.4V57.3H84.7V93.5H70.4ZM64,83.3c4.1,0,6.6-3.5,6.6-8.1s-2.5-8.1-6.6-8.1-6.6,3.5-6.6,8.1S59.8,83.3,64,83.3Z" fill="#fff"/>
          <path d="M110.6,56.4c5.4,0,11.4,1.7,15.3,5.6l-6.8,8.3a11.86,11.86,0,0,0-7.7-3.1c-4.8,0-8.1,3.3-8.1,7.9s3.3,7.9,8.1,7.9a11.86,11.86,0,0,0,7.7-3.1l6.8,8.3c-4.1,3.9-9.9,5.6-15.3,5.6-12.4,0-21.3-8.5-21.3-18.8S98.3,56.4,110.6,56.4Z" fill="#fff"/>
          <path d="M137.3,42.3c5.4,0,7.9,2.7,7.9,6.4,0,3.5-2.9,6.4-7.9,6.4s-7.9-2.7-7.9-6.4C129.2,45,131.9,42.3,137.3,42.3Zm7,14.9H130V93.4h14.3Z" fill="#fff"/>
          <path d="M153.6,58V56.3c0-10.6,9.1-13.7,16.6-13.7a19.07,19.07,0,0,1,9.9,2.3l-3.3,8.3a12,12,0,0,0-5-1c-3.9,0-5,1.9-5,4.1v1.4h30.7V93.1H183.2V67.3H167.3V93.2H153.4V67.3h-4.3V58Zm29-9.5c0,3.5,2.9,6.4,7.9,6.4s7.9-2.7,7.9-6.4c0-3.5-2.5-6.4-7.9-6.4C185.1,42.3,182.6,45,182.6,48.5Z" fill="#fff"/>
          <path d="M223.6,56.4c5.4,0,11.4,1.7,15.3,5.6l-6.8,8.3a11.86,11.86,0,0,0-7.7-3.1c-4.8,0-8.1,3.3-8.1,7.9s3.3,7.9,8.1,7.9a11.86,11.86,0,0,0,7.7-3.1l6.8,8.3c-4.1,3.9-9.9,5.6-15.3,5.6-12.4,0-21.3-8.5-21.3-18.8S211.2,56.4,223.6,56.4Z" fill="#fff"/>
          <path d="M283.5,44.4c8.1,0,13.5,3.1,18.6,7.7l-8.3,9.3a13.39,13.39,0,0,0-10.4-4.8A12,12,0,0,0,271,69a12,12,0,0,0,12.4,12.4,13.07,13.07,0,0,0,10.4-4.8l8.3,9.3c-5.2,4.6-10.6,7.7-18.6,7.7-16.4,0-26.9-11.4-26.9-24.8C256.8,55.7,267.3,44.4,283.5,44.4Z" fill="#fff"/>
        </g>
        <g style="isolation: isolate">
          <path d="M319.9,64.6c1.2-7.5,8.3-8.5,10.1-8.5a8.61,8.61,0,0,1,2.1.2V70.2a22.21,22.21,0,0,0-4.6-.4c-5.8,0-7.2,3.9-7.2,7.9V93.4H306V57.2h13.7v7.5h.2Z" fill="#fff"/>
        </g>
        <g style="isolation: isolate">
          <path d="M334,75.4c0-9.9,7.2-19.1,20.3-19.1,11.4,0,19.9,6.8,19.9,18.4a13.43,13.43,0,0,1-.4,3.3H347.1c0,2.1,3.1,5.4,9.3,5.4a15,15,0,0,0,9.7-3.5l5.8,7.9c-4.6,4.6-11,6.2-16.8,6.2C342.1,94.1,334,85.8,334,75.4Zm13.3-3.9h14.3c-.2-3.5-3.5-5.2-7-5.2S347.5,68,347.3,71.5Z" fill="#fff"/>
        </g>
        <g style="isolation: isolate">
          <path d="M387,80.2c.6,3.3,3.1,4.3,6,4.3,2.1,0,3.3-.6,3.3-1.9,0-.6-.2-1.2-2.5-1.9l-4.1-1.4c-2.1-.8-11.4-3.1-11.4-11,0-7.2,6.4-12,14.7-12,6.4,0,11.6,2.5,14.3,9.3l-10.4,2.9a4.15,4.15,0,0,0-4.1-2.9c-1.4,0-2.3.8-2.3,1.7s.8,1.2,2.5,1.9l3.9,1.7c7.9,2.7,11.4,6.6,11.6,11.6,0,8.1-7.5,11.8-15.7,11.8-9.1,0-15.1-3.7-16.4-11.6Z" fill="#fff"/>
        </g>
        <g style="isolation: isolate">
          <path d="M429.7,94.1c-6.4,0-13.9-2.7-13.9-13.3V67.3h-5V57h6.4l1.9-8.7h10.8v8.9h8.7V67.6h-8.7V81.3c0,1.7.8,2.3,1.7,2.3,1.4,0,1.9-1.4,1.9-2.7a8.15,8.15,0,0,0-.6-3.3H442a8.21,8.21,0,0,1,1.2,4.3C442.9,91.6,435.9,94.1,429.7,94.1Z" fill="#fff"/>
        </g>
        <g style="isolation: isolate">
          <path d="M498.4,45.2V57.6h-13V93.4H471.1V57.6H458.5V45.2Z" fill="#fff"/>
        </g>
        <g style="isolation: isolate">
          <path d="M514.6,64.6c1.2-7.5,8.3-8.5,10.1-8.5a8.61,8.61,0,0,1,2.1.2V70.2a22.21,22.21,0,0,0-4.6-.4c-5.8,0-7.2,3.9-7.2,7.9V93.4H500.7V57.2h13.7v7.5h.2Z" fill="#fff"/>
        </g>
        <g style="isolation: isolate">
          <path d="M556.2,88.9c-1.9,3.3-5.6,5.2-10.4,5.2-9.7,0-17-7.9-17-18.8s7.5-18.8,17-18.8c4.8,0,8.5,2.1,10.4,5.4V57.3h14.3V93.5H556.2Zm-6.4-5.6c4.1,0,6.6-3.5,6.6-8.1s-2.5-8.1-6.6-8.1-6.6,3.5-6.6,8.1S545.6,83.3,549.8,83.3Z" fill="#fff"/>
          <path d="M584.2,42.3c5.4,0,7.9,2.7,7.9,6.4,0,3.5-2.9,6.4-7.9,6.4-5.2,0-7.9-2.7-7.9-6.4S578.8,42.3,584.2,42.3Zm7.2,14.9H577.1V93.4h14.3Z" fill="#fff"/>
          <path d="M612.3,93.4H598V43.7h14.3Z" fill="#fff"/>
        </g>
        <g style="isolation: isolate">
          <path d="M134.4,137.3l-13.3-28.6-2.7,29h-1l2.7-30.2h1.7l13.3,28.6,13.3-28.6h1.7l2.7,30.2h-1l-2.7-29-13.3,28.6Z" fill="#fff" stroke="#fff" stroke-miterlimit="10" stroke-width="0.5"/>
        </g>
        <g style="isolation: isolate">
          <path d="M134.4,137.3l-13.3-28.6-2.7,29h-1l2.7-30.2h1.7l13.3,28.6,13.3-28.6h1.7l2.7,30.2h-1l-2.7-29-13.3,28.6Z" fill="#fff" stroke="#fff" stroke-miterlimit="10" stroke-width="0.5"/>
        </g>
        <g style="isolation: isolate">
          <path d="M178.5,134.8a12,12,0,0,1-8.5,3.3c-7.2,0-11.8-5-11.8-11.2a11.1,11.1,0,0,1,11.4-11.2c5.2,0,9.9,3.1,10.4,10.1H159.3V127c0,5.6,4.3,10.1,10.8,10.1A11.22,11.22,0,0,0,178,134Zm-19.1-9.7h19.5a8.85,8.85,0,0,0-9.1-8.3A10.34,10.34,0,0,0,159.4,125.1Z" fill="#fff" stroke="#fff" stroke-miterlimit="10" stroke-width="0.5"/>
        </g>
        <g style="isolation: isolate">
          <path d="M178.5,134.8a12,12,0,0,1-8.5,3.3c-7.2,0-11.8-5-11.8-11.2a11.1,11.1,0,0,1,11.4-11.2c5.2,0,9.9,3.1,10.4,10.1H159.3V127c0,5.6,4.3,10.1,10.8,10.1A11.22,11.22,0,0,0,178,134Zm-19.1-9.7h19.5a8.85,8.85,0,0,0-9.1-8.3A10.34,10.34,0,0,0,159.4,125.1Z" fill="#fff" stroke="#fff" stroke-miterlimit="10" stroke-width="0.5"/>
        </g>
        <g style="isolation: isolate">
          <path d="M181.6,137.7l9.9-11.4-8.5-9.9h1.4l7.9,9.1,7.9-9.1h1.4l-8.5,9.9,9.9,11.4h-1.4l-9.3-10.8L183,137.7Z" fill="#fff" stroke="#fff" stroke-miterlimit="10" stroke-width="0.5"/>
          <path d="M207.9,107.3c.6,0,1,.4,1,1.2s-.4,1.2-1,1.2-1-.4-1-1.2C207.1,107.7,207.5,107.3,207.9,107.3Zm-.4,9.1v21.3h1V116.4Z" fill="#fff" stroke="#fff" stroke-miterlimit="10" stroke-width="0.5"/>
        </g>
        <g style="isolation: isolate">
          <path d="M181.6,137.7l9.9-11.4-8.5-9.9h1.4l7.9,9.1,7.9-9.1h1.4l-8.5,9.9,9.9,11.4h-1.4l-9.3-10.8L183,137.7Z" fill="#fff" stroke="#fff" stroke-miterlimit="10" stroke-width="0.5"/>
          <path d="M207.9,107.3c.6,0,1,.4,1,1.2s-.4,1.2-1,1.2-1-.4-1-1.2C207.1,107.7,207.5,107.3,207.9,107.3Zm-.4,9.1v21.3h1V116.4Z" fill="#fff" stroke="#fff" stroke-miterlimit="10" stroke-width="0.5"/>
        </g>
        <g style="isolation: isolate">
          <path d="M226.7,115.8a12.45,12.45,0,0,1,7.2,2.3l-.6.8a10.89,10.89,0,0,0-6.6-2.3c-7,0-11,4.6-11,10.1.2,5.6,3.9,10.1,11,10.1a10.7,10.7,0,0,0,6.6-2.3l.6.8a13.31,13.31,0,0,1-7.2,2.3c-7.7,0-12-5-12.2-11.2C214.7,120.8,219.1,115.8,226.7,115.8Z" fill="#fff" stroke="#fff" stroke-miterlimit="10" stroke-width="0.5"/>
        </g>
        <g style="isolation: isolate">
          <path d="M226.7,115.8a12.45,12.45,0,0,1,7.2,2.3l-.6.8a10.89,10.89,0,0,0-6.6-2.3c-7,0-11,4.6-11,10.1.2,5.6,3.9,10.1,11,10.1a10.7,10.7,0,0,0,6.6-2.3l.6.8a13.31,13.31,0,0,1-7.2,2.3c-7.7,0-12-5-12.2-11.2C214.7,120.8,219.1,115.8,226.7,115.8Z" fill="#fff" stroke="#fff" stroke-miterlimit="10" stroke-width="0.5"/>
        </g>
        <g style="isolation: isolate">
          <path d="M248.5,115.8a11.2,11.2,0,1,1,0,22.4A11.18,11.18,0,0,1,237.3,127,11.45,11.45,0,0,1,248.5,115.8Zm0,21.3A10.14,10.14,0,0,0,258.6,127a10.4,10.4,0,0,0-10.1-10.4,10.25,10.25,0,0,0,0,20.5Z" fill="#fff" stroke="#fff" stroke-miterlimit="10" stroke-width="0.5"/>
          <path d="M289.3,132.2a3.5,3.5,0,0,1,.2,1,4.88,4.88,0,0,1-5.2,5c-2.7,0-5.6-1-5.6-7V117.3h-3.9v-1h3.9l.2-7.2h.8v7.2h7.2v1h-7.2v13.8c0,5.2,2.3,6,4.6,6a3.84,3.84,0,0,0,4.1-3.9s0-.8-.2-1Z" fill="#fff" stroke="#fff" stroke-miterlimit="10" stroke-width="0.5"/>
          <path d="M303.2,115.8a11.2,11.2,0,1,1,0,22.4,11.2,11.2,0,1,1,0-22.4Zm0,21.3A10.14,10.14,0,0,0,313.3,127a10.4,10.4,0,0,0-10.1-10.4A10.2,10.2,0,0,0,293.1,127,9.89,9.89,0,0,0,303.2,137.1Z" fill="#fff" stroke="#fff" stroke-miterlimit="10" stroke-width="0.5"/>
        </g>
        <g style="isolation: isolate">
          <path d="M248.5,115.8a11.2,11.2,0,1,1,0,22.4A11.18,11.18,0,0,1,237.3,127,11.45,11.45,0,0,1,248.5,115.8Zm0,21.3A10.14,10.14,0,0,0,258.6,127a10.4,10.4,0,0,0-10.1-10.4,10.25,10.25,0,0,0,0,20.5Z" fill="#fff" stroke="#fff" stroke-miterlimit="10" stroke-width="0.5"/>
          <path d="M289.3,132.2a3.5,3.5,0,0,1,.2,1,4.88,4.88,0,0,1-5.2,5c-2.7,0-5.6-1-5.6-7V117.3h-3.9v-1h3.9l.2-7.2h.8v7.2h7.2v1h-7.2v13.8c0,5.2,2.3,6,4.6,6a3.84,3.84,0,0,0,4.1-3.9s0-.8-.2-1Z" fill="#fff" stroke="#fff" stroke-miterlimit="10" stroke-width="0.5"/>
          <path d="M303.2,115.8a11.2,11.2,0,1,1,0,22.4,11.2,11.2,0,1,1,0-22.4Zm0,21.3A10.14,10.14,0,0,0,313.3,127a10.4,10.4,0,0,0-10.1-10.4A10.2,10.2,0,0,0,293.1,127,9.89,9.89,0,0,0,303.2,137.1Z" fill="#fff" stroke="#fff" stroke-miterlimit="10" stroke-width="0.5"/>
        </g>
        <g style="isolation: isolate">
          <path d="M356.8,134.2l.4,1a15,15,0,0,1-9.7,3.1c-10.4,0-16.4-7.2-16.4-15.5s6-15.5,16.4-15.5a15,15,0,0,1,9.7,3.1l-.4.8a14.25,14.25,0,0,0-9.3-3.1c-9.5,0-15.1,6.6-15.1,14.5s5.5,14.5,15.1,14.5A15.37,15.37,0,0,0,356.8,134.2Z" fill="#fff" stroke="#fff" stroke-miterlimit="10" stroke-width="0.5"/>
        </g>
        <g style="isolation: isolate">
          <path d="M356.8,134.2l.4,1a15,15,0,0,1-9.7,3.1c-10.4,0-16.4-7.2-16.4-15.5s6-15.5,16.4-15.5a15,15,0,0,1,9.7,3.1l-.4.8a14.25,14.25,0,0,0-9.3-3.1c-9.5,0-15.1,6.6-15.1,14.5s5.5,14.5,15.1,14.5A15.37,15.37,0,0,0,356.8,134.2Z" fill="#fff" stroke="#fff" stroke-miterlimit="10" stroke-width="0.5"/>
        </g>
        <g style="isolation: isolate">
          <path d="M371.7,115.8a10.41,10.41,0,0,1,10.1,6.6v-6.2h1v21.3h-1v-6.2a10.25,10.25,0,0,1-9.9,6.6c-6.6,0-11-5-11-11.2C360.9,121,364.7,115.8,371.7,115.8Zm0,21.3a10.1,10.1,0,0,0,0-20.2c-6.2,0-9.7,4.6-9.7,10.1C362,132.8,365.7,137.1,371.7,137.1Z" fill="#fff" stroke="#fff" stroke-miterlimit="10" stroke-width="0.5"/>
          <path d="M391.6,137.7h-1V116.4h1v5.2a9.37,9.37,0,0,1,8.1-5.8c4.3,0,9.1,1.9,9.1,9.5v12.4h-1V125.3c0-6.8-4.3-8.5-8.1-8.5-2.7,0-8.1,2.1-8.1,9.3Z" fill="#fff" stroke="#fff" stroke-miterlimit="10" stroke-width="0.5"/>
          <path d="M425.5,115.8a10.41,10.41,0,0,1,10.1,6.6v-6.2h1v21.3h-1v-6.2a10.25,10.25,0,0,1-9.9,6.6c-6.6,0-11-5-11-11.2C414.6,121,418.5,115.8,425.5,115.8Zm0,21.3a10.1,10.1,0,0,0,0-20.2c-6.2,0-9.7,4.6-9.7,10.1C415.6,132.8,419.5,137.1,425.5,137.1Z" fill="#fff" stroke="#fff" stroke-miterlimit="10" stroke-width="0.5"/>
          <path d="M463.4,106.5h1v31.3h-1v-6.2a10.25,10.25,0,0,1-9.9,6.6c-6.6,0-11-5-11-11.2s4.1-11.2,11-11.2c4.8,0,8.5,2.5,9.9,6.6Zm-9.9,10.3c-6,0-9.9,4.3-9.9,10.1s3.7,10.1,9.9,10.1a10.1,10.1,0,0,0,0-20.2Z" fill="#fff" stroke="#fff" stroke-miterlimit="10" stroke-width="0.5"/>
          <path d="M481.5,115.8a10.41,10.41,0,0,1,10.1,6.6v-6.2h1v21.3h-1v-6.2a10.25,10.25,0,0,1-9.9,6.6c-6.6,0-11-5-11-11.2C470.5,121,474.4,115.8,481.5,115.8Zm0,21.3a10.1,10.1,0,0,0,0-20.2c-6.2,0-9.7,4.6-9.7,10.1C471.7,132.8,475.4,137.1,481.5,137.1Z" fill="#fff" stroke="#fff" stroke-miterlimit="10" stroke-width="0.5"/>
        </g>
        <g style="isolation: isolate">
          <path d="M371.7,115.8a10.41,10.41,0,0,1,10.1,6.6v-6.2h1v21.3h-1v-6.2a10.25,10.25,0,0,1-9.9,6.6c-6.6,0-11-5-11-11.2C360.9,121,364.7,115.8,371.7,115.8Zm0,21.3a10.1,10.1,0,0,0,0-20.2c-6.2,0-9.7,4.6-9.7,10.1C362,132.8,365.7,137.1,371.7,137.1Z" fill="#fff" stroke="#fff" stroke-miterlimit="10" stroke-width="0.5"/>
          <path d="M391.6,137.7h-1V116.4h1v5.2a9.37,9.37,0,0,1,8.1-5.8c4.3,0,9.1,1.9,9.1,9.5v12.4h-1V125.3c0-6.8-4.3-8.5-8.1-8.5-2.7,0-8.1,2.1-8.1,9.3Z" fill="#fff" stroke="#fff" stroke-miterlimit="10" stroke-width="0.5"/>
          <path d="M425.5,115.8a10.41,10.41,0,0,1,10.1,6.6v-6.2h1v21.3h-1v-6.2a10.25,10.25,0,0,1-9.9,6.6c-6.6,0-11-5-11-11.2C414.6,121,418.5,115.8,425.5,115.8Zm0,21.3a10.1,10.1,0,0,0,0-20.2c-6.2,0-9.7,4.6-9.7,10.1C415.6,132.8,419.5,137.1,425.5,137.1Z" fill="#fff" stroke="#fff" stroke-miterlimit="10" stroke-width="0.5"/>
          <path d="M463.4,106.5h1v31.3h-1v-6.2a10.25,10.25,0,0,1-9.9,6.6c-6.6,0-11-5-11-11.2s4.1-11.2,11-11.2c4.8,0,8.5,2.5,9.9,6.6Zm-9.9,10.3c-6,0-9.9,4.3-9.9,10.1s3.7,10.1,9.9,10.1a10.1,10.1,0,0,0,0-20.2Z" fill="#fff" stroke="#fff" stroke-miterlimit="10" stroke-width="0.5"/>
          <path d="M481.5,115.8a10.41,10.41,0,0,1,10.1,6.6v-6.2h1v21.3h-1v-6.2a10.25,10.25,0,0,1-9.9,6.6c-6.6,0-11-5-11-11.2C470.5,121,474.4,115.8,481.5,115.8Zm0,21.3a10.1,10.1,0,0,0,0-20.2c-6.2,0-9.7,4.6-9.7,10.1C471.7,132.8,475.4,137.1,481.5,137.1Z" fill="#fff" stroke="#fff" stroke-miterlimit="10" stroke-width="0.5"/>
        </g>
        <g style="isolation: isolate">
          <path d="M214.5,15.4c-.8,3.3-1.7,6.4-1.7,7.7,0,.4,1.2,1.9,1.2,2.3,0,.6-2.1,2.1-2.7,2.1-.4,0-2.7-2.7-2.7-4.1a69.39,69.39,0,0,1,1.7-7.9h-5.8s-3.3,6.8-4.1,8.1-4.3,3.7-6.4,3.7c-1.9,0-6.8-5.8-6.8-6.6,0-.6,1.9-2.3,2.7-2.3.4,0,.4.2.6.4.8,1.7,3.1,6,3.9,6a2.79,2.79,0,0,0,2.1-1.4c.6-1.2,3.7-7.7,3.7-7.7h-4.6a.43.43,0,0,1-.4-.4c0-.4.4-1.7,1-1.7H201s3.9-8.5,4.8-9.9S210.6,0,212,0a8.25,8.25,0,0,1,2.9,1.2S216.3,0,217,0s2.1,1.2,2.1,1.9c0,.4-1.9,1.9-2.3,2.9-.6,2.3-1.7,5.8-2.5,8.7h1.4a.43.43,0,0,1,.4.4c0,.4-.4,1.7-1,1.7C215.1,15.4,214.5,15.4,214.5,15.4ZM211.8,2.1a1.64,1.64,0,0,0-1.2.8c-1,1.7-5,10.4-5,10.4H211c1-3.5,2.5-9.1,3.3-10.4A4.78,4.78,0,0,0,211.8,2.1Z" fill="#fff"/>
          <path d="M239,24.5c.6,0,1.2-1.2,1.2-1.2a.73.73,0,0,1-.2-.6,3.33,3.33,0,0,1,2.7-2.5A55.49,55.49,0,0,0,246,9.8c.2-.6.2-.8,1-.8s2.5,1,2.5,2.1-2.7,8.1-4.8,11a2.72,2.72,0,0,0,1.7.6c2.9,0,4.8-4.1,4.8-4.1s.4-.6.8-.6,1,.4,1,.8a6.2,6.2,0,0,1-.4,1.4s-2.3,4.8-6.2,4.8a11.16,11.16,0,0,1-3.3-.4c-1.7,1.9-3.1,2.9-5.4,2.9-.8,0-3.3-1.4-3.7-2.5-.6.6-2.7,2.5-4.1,2.5-1.7,0-4.1-1.9-4.1-2.9,0-2.5,2.7-12.2,3.3-14.7.2-.6.4-.8.8-.8.6,0,2.7,1.2,2.7,1.7s0,.6-.2.8c-.4,1.7-2.9,10.4-2.9,11.8a1.28,1.28,0,0,0,1,1c1.4,0,3.7-3.1,4.1-4.6l2.7-10.1c.2-.6.4-.8.8-.8.6,0,2.7,1.2,2.7,1.7s0,.6-.2.8c-.4,1.7-2.9,10.4-2.9,11.8C237.9,23.9,238.5,24.5,239,24.5Z" fill="#fff"/>
          <path d="M269.8,17.6c.4,0,1,.4,1,.8a6.2,6.2,0,0,1-.4,1.4c-2.1,3.9-4.1,7.5-6.8,7.5-1.7,0-4.1-1.4-4.3-2.5,0,0-2.3,2.5-4.3,2.5-1.4,0-4.3-2.1-4.3-3.9,0-5.2,4.6-14.5,7.7-14.5,2.1,0,4.8,1.9,4.8,1.9,1,0,2.9.2,2.9,1,0,1.2-2.7,9.7-2.7,11.6,0,.8.4,1.2,1,1.2,1.2,0,3.3-3.1,5.2-6.6C269,18.3,269.2,17.6,269.8,17.6Zm-10.5-6c-2.1,0-5.2,7.7-5.2,11.4,0,.8.6,1.7,1.2,1.7.8,0,2.3-1,3.3-3.3a40.41,40.41,0,0,0,2.3-8.3C261.3,12.3,259.9,11.6,259.3,11.6Z" fill="#fff"/>
          <path d="M273.7,1.5c.6,0,2.7,1.2,2.7,1.7s0,.6-.2.8c-.4,1.7-5,18.2-5,19.5a1.12,1.12,0,0,0,1,1.2c1.2,0,3.3-3.1,5.2-6.6,0,0,.4-.6.8-.6s1,.4,1,.8a6.2,6.2,0,0,1-.4,1.4c-2.1,3.9-4.1,7.5-6.8,7.5-1.2,0-4.3-1.4-4.3-2.9,0-2.5,4.8-19.7,5.4-22C273.1,1.7,273.3,1.5,273.7,1.5Z" fill="#fff"/>
          <path d="M288,27.2c-2.3,0-6-6.4-6-7.5,0-.4,0-.6.6-1,3.1-2.5,4.1-4.8,4.1-5.6a1.29,1.29,0,0,0-1.2-1.2c-1,0-3.3,1.7-3.9,3.3-1,3.3-2.7,9.9-2.9,11.2-.2.4-.2.8-.8.8s-2.5-.8-2.5-1.7c0-1.4,4.8-19.7,5.8-23.2.2-.6.4-.8.8-.8.6,0,2.7,1.2,2.7,1.7s0,.6-.2.8c-.8,3.3-1.9,7.2-1.9,7.2s2.9-2.5,4.8-2.5c1.4,0,3.5,2.1,3.5,3.3,0,2.7-5.6,6.6-5.6,6.6.2.8,2.5,4.8,3.5,4.8,1.2,0,2.3-1.9,4.1-5.4,0,0,.4-.6.8-.6s1,.4,1,.8a6.2,6.2,0,0,1-.4,1.4C292.4,23.6,290.5,27.2,288,27.2Z" fill="#fff"/>
          <path d="M320.1,17.6c.4,0,1,.4,1,.8a6.2,6.2,0,0,1-.4,1.4c-2.1,3.9-4.1,7.5-6.8,7.5-1.7,0-4.1-1.4-4.3-2.5,0,0-2.3,2.5-4.3,2.5-1.4,0-4.3-2.1-4.3-3.9,0-5.2,4.6-14.5,7.7-14.5,2.1,0,4.8,1.9,4.8,1.9,1,0,2.9.2,2.9,1,0,1.2-2.7,9.7-2.7,11.6,0,.8.4,1.2,1,1.2,1.2,0,3.3-3.1,5.2-6.6C319.3,18.3,319.7,17.6,320.1,17.6Zm-10.3-6c-2.1,0-5.2,7.7-5.2,11.4,0,.8.6,1.7,1.2,1.7.8,0,2.3-1,3.3-3.3a40.41,40.41,0,0,0,2.3-8.3C311.6,12.3,310.4,11.6,309.8,11.6Z" fill="#fff"/>
          <path d="M324.3,1.5c.6,0,2.7,1.2,2.7,1.7s0,.6-.2.8c-.4,1.7-5,18.2-5,19.5a1.12,1.12,0,0,0,1,1.2c1.2,0,3.3-3.1,5.2-6.6,0,0,.4-.6.8-.6s1,.4,1,.8a6.2,6.2,0,0,1-.4,1.4c-2.1,3.9-4.1,7.5-6.8,7.5-1.2,0-4.3-1.4-4.3-2.9,0-2.5,4.8-19.7,5.4-22C323.4,1.7,323.9,1.5,324.3,1.5Z" fill="#fff"/>
          <path d="M339.8,22.6c2.9,0,4.8-4.1,4.8-4.1s.4-.6.8-.6,1,.4,1,.8a6.2,6.2,0,0,1-.4,1.4s-2.3,4.8-6.2,4.8a13,13,0,0,1-2.1-.4c-1.2,1.7-2.5,2.9-4.1,2.9-2.7,0-6.4-2.5-6.4-5.4,0-5.4,3.9-12.8,8.1-12.8,2.3,0,6,2.5,6,4.6a24.45,24.45,0,0,1-2.3,8.9C338.8,22.4,339.4,22.6,339.8,22.6Zm-1.9-9.5c0-.8-1.2-1.4-1.7-1.4-2.1,0-5.4,6.8-5.4,11.2a2.25,2.25,0,0,0,1.9,2.1,1.45,1.45,0,0,0,1.2-1.2c-.6-.4-1-.4-1-.8,0-.8,1.7-2.3,2.7-2.3A21.85,21.85,0,0,0,337.9,13.1Z" fill="#fff"/>
          <path d="M346,26.3c-.2.4-.2.8-.8.8s-2.5-.8-2.5-1.7,2.9-13,3.7-15.7a1.1,1.1,0,0,1,1.2-.8c.6,0,2.1,2.1,2.1,2.1s2.7-2.1,5-2.1c1,0,3.1,1.7,3.1,3.1,0,1.9-2.7,9.5-2.7,11.6a1.12,1.12,0,0,0,1,1.2c1.2,0,3.3-3.1,5.2-6.6,0,0,.4-.6.8-.6s1,.4,1,.8a6.2,6.2,0,0,1-.4,1.4c-2.1,3.9-4.1,7.5-6.8,7.5-1.2,0-4.3-1.4-4.3-2.9,0-2.5,2.5-10.4,2.5-11.8a1.07,1.07,0,0,0-1-1,5.16,5.16,0,0,0-3.9,2.9C348.3,17,346.4,25.1,346,26.3Z" fill="#fff"/>
          <path d="M364.7,27.2c-1.4,0-4.3-2.1-4.3-3.9,0-5.2,4.8-14.5,8.1-14.5,2.1,0,4.3,1.9,4.3,1.9,1,0,2.9.2,2.9,1s-1.9,7.5-3.3,13.3a20.76,20.76,0,0,0,6-6.8s.4-.6.8-.6,1,.4,1,.8a6.2,6.2,0,0,1-.4,1.4,21.14,21.14,0,0,1-7.9,8.1A93.25,93.25,0,0,1,369,37c-.6,1.2-2.7,1.9-4.3,1.9-2.1,0-4.3-2.5-4.3-3.7,0-3.1,4.6-5.4,7.9-7.5l.6-2.7C368.8,24.9,366.5,27.2,364.7,27.2Zm2.6,3.1c-2.1,1.2-5,3.1-5,4.6a1.34,1.34,0,0,0,1.2,1.4,2.35,2.35,0,0,0,2.1-1.2A26.19,26.19,0,0,0,367.3,30.3Zm2.3-18.7c-2.1,0-5.4,7.7-5.4,11.4,0,.8.6,1.7,1.2,1.7.8,0,2.3-1,3.3-3.3a40.41,40.41,0,0,0,2.3-8.3C371.3,12.3,370.2,11.6,369.6,11.6Z" fill="#fff"/>
          <path d="M391.4,2.7c.6,0,2.7,1.2,2.7,1.7s0,.6-.2.8a32.71,32.71,0,0,0-1,3.9h3.3a.43.43,0,0,1,.4.4c0,.4-.4,1.9-1,1.9h-3.3c-1.2,4.8-2.7,10.6-2.7,11.2,0,1,.8,2.1,1.7,2.1,1.2,0,3.3-3.1,5.2-6.6,0,0,.4-.6.8-.6s1,.4,1,.8a6.2,6.2,0,0,1-.4,1.4c-2.1,3.9-4.1,7.5-6.8,7.5-1.9,0-5.2-1.7-5.2-3.5,0-1.4,1.4-7,2.7-12h-1a.43.43,0,0,1-.4-.4c0-.4.4-1.9,1-1.9h1l1.7-5.8C390.8,2.9,391,2.7,391.4,2.7Z" fill="#fff"/>
          <path d="M401.1,1.5c.6,0,2.7,1.2,2.7,1.7s0,.6-.2.8c-.8,3.3-1.9,6.6-1.9,6.6s2.5-2.1,5-2.1c1,0,3.1,1.7,3.1,3.1,0,1.9-2.7,9.5-2.7,11.6a1.12,1.12,0,0,0,1,1.2c1.2,0,3.3-3.1,5.2-6.6,0,0,.4-.6.8-.6s1,.4,1,.8a6.2,6.2,0,0,1-.4,1.4c-2.1,3.9-4.1,7.5-6.8,7.5-1.2,0-4.3-1.4-4.3-2.9,0-2.5,2.5-9.9,2.5-11.4a1.29,1.29,0,0,0-1.2-1.2,4.88,4.88,0,0,0-3.7,3.1c-1,3.3-2.9,10.4-3.1,11.6-.2.4-.2.8-.8.8s-2.5-.8-2.5-1.7c0-1.4,4.8-19.7,5.8-23.2C400.3,1.7,400.7,1.5,401.1,1.5Z" fill="#fff"/>
          <path d="M416.6,21.2a3.84,3.84,0,0,0,3.9,3.7c2.1,0,4.6-2.3,6.6-6.6,0,0,.4-.6.8-.6s1,.4,1,.8a6.2,6.2,0,0,1-.4,1.4c-2.3,4.3-5.2,7.5-8.7,7.5-2.9,0-7.2-2.7-7.2-5.6,0-6,4.3-12.6,7.9-12.6,2.5,0,5,2.1,5,3.5,0,2.7-2.7,8.1-5.2,8.1a12.87,12.87,0,0,1-3.5-.6C416.6,20.3,416.6,20.7,416.6,21.2Zm5.6-8.9a1.28,1.28,0,0,0-1-1c-1.7,0-3.9,4.6-4.3,7C420.2,18.5,422.2,13.9,422.2,12.3Z" fill="#fff"/>
        </g>
      </g>
    </g>
  </g>
</svg>
