<svg xmlns="http://www.w3.org/2000/svg" width="624.12" height="147.09" viewBox="0 0 624.12 147.09">
  <title>header</title>
  <g id="Layer_2" data-name="Layer 2">
    <g id="Layer_2_Rock">
      <g>
        <path d="M25.31,54.34A4.66,4.66,0,0,1,30,59V80.26a4.78,4.78,0,0,1-4.66,4.66H10.67V95.71H0V54.34ZM18.76,76.16a.59.59,0,0,0,.55-.55V63.84a.6.6,0,0,0-.55-.61H10.67V76.16Z" fill="#fff"/>
        <path d="M70.3,95.71H59.64V85.41H50.26v10.3H39.59V59.18a4.6,4.6,0,0,1,4.84-4.84h21a4.6,4.6,0,0,1,4.84,4.84ZM59.64,76.46V64c0-.74-.61-1.23-1.47-1.23H51.55A1.24,1.24,0,0,0,50.26,64V76.46Z" fill="#fff"/>
        <path d="M111.67,80.26V91a4.75,4.75,0,0,1-4.84,4.72H86.05A4.65,4.65,0,0,1,81.33,91V59a4.71,4.71,0,0,1,4.72-4.66h20.78A4.82,4.82,0,0,1,111.67,59V69.66H101V63.9a.67.67,0,0,0-.55-.67H92.67a.68.68,0,0,0-.67.67V86.15a.63.63,0,0,0,.67.61h7.78a.61.61,0,0,0,.55-.61V80.26Z" fill="#fff"/>
        <path d="M132.39,95.71h-10.6V54.34h10.6Z" fill="#fff"/>
        <path d="M144.15,54.34h26.23v8.89H154.76V72.6h13.48v8.83H154.76V95.71h-10.6Z" fill="#fff"/>
        <path d="M190.31,95.71H179.7V54.34h10.6Z" fill="#fff"/>
        <path d="M232,80.26V91a4.75,4.75,0,0,1-4.84,4.72H206.43A4.65,4.65,0,0,1,201.71,91V59a4.71,4.71,0,0,1,4.72-4.66H227.2A4.82,4.82,0,0,1,232,59V69.66H221.38V63.9a.67.67,0,0,0-.55-.67H213a.68.68,0,0,0-.67.67V86.15a.63.63,0,0,0,.67.61h7.78a.61.61,0,0,0,.55-.61V80.26Z" fill="#fff"/>
        <path d="M287,80.26V91a4.75,4.75,0,0,1-4.84,4.72H261.4A4.65,4.65,0,0,1,256.68,91V59a4.71,4.71,0,0,1,4.72-4.66h20.78A4.82,4.82,0,0,1,287,59V69.66H276.36V63.9a.67.67,0,0,0-.55-.67H268a.68.68,0,0,0-.67.67V86.15a.63.63,0,0,0,.67.61h7.78a.61.61,0,0,0,.55-.61V80.26Z" fill="#fff"/>
        <path d="M323.25,54.34A4.66,4.66,0,0,1,327.9,59V77.93a4.74,4.74,0,0,1-4.66,4.66h-.31L328,95.71H317.61l-5.15-13.12h-4.54V95.71H297.26V54.34Zm-5.95,9.5a.66.66,0,0,0-.55-.61h-8.83v11h8.83a.65.65,0,0,0,.55-.55Z" fill="#fff"/>
        <path d="M338.87,54.34h27v8.89H349.48v7.23H363.7v8.83H349.48v7.48H365.9v8.95h-27Z" fill="#fff"/>
        <path d="M375.34,86.76h15.51c.43,0,.67-.25.67-.55v-6c0-.31-.25-.55-.67-.55H380.18a4.6,4.6,0,0,1-4.84-4.84V59.18a4.6,4.6,0,0,1,4.84-4.84h21.39v8.89h-15a.63.63,0,0,0-.61.67V70a.61.61,0,0,0,.61.55h10.67a4.6,4.6,0,0,1,4.84,4.84V90.87a4.6,4.6,0,0,1-4.84,4.84H375.34Z" fill="#fff"/>
        <path d="M438.35,54.34v8.95H429V95.71H418.3V63.29h-9.38V54.34Z" fill="#fff"/>
        <path d="M486.7,54.34v8.95h-9.38V95.71H466.66V63.29h-9.38V54.34Z" fill="#fff"/>
        <path d="M520.6,54.34A4.66,4.66,0,0,1,525.26,59V77.93a4.74,4.74,0,0,1-4.66,4.66h-.31l5.09,13.12H515l-5.15-13.12h-4.54V95.71H494.61V54.34Zm-5.95,9.5a.66.66,0,0,0-.55-.61h-8.83v11h8.83a.65.65,0,0,0,.55-.55Z" fill="#fff"/>
        <path d="M566.57,95.71H555.9V85.41h-9.38v10.3H535.86V59.18a4.6,4.6,0,0,1,4.84-4.84h21a4.6,4.6,0,0,1,4.84,4.84ZM555.9,76.46V64c0-.74-.61-1.23-1.47-1.23h-6.62A1.24,1.24,0,0,0,546.52,64V76.46Z" fill="#fff"/>
        <path d="M588.57,95.71H578V54.34h10.6Z" fill="#fff"/>
        <path d="M600.33,54.34h10.6V86.76h13.18v8.95H600.33Z" fill="#fff"/>
      </g>
      <g>
        <path d="M203.72,32.33c-1.18,2.18-2.18,4-4.27,4a6.48,6.48,0,0,0-1.62.3c-.58,0-.74-.14-.74-.35a2.57,2.57,0,0,1,.23-.72c.09-.19,2.41-5.08,5.27-11.11-2.37-.09-6.12-.23-9.58-.33a94.11,94.11,0,0,0-7.19,10.44c-.51,1-.88,1.39-1.62,1.39a2.27,2.27,0,0,1-2.06-2c0-1.58,2.41-5.38,6-9.93-1.3,0-2.3,0-2.81,0-.77.07-1.32.23-1.72.23s-.63-.21-.63-1c0-1.42,1.67-2.71,4.57-2.71.42,0,1.41-.09,3.53-.14,6.22-7.31,14.43-15.26,20.13-18.14a1.9,1.9,0,0,1,1-.3,1.34,1.34,0,0,1,1,.58c.79-1.53.72-1.6,1.14-1.6.26,0,2.48,1.14,2.48,2.13a.78.78,0,0,1,0,.33C215.45,7.21,205,30,203.72,32.33ZM196,20.41c2.18,0,4.94.14,8.3.35,2.57-5.43,5.31-11.13,7.17-14.94A100.75,100.75,0,0,0,196,20.41Z" fill="#fff"/>
        <path d="M232.63,35.46a2.41,2.41,0,0,1-2.44-2.69,14.18,14.18,0,0,1,1.32-5.33c-2.69,3.53-7.26,8.42-10.11,8.42a1.94,1.94,0,0,1-2-2.18c0-2.3,2.9-8.51,4.66-11.18a1.65,1.65,0,0,1-.83.32,1.74,1.74,0,0,1-1.46-1.18.86.86,0,0,1,.21-.51c.37-.53,4.59-4.52,6.08-4.52.72,0,2.32.3,2.32,1.3S223.89,30,223.89,31c0,0,0,.07,0,.07.7,0,8.79-9.35,11.74-13.13a1.17,1.17,0,0,1,1-.58c.09,0,.14,0,.21,0a5.2,5.2,0,0,1,1.28-.25c.39,0,.88.39.88.7a.56.56,0,0,1-.09.3c-1.23,2.23-5.26,10.16-5.26,12.73,0,.21.07.42.3.42.44,0,1.48-.7,3.83-3.36,3.62-4.13,6.17-8.51,6.17-10.07,0-.49-.28-.49-.28-1.11a2.08,2.08,0,0,1,2.32-2c1.23,0,1.95.72,1.95,2.48C248,22.13,237.31,35.46,232.63,35.46Z" fill="#fff"/>
        <path d="M267.67,29.87a2.46,2.46,0,0,1-.14,1c-.63,1.23-4.17,5-7.28,5-2.41,0-3.46-1.92-3.46-3.87a5.43,5.43,0,0,1,.46-2.2c-2.55,3.32-6.31,6-8.63,6A3.67,3.67,0,0,1,245,32.63a6.53,6.53,0,0,1-.09-1.16c0-6.89,8.72-14.19,13.87-14.19,1.79,0,2.78.7,3,1.46.77-1.18,1.14-1.28,2.09-1.28s1.76.37,1.76,1.21a1.49,1.49,0,0,1-.32,1c-.35.37-4.22,6.7-5,10.88a2.53,2.53,0,0,0-.07.65c0,.58.16,1.28.74,1.28,1.86,0,5.13-4.1,5.5-4.43a.81.81,0,0,1,.51-.21.48.48,0,0,1,.49.44A11.62,11.62,0,0,1,267.67,29.87Zm-15.05-5.43c-2,2.11-4,5.64-4,7,0,.37.14.58.46.58.88,0,6.17-4.62,7.93-6.8,1-1.32,2.62-3.57,3.85-5.22C259.25,20,256.21,20.69,252.61,24.45Z" fill="#fff"/>
        <path d="M270.38,28a18.58,18.58,0,0,0-.37,2.23,2.28,2.28,0,0,0,2.5,2.32c2.9,0,6.1-4.78,7.1-4.78.6,0,.6,1.32.6,1.69v.46a3.07,3.07,0,0,1-1.09,2.2A12,12,0,0,1,271,36c-3.08,0-4.52-2-4.52-5,0-6.42,4.2-15.82,7.89-21,2.85-4,7.28-9.7,10.46-9.7a2.6,2.6,0,0,1,2.81,2.41C287.58,8,274.32,23.63,270.38,28ZM283.5,3.78c-1.23,0-7.82,9.46-8.74,11.13a48,48,0,0,0-3.43,7.84c2.25-2.67,12.41-16.12,12.41-18.62C283.73,3.94,283.69,3.78,283.5,3.78Z" fill="#fff"/>
        <path d="M297.3,29.87a2.47,2.47,0,0,1-.14,1c-.63,1.23-4.17,5-7.26,5-4.24,0-6.75-5.52-7.84-7.56-1.53,3-3.34,6.75-3.43,6.93s-.3.37-.46.37c-.44,0-1.14-.32-1.48-.32-.81-.14-.9-.51-1.28-1.14,0,0,0,0,0-.09s.19-.44.35-1c.74-2.53,15.86-29.41,16.3-29.92A2.94,2.94,0,0,1,294,1.88c1.32-.46,1.37-.74,1.74-.74a.71.71,0,0,1,.67.74V2c-.19.65-11.06,19.85-12.5,22.54,2.3-.9,8.84-6,8.88-7.26a1.83,1.83,0,0,1,1.95-1.81,1.66,1.66,0,0,1,1.72,1.76c-.14,3.8-7.35,9-10,10.07.67,1.81,2.13,5.08,4.31,5.08,1.95-.28,4.94-4,5.38-4.41a.81.81,0,0,1,.51-.21.48.48,0,0,1,.49.44A11.8,11.8,0,0,1,297.3,29.87Z" fill="#fff"/>
        <path d="M326.56,29.87a2.46,2.46,0,0,1-.14,1c-.63,1.23-4.17,5-7.28,5-2.41,0-3.46-1.92-3.46-3.87a5.43,5.43,0,0,1,.46-2.2c-2.55,3.32-6.31,6-8.63,6a3.67,3.67,0,0,1-3.62-3.18,6.53,6.53,0,0,1-.09-1.16c0-6.89,8.72-14.19,13.87-14.19,1.79,0,2.78.7,3,1.46.77-1.18,1.14-1.28,2.09-1.28s1.76.37,1.76,1.21a1.49,1.49,0,0,1-.32,1c-.35.37-4.22,6.7-5,10.88a2.53,2.53,0,0,0-.07.65c0,.58.16,1.28.74,1.28,1.86,0,5.13-4.1,5.5-4.43a.81.81,0,0,1,.51-.21.48.48,0,0,1,.49.44A11.62,11.62,0,0,1,326.56,29.87Zm-15.05-5.43c-2,2.11-4,5.64-4,7,0,.37.14.58.46.58.88,0,6.17-4.62,7.93-6.8,1-1.32,2.62-3.57,3.85-5.22C318.14,20,315.1,20.69,311.51,24.45Z" fill="#fff"/>
        <path d="M329.27,28a18.58,18.58,0,0,0-.37,2.23,2.28,2.28,0,0,0,2.5,2.32c2.9,0,6.1-4.78,7.1-4.78.6,0,.6,1.32.6,1.69v.46a3.07,3.07,0,0,1-1.09,2.2A12,12,0,0,1,329.85,36c-3.08,0-4.52-2-4.52-5,0-6.42,4.2-15.82,7.89-21,2.85-4,7.28-9.7,10.46-9.7a2.6,2.6,0,0,1,2.81,2.41C346.48,8,333.21,23.63,329.27,28ZM342.4,3.78c-1.23,0-7.82,9.46-8.74,11.13a48,48,0,0,0-3.43,7.84c2.25-2.67,12.41-16.12,12.41-18.62C342.63,3.94,342.58,3.78,342.4,3.78Z" fill="#fff"/>
        <path d="M339.54,35.72a3.76,3.76,0,0,1-3.8-3.85c0-8.47,9.21-15.54,13.52-15.54,1.39,0,2.16.72,2.16,1v.14a5.32,5.32,0,0,1,.79,0,2.32,2.32,0,0,1,2.39,2.44C354.59,24.54,346.22,35.72,339.54,35.72ZM349.93,20.5c-.46,0-.81-.23-.81-1.18a16,16,0,0,0-6.93,5.31c-2,2.57-2.92,5-2.95,6.35,0,.81.32,1.3,1,1.3,1,0,3.8-1.37,6.61-4.89,2.55-3.2,3.62-5.5,3.62-6.42,0-.3-.12-.46-.32-.46Z" fill="#fff"/>
        <path d="M373.72,31.91c-1.69,1.55-4.36,4-7.12,4a3.92,3.92,0,0,1-3.9-3.76c0-2.95,2.53-6.87,4.48-9.74a10.55,10.55,0,0,0,1.23-2.18l0,0c-1.21.09-7.49,6.7-8.65,8-1.74,1.92-3.32,3.94-4.85,6-.32.42-.9,1-1.46,1a6.77,6.77,0,0,1-2.13-.81.36.36,0,0,1-.16-.37c0-.77.88-2,1.39-2.85,2-3.48,4-6.89,6.08-10.3a29.94,29.94,0,0,1,2-3.29,4.54,4.54,0,0,1,3.53-1.32c.51,0,.56.51.56.9,0,1.09-2.32,4.27-3,5.36,2.23-2.46,5.8-6.22,9.37-6.22a2.07,2.07,0,0,1,2.18,2.09c0,1.42-2.81,5.17-3.71,6.56-.77,1.18-3.36,5-3.36,6.63,0,.74.72,1,1.39,1,2.2,0,6-4.75,6.63-4.75s.6,1.67.6,2.09A2.24,2.24,0,0,1,373.72,31.91Z" fill="#fff"/>
        <path d="M394.36,17.53c0,.3-.49.63-.56.74-2.69,3.85-6.31,9.42-10.48,16.77a47.06,47.06,0,0,1,9.88-7,1.3,1.3,0,0,1,.53-.14c.56,0,.6.81.6,2a2.47,2.47,0,0,1-.14,1c-.26.6-8.93,4.92-13.73,10.69a54,54,0,0,0-5,6.77,2.21,2.21,0,0,1-2,1A2.24,2.24,0,0,1,371,46.85c0-4.5,6.91-9,7.58-9.81.42-.63.42-.49,4.66-7.31-3.53,3.69-6.94,5.73-8.37,5.73-1.83,0-3.55-.58-3.55-3,0-8.4,11.48-16,16.65-16a2.19,2.19,0,0,1,2,.9c1.07-1.18,2.3-1.14,3.53-1.14.63,0,.63.72.81,1.18A.21.21,0,0,1,394.36,17.53ZM375,31.61c0,.25.07.39.21.39.56,0,5.87-3.43,13.48-12.92C379.14,21.18,375,29.69,375,31.61Z" fill="#fff"/>
        <path d="M410.66,14s-3.5.42-4,.42h-.21c-.65,0-1.92-.23-1.92-1.14,0-.35.58-.67.74-1.14.23-.72,2.13-1.74,2.9-1.81,1-.07,2-.09,3-.14l2.09-.09a41,41,0,0,1,3.18-4.29c.28-.37.32-.46.81-.46s.72-.14,1.09-.14c.58,0,.58.23,1,.23s.53.37.53.63A36.32,36.32,0,0,1,417.45,10c.3,0,1.74-.14,2.3-.14A5.44,5.44,0,0,1,421,10c.56.23.72.86,1.23,1.23a.77.77,0,0,1,.39.67c0,.93-1.16,1.3-1.86,1.37-2.13.21-3.8.44-5.94.56-1.67,2.57-8.51,14.26-8.84,16.58a7.47,7.47,0,0,0-.09.9c0,.9.39,1.14,1.14,1.14,2.23,0,6.26-4.64,6.84-4.64s.6,1.67.6,2.09a2.45,2.45,0,0,1-1,2C411.91,33.26,409,36,406.32,36a2.91,2.91,0,0,1-.65-.07c-2.37-.44-3.59-1.53-3.59-4.52C402.12,27.74,408.57,17.23,410.66,14Z" fill="#fff"/>
        <path d="M433.59,29.87a2.43,2.43,0,0,1-.16,1c-.7,1.41-4.24,5.08-8,5.08-2.3,0-3.83-1-3.83-3.39,0-3.13,3.94-9.72,5.38-12.2-2.57,1.81-11.62,12.06-13.54,14.73a2.85,2.85,0,0,1-1.6.72c-.51,0-.86-.39-1.09-.39s-.3,0-.3-.25a1.13,1.13,0,0,1,.09-.39C413,29,416.15,21.94,424.36,7.63a74.08,74.08,0,0,1,4-6.31A4.25,4.25,0,0,1,431.78,0c.33,0,.65,0,.65.9a2,2,0,0,1-.14.74c-.37.72-8.93,13.5-13.59,22.94,2.57-3.13,7.56-8.3,10.51-8.3a5.7,5.7,0,0,1,1.67.37c.65.25.79.9.79,1.58,0,1.18-6,11.55-6,13.38,0,.63.28.93.81.93a2.26,2.26,0,0,0,.63-.12c1.37-.37,4.94-4,5.36-4.41a.86.86,0,0,1,.51-.21.48.48,0,0,1,.49.44A11.06,11.06,0,0,1,433.59,29.87Z" fill="#fff"/>
        <path d="M443.58,21.59c-.74,0-.83-.37-.83-1a2.33,2.33,0,0,1,.09-.6,11,11,0,0,0-1.9.91c-.77.42-3.94,2.5-3.94,3.36,0,.19.37.19.46.19,1.25,0,2.3-.76,3.48-.76a1.59,1.59,0,0,1,.46,0,2.73,2.73,0,0,1,1,1.53c0,.39-.51.79-.81,1a11.46,11.46,0,0,1-2.18,1c-1,.53-4.89,2.71-4.89,3.76,0,1.62,1.86,1.81,3.08,1.81,3.39,0,6.61-3.2,8.74-4.8a1.11,1.11,0,0,1,.53-.23c.6,0,.6,1.42.6,1.83a3.84,3.84,0,0,1-.14,1.25,3.22,3.22,0,0,1-1,1.09c-2.23,1.81-5.64,4-9.39,4-2.76,0-6.38-.86-6.38-4.27,0-2.57,2.25-4,4.43-4.85-1.28-.58-1.39-1.48-1.39-2.71,0-4.57,7.7-7.84,11.64-7.84.81,0,2.34.42,2.34,1.42A4.12,4.12,0,0,1,443.58,21.59Z" fill="#fff"/>
      </g>
      <g>
        <path d="M184.79,128.54v18.28h-4.62V116h4.52L189,130.55,193.16,116h4.71v30.85H193V128.54l-3.24,10H188Z" fill="#fff"/>
        <path d="M204.17,116h11.38v4.43h-6.22v8.68h5.07v4.3h-5.07v9h6.22v4.43H204.17Z" fill="#fff"/>
        <path d="M225.93,137.63l-2.6,9.19h-4.94l5.35-15.67L218.57,116h5.12l3.06,9.28,2.33-9.28h4.84l-5,15.81,5.07,15h-5.07Z" fill="#fff"/>
        <path d="M243.25,146.82h-4.89V116h4.89Z" fill="#fff"/>
        <path d="M263,135.3v8a3.48,3.48,0,0,1-3.66,3.75H253a3.54,3.54,0,0,1-3.7-3.75V119.49a3.53,3.53,0,0,1,3.7-3.79h6.4a3.47,3.47,0,0,1,3.66,3.79v7.91h-5.12v-6.72c0-.27-.18-.5-.32-.5h-2.83c-.18,0-.32.23-.32.5v21.48c0,.27.14.46.32.46h2.83c.14,0,.32-.18.32-.46V135.3Z" fill="#fff"/>
        <path d="M278.76,115.7a3,3,0,0,1,3.15,3.15v25a3,3,0,0,1-3.15,3.15h-7.91a3,3,0,0,1-3.15-3.15v-25a3,3,0,0,1,3.15-3.15Zm-2,4.8c0-.27-.18-.5-.27-.5H273.1c-.23,0-.23.32-.23.5V142.2c0,.14,0,.41.23.41h3.38c.09,0,.27-.18.27-.41Z" fill="#fff"/>
        <path d="M301.57,120.4v26.42h-5.12V120.4h-3.88V116h12.89v4.43Z" fill="#fff"/>
        <path d="M320.13,115.7a3,3,0,0,1,3.15,3.15v25a3,3,0,0,1-3.15,3.15h-7.91a3,3,0,0,1-3.15-3.15v-25a3,3,0,0,1,3.15-3.15Zm-2,4.8c0-.27-.18-.5-.27-.5h-3.38c-.23,0-.23.32-.23.5V142.2c0,.14,0,.41.23.41h3.38c.09,0,.27-.18.27-.41Z" fill="#fff"/>
        <path d="M349.83,135.3v8a3.48,3.48,0,0,1-3.66,3.75h-6.4a3.54,3.54,0,0,1-3.7-3.75V119.49a3.53,3.53,0,0,1,3.7-3.79h6.4a3.47,3.47,0,0,1,3.66,3.79v7.91h-5.12v-6.72c0-.27-.18-.5-.32-.5h-2.83c-.18,0-.32.23-.32.5v21.48c0,.27.14.46.32.46h2.83c.14,0,.32-.18.32-.46V135.3Z" fill="#fff"/>
        <path d="M368.3,146.82h-5.07v-9h-3.66v9H354.5V119.13A3,3,0,0,1,357.6,116h7.54a3,3,0,0,1,3.15,3.15Zm-5.07-13.21V121.14a.64.64,0,0,0-.64-.69h-2.38a.64.64,0,0,0-.64.69v12.48Z" fill="#fff"/>
        <path d="M378.67,129.45v17.37h-4.34V116h4.3l5.85,18.55V116h4.34v30.85h-4.25Z" fill="#fff"/>
        <path d="M408.65,146.82h-5.07v-9h-3.66v9h-5.07V119.13A3,3,0,0,1,398,116h7.54a3,3,0,0,1,3.15,3.15Zm-5.07-13.21V121.14a.64.64,0,0,0-.64-.69h-2.38a.64.64,0,0,0-.64.69v12.48Z" fill="#fff"/>
        <path d="M424.65,116a4,4,0,0,1,4.25,4.25v22.35a4,4,0,0,1-4.25,4.25h-10V116Zm-.91,5.16a.7.7,0,0,0-.73-.73h-3.15v22H423a.7.7,0,0,0,.73-.73Z" fill="#fff"/>
        <path d="M448.46,146.82h-5.07v-9h-3.66v9h-5.07V119.13a3,3,0,0,1,3.11-3.15h7.54a3,3,0,0,1,3.15,3.15Zm-5.07-13.21V121.14a.64.64,0,0,0-.64-.69h-2.38a.64.64,0,0,0-.64.69v12.48Z" fill="#fff"/>
      </g>
    </g>
  </g>
</svg>
