<svg xmlns="http://www.w3.org/2000/svg" width="445.5" height="114.99" viewBox="0 0 445.5 114.99">
  <title>k_medows</title>
  <g id="Layer_2" data-name="Layer 2">
    <g id="Pop_up_type">
      <g>
        <path d="M167.77,90.69h7.47V93.6h-4.08v5.7h3.33v2.82h-3.33V108h4.08v2.91h-7.47Z" fill="#fff"/>
        <path d="M178.51,90.69h3.36v17.25h3.9v3h-7.26Z" fill="#fff"/>
        <path d="M188.44,90.69h7.47V93.6h-4.08v5.7h3.33v2.82h-3.33V108h4.08v2.91h-7.47Z" fill="#fff"/>
        <path d="M201.34,110.94l-3.27-20.25h3.42l1.59,14.07,1.62-14.07H208l-3.24,20.25Z" fill="#fff"/>
        <path d="M214.09,103.56h-3.78V98.88h3.78Zm0,7.38h-3.78v-4.68h3.78Z" fill="#fff"/>
        <path d="M225.7,93.51a.35.35,0,0,0-.36.36v4h3.33a2.17,2.17,0,0,1,2.34,2.34v8.58a2.17,2.17,0,0,1-2.34,2.34h-4.38a2.17,2.17,0,0,1-2.34-2.34V93a2.17,2.17,0,0,1,2.34-2.34h6.27v2.82Zm-.15,7.14a.35.35,0,0,0-.36.36v6.87a.35.35,0,0,0,.36.36h1.86a.35.35,0,0,0,.36-.36V101a.35.35,0,0,0-.36-.36Z" fill="#fff"/>
        <path d="M236.2,106.77H240l-2.7,8.22h-3.27Z" fill="#fff"/>
        <path d="M242.44,110.94v-2.85h3.78V94l-2.94.66-.6-2.49,4.23-1.44h2.64v17.4H253v2.85Z" fill="#fff"/>
        <path d="M259.45,93.51V99h2.64a2.17,2.17,0,0,1,2.34,2.34v7.29a2.17,2.17,0,0,1-2.34,2.34h-5.82v-2.82h4.41a.35.35,0,0,0,.36-.36v-5.4a.35.35,0,0,0-.36-.36h-4.44V90.69h8.07v2.82Z" fill="#fff"/>
        <path d="M277.72,92.85v15.9a2.17,2.17,0,0,1-2.34,2.34h-4.95a2.17,2.17,0,0,1-2.34-2.34V92.85a2.17,2.17,0,0,1,2.34-2.34h4.95A2.17,2.17,0,0,1,277.72,92.85ZM274,108.3a.35.35,0,0,0,.36-.36V93.72a.35.35,0,0,0-.36-.36h-2.13a.35.35,0,0,0-.36.36v14.22a.35.35,0,0,0,.36.36Z" fill="#fff"/>
      </g>
      <g>
        <path d="M18.05,78.44l-6.6-12.9L8.7,70v8.45H0V44.69H8.7V58.74l8.75-14.05h9.7L17.4,59.34l10.15,19.1Z" fill="#fff"/>
        <path d="M33.45,44.69H55.5v7.25H42.1v5.9H53.7V65H42.1v6.1H55.5v7.3H33.45Z" fill="#fff"/>
        <path d="M71.9,59.89V78.44h-8V44.69h8L82,63.29V44.69h8V78.44H81.75Z" fill="#fff"/>
        <path d="M107.6,59.89V78.44h-8V44.69h8l10.1,18.6V44.69h8V78.44h-8.25Z" fill="#fff"/>
        <path d="M135.3,44.69h22.05v7.25h-13.4v5.9h11.6V65h-11.6v6.1h13.4v7.3H135.3Z" fill="#fff"/>
        <path d="M183.9,44.69a6.89,6.89,0,0,1,6.85,6.85v20a6.9,6.9,0,0,1-6.85,6.9H165.75V44.69Zm-1.8,9.7a2.34,2.34,0,0,0-2.45-2.45h-5.2v19.2h5.2a2.34,2.34,0,0,0,2.45-2.45Z" fill="#fff"/>
        <path d="M206.95,78.44v-9.9h-4.5a3.94,3.94,0,0,1-3.8-4V44.69h8.7V60.24a.59.59,0,0,0,.55.5h7c.3,0,.35-.25.35-.5V44.69h8.7V64.54a3.94,3.94,0,0,1-3.8,4h-4.45v9.9Z" fill="#fff"/>
        <path d="M252.25,59.34v19.1h-8V44.69H253l6.8,15.75,6.25-15.75h9.2V78.44h-8.2V59l-5.7,13.4H258Z" fill="#fff"/>
        <path d="M284.9,44.69h22.05v7.25h-13.4v5.9h11.6V65h-11.6v6.1h13.4v7.3H284.9Z" fill="#fff"/>
        <path d="M333.5,44.69a6.89,6.89,0,0,1,6.85,6.85v20a6.9,6.9,0,0,1-6.85,6.9H315.35V44.69Zm-1.8,9.7a2.34,2.34,0,0,0-2.45-2.45H324v19.2h5.2a2.34,2.34,0,0,0,2.45-2.45Z" fill="#fff"/>
        <path d="M370.65,44.69a3.75,3.75,0,0,1,4,4V74.49a3.75,3.75,0,0,1-4,3.95H353.3a3.75,3.75,0,0,1-4-3.95V48.64a3.75,3.75,0,0,1,4-4Zm-4.75,7.85a.56.56,0,0,0-.55-.55H358.5a.55.55,0,0,0-.45.55V70.69a.48.48,0,0,0,.45.45h6.85a.51.51,0,0,0,.55-.45Z" fill="#fff"/>
        <path d="M418,44.69,411.7,78.44H404l-5.2-18.8-5.35,18.8H386l-6.4-33.75h8.5l3,21.2,4.55-21.2h7.15l4.3,20.6,3.2-20.6Z" fill="#fff"/>
        <path d="M423.65,71.14H436.3c.35,0,.55-.2.55-.45v-4.9c0-.25-.2-.45-.55-.45h-8.7a3.75,3.75,0,0,1-4-4V48.64a3.75,3.75,0,0,1,4-4H445v7.25h-12.2a.51.51,0,0,0-.5.55v5a.49.49,0,0,0,.5.45h8.7a3.75,3.75,0,0,1,4,4V74.49a3.75,3.75,0,0,1-4,3.95h-17.9Z" fill="#fff"/>
      </g>
      <g>
        <path d="M186.54,25.55c1.48-.31,3.75-2.3,6.11-4.9.25-.29.43-.59.59-.59.31,0,.43,1.43.51,2.05,0,.25.16.47.16.74a1.91,1.91,0,0,1-.49,1.11c-1.48,2-6.35,6-8.4,6a2.66,2.66,0,0,1-2.79-2.6,2.91,2.91,0,0,1,0-.41c.51-2.71,8.44-14,12.23-19.32-5.35,5.53-17.87,18.89-20.59,21.11a1.24,1.24,0,0,1-.84.27c-1,0-2.17-.78-2.17-1.68v-.1c.12-1.09,6.68-13.89,10-19.49-4,4.45-13.22,15.76-17.95,25.23a.91.91,0,0,1-.88.63,4.83,4.83,0,0,1-1.09-.21c-1-.27-1.72-.8-1.72-1.64,0-1.89,17.66-26.6,23.48-30.49A2.06,2.06,0,0,1,183.8.88c.43,0,.61.25.76.25a.18.18,0,0,0,.14-.06,1.35,1.35,0,0,1,1-.31c.94,0,2.17.43,2.17,1a.46.46,0,0,1,0,.16c-.39,1.07-7.07,12.48-10.7,19.51C181,16.68,193.82,3,198,.51a.88.88,0,0,1,.53-.14,5.3,5.3,0,0,1,1.39.27A16.41,16.41,0,0,0,202,.92c.39.08.76.37.76.72a.52.52,0,0,1-.12.31C200.05,5.35,188.78,20.51,186.54,25.55Z" fill="#fff"/>
        <path d="M204.19,25.76a8.48,8.48,0,0,1-6.89,4.36,3.71,3.71,0,0,1-3.55-3.36c0-2,4.3-8.2,4.3-8.52s-.8-.84-.8-1.29,3-3.63,4.71-3.63a1.87,1.87,0,0,1,1.45,1.56c0,.41-4.08,7.46-4.65,8.44-.47.78-1.46,2.19-1.46,3.13,0,.55.51.66,1,.66,2.36,0,4.92-3.95,5.53-3.95s.51,1.41.51,1.76A2,2,0,0,1,204.19,25.76Zm.12-14.53a1,1,0,0,1-1.15-1.15,3.55,3.55,0,0,1,3.16-3.32,1,1,0,0,1,1.15,1.11C207.47,9.32,205.8,11.23,204.31,11.23Z" fill="#fff"/>
        <path d="M206.93,23.36a15.64,15.64,0,0,0-.31,1.88,1.92,1.92,0,0,0,2.11,2c2.44,0,5.14-4,6-4,.51,0,.51,1.11.51,1.43V25a2.58,2.58,0,0,1-.92,1.86,10.08,10.08,0,0,1-6.87,3.24c-2.6,0-3.81-1.68-3.81-4.2,0-5.41,3.54-13.32,6.64-17.71,2.4-3.4,6.13-8.16,8.81-8.16a2.19,2.19,0,0,1,2.36,2C221.42,6.52,210.25,19.67,206.93,23.36ZM218,2.95c-1,0-6.58,8-7.36,9.38a40.5,40.5,0,0,0-2.89,6.6c1.89-2.25,10.45-13.57,10.45-15.68C218.18,3.09,218.14,2.95,218,2.95Z" fill="#fff"/>
        <path d="M223.2,17.95c-.62,0-.7-.31-.7-.88a2,2,0,0,1,.08-.51,9.27,9.27,0,0,0-1.6.76c-.64.35-3.32,2.11-3.32,2.83,0,.16.31.16.39.16,1.05,0,1.93-.64,2.93-.64a1.33,1.33,0,0,1,.39,0A2.3,2.3,0,0,1,222.2,21c0,.33-.43.66-.68.88a9.69,9.69,0,0,1-1.84.84c-.8.45-4.12,2.29-4.12,3.16,0,1.37,1.56,1.52,2.6,1.52,2.85,0,5.57-2.7,7.36-4a.93.93,0,0,1,.45-.2c.51,0,.51,1.19.51,1.54a3.24,3.24,0,0,1-.12,1.05,2.72,2.72,0,0,1-.8.92c-1.87,1.52-4.75,3.4-7.91,3.4-2.32,0-5.37-.72-5.37-3.59,0-2.17,1.89-3.4,3.73-4.08-1.07-.49-1.17-1.25-1.17-2.29,0-3.85,6.48-6.6,9.8-6.6.68,0,2,.35,2,1.19A3.47,3.47,0,0,1,223.2,17.95Z" fill="#fff"/>
        <path d="M245.33,19.08a91.61,91.61,0,0,0-6.76,10.84.84.84,0,0,1-.74.41c-.27,0-.51-.14-.76-.14s-1.23-.62-1.23-1.21a7.53,7.53,0,0,1,.8-2.07c1.46-3.3,10.35-15.2,13.61-18.16-2.6.18-10.12,1.05-10.61,1.05-.27,0-.41-.08-.41-.33,0-.45.51-1.09.57-1.45a13.69,13.69,0,0,1,1.46-1.15c.31-.23.31-.55,1.09-.92a77.89,77.89,0,0,1,9.53-.7l.68,0c.55,0,1.19,1.39,1.19,2.07a2.27,2.27,0,0,1-.21.9s-.33.43-.82,1.15C251.15,11.62,247.57,15.92,245.33,19.08Z" fill="#fff"/>
        <path d="M266.71,13.2c0,.08,0,.18.06.27a3.47,3.47,0,0,1,0,.61C266,17.54,257.9,29.84,251,29.84a3.21,3.21,0,0,1-3.24-3.38C247.53,19.16,259.72,5.2,266,5.2c1.37,0,2.4,1.35,2.46,3.14a5.3,5.3,0,0,1-.1,1.09A10.88,10.88,0,0,1,266.71,13.2Zm-4.77,4.69a3.9,3.9,0,0,1-1.78.61c-.78,0-1.21-.76-1.25-1.54,0-.35,0-1.07.59-1.29,3.38-1.33,5.59-4.49,5.51-6.78a.61.61,0,0,0-.68-.62c-2.85,0-11.48,10.41-12.91,15.9a2.18,2.18,0,0,0-.06.72c0,.78.27,1.56,1.19,1.56C254.86,26.45,258.69,22.23,261.95,17.89Z" fill="#fff"/>
        <path d="M272.22,17.11c2.48-1.72,4.24-2.56,5.88-2.56a2.67,2.67,0,0,1,2.66,2.66c0,4.9-6.41,12.83-12.79,12.83a3,3,0,0,1-2.77-3.28,1.89,1.89,0,0,1,0-.33c.37-4.08,2.93-8.67,6.21-12.83,4.94-6.25,11.76-9,13.26-9s1.6,1.05,1.6,1.84c0,.51-.12.9-.35,1A28.13,28.13,0,0,0,272.22,17.11Zm-2,3.2a14.57,14.57,0,0,0-2.05,5.8c0,.59.18,1,.63,1,.74,0,2.64-.88,4.94-3,2-1.86,3.59-4.2,3.59-5.57a1.18,1.18,0,0,0-1.19-1.11C274.45,17.4,271.44,19.2,270.21,20.31Z" fill="#fff"/>
      </g>
    </g>
  </g>
</svg>
