<svg xmlns="http://www.w3.org/2000/svg" width="275" height="114.99" viewBox="0 0 275 114.99">
  <title>m_shasta</title>
  <g id="Layer_2" data-name="Layer 2">
    <g id="Pop_up_type">
      <g>
        <path d="M76.22,90.69h7.47V93.6H79.61v5.7h3.33v2.82H79.61V108h4.08v2.91H76.22Z" fill="#fff"/>
        <path d="M87,90.69h3.36v17.25h3.9v3H87Z" fill="#fff"/>
        <path d="M96.89,90.69h7.47V93.6h-4.08v5.7h3.33v2.82h-3.33V108h4.08v2.91H96.89Z" fill="#fff"/>
        <path d="M109.79,110.94l-3.27-20.25h3.42l1.59,14.07,1.62-14.07h3.27l-3.24,20.25Z" fill="#fff"/>
        <path d="M122.54,103.56h-3.78V98.88h3.78Zm0,7.38h-3.78v-4.68h3.78Z" fill="#fff"/>
        <path d="M129.56,110.94v-2.85h3.78V94l-2.94.66-.6-2.49L134,90.69h2.64v17.4h3.42v2.85Z" fill="#fff"/>
        <path d="M152.81,106.32h-1.74v4.62h-3.33v-4.62h-5.16V90.69h3.06v13h2.25v-13h3.18v13h1.74Z" fill="#fff"/>
        <path d="M157.25,106.77h3.84l-2.7,8.22h-3.27Z" fill="#fff"/>
        <path d="M163.49,110.94v-2.85h3.78V94l-2.94.66-.6-2.49L168,90.69h2.64v17.4H174v2.85Z" fill="#fff"/>
        <path d="M183.8,100.44a2.39,2.39,0,0,1,2.19,2.28v6a2.17,2.17,0,0,1-2.34,2.34h-4.56a2.17,2.17,0,0,1-2.34-2.34v-6a2.37,2.37,0,0,1,2.22-2.28c-1.14,0-2.22-.6-2.22-1.77V92.88a2.17,2.17,0,0,1,2.34-2.34h4.56A2.17,2.17,0,0,1,186,92.88v5.79A2,2,0,0,1,183.8,100.44Zm-1.2-6.69a.35.35,0,0,0-.36-.36H180.5a.35.35,0,0,0-.36.36v5.19a.35.35,0,0,0,.36.36h1.74a.35.35,0,0,0,.36-.36Zm0,8.7a.35.35,0,0,0-.36-.36H180.5a.35.35,0,0,0-.36.36v5.43a.35.35,0,0,0,.36.36h1.74a.35.35,0,0,0,.36-.36Z" fill="#fff"/>
        <path d="M198.77,92.85v15.9a2.17,2.17,0,0,1-2.34,2.34h-5a2.17,2.17,0,0,1-2.34-2.34V92.85a2.17,2.17,0,0,1,2.34-2.34h5A2.17,2.17,0,0,1,198.77,92.85ZM195,108.3a.35.35,0,0,0,.36-.36V93.72a.35.35,0,0,0-.36-.36h-2.13a.35.35,0,0,0-.36.36v14.22a.35.35,0,0,0,.36.36Z" fill="#fff"/>
      </g>
      <g>
        <path d="M8,59.34v19.1H0V44.69H8.8l6.8,15.75,6.25-15.75h9.2V78.44h-8.2V59l-5.7,13.4h-3.4Z" fill="#fff"/>
        <path d="M61.5,44.69V52H53.85V78.44h-8.7V52H37.5v-7.3Z" fill="#fff"/>
        <path d="M73,78.44H63.65V69.29H73Z" fill="#fff"/>
        <path d="M93.25,71.14H105.9c.35,0,.55-.2.55-.45v-4.9c0-.25-.2-.45-.55-.45H97.2a3.75,3.75,0,0,1-4-4V48.64a3.75,3.75,0,0,1,4-4h17.45v7.25h-12.2a.51.51,0,0,0-.5.55v5a.49.49,0,0,0,.5.45h8.7a3.75,3.75,0,0,1,4,4V74.49a3.75,3.75,0,0,1-4,3.95H93.25Z" fill="#fff"/>
        <path d="M149.45,78.44h-8.7V65H132.5v13.4h-8.7V44.69h8.7v12.9h8.25V44.69h8.7Z" fill="#fff"/>
        <path d="M183.8,78.44h-8.7V70h-7.65v8.4h-8.7V48.64a3.75,3.75,0,0,1,4-4h17.15a3.75,3.75,0,0,1,4,4Zm-8.7-15.7V52.59a1.06,1.06,0,0,0-1.2-1h-5.4a1,1,0,0,0-1.05,1V62.74Z" fill="#fff"/>
        <path d="M192.4,71.14H205c.35,0,.55-.2.55-.45v-4.9c0-.25-.2-.45-.55-.45h-8.7a3.75,3.75,0,0,1-4-4V48.64a3.75,3.75,0,0,1,4-4H213.8v7.25H201.6a.51.51,0,0,0-.5.55v5a.49.49,0,0,0,.5.45h8.7a3.75,3.75,0,0,1,4,4V74.49a3.75,3.75,0,0,1-4,3.95H192.4Z" fill="#fff"/>
        <path d="M243.8,44.69V52h-7.65V78.44h-8.7V52H219.8v-7.3Z" fill="#fff"/>
        <path d="M275,78.44h-8.7V70h-7.65v8.4h-8.7V48.64a3.75,3.75,0,0,1,4-4H271a3.75,3.75,0,0,1,4,4Zm-8.7-15.7V52.59a1.06,1.06,0,0,0-1.2-1h-5.4a1,1,0,0,0-1.05,1V62.74Z" fill="#fff"/>
      </g>
      <g>
        <path d="M95.9,25.55c1.48-.31,3.75-2.3,6.11-4.9.25-.29.43-.59.59-.59.31,0,.43,1.43.51,2.05,0,.25.16.47.16.74a1.91,1.91,0,0,1-.49,1.11c-1.48,2-6.35,6-8.4,6a2.66,2.66,0,0,1-2.79-2.6,2.91,2.91,0,0,1,0-.41c.51-2.71,8.44-14,12.23-19.32C98.49,13.2,86,26.56,83.26,28.79a1.24,1.24,0,0,1-.84.27c-1,0-2.17-.78-2.17-1.68v-.1c.12-1.09,6.68-13.89,10-19.49C86.17,12.25,77,23.55,72.26,33a.91.91,0,0,1-.88.63,4.83,4.83,0,0,1-1.09-.21c-1-.27-1.72-.8-1.72-1.64C68.57,29.9,86.23,5.2,92,1.31A2.06,2.06,0,0,1,93.16.88c.43,0,.61.25.76.25a.18.18,0,0,0,.14-.06,1.35,1.35,0,0,1,1-.31c.94,0,2.17.43,2.17,1a.46.46,0,0,1,0,.16c-.39,1.07-7.07,12.48-10.7,19.51C90.41,16.68,103.18,3,107.34.51a.88.88,0,0,1,.53-.14,5.3,5.3,0,0,1,1.39.27,16.41,16.41,0,0,0,2.07.27c.39.08.76.37.76.72A.52.52,0,0,1,112,2C109.41,5.35,98.14,20.51,95.9,25.55Z" fill="#fff"/>
        <path d="M113.55,25.76a8.48,8.48,0,0,1-6.89,4.36,3.71,3.71,0,0,1-3.55-3.36c0-2,4.3-8.2,4.3-8.52s-.8-.84-.8-1.29,3-3.63,4.71-3.63a1.87,1.87,0,0,1,1.45,1.56c0,.41-4.08,7.46-4.65,8.44-.47.78-1.46,2.19-1.46,3.13,0,.55.51.66,1,.66,2.36,0,4.92-3.95,5.53-3.95s.51,1.41.51,1.76A2,2,0,0,1,113.55,25.76Zm.12-14.53a1,1,0,0,1-1.15-1.15,3.55,3.55,0,0,1,3.16-3.32,1,1,0,0,1,1.15,1.11C116.83,9.32,115.15,11.23,113.67,11.23Z" fill="#fff"/>
        <path d="M116.29,23.36a15.64,15.64,0,0,0-.31,1.88,1.92,1.92,0,0,0,2.11,2c2.44,0,5.14-4,6-4,.51,0,.51,1.11.51,1.43V25a2.58,2.58,0,0,1-.92,1.86,10.08,10.08,0,0,1-6.87,3.24c-2.6,0-3.81-1.68-3.81-4.2,0-5.41,3.54-13.32,6.64-17.71C122,4.77,125.74,0,128.42,0a2.19,2.19,0,0,1,2.36,2C130.78,6.52,119.61,19.67,116.29,23.36ZM127.34,2.95c-1,0-6.58,8-7.36,9.38a40.5,40.5,0,0,0-2.89,6.6C119,16.68,127.54,5.35,127.54,3.24,127.54,3.09,127.5,2.95,127.34,2.95Z" fill="#fff"/>
        <path d="M132.56,17.95c-.62,0-.7-.31-.7-.88a2,2,0,0,1,.08-.51,9.27,9.27,0,0,0-1.6.76c-.64.35-3.32,2.11-3.32,2.83,0,.16.31.16.39.16,1.05,0,1.93-.64,2.93-.64a1.33,1.33,0,0,1,.39,0,2.3,2.3,0,0,1,.84,1.29c0,.33-.43.66-.68.88a9.69,9.69,0,0,1-1.84.84c-.8.45-4.12,2.29-4.12,3.16,0,1.37,1.56,1.52,2.6,1.52,2.85,0,5.57-2.7,7.36-4a.93.93,0,0,1,.45-.2c.51,0,.51,1.19.51,1.54a3.24,3.24,0,0,1-.12,1.05,2.72,2.72,0,0,1-.8.92c-1.87,1.52-4.75,3.4-7.91,3.4-2.32,0-5.37-.72-5.37-3.59,0-2.17,1.89-3.4,3.73-4.08-1.07-.49-1.17-1.25-1.17-2.29,0-3.85,6.48-6.6,9.8-6.6.68,0,2,.35,2,1.19A3.47,3.47,0,0,1,132.56,17.95Z" fill="#fff"/>
        <path d="M145,29.39a3.92,3.92,0,0,1-1.37.41c-.21,0-.33-.62-1-1.41-.1-.2-.47-.27-.47-.39a.07.07,0,0,1,0-.06,189.72,189.72,0,0,1,10.49-17.27c-.62.43-1.13.84-1.7,1.31-.14.1-.16.12-.27.12-.31,0-.31-.64-.45-.88S150,11,150,10.78a2.5,2.5,0,0,1,.16-.47c.29-.8,5.25-5.08,6.45-5.08A2.17,2.17,0,0,1,158.28,7c-.06.49-3.26,5.16-6.62,10.66C148.65,22.64,145.56,27.75,145,29.39Z" fill="#fff"/>
        <path d="M166.66,17.64c2.52-.25,4-.41,4.69-.41a.16.16,0,0,1,.18.18,1.58,1.58,0,0,1-.29.63A11.86,11.86,0,0,1,169,20.68c-.2,0-1.8.23-4.34.47C163.67,23,162,26,160,29.71c-.37.82-2.29.84-3.09,1.17a1,1,0,0,1-.74-.72c.94-2,2.68-5,4.8-8.71-3.3.23-5.86.43-6.35.43S154,21,154,20.21a3.66,3.66,0,0,1,.12-1.05c1.52-3.52,15.23-14,17.4-14.36,0,0,.51.18,1.37.47.23.14.25.55.45.64a1.53,1.53,0,0,1,.16.55.15.15,0,0,1,0,.1C170.51,11,168.42,14.47,166.66,17.64Zm-3.71.39c1.41-2.38,3.55-5.78,6.09-9.36-3.54,2.93-8.54,7.68-11.41,10.2C159.47,18.52,161,18.28,162.95,18Z" fill="#fff"/>
        <path d="M169.26,28.85a2.11,2.11,0,0,1-.33-1c0-.33.18-.55.64-.7,3.28-1.11,7.64-4.57,11.62-9l-.1-.12a12.91,12.91,0,0,1-5,1.8,2.45,2.45,0,0,1-2.48-2.56c0-7.29,9.38-12.81,13.14-12.81,1.91,0,3,1.17,3,3.26,0,.2,0,.43,0,.64-.61,7.15-15.08,21.78-19.22,21.78C169.84,30.16,169.55,29.63,169.26,28.85Zm7.66-13.26c0,.63.49.84,1.09.84,1.43,0,3.93-1.19,5.66-2.11C185.35,12.07,187,9.77,187,8.4a1.16,1.16,0,0,0-1.09-1.11C183.06,7.29,176.91,13.26,176.91,15.59Z" fill="#fff"/>
        <path d="M199.63,17.64c2.52-.25,4-.41,4.69-.41a.16.16,0,0,1,.18.18,1.58,1.58,0,0,1-.29.63A11.86,11.86,0,0,1,202,20.68c-.2,0-1.8.23-4.34.47-1,1.84-2.73,4.88-4.73,8.55-.37.82-2.29.84-3.09,1.17a1,1,0,0,1-.74-.72c.94-2,2.68-5,4.8-8.71-3.3.23-5.86.43-6.35.43s-.64-.92-.64-1.66a3.66,3.66,0,0,1,.12-1.05c1.52-3.52,15.23-14,17.4-14.36,0,0,.51.18,1.37.47.23.14.25.55.45.64a1.53,1.53,0,0,1,.16.55.15.15,0,0,1,0,.1C203.47,11,201.39,14.47,199.63,17.64Zm-3.71.39c1.41-2.38,3.55-5.78,6.09-9.36-3.54,2.93-8.54,7.68-11.41,10.2C192.44,18.52,194,18.28,195.92,18Z" fill="#fff"/>
      </g>
    </g>
  </g>
</svg>
