<svg xmlns="http://www.w3.org/2000/svg" width="306.2" height="111.99" viewBox="0 0 306.2 111.99">
  <title>m_whitney</title>
  <g id="Layer_2" data-name="Layer 2">
    <g id="Pop_up_type">
      <g>
        <g>
          <path d="M8,57.34v19.1H0V42.69H8.8l6.8,15.75,6.25-15.75h9.2V76.44h-8.2V57l-5.7,13.4h-3.4Z" fill="#fff"/>
          <path d="M61.5,42.69V50H53.85V76.44h-8.7V50H37.5v-7.3Z" fill="#fff"/>
          <path d="M73,76.44H63.65V67.29H73Z" fill="#fff"/>
          <path d="M129.1,42.69l-6.35,33.75H115.1l-5.2-18.8-5.35,18.8H97l-6.4-33.75h8.5l3,21.2,4.55-21.2h7.15l4.3,20.6,3.2-20.6Z" fill="#fff"/>
          <path d="M161,76.44h-8.7V63H144.1v13.4h-8.7V42.69h8.7v12.9h8.25V42.69H161Z" fill="#fff"/>
          <path d="M179.3,76.44h-8.65V42.69h8.65Z" fill="#fff"/>
          <path d="M209.75,42.69V50H202.1V76.44h-8.7V50h-7.65v-7.3Z" fill="#fff"/>
          <path d="M224.2,57.89V76.44h-8V42.69h8l10.1,18.6V42.69h8V76.44H234Z" fill="#fff"/>
          <path d="M251.9,42.69h22.05v7.25h-13.4v5.9h11.6V63h-11.6v6.1h13.4v7.3H251.9Z" fill="#fff"/>
          <path d="M289.25,76.44v-9.9h-4.5a3.94,3.94,0,0,1-3.8-4V42.69h8.7V58.24a.59.59,0,0,0,.55.5h7c.3,0,.35-.25.35-.5V42.69h8.7V62.54a3.94,3.94,0,0,1-3.8,4h-4.45v9.9Z" fill="#fff"/>
        </g>
        <g>
          <path d="M92.18,87.69h7.47V90.6H95.57v5.7H98.9v2.82H95.57V105h4.08v2.91H92.18Z" fill="#fff"/>
          <path d="M102.92,87.69h3.36v17.25h3.9v3h-7.26Z" fill="#fff"/>
          <path d="M112.85,87.69h7.47V90.6h-4.08v5.7h3.33v2.82h-3.33V105h4.08v2.91h-7.47Z" fill="#fff"/>
          <path d="M125.75,107.94l-3.27-20.25h3.42l1.59,14.07,1.62-14.07h3.27l-3.24,20.25Z" fill="#fff"/>
          <path d="M138.5,100.56h-3.78V95.88h3.78Zm0,7.38h-3.78v-4.68h3.78Z" fill="#fff"/>
          <path d="M145.52,107.94v-2.85h3.78V91l-2.94.66-.6-2.49L150,87.69h2.64v17.4h3.42v2.85Z" fill="#fff"/>
          <path d="M168.77,103.32H167v4.62H163.7v-4.62h-5.16V87.69h3.06v13h2.25v-13H167v13h1.74Z" fill="#fff"/>
          <path d="M173.21,103.77h3.84l-2.7,8.22h-3.27Z" fill="#fff"/>
          <path d="M183.86,90.51V96h2.64a2.17,2.17,0,0,1,2.34,2.34v7.29a2.17,2.17,0,0,1-2.34,2.34h-5.82v-2.82h4.41a.35.35,0,0,0,.36-.36v-5.4a.35.35,0,0,0-.36-.36h-4.44V87.69h8.07v2.82Z" fill="#fff"/>
          <path d="M202.13,89.85v15.9a2.17,2.17,0,0,1-2.34,2.34h-4.95a2.17,2.17,0,0,1-2.34-2.34V89.85a2.17,2.17,0,0,1,2.34-2.34h4.95A2.17,2.17,0,0,1,202.13,89.85Zm-3.75,15.45a.35.35,0,0,0,.36-.36V90.72a.35.35,0,0,0-.36-.36h-2.13a.35.35,0,0,0-.36.36v14.22a.35.35,0,0,0,.36.36Z" fill="#fff"/>
          <path d="M209,90.51V96h2.64A2.17,2.17,0,0,1,214,98.31v7.29a2.17,2.17,0,0,1-2.34,2.34h-5.82v-2.82h4.41a.35.35,0,0,0,.36-.36v-5.4a.35.35,0,0,0-.36-.36h-4.44V87.69h8.07v2.82Z" fill="#fff"/>
        </g>
        <g>
          <path d="M118.39,25.55c1.48-.31,3.75-2.3,6.11-4.9.25-.29.43-.59.59-.59.31,0,.43,1.43.51,2.05,0,.25.16.47.16.74a1.91,1.91,0,0,1-.49,1.11c-1.48,2-6.35,6-8.4,6a2.66,2.66,0,0,1-2.79-2.6,2.91,2.91,0,0,1,0-.41c.51-2.71,8.44-14,12.23-19.32C121,13.2,108.47,26.56,105.75,28.79a1.24,1.24,0,0,1-.84.27c-1,0-2.17-.78-2.17-1.68v-.1c.12-1.09,6.68-13.89,10-19.49-4,4.45-13.22,15.76-17.95,25.23a.91.91,0,0,1-.88.63,4.83,4.83,0,0,1-1.09-.21c-1-.27-1.72-.8-1.72-1.64,0-1.89,17.66-26.6,23.48-30.49a2.06,2.06,0,0,1,1.11-.43c.43,0,.61.25.76.25a.18.18,0,0,0,.14-.06,1.35,1.35,0,0,1,1-.31c.94,0,2.17.43,2.17,1a.46.46,0,0,1,0,.16c-.39,1.07-7.07,12.48-10.7,19.51C112.9,16.68,125.68,3,129.84.51a.88.88,0,0,1,.53-.14,5.3,5.3,0,0,1,1.39.27,16.41,16.41,0,0,0,2.07.27c.39.08.76.37.76.72a.52.52,0,0,1-.12.31C131.91,5.35,120.64,20.51,118.39,25.55Z" fill="#fff"/>
          <path d="M136,25.76a8.48,8.48,0,0,1-6.89,4.36,3.71,3.71,0,0,1-3.55-3.36c0-2,4.3-8.2,4.3-8.52s-.8-.84-.8-1.29,3-3.63,4.71-3.63a1.87,1.87,0,0,1,1.45,1.56c0,.41-4.08,7.46-4.65,8.44-.47.78-1.46,2.19-1.46,3.13,0,.55.51.66,1,.66,2.36,0,4.92-3.95,5.53-3.95s.51,1.41.51,1.76A2,2,0,0,1,136,25.76Zm.12-14.53A1,1,0,0,1,135,10.08a3.55,3.55,0,0,1,3.16-3.32,1,1,0,0,1,1.15,1.11C139.33,9.32,137.65,11.23,136.16,11.23Z" fill="#fff"/>
          <path d="M138.78,23.36a15.64,15.64,0,0,0-.31,1.88,1.92,1.92,0,0,0,2.11,2c2.44,0,5.14-4,6-4,.51,0,.51,1.11.51,1.43V25a2.58,2.58,0,0,1-.92,1.86,10.08,10.08,0,0,1-6.87,3.24c-2.6,0-3.81-1.68-3.81-4.2,0-5.41,3.54-13.32,6.64-17.71,2.4-3.4,6.13-8.16,8.81-8.16a2.19,2.19,0,0,1,2.36,2C153.27,6.52,142.1,19.67,138.78,23.36ZM149.84,2.95c-1,0-6.58,8-7.36,9.38a40.5,40.5,0,0,0-2.89,6.6C141.48,16.68,150,5.35,150,3.24,150,3.09,150,2.95,149.84,2.95Z" fill="#fff"/>
          <path d="M155.05,17.95c-.62,0-.7-.31-.7-.88a2,2,0,0,1,.08-.51,9.27,9.27,0,0,0-1.6.76c-.64.35-3.32,2.11-3.32,2.83,0,.16.31.16.39.16,1.05,0,1.93-.64,2.93-.64a1.33,1.33,0,0,1,.39,0,2.3,2.3,0,0,1,.84,1.29c0,.33-.43.66-.68.88a9.69,9.69,0,0,1-1.84.84c-.8.45-4.12,2.29-4.12,3.16,0,1.37,1.56,1.52,2.6,1.52,2.85,0,5.57-2.7,7.36-4a.93.93,0,0,1,.45-.2c.51,0,.51,1.19.51,1.54a3.24,3.24,0,0,1-.12,1.05,2.72,2.72,0,0,1-.8.92c-1.87,1.52-4.75,3.4-7.91,3.4-2.32,0-5.37-.72-5.37-3.59,0-2.17,1.89-3.4,3.73-4.08-1.07-.49-1.17-1.25-1.17-2.29,0-3.85,6.48-6.6,9.8-6.6.68,0,2,.35,2,1.19A3.47,3.47,0,0,1,155.05,17.95Z" fill="#fff"/>
          <path d="M177.18,19.08a91.61,91.61,0,0,0-6.76,10.84.84.84,0,0,1-.74.41c-.27,0-.51-.14-.76-.14s-1.23-.62-1.23-1.21a7.53,7.53,0,0,1,.8-2.07c1.46-3.3,10.35-15.2,13.61-18.16C179.5,8.93,172,9.8,171.5,9.8c-.27,0-.41-.08-.41-.33,0-.45.51-1.09.57-1.45a13.69,13.69,0,0,1,1.46-1.15c.31-.23.31-.55,1.09-.92a77.89,77.89,0,0,1,9.53-.7l.68,0c.55,0,1.19,1.39,1.19,2.07a2.27,2.27,0,0,1-.21.9s-.33.43-.82,1.15C183,11.62,179.43,15.92,177.18,19.08Z" fill="#fff"/>
          <path d="M186.59,17.11c2.48-1.72,4.24-2.56,5.88-2.56a2.67,2.67,0,0,1,2.66,2.66c0,4.9-6.41,12.83-12.79,12.83a3,3,0,0,1-2.77-3.28,1.89,1.89,0,0,1,0-.33c.37-4.08,2.93-8.67,6.21-12.83,4.94-6.25,11.76-9,13.26-9s1.6,1.05,1.6,1.84c0,.51-.12.9-.35,1A28.13,28.13,0,0,0,186.59,17.11Zm-2,3.2a14.57,14.57,0,0,0-2.05,5.8c0,.59.18,1,.63,1,.74,0,2.64-.88,4.94-3,2-1.86,3.59-4.2,3.59-5.57a1.18,1.18,0,0,0-1.19-1.11C188.82,17.4,185.81,19.2,184.58,20.31Z" fill="#fff"/>
          <path d="M206.69,19.08a91.61,91.61,0,0,0-6.76,10.84.84.84,0,0,1-.74.41c-.27,0-.51-.14-.76-.14s-1.23-.62-1.23-1.21a7.53,7.53,0,0,1,.8-2.07c1.46-3.3,10.35-15.2,13.61-18.16C209,8.93,201.5,9.8,201,9.8c-.27,0-.41-.08-.41-.33,0-.45.51-1.09.57-1.45a13.69,13.69,0,0,1,1.46-1.15c.31-.23.31-.55,1.09-.92a77.89,77.89,0,0,1,9.53-.7l.68,0c.55,0,1.19,1.39,1.19,2.07a2.27,2.27,0,0,1-.21.9s-.33.43-.82,1.15C212.51,11.62,208.94,15.92,206.69,19.08Z" fill="#fff"/>
        </g>
      </g>
    </g>
  </g>
</svg>
