<svg xmlns="http://www.w3.org/2000/svg" width="427.85" height="111.99" viewBox="0 0 427.85 111.99">
  <title>n_cascades</title>
  <g id="Layer_2" data-name="Layer 2">
    <g id="Pop_up_type">
      <g>
        <g>
          <path d="M8,57.89V76.44H0V42.69H8l10.1,18.6V42.69h8V76.44H17.85Z" fill="#fff"/>
          <path d="M56.7,42.69a3.75,3.75,0,0,1,4,4V72.49a3.75,3.75,0,0,1-4,3.95H39.35a3.75,3.75,0,0,1-4-3.95V46.64a3.75,3.75,0,0,1,4-4ZM52,50.54A.56.56,0,0,0,51.4,50H44.55a.55.55,0,0,0-.45.55V68.69a.48.48,0,0,0,.45.45H51.4a.51.51,0,0,0,.55-.45Z" fill="#fff"/>
          <path d="M91.15,42.69a3.8,3.8,0,0,1,3.8,3.8V61.94a3.86,3.86,0,0,1-3.8,3.8H90.9l4.15,10.7h-8.5l-4.2-10.7h-3.7v10.7h-8.7V42.69ZM86.3,50.44a.54.54,0,0,0-.45-.5h-7.2v9h7.2a.53.53,0,0,0,.45-.45Z" fill="#fff"/>
          <path d="M124.75,42.69V50H117.1V76.44h-8.7V50h-7.65v-7.3Z" fill="#fff"/>
          <path d="M156.85,76.44h-8.7V63H139.9v13.4h-8.7V42.69h8.7v12.9h8.25V42.69h8.7Z" fill="#fff"/>
          <path d="M203,63.84v8.75a3.87,3.87,0,0,1-4,3.85h-17a3.79,3.79,0,0,1-3.85-3.85V46.49a3.84,3.84,0,0,1,3.85-3.8h17a3.93,3.93,0,0,1,4,3.8v8.7h-8.7v-4.7a.55.55,0,0,0-.45-.55h-6.35a.55.55,0,0,0-.55.55V68.64a.51.51,0,0,0,.55.5h6.35a.49.49,0,0,0,.45-.5v-4.8Z" fill="#fff"/>
          <path d="M236,76.44h-8.7V68H219.7v8.4H211V46.64a3.75,3.75,0,0,1,4-4H232.1a3.75,3.75,0,0,1,4,4Zm-8.7-15.7V50.59a1.06,1.06,0,0,0-1.2-1h-5.4a1,1,0,0,0-1.05,1V60.74Z" fill="#fff"/>
          <path d="M244.65,69.14H257.3c.35,0,.55-.2.55-.45v-4.9c0-.25-.2-.45-.55-.45h-8.7a3.75,3.75,0,0,1-4-4V46.64a3.75,3.75,0,0,1,4-4H266v7.25h-12.2a.51.51,0,0,0-.5.55v5a.49.49,0,0,0,.5.45h8.7a3.75,3.75,0,0,1,4,4V72.49a3.75,3.75,0,0,1-4,3.95h-17.9Z" fill="#fff"/>
          <path d="M299.65,63.84v8.75a3.87,3.87,0,0,1-4,3.85h-17a3.79,3.79,0,0,1-3.85-3.85V46.49a3.84,3.84,0,0,1,3.85-3.8h17a3.93,3.93,0,0,1,4,3.8v8.7h-8.7v-4.7a.55.55,0,0,0-.45-.55h-6.35a.55.55,0,0,0-.55.55V68.64a.51.51,0,0,0,.55.5h6.35a.49.49,0,0,0,.45-.5v-4.8Z" fill="#fff"/>
          <path d="M332.65,76.44h-8.7V68H316.3v8.4h-8.7V46.64a3.75,3.75,0,0,1,4-4H328.7a3.75,3.75,0,0,1,4,4Zm-8.7-15.7V50.59a1.06,1.06,0,0,0-1.2-1h-5.4a1,1,0,0,0-1.05,1V60.74Z" fill="#fff"/>
          <path d="M360.1,42.69a6.89,6.89,0,0,1,6.85,6.85v20a6.9,6.9,0,0,1-6.85,6.9H341.95V42.69Zm-1.8,9.7a2.34,2.34,0,0,0-2.45-2.45h-5.2v19.2h5.2a2.34,2.34,0,0,0,2.45-2.45Z" fill="#fff"/>
          <path d="M376.25,42.69H398.3v7.25H384.9v5.9h11.6V63H384.9v6.1h13.4v7.3H376.25Z" fill="#fff"/>
          <path d="M406,69.14h12.65c.35,0,.55-.2.55-.45v-4.9c0-.25-.2-.45-.55-.45h-8.7a3.75,3.75,0,0,1-4-4V46.64a3.75,3.75,0,0,1,4-4H427.4v7.25H415.2a.51.51,0,0,0-.5.55v5a.49.49,0,0,0,.5.45h8.7a3.75,3.75,0,0,1,4,4V72.49a3.75,3.75,0,0,1-4,3.95H406Z" fill="#fff"/>
        </g>
        <g>
          <path d="M152.44,87.69h7.47V90.6h-4.08v5.7h3.33v2.82h-3.33V105h4.08v2.91h-7.47Z" fill="#fff"/>
          <path d="M163.18,87.69h3.36v17.25h3.9v3h-7.26Z" fill="#fff"/>
          <path d="M173.11,87.69h7.47V90.6H176.5v5.7h3.33v2.82H176.5V105h4.08v2.91h-7.47Z" fill="#fff"/>
          <path d="M186,107.94l-3.27-20.25h3.42l1.59,14.07,1.62-14.07h3.27l-3.24,20.25Z" fill="#fff"/>
          <path d="M198.76,100.56H195V95.88h3.78Zm0,7.38H195v-4.68h3.78Z" fill="#fff"/>
          <path d="M205.78,107.94v-2.85h3.78V91l-2.94.66-.6-2.49,4.23-1.44h2.64v17.4h3.42v2.85Z" fill="#fff"/>
          <path d="M228.46,89.85v15.9a2.17,2.17,0,0,1-2.34,2.34h-4.95a2.17,2.17,0,0,1-2.34-2.34V89.85a2.17,2.17,0,0,1,2.34-2.34h4.95A2.17,2.17,0,0,1,228.46,89.85Zm-3.75,15.45a.35.35,0,0,0,.36-.36V90.72a.35.35,0,0,0-.36-.36h-2.13a.35.35,0,0,0-.36.36v14.22a.35.35,0,0,0,.36.36Z" fill="#fff"/>
          <path d="M233.44,103.77h3.84l-2.7,8.22h-3.27Z" fill="#fff"/>
          <path d="M249.76,87.69v2.52l-5.94,17.73H240.4l6-17.43h-6.24V87.69Z" fill="#fff"/>
          <path d="M260,97.44a2.39,2.39,0,0,1,2.19,2.28v6a2.17,2.17,0,0,1-2.34,2.34h-4.56a2.17,2.17,0,0,1-2.34-2.34v-6a2.37,2.37,0,0,1,2.22-2.28c-1.14,0-2.22-.6-2.22-1.77V89.88a2.17,2.17,0,0,1,2.34-2.34h4.56a2.17,2.17,0,0,1,2.34,2.34v5.79A2,2,0,0,1,260,97.44Zm-1.2-6.69a.35.35,0,0,0-.36-.36h-1.74a.35.35,0,0,0-.36.36v5.19a.35.35,0,0,0,.36.36h1.74a.35.35,0,0,0,.36-.36Zm0,8.7a.35.35,0,0,0-.36-.36h-1.74a.35.35,0,0,0-.36.36v5.43a.35.35,0,0,0,.36.36h1.74a.35.35,0,0,0,.36-.36Z" fill="#fff"/>
          <path d="M264.88,107.94v-2.85h3.78V91l-2.94.66-.6-2.49,4.23-1.44H272v17.4h3.42v2.85Z" fill="#fff"/>
        </g>
        <g>
          <path d="M169.34,25.55c1.48-.31,3.75-2.3,6.11-4.9.25-.29.43-.59.59-.59.31,0,.43,1.43.51,2.05,0,.25.16.47.16.74a1.91,1.91,0,0,1-.49,1.11c-1.48,2-6.35,6-8.4,6A2.66,2.66,0,0,1,165,27.4a2.91,2.91,0,0,1,0-.41c.51-2.71,8.44-14,12.23-19.32-5.35,5.53-17.87,18.89-20.59,21.11a1.24,1.24,0,0,1-.84.27c-1,0-2.17-.78-2.17-1.68v-.1c.12-1.09,6.68-13.89,10-19.49-4,4.45-13.22,15.76-17.95,25.23a.91.91,0,0,1-.88.63,4.83,4.83,0,0,1-1.09-.21c-1-.27-1.72-.8-1.72-1.64,0-1.89,17.66-26.6,23.48-30.49a2.06,2.06,0,0,1,1.11-.43c.43,0,.61.25.76.25a.18.18,0,0,0,.14-.06,1.35,1.35,0,0,1,1-.31c.94,0,2.17.43,2.17,1a.46.46,0,0,1,0,.16c-.39,1.07-7.07,12.48-10.7,19.51C163.85,16.68,176.63,3,180.79.51a.88.88,0,0,1,.53-.14,5.3,5.3,0,0,1,1.39.27,16.41,16.41,0,0,0,2.07.27c.39.08.76.37.76.72a.52.52,0,0,1-.12.31C182.86,5.35,171.59,20.51,169.34,25.55Z" fill="#fff"/>
          <path d="M187,25.76a8.48,8.48,0,0,1-6.89,4.36,3.71,3.71,0,0,1-3.55-3.36c0-2,4.3-8.2,4.3-8.52S180,17.4,180,17s3-3.63,4.71-3.63a1.87,1.87,0,0,1,1.45,1.56c0,.41-4.08,7.46-4.65,8.44-.47.78-1.46,2.19-1.46,3.13,0,.55.51.66,1,.66,2.36,0,4.92-3.95,5.53-3.95s.51,1.41.51,1.76A2,2,0,0,1,187,25.76Zm.12-14.53A1,1,0,0,1,186,10.08a3.55,3.55,0,0,1,3.16-3.32,1,1,0,0,1,1.15,1.11C190.28,9.32,188.6,11.23,187.11,11.23Z" fill="#fff"/>
          <path d="M189.73,23.36a15.64,15.64,0,0,0-.31,1.88,1.92,1.92,0,0,0,2.11,2c2.44,0,5.14-4,6-4,.51,0,.51,1.11.51,1.43V25a2.58,2.58,0,0,1-.92,1.86,10.08,10.08,0,0,1-6.87,3.24c-2.6,0-3.81-1.68-3.81-4.2,0-5.41,3.54-13.32,6.64-17.71,2.4-3.4,6.13-8.16,8.81-8.16a2.19,2.19,0,0,1,2.36,2C204.22,6.52,193.05,19.67,189.73,23.36ZM200.79,2.95c-1,0-6.58,8-7.36,9.38a40.5,40.5,0,0,0-2.89,6.6C192.43,16.68,201,5.35,201,3.24,201,3.09,200.94,2.95,200.79,2.95Z" fill="#fff"/>
          <path d="M206,17.95c-.62,0-.7-.31-.7-.88a2,2,0,0,1,.08-.51,9.27,9.27,0,0,0-1.6.76c-.64.35-3.32,2.11-3.32,2.83,0,.16.31.16.39.16,1.05,0,1.93-.64,2.93-.64a1.33,1.33,0,0,1,.39,0A2.3,2.3,0,0,1,205,21c0,.33-.43.66-.68.88a9.69,9.69,0,0,1-1.84.84c-.8.45-4.12,2.29-4.12,3.16,0,1.37,1.56,1.52,2.6,1.52,2.85,0,5.57-2.7,7.36-4a.93.93,0,0,1,.45-.2c.51,0,.51,1.19.51,1.54a3.24,3.24,0,0,1-.12,1.05,2.72,2.72,0,0,1-.8.92c-1.87,1.52-4.75,3.4-7.91,3.4-2.32,0-5.37-.72-5.37-3.59,0-2.17,1.89-3.4,3.73-4.08-1.07-.49-1.17-1.25-1.17-2.29,0-3.85,6.48-6.6,9.8-6.6.68,0,2,.35,2,1.19A3.47,3.47,0,0,1,206,17.95Z" fill="#fff"/>
          <path d="M228,25.12c1,0,.66.53,1,.68s.55,1.5.57,1.91v.18c0,.39-.14.7-.51.78-3.24.68-8.42.76-11.13,1.13a4.7,4.7,0,0,1-1.31-.45,3.18,3.18,0,0,1-.59-1.29,4.59,4.59,0,0,1,.37-1.19c.12-.25,1.07-1.25,2.44-2.75s4.75-4.12,6.43-6c3.42-3.83,8.24-8.28,8.22-9.57,0-.25-.29-.37-.64-.37-1.15,0-4.69,1.62-8,6.25a.57.57,0,0,0-.12.41,1.92,1.92,0,0,1-1.54.9,2.87,2.87,0,0,1-1.5-.7,1,1,0,0,1-.18-.68c0-2.17,6.23-9.16,12.34-9.16,1.89,0,2.66,2.07,2.66,3.07,0,4-12.07,14.51-15.43,17.85A56.83,56.83,0,0,1,228,25.12Z" fill="#fff"/>
          <path d="M245.63,17.64c2.52-.25,4-.41,4.69-.41a.16.16,0,0,1,.18.18,1.58,1.58,0,0,1-.29.63A11.86,11.86,0,0,1,248,20.68c-.2,0-1.8.23-4.34.47-1,1.84-2.73,4.88-4.73,8.55-.37.82-2.29.84-3.09,1.17a1,1,0,0,1-.74-.72c.94-2,2.68-5,4.8-8.71-3.3.23-5.86.43-6.35.43s-.64-.92-.64-1.66a3.66,3.66,0,0,1,.12-1.05c1.52-3.52,15.23-14,17.4-14.36,0,0,.51.18,1.37.47.23.14.25.55.45.64a1.53,1.53,0,0,1,.16.55.15.15,0,0,1,0,.1C249.48,11,247.39,14.47,245.63,17.64Zm-3.71.39c1.41-2.38,3.55-5.78,6.09-9.36-3.54,2.93-8.54,7.68-11.41,10.2C238.44,18.52,240,18.28,241.92,18Z" fill="#fff"/>
          <path d="M256.1,17.11c2.48-1.72,4.24-2.56,5.88-2.56a2.67,2.67,0,0,1,2.66,2.66c0,4.9-6.41,12.83-12.79,12.83a3,3,0,0,1-2.77-3.28,1.89,1.89,0,0,1,0-.33c.37-4.08,2.93-8.67,6.21-12.83,4.94-6.25,11.76-9,13.26-9s1.6,1.05,1.6,1.84c0,.51-.12.9-.35,1A28.13,28.13,0,0,0,256.1,17.11Zm-2,3.2a14.57,14.57,0,0,0-2.05,5.8c0,.59.18,1,.63,1,.74,0,2.64-.88,4.94-3,2-1.86,3.59-4.2,3.59-5.57A1.18,1.18,0,0,0,260,17.4C258.33,17.4,255.32,19.2,254.09,20.31Z" fill="#fff"/>
          <path d="M284.11,13.2c0,.08,0,.18.06.27a3.47,3.47,0,0,1,0,.61c-.68,3.46-8.83,15.76-15.7,15.76a3.21,3.21,0,0,1-3.24-3.38c-.25-7.3,11.93-21.27,18.18-21.27,1.37,0,2.4,1.35,2.46,3.14a5.3,5.3,0,0,1-.1,1.09A10.88,10.88,0,0,1,284.11,13.2Zm-4.77,4.69a3.9,3.9,0,0,1-1.78.61c-.78,0-1.21-.76-1.25-1.54,0-.35,0-1.07.59-1.29,3.38-1.33,5.59-4.49,5.51-6.78a.61.61,0,0,0-.68-.62c-2.85,0-11.48,10.41-12.91,15.9a2.18,2.18,0,0,0-.06.72c0,.78.27,1.56,1.19,1.56C272.25,26.45,276.08,22.23,279.34,17.89Z" fill="#fff"/>
        </g>
      </g>
    </g>
  </g>
</svg>
