<svg xmlns="http://www.w3.org/2000/svg" width="520.49" height="114.99" viewBox="0 0 520.49 114.99">
  <title>n_terminus</title>
  <g id="Layer_2" data-name="Layer 2">
    <g id="Pop_up_type">
      <g>
        <path d="M205.27,90.69h7.47V93.6h-4.08v5.7H212v2.82h-3.33V108h4.08v2.91h-7.47Z" fill="#fff"/>
        <path d="M216,90.69h3.36v17.25h3.9v3H216Z" fill="#fff"/>
        <path d="M225.94,90.69h7.47V93.6h-4.08v5.7h3.33v2.82h-3.33V108h4.08v2.91h-7.47Z" fill="#fff"/>
        <path d="M238.84,110.94l-3.27-20.25H239l1.59,14.07,1.62-14.07h3.27l-3.24,20.25Z" fill="#fff"/>
        <path d="M251.59,103.56h-3.78V98.88h3.78Zm0,7.38h-3.78v-4.68h3.78Z" fill="#fff"/>
        <path d="M269.26,106.32h-1.74v4.62h-3.33v-4.62H259V90.69h3.06v13h2.25v-13h3.18v13h1.74Z" fill="#fff"/>
        <path d="M273.7,106.77h3.84l-2.7,8.22h-3.27Z" fill="#fff"/>
        <path d="M284.74,102.6a.35.35,0,0,0-.36.36v5.19h5.1v2.79H281V101.7a2.17,2.17,0,0,1,2.34-2.34h2.37a.35.35,0,0,0,.36-.36V93.87a.35.35,0,0,0-.36-.36h-4.41V90.69h5.82A2.17,2.17,0,0,1,289.45,93v7.23a2.17,2.17,0,0,1-2.34,2.34Z" fill="#fff"/>
        <path d="M303.19,106.32h-1.74v4.62h-3.33v-4.62H293V90.69H296v13h2.25v-13h3.18v13h1.74Z" fill="#fff"/>
        <path d="M315.22,92.85v15.9a2.17,2.17,0,0,1-2.34,2.34h-4.95a2.17,2.17,0,0,1-2.34-2.34V92.85a2.17,2.17,0,0,1,2.34-2.34h4.95A2.17,2.17,0,0,1,315.22,92.85Zm-3.75,15.45a.35.35,0,0,0,.36-.36V93.72a.35.35,0,0,0-.36-.36h-2.13a.35.35,0,0,0-.36.36v14.22a.35.35,0,0,0,.36.36Z" fill="#fff"/>
      </g>
      <g>
        <path d="M8,59.89V78.44H0V44.69H8l10.1,18.6V44.69h8V78.44H17.85Z" fill="#fff"/>
        <path d="M56.7,44.69a3.75,3.75,0,0,1,4,4V74.49a3.75,3.75,0,0,1-4,3.95H39.35a3.75,3.75,0,0,1-4-3.95V48.64a3.75,3.75,0,0,1,4-4ZM52,52.54A.56.56,0,0,0,51.4,52H44.55a.55.55,0,0,0-.45.55V70.69a.48.48,0,0,0,.45.45H51.4a.51.51,0,0,0,.55-.45Z" fill="#fff"/>
        <path d="M91.15,44.69a3.8,3.8,0,0,1,3.8,3.8V63.94a3.86,3.86,0,0,1-3.8,3.8H90.9l4.15,10.7h-8.5l-4.2-10.7h-3.7v10.7h-8.7V44.69ZM86.3,52.44a.54.54,0,0,0-.45-.5h-7.2v9h7.2a.53.53,0,0,0,.45-.45Z" fill="#fff"/>
        <path d="M124.75,44.69V52H117.1V78.44h-8.7V52h-7.65v-7.3Z" fill="#fff"/>
        <path d="M156.85,78.44h-8.7V65H139.9v13.4h-8.7V44.69h8.7v12.9h8.25V44.69h8.7Z" fill="#fff"/>
        <path d="M166.45,44.69H188.5v7.25H175.1v5.9h11.6V65H175.1v6.1h13.4v7.3H166.45Z" fill="#fff"/>
        <path d="M218.1,44.69a3.8,3.8,0,0,1,3.8,3.8V63.94a3.86,3.86,0,0,1-3.8,3.8h-.25L222,78.44h-8.5l-4.2-10.7h-3.7v10.7h-8.7V44.69Zm-4.85,7.75a.54.54,0,0,0-.45-.5h-7.2v9h7.2a.53.53,0,0,0,.45-.45Z" fill="#fff"/>
        <path d="M238.85,59.89V78.44h-8V44.69h8l10.1,18.6V44.69h8V78.44H248.7Z" fill="#fff"/>
        <path d="M299.55,44.69V52H291.9V78.44h-8.7V52h-7.65v-7.3Z" fill="#fff"/>
        <path d="M306,44.69H328v7.25h-13.4v5.9h11.6V65h-11.6v6.1H328v7.3H306Z" fill="#fff"/>
        <path d="M357.65,44.69a3.8,3.8,0,0,1,3.8,3.8V63.94a3.86,3.86,0,0,1-3.8,3.8h-.25l4.15,10.7H353l-4.2-10.7h-3.7v10.7h-8.7V44.69Zm-4.85,7.75a.54.54,0,0,0-.45-.5h-7.2v9h7.2a.53.53,0,0,0,.45-.45Z" fill="#fff"/>
        <path d="M378.4,59.34v19.1h-8V44.69h8.8L386,60.44l6.25-15.75h9.2V78.44h-8.2V59l-5.7,13.4h-3.4Z" fill="#fff"/>
        <path d="M419.69,78.44H411V44.69h8.65Z" fill="#fff"/>
        <path d="M437.29,59.89V78.44h-8V44.69h8l10.1,18.6V44.69h8V78.44h-8.25Z" fill="#fff"/>
        <path d="M473.69,44.69v26a.48.48,0,0,0,.45.45h6.35a.51.51,0,0,0,.55-.45v-26h8.7v29.9a3.78,3.78,0,0,1-3.8,3.85h-17.1A3.85,3.85,0,0,1,465,74.59V44.69Z" fill="#fff"/>
        <path d="M498.64,71.14h12.65c.35,0,.55-.2.55-.45v-4.9c0-.25-.2-.45-.55-.45h-8.7a3.75,3.75,0,0,1-4-4V48.64a3.75,3.75,0,0,1,4-4H520v7.25h-12.2a.51.51,0,0,0-.5.55v5a.49.49,0,0,0,.5.45h8.7a3.75,3.75,0,0,1,4,4V74.49a3.75,3.75,0,0,1-4,3.95h-17.9Z" fill="#fff"/>
      </g>
      <g>
        <path d="M216.59,25.55c1.48-.31,3.75-2.3,6.11-4.9.25-.29.43-.59.59-.59.31,0,.43,1.43.51,2.05,0,.25.16.47.16.74a1.91,1.91,0,0,1-.49,1.11c-1.48,2-6.35,6-8.4,6a2.66,2.66,0,0,1-2.79-2.6,2.91,2.91,0,0,1,0-.41c.51-2.71,8.44-14,12.23-19.32C219.19,13.2,206.67,26.56,204,28.79a1.24,1.24,0,0,1-.84.27c-1,0-2.17-.78-2.17-1.68v-.1c.12-1.09,6.68-13.89,10-19.49-4,4.45-13.22,15.76-17.95,25.23a.91.91,0,0,1-.88.63,4.83,4.83,0,0,1-1.09-.21c-1-.27-1.72-.8-1.72-1.64,0-1.89,17.66-26.6,23.48-30.49a2.06,2.06,0,0,1,1.11-.43c.43,0,.61.25.76.25a.18.18,0,0,0,.14-.06,1.35,1.35,0,0,1,1-.31c.94,0,2.17.43,2.17,1a.46.46,0,0,1,0,.16c-.39,1.07-7.07,12.48-10.7,19.51C211.1,16.68,223.88,3,228,.51a.88.88,0,0,1,.53-.14A5.3,5.3,0,0,1,230,.64,16.41,16.41,0,0,0,232,.92c.39.08.76.37.76.72a.52.52,0,0,1-.12.31C230.11,5.35,218.84,20.51,216.59,25.55Z" fill="#fff"/>
        <path d="M234.25,25.76a8.48,8.48,0,0,1-6.89,4.36,3.71,3.71,0,0,1-3.55-3.36c0-2,4.3-8.2,4.3-8.52s-.8-.84-.8-1.29,3-3.63,4.71-3.63a1.87,1.87,0,0,1,1.45,1.56c0,.41-4.08,7.46-4.65,8.44-.47.78-1.46,2.19-1.46,3.13,0,.55.51.66,1,.66,2.36,0,4.92-3.95,5.53-3.95s.51,1.41.51,1.76A2,2,0,0,1,234.25,25.76Zm.12-14.53a1,1,0,0,1-1.15-1.15,3.55,3.55,0,0,1,3.16-3.32,1,1,0,0,1,1.15,1.11C237.53,9.32,235.85,11.23,234.37,11.23Z" fill="#fff"/>
        <path d="M237,23.36a15.64,15.64,0,0,0-.31,1.88,1.92,1.92,0,0,0,2.11,2c2.44,0,5.14-4,6-4,.51,0,.51,1.11.51,1.43V25a2.58,2.58,0,0,1-.92,1.86,10.08,10.08,0,0,1-6.87,3.24c-2.6,0-3.81-1.68-3.81-4.2,0-5.41,3.54-13.32,6.64-17.71,2.4-3.4,6.13-8.16,8.81-8.16a2.19,2.19,0,0,1,2.36,2C251.48,6.52,240.3,19.67,237,23.36ZM248,2.95c-1,0-6.58,8-7.36,9.38a40.5,40.5,0,0,0-2.89,6.6c1.89-2.25,10.45-13.57,10.45-15.68C248.23,3.09,248.19,2.95,248,2.95Z" fill="#fff"/>
        <path d="M253.25,17.95c-.62,0-.7-.31-.7-.88a2,2,0,0,1,.08-.51,9.27,9.27,0,0,0-1.6.76c-.64.35-3.32,2.11-3.32,2.83,0,.16.31.16.39.16,1.05,0,1.93-.64,2.93-.64a1.33,1.33,0,0,1,.39,0,2.3,2.3,0,0,1,.84,1.29c0,.33-.43.66-.68.88a9.69,9.69,0,0,1-1.84.84c-.8.45-4.12,2.29-4.12,3.16,0,1.37,1.56,1.52,2.6,1.52,2.85,0,5.57-2.7,7.36-4a.93.93,0,0,1,.45-.2c.51,0,.51,1.19.51,1.54a3.24,3.24,0,0,1-.12,1.05,2.72,2.72,0,0,1-.8.92c-1.87,1.52-4.75,3.4-7.91,3.4-2.32,0-5.37-.72-5.37-3.59,0-2.17,1.89-3.4,3.73-4.08-1.07-.49-1.17-1.25-1.17-2.29,0-3.85,6.48-6.6,9.8-6.6.68,0,2,.35,2,1.19A3.47,3.47,0,0,1,253.25,17.95Z" fill="#fff"/>
        <path d="M275.23,25.12c1,0,.66.53,1,.68s.55,1.5.57,1.91v.18c0,.39-.14.7-.51.78-3.24.68-8.42.76-11.13,1.13a4.7,4.7,0,0,1-1.31-.45,3.18,3.18,0,0,1-.59-1.29,4.59,4.59,0,0,1,.37-1.19c.12-.25,1.07-1.25,2.44-2.75s4.75-4.12,6.43-6c3.42-3.83,8.24-8.28,8.22-9.57,0-.25-.29-.37-.64-.37-1.15,0-4.69,1.62-8,6.25a.57.57,0,0,0-.12.41,1.92,1.92,0,0,1-1.54.9,2.87,2.87,0,0,1-1.5-.7,1,1,0,0,1-.18-.68c0-2.17,6.23-9.16,12.34-9.16,1.89,0,2.66,2.07,2.66,3.07,0,4-12.07,14.51-15.43,17.85A56.83,56.83,0,0,1,275.23,25.12Z" fill="#fff"/>
        <path d="M286.36,17.11c2.48-1.72,4.24-2.56,5.88-2.56a2.67,2.67,0,0,1,2.66,2.66c0,4.9-6.41,12.83-12.79,12.83a3,3,0,0,1-2.77-3.28,1.89,1.89,0,0,1,0-.33c.37-4.08,2.93-8.67,6.21-12.83,4.94-6.25,11.76-9,13.26-9s1.6,1.05,1.6,1.84c0,.51-.12.9-.35,1A28.13,28.13,0,0,0,286.36,17.11Zm-2,3.2a14.57,14.57,0,0,0-2.05,5.8c0,.59.18,1,.63,1,.74,0,2.64-.88,4.94-3,2-1.86,3.59-4.2,3.59-5.57a1.18,1.18,0,0,0-1.19-1.11C288.58,17.4,285.58,19.2,284.35,20.31Z" fill="#fff"/>
        <path d="M306,10.23c-.88,1.41-2.48,4.12-3.28,5.49a10.44,10.44,0,0,1,2-.2c2.17,0,4.51.74,4.67,3.36,0,6.64-7.79,11.15-11.93,11.15-2.36,0-3.36-1.21-3.36-3.09,0-1.35.64-2.64,1.64-2.64.29,0,.43.21.43.68.06,1.13.86,1.58,2,1.58,2.85,0,8.2-3.22,8.2-6.11-.06-1.07-1.5-1.39-3-1.39a18,18,0,0,0-3.55.39,1.56,1.56,0,0,1-.31.06c-.16,0-.21,0-.66-1.09-.08-.08-.1-.16-.1-.33a2.34,2.34,0,0,1,.23-.86,104.77,104.77,0,0,1,6.05-10.1A1.49,1.49,0,0,1,306,6.56c1.6-.39,7.83-1,7.75-1,.63,0,1.52,1.66,1.52,2.05A2.94,2.94,0,0,1,315,8.93C314,9.67,308.7,10,306,10.23Z" fill="#fff"/>
        <path d="M329.5,13.2c0,.08,0,.18.06.27a3.47,3.47,0,0,1,0,.61c-.68,3.46-8.83,15.76-15.7,15.76a3.21,3.21,0,0,1-3.24-3.38c-.25-7.3,11.93-21.27,18.18-21.27,1.37,0,2.4,1.35,2.46,3.14a5.3,5.3,0,0,1-.1,1.09A10.88,10.88,0,0,1,329.5,13.2Zm-4.77,4.69a3.9,3.9,0,0,1-1.78.61c-.78,0-1.21-.76-1.25-1.54,0-.35,0-1.07.59-1.29,3.38-1.33,5.59-4.49,5.51-6.78a.61.61,0,0,0-.68-.62c-2.85,0-11.48,10.41-12.91,15.9a2.18,2.18,0,0,0-.06.72c0,.78.27,1.56,1.19,1.56C317.65,26.45,321.48,22.23,324.74,17.89Z" fill="#fff"/>
      </g>
    </g>
  </g>
</svg>
