<svg xmlns="http://www.w3.org/2000/svg" width="363.5" height="124.06" viewBox="0 0 363.5 124.06">
  <title>t_sisters</title>
  <g id="Layer_2" data-name="Layer 2">
    <g id="Pop_up_type">
      <g>
        <g>
          <path d="M24,44.69V52H16.35V78.44H7.65V52H0v-7.3Z" fill="#fff"/>
          <path d="M56.1,78.44H47.4V65H39.15v13.4h-8.7V44.69h8.7v12.9H47.4V44.69h8.7Z" fill="#fff"/>
          <path d="M86.9,44.69a3.8,3.8,0,0,1,3.8,3.8V63.94a3.86,3.86,0,0,1-3.8,3.8h-.25l4.15,10.7H82.3l-4.2-10.7H74.4v10.7H65.7V44.69Zm-4.85,7.75a.54.54,0,0,0-.45-.5H74.4v9h7.2a.53.53,0,0,0,.45-.45Z" fill="#fff"/>
          <path d="M99.65,44.69H121.7v7.25H108.3v5.9h11.6V65H108.3v6.1h13.4v7.3H99.65Z" fill="#fff"/>
          <path d="M130.1,44.69h22.05v7.25h-13.4v5.9h11.6V65h-11.6v6.1h13.4v7.3H130.1Z" fill="#fff"/>
          <path d="M172,71.14h12.65c.35,0,.55-.2.55-.45v-4.9c0-.25-.2-.45-.55-.45h-8.7a3.75,3.75,0,0,1-4-4V48.64a3.75,3.75,0,0,1,4-4H193.4v7.25H181.2a.51.51,0,0,0-.5.55v5a.49.49,0,0,0,.5.45h8.7a3.75,3.75,0,0,1,4,4V74.49a3.75,3.75,0,0,1-4,3.95H172Z" fill="#fff"/>
          <path d="M211.2,78.44h-8.65V44.69h8.65Z" fill="#fff"/>
          <path d="M220.1,71.14h12.65c.35,0,.55-.2.55-.45v-4.9c0-.25-.2-.45-.55-.45H224a3.75,3.75,0,0,1-4-4V48.64a3.75,3.75,0,0,1,4-4H241.5v7.25H229.3a.51.51,0,0,0-.5.55v5a.49.49,0,0,0,.5.45H238a3.75,3.75,0,0,1,4,4V74.49a3.75,3.75,0,0,1-4,3.95H220.1Z" fill="#fff"/>
          <path d="M271.5,44.69V52h-7.65V78.44h-8.7V52H247.5v-7.3Z" fill="#fff"/>
          <path d="M277.94,44.69H300v7.25H286.6v5.9h11.6V65H286.6v6.1H300v7.3H277.94Z" fill="#fff"/>
          <path d="M329.6,44.69a3.8,3.8,0,0,1,3.8,3.8V63.94a3.86,3.86,0,0,1-3.8,3.8h-.25l4.15,10.7H325l-4.2-10.7h-3.7v10.7h-8.7V44.69Zm-4.85,7.75a.54.54,0,0,0-.45-.5h-7.2v9h7.2a.53.53,0,0,0,.45-.45Z" fill="#fff"/>
          <path d="M341.64,71.14h12.65c.35,0,.55-.2.55-.45v-4.9c0-.25-.2-.45-.55-.45h-8.7a3.75,3.75,0,0,1-4-4V48.64a3.75,3.75,0,0,1,4-4H363v7.25h-12.2a.51.51,0,0,0-.5.55v5a.49.49,0,0,0,.5.45h8.7a3.75,3.75,0,0,1,4,4V74.49a3.75,3.75,0,0,1-4,3.95h-17.9Z" fill="#fff"/>
        </g>
        <g>
          <path d="M143.86,25.55c1.48-.31,3.75-2.3,6.11-4.9.25-.29.43-.59.59-.59.31,0,.43,1.43.51,2.05,0,.25.16.47.16.74a1.91,1.91,0,0,1-.49,1.11c-1.48,2-6.35,6-8.4,6a2.66,2.66,0,0,1-2.79-2.6,2.91,2.91,0,0,1,0-.41c.51-2.71,8.44-14,12.23-19.32-5.35,5.53-17.87,18.89-20.59,21.11a1.24,1.24,0,0,1-.84.27c-1,0-2.17-.78-2.17-1.68v-.1c.12-1.09,6.68-13.89,10-19.49-4,4.45-13.22,15.76-17.95,25.23a.91.91,0,0,1-.88.63,4.83,4.83,0,0,1-1.09-.21c-1-.27-1.72-.8-1.72-1.64,0-1.89,17.66-26.6,23.48-30.49a2.06,2.06,0,0,1,1.11-.43c.43,0,.61.25.76.25a.18.18,0,0,0,.14-.06,1.35,1.35,0,0,1,1-.31c.94,0,2.17.43,2.17,1a.46.46,0,0,1,0,.16c-.39,1.07-7.07,12.48-10.7,19.51C138.37,16.68,151.14,3,155.3.51a.88.88,0,0,1,.53-.14,5.3,5.3,0,0,1,1.39.27,16.41,16.41,0,0,0,2.07.27c.39.08.76.37.76.72a.52.52,0,0,1-.12.31C157.37,5.35,146.1,20.51,143.86,25.55Z" fill="#fff"/>
          <path d="M161.51,25.76a8.48,8.48,0,0,1-6.89,4.36,3.71,3.71,0,0,1-3.55-3.36c0-2,4.3-8.2,4.3-8.52s-.8-.84-.8-1.29,3-3.63,4.71-3.63a1.87,1.87,0,0,1,1.45,1.56c0,.41-4.08,7.46-4.65,8.44-.47.78-1.46,2.19-1.46,3.13,0,.55.51.66,1,.66,2.36,0,4.92-3.95,5.53-3.95s.51,1.41.51,1.76A2,2,0,0,1,161.51,25.76Zm.12-14.53a1,1,0,0,1-1.15-1.15,3.55,3.55,0,0,1,3.16-3.32,1,1,0,0,1,1.15,1.11C164.79,9.32,163.11,11.23,161.63,11.23Z" fill="#fff"/>
          <path d="M164.25,23.36a15.64,15.64,0,0,0-.31,1.88,1.92,1.92,0,0,0,2.11,2c2.44,0,5.14-4,6-4,.51,0,.51,1.11.51,1.43V25a2.58,2.58,0,0,1-.92,1.86,10.08,10.08,0,0,1-6.87,3.24c-2.6,0-3.81-1.68-3.81-4.2,0-5.41,3.54-13.32,6.64-17.71C170,4.77,173.7,0,176.38,0a2.19,2.19,0,0,1,2.36,2C178.74,6.52,167.57,19.67,164.25,23.36ZM175.3,2.95c-1,0-6.58,8-7.36,9.38a40.5,40.5,0,0,0-2.89,6.6c1.89-2.25,10.45-13.57,10.45-15.68C175.5,3.09,175.46,2.95,175.3,2.95Z" fill="#fff"/>
          <path d="M180.52,17.95c-.62,0-.7-.31-.7-.88a2,2,0,0,1,.08-.51,9.27,9.27,0,0,0-1.6.76c-.64.35-3.32,2.11-3.32,2.83,0,.16.31.16.39.16,1.05,0,1.93-.64,2.93-.64a1.33,1.33,0,0,1,.39,0,2.3,2.3,0,0,1,.84,1.29c0,.33-.43.66-.68.88a9.69,9.69,0,0,1-1.84.84c-.8.45-4.12,2.29-4.12,3.16,0,1.37,1.56,1.52,2.6,1.52,2.85,0,5.57-2.7,7.36-4a.93.93,0,0,1,.45-.2c.51,0,.51,1.19.51,1.54a3.24,3.24,0,0,1-.12,1.05,2.72,2.72,0,0,1-.8.92c-1.87,1.52-4.75,3.4-7.91,3.4-2.32,0-5.37-.72-5.37-3.59,0-2.17,1.89-3.4,3.73-4.08-1.07-.49-1.17-1.25-1.17-2.29,0-3.85,6.48-6.6,9.8-6.6.68,0,2,.35,2,1.19A3.47,3.47,0,0,1,180.52,17.95Z" fill="#fff"/>
          <path d="M193,29.39a3.92,3.92,0,0,1-1.37.41c-.21,0-.33-.62-1-1.41-.1-.2-.47-.27-.47-.39a.07.07,0,0,1,0-.06,189.72,189.72,0,0,1,10.49-17.27c-.62.43-1.13.84-1.7,1.31-.14.1-.16.12-.27.12-.31,0-.31-.64-.45-.88S198,11,198,10.78a2.5,2.5,0,0,1,.16-.47c.29-.8,5.25-5.08,6.45-5.08A2.17,2.17,0,0,1,206.24,7c-.06.49-3.26,5.16-6.62,10.66C196.61,22.64,193.52,27.75,193,29.39Z" fill="#fff"/>
          <path d="M200.22,28.85a2.11,2.11,0,0,1-.33-1c0-.33.18-.55.64-.7,3.28-1.11,7.64-4.57,11.62-9l-.1-.12a12.91,12.91,0,0,1-5,1.8,2.45,2.45,0,0,1-2.48-2.56C204.6,10,214,4.47,217.74,4.47c1.91,0,3,1.17,3,3.26,0,.2,0,.43,0,.64-.61,7.15-15.08,21.78-19.22,21.78C200.81,30.16,200.52,29.63,200.22,28.85Zm7.66-13.26c0,.63.49.84,1.09.84,1.43,0,3.93-1.19,5.66-2.11C216.32,12.07,218,9.77,218,8.4a1.16,1.16,0,0,0-1.09-1.11C214,7.29,207.88,13.26,207.88,15.59Z" fill="#fff"/>
          <path d="M227.59,16.84c1.05,1.46,2.44,2.75,2.44,4.69v.37c-.43,4.88-5.74,8-10.1,8-2.17,0-4.55-.92-4.55-3.34,0-.1,0-.21,0-.33.55-3.81,5-7.54,7.95-9.57a7.35,7.35,0,0,1-1-3.61,4.81,4.81,0,0,1,0-.51c.63-3.85,4.22-7.71,8-7.71a3.42,3.42,0,0,1,3.28,1.62,1.89,1.89,0,0,1,.2.64,7.8,7.8,0,0,1-.53,1.72,43.47,43.47,0,0,1,4.45-3.07c.31,0,.64-.06.94-.06.84,0,1.25.06,1.25.63a1.44,1.44,0,0,1-.53,1.15c-1.21,1-2.58,1.89-3.83,2.91-2.71,2.05-5.35,4.2-8,6.27Zm-2.85,1.91c-1.58,1.23-5.51,4.57-5.51,6.48,0,1,1,1.43,1.93,1.43,2.15,0,5.76-1.8,5.76-4.36,0-1.19-1-2.3-1.72-3.16h0a2.09,2.09,0,0,0-.35-.37Zm.84-6.27a6.23,6.23,0,0,0,.51,2.23c1.89-1.6,4-3.3,5.94-4.82a2.74,2.74,0,0,0-2.4-1.62,4.47,4.47,0,0,0-4,3.71A4.81,4.81,0,0,0,225.58,12.48Z" fill="#fff"/>
          <path d="M233.68,29.39a3.92,3.92,0,0,1-1.37.41c-.21,0-.33-.62-1-1.41-.1-.2-.47-.27-.47-.39a.07.07,0,0,1,0-.06,189.72,189.72,0,0,1,10.49-17.27c-.62.43-1.13.84-1.7,1.31-.14.1-.16.12-.27.12-.31,0-.31-.64-.45-.88s-.23-.25-.23-.45a2.5,2.5,0,0,1,.16-.47c.29-.8,5.25-5.08,6.45-5.08A2.17,2.17,0,0,1,247,7c-.06.49-3.26,5.16-6.62,10.66C237.33,22.64,234.25,27.75,233.68,29.39Z" fill="#fff"/>
        </g>
        <g>
          <path d="M32.46,94.69h7.47V97.6H35.85v5.7h3.33v2.82H35.85V112h4.08v2.91H32.46Z" fill="#fff"/>
          <path d="M43.19,94.69h3.36v17.25h3.9v3H43.19Z" fill="#fff"/>
          <path d="M53.12,94.69h7.47V97.6H56.52v5.7h3.33v2.82H56.52V112h4.08v2.91H53.12Z" fill="#fff"/>
          <path d="M66,114.94,62.75,94.69h3.42l1.59,14.07,1.62-14.07h3.27l-3.24,20.25Z" fill="#fff"/>
          <path d="M78.77,107.56H75v-4.68h3.78Zm0,7.38H75v-4.68h3.78Z" fill="#fff"/>
          <path d="M85.79,114.94v-2.85h3.78V98l-2.94.66L86,96.13l4.23-1.44H92.9v17.4h3.42v2.85Z" fill="#fff"/>
          <path d="M108.47,96.85v15.9a2.17,2.17,0,0,1-2.34,2.34h-4.95a2.17,2.17,0,0,1-2.34-2.34V96.85a2.17,2.17,0,0,1,2.34-2.34h4.95A2.17,2.17,0,0,1,108.47,96.85Zm-3.75,15.45a.35.35,0,0,0,.36-.36V97.72a.35.35,0,0,0-.36-.36h-2.13a.35.35,0,0,0-.36.36v14.22a.35.35,0,0,0,.36.36Z" fill="#fff"/>
          <path d="M113.45,110.77h3.84l-2.7,8.22h-3.27Z" fill="#fff"/>
          <path d="M120.65,114.94v-2.82h4.41a.35.35,0,0,0,.36-.36v-5.58a.35.35,0,0,0-.36-.36h-3.9v-2.88h3.9a.35.35,0,0,0,.36-.36V97.87a.35.35,0,0,0-.36-.36h-4.41V94.69h5.82A2.17,2.17,0,0,1,128.81,97v5.28a3.64,3.64,0,0,1-1.35,2.34,2,2,0,0,1,1.35,2v5.91a2.17,2.17,0,0,1-2.34,2.34Z" fill="#fff"/>
          <path d="M136.7,97.51V103h2.64a2.17,2.17,0,0,1,2.34,2.34v7.29a2.17,2.17,0,0,1-2.34,2.34h-5.82v-2.82h4.41a.35.35,0,0,0,.36-.36v-5.4a.35.35,0,0,0-.36-.36h-4.44V94.69h8.07v2.82Z" fill="#fff"/>
          <path d="M152.6,104.44a2.39,2.39,0,0,1,2.19,2.28v6a2.17,2.17,0,0,1-2.34,2.34h-4.56a2.17,2.17,0,0,1-2.34-2.34v-6a2.37,2.37,0,0,1,2.22-2.28c-1.14,0-2.22-.6-2.22-1.77V96.88a2.17,2.17,0,0,1,2.34-2.34h4.56a2.17,2.17,0,0,1,2.34,2.34v5.79A2,2,0,0,1,152.6,104.44Zm-1.2-6.69a.35.35,0,0,0-.36-.36H149.3a.35.35,0,0,0-.36.36v5.19a.35.35,0,0,0,.36.36H151a.35.35,0,0,0,.36-.36Zm0,8.7a.35.35,0,0,0-.36-.36H149.3a.35.35,0,0,0-.36.36v5.43a.35.35,0,0,0,.36.36H151a.35.35,0,0,0,.36-.36Z" fill="#fff"/>
          <path d="M163.16,124.06V89.14h3.33v34.92Z" fill="#fff"/>
          <path d="M174.2,114.94v-2.85H178V98l-2.94.66-.6-2.49,4.23-1.44h2.64v17.4h3.42v2.85Z" fill="#fff"/>
          <path d="M196.88,96.85v15.9a2.17,2.17,0,0,1-2.34,2.34h-5a2.17,2.17,0,0,1-2.34-2.34V96.85a2.17,2.17,0,0,1,2.34-2.34h5A2.17,2.17,0,0,1,196.88,96.85Zm-3.75,15.45a.35.35,0,0,0,.36-.36V97.72a.35.35,0,0,0-.36-.36H191a.35.35,0,0,0-.36.36v14.22a.35.35,0,0,0,.36.36Z" fill="#fff"/>
          <path d="M201.86,110.77h3.84L203,119h-3.27Z" fill="#fff"/>
          <path d="M218.18,96.85v15.9a2.17,2.17,0,0,1-2.34,2.34h-4.95a2.17,2.17,0,0,1-2.34-2.34V96.85a2.17,2.17,0,0,1,2.34-2.34h4.95A2.17,2.17,0,0,1,218.18,96.85Zm-3.75,15.45a.35.35,0,0,0,.36-.36V97.72a.35.35,0,0,0-.36-.36H212.3a.35.35,0,0,0-.36.36v14.22a.35.35,0,0,0,.36.36Z" fill="#fff"/>
          <path d="M231.32,110.32h-1.74v4.62h-3.33v-4.62h-5.16V94.69h3.06v13h2.25v-13h3.18v13h1.74Z" fill="#fff"/>
          <path d="M243.35,94.69v2.52l-5.94,17.73H234l6-17.43h-6.24V94.69Z" fill="#fff"/>
          <path d="M251.54,124.06V89.14h3.33v34.92Z" fill="#fff"/>
          <path d="M262.58,114.94v-2.85h3.78V98l-2.94.66-.6-2.49,4.23-1.44h2.64v17.4h3.42v2.85Z" fill="#fff"/>
          <path d="M285.26,96.85v15.9a2.17,2.17,0,0,1-2.34,2.34H278a2.17,2.17,0,0,1-2.34-2.34V96.85A2.17,2.17,0,0,1,278,94.51h4.95A2.17,2.17,0,0,1,285.26,96.85Zm-3.75,15.45a.35.35,0,0,0,.36-.36V97.72a.35.35,0,0,0-.36-.36h-2.13a.35.35,0,0,0-.36.36v14.22a.35.35,0,0,0,.36.36Z" fill="#fff"/>
          <path d="M290.24,110.77h3.84l-2.7,8.22h-3.27Z" fill="#fff"/>
          <path d="M306.56,96.85v15.9a2.17,2.17,0,0,1-2.34,2.34h-5a2.17,2.17,0,0,1-2.34-2.34V96.85a2.17,2.17,0,0,1,2.34-2.34h5A2.17,2.17,0,0,1,306.56,96.85Zm-3.75,15.45a.35.35,0,0,0,.36-.36V97.72a.35.35,0,0,0-.36-.36h-2.13a.35.35,0,0,0-.36.36v14.22a.35.35,0,0,0,.36.36Z" fill="#fff"/>
          <path d="M316.76,104.44a2.39,2.39,0,0,1,2.19,2.28v6a2.17,2.17,0,0,1-2.34,2.34h-4.56a2.17,2.17,0,0,1-2.34-2.34v-6a2.37,2.37,0,0,1,2.22-2.28c-1.14,0-2.22-.6-2.22-1.77V96.88a2.17,2.17,0,0,1,2.34-2.34h4.56a2.17,2.17,0,0,1,2.34,2.34v5.79A2,2,0,0,1,316.76,104.44Zm-1.2-6.69a.35.35,0,0,0-.36-.36h-1.74a.35.35,0,0,0-.36.36v5.19a.35.35,0,0,0,.36.36h1.74a.35.35,0,0,0,.36-.36Zm0,8.7a.35.35,0,0,0-.36-.36h-1.74a.35.35,0,0,0-.36.36v5.43a.35.35,0,0,0,.36.36h1.74a.35.35,0,0,0,.36-.36Z" fill="#fff"/>
          <path d="M326.06,97.51V103h2.64a2.17,2.17,0,0,1,2.34,2.34v7.29a2.17,2.17,0,0,1-2.34,2.34h-5.82v-2.82h4.41a.35.35,0,0,0,.36-.36v-5.4a.35.35,0,0,0-.36-.36h-4.44V94.69h8.07v2.82Z" fill="#fff"/>
        </g>
      </g>
    </g>
  </g>
</svg>
