<svg xmlns="http://www.w3.org/2000/svg" width="1190.01" height="322.32" viewBox="0 0 1190.01 322.32">
  <title>bridge</title>
  <g id="Layer_2" data-name="Layer 2">
    <g id="Layer_5_mWhitney">
      <g>
        <path d="M1186.41,179.5h0l-83.45-60-.15-.1-.28-.18,0,0-.19-.12-.27-.15-.17-.08-.54-.26-.23-.1-.14-.06,0,0h0l-.05,0-.12,0h0l-.13,0-.69-.18h-.1l-.16,0-.29-.06h0a8.53,8.53,0,0,0-1.33-.1H900.08a95.37,95.37,0,0,0-4.65-26.65C889.54,73.49,875.3,50.95,841,44.09c-47.33-9.47-88.14-33-100.29-40.44-1.42-.88-2.46-1.54-3.06-1.93A8.86,8.86,0,0,0,732.43,0h-275a8.65,8.65,0,0,0-4.82,1.46c-.47.31-47.37,31.35-103.75,42.62-34.33,6.86-48.57,29.41-54.46,47.11a95.09,95.09,0,0,0-4.65,26.65h-92.9c-.24,0-.48,0-.73,0s-.49,0-.74,0H92.11a8.83,8.83,0,0,0-1.34.1,4.88,4.88,0,0,0-.55.11c-.31.07-.57.15-.8.22a5.62,5.62,0,0,0-.66.25,8.82,8.82,0,0,0-.93.46l-.39.24-.39.26h0L3.6,179.5a8.66,8.66,0,0,0,5.07,15.69H195.32l.73,0,.74,0H366V317.32a5,5,0,0,0,5,5h39.53a5,5,0,0,0,5-5V147.45L523.07,197.2a5.92,5.92,0,0,0,.59.27l67.7,31.32h0l.16.07.17.07.22.09a10.84,10.84,0,0,0,1.12.35h0l.5.1a8.23,8.23,0,0,0,2.91,0h.1l.31-.06.08,0h0l.11,0c.41-.1.77-.22,1-.31l.07,0,.15-.06.36-.15,52.78-24.67,12.85-6a8.55,8.55,0,0,0,5.43-2.35c.12-.12.25-.23.37-.36l105.83-49.47V317.32h0s0,.09,0,.14a5,5,0,0,0,3.84,4.72l.14,0h0a5,5,0,0,0,1,.1h39.53a5,5,0,0,0,1-.1h0l.13,0a5,5,0,0,0,3.85-4.72s0-.09,0-.14h0V195.2h355.88a8.66,8.66,0,0,0,8.25-6h0A8.65,8.65,0,0,0,1186.41,179.5Zm-174.76-1.63h-8.31v-42.7H1071l-38.36,27.59ZM1091,142.15l6.91-5,56.58,40.69H1041.32Zm-332.94-7-19.7,9.2v-9.2Zm-271.71,26-13.71-6.34v-7.36ZM579.55,17.32l-52.47,92-52.46-92ZM518.26,135.17v33.39l-33.38-33.39Zm54.62,0-37.3,34.5v-34.5Zm74.55-17.32H542.15l52.65-92.3Zm-61.09,28.46v61.07l-44-20.37ZM618,135.17h37.13v32.55Zm-14.36,72.16V145.62l27.64,24.23,18.28,16Zm287.8-70.15,5.11,3.68,51.47,37H834.89Zm-26.87-2-39.13,28.15V135.17Zm-44.44-17.32L843.67,80l8.81-14.17c12.74,6,21.63,16.3,26.45,30.6.08.23.14.45.21.68a77.85,77.85,0,0,1,3.6,20.7Zm-64.37-86C775.31,41.66,804,54,835.36,60.61l-4.63,7.44L801,115.91l-6-10.48L751.84,29.79Zm-78.21,86,52.28-91.66,52.27,91.66Zm29.83,17.32-34.93,32v-32ZM610,17.32H715L673.74,89.63l-11.22,19.68-15-26.25ZM714.33,155.61,707,159l14-12.85v6.29Zm204-20.44H986v42.7H977.7ZM512,117.85H405.81l53.1-93.12Zm-268.6,60L300,137.18l56.57,40.69ZM366,135.17v28.15l-39.13-28.15ZM341.79,64l33.42,53.85H307.05a78.25,78.25,0,0,1,3.8-21.38C316.21,80.57,326.6,69.67,341.79,64Zm93.53-32.84-44.79,78.53L359.38,59.52C389.38,52.62,416.38,40.83,435.31,31.16Zm-162.18,104-59.38,42.7h-8.31v-42.7Zm182.18,0v11.6l-25.07-11.6Zm-336.33,0h67.68v42.7h-8.31Zm-83.45,42.7,56.58-40.69,56.58,40.69Z" fill="#717171"/>
        <g id="Bridge">
          <path d="M1183.48,183.56l-83.45-60-.13-.08-.22-.13-.38-.18-.21-.09a4.51,4.51,0,0,0-.54-.14l-.08,0a3.77,3.77,0,0,0-.58,0H895.11a90.92,90.92,0,0,0-4.42-30.07C885.21,76.33,872,55.38,840,49,785.25,38,738.94,8.54,734.74,5.81A3.68,3.68,0,0,0,732.43,5H595V15.82l61,107H595V224.6a4.21,4.21,0,0,0,.68-.07h.08a4.62,4.62,0,0,0,.59-.18l.12-.05.08,0,66.72-31.18a4.25,4.25,0,0,0,.53.05,3.64,3.64,0,0,0,3.11-1.76l114-53.29V317.32h39.53V190.2h360.88a3.66,3.66,0,0,0,2.14-6.63ZM598.66,215.19v-80.6l60,52.57Zm61.49-36.43-55.42-48.58h55.42Zm2.36-59.35L601.43,12.32H723.58Zm5,10.77h52.8l-52.8,48.35ZM726,155.66l-46.48,21.72L726,134.83Zm7.32-3.43V130.17h47.21ZM669,122.85,729.85,16.09l60.88,106.76Zm130.2,0-60.47-106c16.46,9.67,55.43,30.46,99.87,39.35q2.44.49,4.77,1.11l-40.79,65.57Zm12,0L850.5,59.59c16.24,6.27,27.37,18.09,33.17,35.28a84.11,84.11,0,0,1,4.11,28Zm69,7.32-59.65,42.9v-42.9Zm-59.65,52.7v-.78l71-51.07,72.1,51.86Zm170.56,0H976.09l-73.27-52.7H991Zm7.32,0v-52.7h88.2l-73.27,52.7Zm27.46,0,72.1-51.86,72.1,51.86Z" fill="#858483"/>
          <path d="M595,15.82V5H457.38a3.63,3.63,0,0,0-2,.61C454.88,5.93,407,37.55,349.79,49c-32,6.39-45.22,27.34-50.7,43.79a90.71,90.71,0,0,0-4.42,30.07H196.79a3.69,3.69,0,0,1-1.46,0H92.11a3.93,3.93,0,0,0-.59,0h-.05a3.76,3.76,0,0,0-.56.15l-.2.08a2.47,2.47,0,0,0-.4.19l-.2.12-.14.08-83.45,60a3.66,3.66,0,0,0,2.14,6.63H195.32a3.69,3.69,0,0,1,1.46,0H371V317.32h39.53V139.63L525.24,192.7l.24.12.15.06,67.83,31.38.07,0,.11,0a4.29,4.29,0,0,0,.59.18h.07a4.29,4.29,0,0,0,.69.07V122.85H533.54L594.8,15.46ZM20,182.87,92.11,131l72.1,51.86Zm171.65,0H176.74l-73.27-52.7h88.2Zm8.78,0v-52.7h88.2l-73.27,52.7Zm170.56,0H227.91L300,131l71,51.07Zm0-9.8-59.65-42.9H371Zm-69-50.22a84.11,84.11,0,0,1,4.11-28c6.33-18.78,19-31.15,37.83-36.87l40.25,64.86ZM351.4,56.13c42-8.44,79.18-27.52,96.94-37.71l-57.63,101Zm45.8,66.72L458.91,14.64l61.71,108.21Zm63.11,31.74-49.78-23v-1.39h49.78Zm7.32,3.39V135.35l42.12,42.12Zm55.63,22.65-50.46-50.46h50.46Zm68.08,34.59-57.9-26.79,57.9-53.55Zm-5.69-85L530.59,181.1V130.17ZM527.09,119.4,466,12.32H588.16Z" fill="#858483"/>
        </g>
      </g>
    </g>
  </g>
</svg>
