<svg xmlns="http://www.w3.org/2000/svg" xmlns:xlink="http://www.w3.org/1999/xlink" width="1113.87" height="257.85" viewBox="0 0 1113.87 257.85">
  <defs>
    <pattern id="_10_dpi_30_" data-name="10 dpi 30%" width="28.8" height="28.8" patternTransform="translate(0.15)" patternUnits="userSpaceOnUse" viewBox="0 0 28.8 28.8">
      <rect width="28.8" height="28.8" fill="none"/>
      <g>
        <circle cx="28.8" cy="28.8" r="2.16" fill="#004000"/>
        <circle cx="14.4" cy="28.8" r="2.16" fill="#004000"/>
        <circle cx="28.8" cy="14.4" r="2.16" fill="#004000"/>
        <circle cx="14.4" cy="14.4" r="2.16" fill="#004000"/>
        <circle cx="7.2" cy="21.6" r="2.16" fill="#004000"/>
        <circle cx="21.6" cy="21.6" r="2.16" fill="#004000"/>
        <circle cx="7.2" cy="7.2" r="2.16" fill="#004000"/>
        <circle cx="21.6" cy="7.2" r="2.16" fill="#004000"/>
      </g>
      <g>
        <circle cy="28.8" r="2.16" fill="#004000"/>
        <circle cy="14.4" r="2.16" fill="#004000"/>
      </g>
      <g>
        <circle cx="28.8" r="2.16" fill="#004000"/>
        <circle cx="14.4" r="2.16" fill="#004000"/>
      </g>
      <circle r="2.16" fill="#004000"/>
    </pattern>
  </defs>
  <title>bushtree_lg</title>
  <g id="Layer_2" data-name="Layer 2">
    <g id="Layer_3_Vege_2" data-name="Layer_3_Vege/2">
      <g>
        <g>
          <path d="M161.42,178v78.37a1.43,1.43,0,0,1-1.43,1.43H145.46V178Z" fill="#8a5d3b"/>
          <path d="M145.46,178v79.8H130.93a1.43,1.43,0,0,1-1.43-1.43V178Z" fill="#68462c"/>
        </g>
        <rect x="48.02" y="120.11" width="194.81" height="62.27" rx="15.48" ry="15.48" fill="#004e2a"/>
        <rect x="48.02" y="120.11" width="194.81" height="62.27" rx="15.48" ry="15.48" fill="url(#_10_dpi_30_)"/>
        <rect x="59.62" y="0.02" width="135.21" height="62.27" rx="15.48" ry="15.48" fill="#004e2a"/>
        <rect x="62.29" y="0.02" width="135.21" height="62.27" rx="15.48" ry="15.48" fill="url(#_10_dpi_30_)"/>
        <rect x="42.71" y="25.82" width="195.7" height="62.27" rx="15.48" ry="15.48" fill="#006838"/>
        <rect x="42.71" y="25.82" width="195.7" height="62.27" rx="15.48" ry="15.48" fill="#006838"/>
        <rect x="12.44" y="96.09" width="256.18" height="62.27" rx="15.48" ry="15.48" fill="#006838"/>
        <rect x="84.5" y="62.3" width="190.36" height="78.28" rx="15.48" ry="15.48" fill="#004e2a"/>
        <rect x="84.5" y="62.3" width="190.36" height="78.28" rx="15.48" ry="15.48" fill="url(#_10_dpi_30_)"/>
        <rect x="0.01" y="50.71" width="169.01" height="62.27" rx="15.48" ry="15.48" fill="#004e2a"/>
        <rect x="0.01" y="50.71" width="169.01" height="62.27" rx="15.48" ry="15.48" fill="url(#_10_dpi_30_)"/>
      </g>
      <g>
        <g>
          <path d="M1000.42,178v78.37a1.43,1.43,0,0,1-1.43,1.43H984.46V178Z" fill="#8a5d3b"/>
          <path d="M984.46,178v79.8H969.93a1.43,1.43,0,0,1-1.43-1.43V178Z" fill="#68462c"/>
        </g>
        <rect x="887.02" y="120.11" width="194.81" height="62.27" rx="15.48" ry="15.48" fill="#004e2a"/>
        <rect x="887.02" y="120.11" width="194.81" height="62.27" rx="15.48" ry="15.48" fill="url(#_10_dpi_30_)"/>
        <rect x="898.62" y="0.02" width="135.21" height="62.27" rx="15.48" ry="15.48" fill="#004e2a"/>
        <rect x="901.29" y="0.02" width="135.21" height="62.27" rx="15.48" ry="15.48" fill="url(#_10_dpi_30_)"/>
        <rect x="881.71" y="25.82" width="195.7" height="62.27" rx="15.48" ry="15.48" fill="#006838"/>
        <rect x="881.71" y="25.82" width="195.7" height="62.27" rx="15.48" ry="15.48" fill="#006838"/>
        <rect x="851.44" y="96.09" width="256.18" height="62.27" rx="15.48" ry="15.48" fill="#006838"/>
        <rect x="923.5" y="62.3" width="190.36" height="78.28" rx="15.48" ry="15.48" fill="#004e2a"/>
        <rect x="923.5" y="62.3" width="190.36" height="78.28" rx="15.48" ry="15.48" fill="url(#_10_dpi_30_)"/>
        <rect x="839.01" y="50.71" width="169.01" height="62.27" rx="15.48" ry="15.48" fill="#004e2a"/>
        <rect x="839.01" y="50.71" width="169.01" height="62.27" rx="15.48" ry="15.48" fill="url(#_10_dpi_30_)"/>
      </g>
    </g>
  </g>
</svg>
