<svg xmlns="http://www.w3.org/2000/svg" xmlns:xlink="http://www.w3.org/1999/xlink" width="1935.97" height="64.74" viewBox="0 0 1935.97 64.74">
  <defs>
    <pattern id="_10_dpi_30_3" data-name="10 dpi 30% 3" width="28.8" height="28.8" patternTransform="translate(0.15)" patternUnits="userSpaceOnUse" viewBox="0 0 28.8 28.8">
      <rect width="28.8" height="28.8" fill="none"/>
      <g>
        <circle cx="28.8" cy="28.8" r="2.16" fill="#66be8f"/>
        <circle cx="14.4" cy="28.8" r="2.16" fill="#66be8f"/>
        <circle cx="28.8" cy="14.4" r="2.16" fill="#66be8f"/>
        <circle cx="14.4" cy="14.4" r="2.16" fill="#66be8f"/>
        <circle cx="7.2" cy="21.6" r="2.16" fill="#66be8f"/>
        <circle cx="21.6" cy="21.6" r="2.16" fill="#66be8f"/>
        <circle cx="7.2" cy="7.2" r="2.16" fill="#66be8f"/>
        <circle cx="21.6" cy="7.2" r="2.16" fill="#66be8f"/>
      </g>
      <g>
        <circle cy="28.8" r="2.16" fill="#66be8f"/>
        <circle cy="14.4" r="2.16" fill="#66be8f"/>
      </g>
      <g>
        <circle cx="28.8" r="2.16" fill="#66be8f"/>
        <circle cx="14.4" r="2.16" fill="#66be8f"/>
      </g>
      <circle r="2.16" fill="#66be8f"/>
    </pattern>
  </defs>
  <title>bushes_desert</title>
  <g id="Layer_2" data-name="Layer 2">
    <g id="Layer_1_Vege">
      <g>
        <g>
          <path d="M332.92,45.1,332.35,43a3.59,3.59,0,0,0-4.4-2.54l-37,9.92L318,23.26a3.59,3.59,0,0,0,0-5.08l-1.56-1.56a3.59,3.59,0,0,0-5.08,0l-27.1,27.1,9.92-37a3.59,3.59,0,0,0-2.54-4.4l-2.13-.57a3.59,3.59,0,0,0-4.4,2.54l-9.92,37-9.92-37a3.59,3.59,0,0,0-4.4-2.54l-2.13.57a3.59,3.59,0,0,0-2.54,4.4l9.92,37-27.1-27.1a3.59,3.59,0,0,0-5.08,0l-1.56,1.56a3.59,3.59,0,0,0,0,5.08l27.1,27.1-37-9.92a3.59,3.59,0,0,0-4.4,2.54l-.57,2.13a3.59,3.59,0,0,0,2.54,4.4L270.56,63a3.59,3.59,0,0,0,4.4-2.54l.29-1.06.29,1.06a3.59,3.59,0,0,0,4.4,2.54L330.38,49.5A3.59,3.59,0,0,0,332.92,45.1Z" fill="#009245"/>
          <path d="M332.92,45.1,332.35,43a3.59,3.59,0,0,0-4.4-2.54l-37,9.92L318,23.26a3.59,3.59,0,0,0,0-5.08l-1.56-1.56a3.59,3.59,0,0,0-5.08,0l-27.1,27.1,9.92-37a3.59,3.59,0,0,0-2.54-4.4l-2.13-.57a3.59,3.59,0,0,0-4.4,2.54l-9.92,37-9.92-37a3.59,3.59,0,0,0-4.4-2.54l-2.13.57a3.59,3.59,0,0,0-2.54,4.4l9.92,37-27.1-27.1a3.59,3.59,0,0,0-5.08,0l-1.56,1.56a3.59,3.59,0,0,0,0,5.08l27.1,27.1-37-9.92a3.59,3.59,0,0,0-4.4,2.54l-.57,2.13a3.59,3.59,0,0,0,2.54,4.4L270.56,63a3.59,3.59,0,0,0,4.4-2.54l.29-1.06.29,1.06a3.59,3.59,0,0,0,4.4,2.54L330.38,49.5A3.59,3.59,0,0,0,332.92,45.1Z" fill="url(#_10_dpi_30_3)"/>
          <path d="M331.07,54.87H292.5l33.43-19.3a3.59,3.59,0,0,0,1.31-4.9l-1.1-1.91a3.59,3.59,0,0,0-4.9-1.31L288.06,46.6l19.16-33.19a3.59,3.59,0,0,0-1.31-4.9L304,7.41a3.59,3.59,0,0,0-4.9,1.31L279.93,41.91V3.59A3.59,3.59,0,0,0,276.34,0h-2.2a3.59,3.59,0,0,0-3.59,3.59V41.91L251.39,8.72a3.59,3.59,0,0,0-4.9-1.31l-1.91,1.1a3.59,3.59,0,0,0-1.31,4.9L262.43,46.6,229.24,27.44a3.59,3.59,0,0,0-4.9,1.31l-1.1,1.91a3.59,3.59,0,0,0,1.31,4.9L258,54.87H219.42a3.59,3.59,0,0,0-3.59,3.59v2.2a3.59,3.59,0,0,0,3.59,3.59H331.07a3.59,3.59,0,0,0,3.59-3.59v-2.2A3.59,3.59,0,0,0,331.07,54.87Z" fill="#33a86a"/>
        </g>
        <g>
          <path d="M1770.92,45.1l-.57-2.13a3.59,3.59,0,0,0-4.4-2.54l-37,9.92,27.1-27.1a3.59,3.59,0,0,0,0-5.08l-1.56-1.56a3.59,3.59,0,0,0-5.08,0l-27.1,27.1,9.92-37a3.59,3.59,0,0,0-2.54-4.4l-2.13-.57a3.59,3.59,0,0,0-4.4,2.54l-9.92,37-9.92-37a3.59,3.59,0,0,0-4.4-2.54l-2.13.57a3.59,3.59,0,0,0-2.54,4.4l9.92,37-27.1-27.1a3.59,3.59,0,0,0-5.08,0l-1.56,1.56a3.59,3.59,0,0,0,0,5.08l27.1,27.1-37-9.92a3.59,3.59,0,0,0-4.4,2.54l-.57,2.13a3.59,3.59,0,0,0,2.54,4.4L1708.56,63a3.59,3.59,0,0,0,4.4-2.54l.29-1.06.29,1.06a3.59,3.59,0,0,0,4.4,2.54l50.46-13.52A3.59,3.59,0,0,0,1770.92,45.1Z" fill="#009245"/>
          <path d="M1770.92,45.1l-.57-2.13a3.59,3.59,0,0,0-4.4-2.54l-37,9.92,27.1-27.1a3.59,3.59,0,0,0,0-5.08l-1.56-1.56a3.59,3.59,0,0,0-5.08,0l-27.1,27.1,9.92-37a3.59,3.59,0,0,0-2.54-4.4l-2.13-.57a3.59,3.59,0,0,0-4.4,2.54l-9.92,37-9.92-37a3.59,3.59,0,0,0-4.4-2.54l-2.13.57a3.59,3.59,0,0,0-2.54,4.4l9.92,37-27.1-27.1a3.59,3.59,0,0,0-5.08,0l-1.56,1.56a3.59,3.59,0,0,0,0,5.08l27.1,27.1-37-9.92a3.59,3.59,0,0,0-4.4,2.54l-.57,2.13a3.59,3.59,0,0,0,2.54,4.4L1708.56,63a3.59,3.59,0,0,0,4.4-2.54l.29-1.06.29,1.06a3.59,3.59,0,0,0,4.4,2.54l50.46-13.52A3.59,3.59,0,0,0,1770.92,45.1Z" fill="url(#_10_dpi_30_3)"/>
          <path d="M1769.07,54.87H1730.5l33.43-19.3a3.59,3.59,0,0,0,1.31-4.9l-1.1-1.91a3.59,3.59,0,0,0-4.9-1.31L1726.06,46.6l19.16-33.19a3.59,3.59,0,0,0-1.31-4.9L1742,7.41a3.59,3.59,0,0,0-4.9,1.31l-19.16,33.19V3.59A3.59,3.59,0,0,0,1714.34,0h-2.2a3.59,3.59,0,0,0-3.59,3.59V41.91L1689.39,8.72a3.59,3.59,0,0,0-4.9-1.31l-1.91,1.1a3.59,3.59,0,0,0-1.31,4.9l19.16,33.19-33.19-19.16a3.59,3.59,0,0,0-4.9,1.31l-1.1,1.91a3.59,3.59,0,0,0,1.31,4.9L1696,54.87h-38.57a3.59,3.59,0,0,0-3.59,3.59v2.2a3.59,3.59,0,0,0,3.59,3.59h111.65a3.59,3.59,0,0,0,3.59-3.59v-2.2A3.59,3.59,0,0,0,1769.07,54.87Z" fill="#33a86a"/>
        </g>
        <g>
          <path d="M1073.92,45.1l-.57-2.13a3.59,3.59,0,0,0-4.4-2.54l-37,9.92,27.1-27.1a3.59,3.59,0,0,0,0-5.08l-1.56-1.56a3.59,3.59,0,0,0-5.08,0l-27.1,27.1,9.92-37a3.59,3.59,0,0,0-2.54-4.4l-2.13-.57a3.59,3.59,0,0,0-4.4,2.54l-9.92,37-9.92-37a3.59,3.59,0,0,0-4.4-2.54l-2.13.57a3.59,3.59,0,0,0-2.54,4.4l9.92,37-27.1-27.1a3.59,3.59,0,0,0-5.08,0l-1.56,1.56a3.59,3.59,0,0,0,0,5.08l27.1,27.1-37-9.92a3.59,3.59,0,0,0-4.4,2.54l-.57,2.13a3.59,3.59,0,0,0,2.54,4.4L1011.56,63a3.59,3.59,0,0,0,4.4-2.54l.29-1.06.29,1.06a3.59,3.59,0,0,0,4.4,2.54l50.46-13.52A3.59,3.59,0,0,0,1073.92,45.1Z" fill="#009245"/>
          <path d="M1073.92,45.1l-.57-2.13a3.59,3.59,0,0,0-4.4-2.54l-37,9.92,27.1-27.1a3.59,3.59,0,0,0,0-5.08l-1.56-1.56a3.59,3.59,0,0,0-5.08,0l-27.1,27.1,9.92-37a3.59,3.59,0,0,0-2.54-4.4l-2.13-.57a3.59,3.59,0,0,0-4.4,2.54l-9.92,37-9.92-37a3.59,3.59,0,0,0-4.4-2.54l-2.13.57a3.59,3.59,0,0,0-2.54,4.4l9.92,37-27.1-27.1a3.59,3.59,0,0,0-5.08,0l-1.56,1.56a3.59,3.59,0,0,0,0,5.08l27.1,27.1-37-9.92a3.59,3.59,0,0,0-4.4,2.54l-.57,2.13a3.59,3.59,0,0,0,2.54,4.4L1011.56,63a3.59,3.59,0,0,0,4.4-2.54l.29-1.06.29,1.06a3.59,3.59,0,0,0,4.4,2.54l50.46-13.52A3.59,3.59,0,0,0,1073.92,45.1Z" fill="url(#_10_dpi_30_3)"/>
          <path d="M1072.07,54.87H1033.5l33.43-19.3a3.59,3.59,0,0,0,1.31-4.9l-1.1-1.91a3.59,3.59,0,0,0-4.9-1.31L1029.06,46.6l19.16-33.19a3.59,3.59,0,0,0-1.31-4.9L1045,7.41a3.59,3.59,0,0,0-4.9,1.31l-19.16,33.19V3.59A3.59,3.59,0,0,0,1017.34,0h-2.2a3.59,3.59,0,0,0-3.59,3.59V41.91L992.39,8.72a3.59,3.59,0,0,0-4.9-1.31l-1.91,1.1a3.59,3.59,0,0,0-1.31,4.9l19.16,33.19L970.24,27.44a3.59,3.59,0,0,0-4.9,1.31l-1.1,1.91a3.59,3.59,0,0,0,1.31,4.9L999,54.87H960.42a3.59,3.59,0,0,0-3.59,3.59v2.2a3.59,3.59,0,0,0,3.59,3.59h111.65a3.59,3.59,0,0,0,3.59-3.59v-2.2A3.59,3.59,0,0,0,1072.07,54.87Z" fill="#33a86a"/>
        </g>
        <g>
          <path d="M745.92,53.15l-.35-1.29a2.17,2.17,0,0,0-2.66-1.54l-22.42,6L736.9,39.92a2.17,2.17,0,0,0,0-3.07L736,35.9a2.17,2.17,0,0,0-3.07,0L716.47,52.31l6-22.42a2.17,2.17,0,0,0-1.54-2.66l-1.29-.35A2.17,2.17,0,0,0,717,28.42l-6,22.42-6-22.42a2.17,2.17,0,0,0-2.66-1.54l-1.29.35a2.17,2.17,0,0,0-1.54,2.66l6,22.42L689.09,35.9a2.17,2.17,0,0,0-3.07,0l-.94.94a2.17,2.17,0,0,0,0,3.07l16.41,16.41-22.42-6a2.17,2.17,0,0,0-2.66,1.54l-.35,1.29a2.17,2.17,0,0,0,1.54,2.66L708.15,64a2.17,2.17,0,0,0,2.66-1.54l.17-.64.17.64A2.17,2.17,0,0,0,713.82,64l30.56-8.19A2.17,2.17,0,0,0,745.92,53.15Z" fill="#009245"/>
          <path d="M745.92,53.15l-.35-1.29a2.17,2.17,0,0,0-2.66-1.54l-22.42,6L736.9,39.92a2.17,2.17,0,0,0,0-3.07L736,35.9a2.17,2.17,0,0,0-3.07,0L716.47,52.31l6-22.42a2.17,2.17,0,0,0-1.54-2.66l-1.29-.35A2.17,2.17,0,0,0,717,28.42l-6,22.42-6-22.42a2.17,2.17,0,0,0-2.66-1.54l-1.29.35a2.17,2.17,0,0,0-1.54,2.66l6,22.42L689.09,35.9a2.17,2.17,0,0,0-3.07,0l-.94.94a2.17,2.17,0,0,0,0,3.07l16.41,16.41-22.42-6a2.17,2.17,0,0,0-2.66,1.54l-.35,1.29a2.17,2.17,0,0,0,1.54,2.66L708.15,64a2.17,2.17,0,0,0,2.66-1.54l.17-.64.17.64A2.17,2.17,0,0,0,713.82,64l30.56-8.19A2.17,2.17,0,0,0,745.92,53.15Z" fill="url(#_10_dpi_30_3)"/>
          <path d="M744.8,59.06H721.44l20.25-11.69a2.17,2.17,0,0,0,.8-3l-.67-1.16a2.17,2.17,0,0,0-3-.8l-20.1,11.6L730.35,34a2.17,2.17,0,0,0-.8-3l-1.16-.67a2.17,2.17,0,0,0-3,.8l-11.6,20.1V28a2.17,2.17,0,0,0-2.17-2.17h-1.33A2.17,2.17,0,0,0,708.14,28V51.21l-11.6-20.1a2.17,2.17,0,0,0-3-.8l-1.16.67a2.17,2.17,0,0,0-.8,3l11.6,20.1-20.1-11.6a2.17,2.17,0,0,0-3,.8l-.67,1.16a2.17,2.17,0,0,0,.8,3l20.25,11.69H677.17A2.17,2.17,0,0,0,675,61.23v1.33a2.17,2.17,0,0,0,2.17,2.17H744.8A2.17,2.17,0,0,0,747,62.57V61.23A2.17,2.17,0,0,0,744.8,59.06Z" fill="#33a86a"/>
        </g>
        <g>
          <path d="M1362.92,53.15l-.35-1.29a2.17,2.17,0,0,0-2.66-1.54l-22.42,6,16.41-16.41a2.17,2.17,0,0,0,0-3.07l-.94-.94a2.17,2.17,0,0,0-3.07,0l-16.41,16.41,6-22.42a2.17,2.17,0,0,0-1.54-2.66l-1.29-.35a2.17,2.17,0,0,0-2.66,1.54l-6,22.42-6-22.42a2.17,2.17,0,0,0-2.66-1.54l-1.29.35a2.17,2.17,0,0,0-1.54,2.66l6,22.42L1306.09,35.9a2.17,2.17,0,0,0-3.07,0l-.94.94a2.17,2.17,0,0,0,0,3.07l16.41,16.41-22.42-6a2.17,2.17,0,0,0-2.66,1.54l-.35,1.29a2.17,2.17,0,0,0,1.54,2.66L1325.15,64a2.17,2.17,0,0,0,2.66-1.54l.17-.64.17.64a2.17,2.17,0,0,0,2.66,1.54l30.56-8.19A2.17,2.17,0,0,0,1362.92,53.15Z" fill="#009245"/>
          <path d="M1362.92,53.15l-.35-1.29a2.17,2.17,0,0,0-2.66-1.54l-22.42,6,16.41-16.41a2.17,2.17,0,0,0,0-3.07l-.94-.94a2.17,2.17,0,0,0-3.07,0l-16.41,16.41,6-22.42a2.17,2.17,0,0,0-1.54-2.66l-1.29-.35a2.17,2.17,0,0,0-2.66,1.54l-6,22.42-6-22.42a2.17,2.17,0,0,0-2.66-1.54l-1.29.35a2.17,2.17,0,0,0-1.54,2.66l6,22.42L1306.09,35.9a2.17,2.17,0,0,0-3.07,0l-.94.94a2.17,2.17,0,0,0,0,3.07l16.41,16.41-22.42-6a2.17,2.17,0,0,0-2.66,1.54l-.35,1.29a2.17,2.17,0,0,0,1.54,2.66L1325.15,64a2.17,2.17,0,0,0,2.66-1.54l.17-.64.17.64a2.17,2.17,0,0,0,2.66,1.54l30.56-8.19A2.17,2.17,0,0,0,1362.92,53.15Z" fill="url(#_10_dpi_30_3)"/>
          <path d="M1361.8,59.06h-23.36l20.25-11.69a2.17,2.17,0,0,0,.8-3l-.67-1.16a2.17,2.17,0,0,0-3-.8l-20.1,11.6,11.6-20.1a2.17,2.17,0,0,0-.8-3l-1.16-.67a2.17,2.17,0,0,0-3,.8l-11.6,20.1V28a2.17,2.17,0,0,0-2.17-2.17h-1.33a2.17,2.17,0,0,0-2.17,2.17V51.21l-11.6-20.1a2.17,2.17,0,0,0-3-.8l-1.16.67a2.17,2.17,0,0,0-.8,3l11.6,20.1-20.1-11.6a2.17,2.17,0,0,0-3,.8l-.67,1.16a2.17,2.17,0,0,0,.8,3l20.25,11.69h-23.36a2.17,2.17,0,0,0-2.17,2.17v1.33a2.17,2.17,0,0,0,2.17,2.17h67.62a2.17,2.17,0,0,0,2.17-2.17V61.23A2.17,2.17,0,0,0,1361.8,59.06Z" fill="#33a86a"/>
        </g>
        <g>
          <path d="M1934.92,53.15l-.35-1.29a2.17,2.17,0,0,0-2.66-1.54l-22.42,6,16.41-16.41a2.17,2.17,0,0,0,0-3.07l-.94-.94a2.17,2.17,0,0,0-3.07,0l-16.41,16.41,6-22.42a2.17,2.17,0,0,0-1.54-2.66l-1.29-.35a2.17,2.17,0,0,0-2.66,1.54l-6,22.42-6-22.42a2.17,2.17,0,0,0-2.66-1.54l-1.29.35a2.17,2.17,0,0,0-1.54,2.66l6,22.42L1878.09,35.9a2.17,2.17,0,0,0-3.07,0l-.94.94a2.17,2.17,0,0,0,0,3.07l16.41,16.41-22.42-6a2.17,2.17,0,0,0-2.66,1.54l-.35,1.29a2.17,2.17,0,0,0,1.54,2.66L1897.15,64a2.17,2.17,0,0,0,2.66-1.54l.17-.64.17.64a2.17,2.17,0,0,0,2.66,1.54l30.56-8.19A2.17,2.17,0,0,0,1934.92,53.15Z" fill="#009245"/>
          <path d="M1934.92,53.15l-.35-1.29a2.17,2.17,0,0,0-2.66-1.54l-22.42,6,16.41-16.41a2.17,2.17,0,0,0,0-3.07l-.94-.94a2.17,2.17,0,0,0-3.07,0l-16.41,16.41,6-22.42a2.17,2.17,0,0,0-1.54-2.66l-1.29-.35a2.17,2.17,0,0,0-2.66,1.54l-6,22.42-6-22.42a2.17,2.17,0,0,0-2.66-1.54l-1.29.35a2.17,2.17,0,0,0-1.54,2.66l6,22.42L1878.09,35.9a2.17,2.17,0,0,0-3.07,0l-.94.94a2.17,2.17,0,0,0,0,3.07l16.41,16.41-22.42-6a2.17,2.17,0,0,0-2.66,1.54l-.35,1.29a2.17,2.17,0,0,0,1.54,2.66L1897.15,64a2.17,2.17,0,0,0,2.66-1.54l.17-.64.17.64a2.17,2.17,0,0,0,2.66,1.54l30.56-8.19A2.17,2.17,0,0,0,1934.92,53.15Z" fill="url(#_10_dpi_30_3)"/>
          <path d="M1933.8,59.06h-23.36l20.25-11.69a2.17,2.17,0,0,0,.8-3l-.67-1.16a2.17,2.17,0,0,0-3-.8l-20.1,11.6,11.6-20.1a2.17,2.17,0,0,0-.8-3l-1.16-.67a2.17,2.17,0,0,0-3,.8l-11.6,20.1V28a2.17,2.17,0,0,0-2.17-2.17h-1.33a2.17,2.17,0,0,0-2.17,2.17V51.21l-11.6-20.1a2.17,2.17,0,0,0-3-.8l-1.16.67a2.17,2.17,0,0,0-.8,3l11.6,20.1-20.1-11.6a2.17,2.17,0,0,0-3,.8l-.67,1.16a2.17,2.17,0,0,0,.8,3l20.25,11.69h-23.36a2.17,2.17,0,0,0-2.17,2.17v1.33a2.17,2.17,0,0,0,2.17,2.17h67.62a2.17,2.17,0,0,0,2.17-2.17V61.23A2.17,2.17,0,0,0,1933.8,59.06Z" fill="#33a86a"/>
        </g>
        <g>
          <path d="M70.92,53.15l-.35-1.29a2.17,2.17,0,0,0-2.66-1.54l-22.42,6L61.9,39.92a2.17,2.17,0,0,0,0-3.07L61,35.9a2.17,2.17,0,0,0-3.07,0L41.47,52.31l6-22.42a2.17,2.17,0,0,0-1.54-2.66l-1.29-.35A2.17,2.17,0,0,0,42,28.42L36,50.84,30,28.42a2.17,2.17,0,0,0-2.66-1.54L26,27.23a2.17,2.17,0,0,0-1.54,2.66l6,22.42L14.09,35.9a2.17,2.17,0,0,0-3.07,0l-.94.94a2.17,2.17,0,0,0,0,3.07L26.48,56.33l-22.42-6A2.17,2.17,0,0,0,1.4,51.86l-.35,1.29a2.17,2.17,0,0,0,1.54,2.66L33.15,64a2.17,2.17,0,0,0,2.66-1.54l.17-.64.17.64A2.17,2.17,0,0,0,38.82,64l30.56-8.19A2.17,2.17,0,0,0,70.92,53.15Z" fill="#009245"/>
          <path d="M70.92,53.15l-.35-1.29a2.17,2.17,0,0,0-2.66-1.54l-22.42,6L61.9,39.92a2.17,2.17,0,0,0,0-3.07L61,35.9a2.17,2.17,0,0,0-3.07,0L41.47,52.31l6-22.42a2.17,2.17,0,0,0-1.54-2.66l-1.29-.35A2.17,2.17,0,0,0,42,28.42L36,50.84,30,28.42a2.17,2.17,0,0,0-2.66-1.54L26,27.23a2.17,2.17,0,0,0-1.54,2.66l6,22.42L14.09,35.9a2.17,2.17,0,0,0-3.07,0l-.94.94a2.17,2.17,0,0,0,0,3.07L26.48,56.33l-22.42-6A2.17,2.17,0,0,0,1.4,51.86l-.35,1.29a2.17,2.17,0,0,0,1.54,2.66L33.15,64a2.17,2.17,0,0,0,2.66-1.54l.17-.64.17.64A2.17,2.17,0,0,0,38.82,64l30.56-8.19A2.17,2.17,0,0,0,70.92,53.15Z" fill="url(#_10_dpi_30_3)"/>
          <path d="M69.8,59.06H46.44L66.69,47.37a2.17,2.17,0,0,0,.8-3l-.67-1.16a2.17,2.17,0,0,0-3-.8l-20.1,11.6L55.35,34a2.17,2.17,0,0,0-.8-3l-1.16-.67a2.17,2.17,0,0,0-3,.8l-11.6,20.1V28a2.17,2.17,0,0,0-2.17-2.17H35.32A2.17,2.17,0,0,0,33.14,28V51.21l-11.6-20.1a2.17,2.17,0,0,0-3-.8L17.41,31a2.17,2.17,0,0,0-.8,3l11.6,20.1L8.12,42.45a2.17,2.17,0,0,0-3,.8L4.49,44.4a2.17,2.17,0,0,0,.8,3L25.53,59.06H2.17A2.17,2.17,0,0,0,0,61.23v1.33a2.17,2.17,0,0,0,2.17,2.17H69.8A2.17,2.17,0,0,0,72,62.57V61.23A2.17,2.17,0,0,0,69.8,59.06Z" fill="#33a86a"/>
        </g>
      </g>
    </g>
  </g>
</svg>
