<svg xmlns="http://www.w3.org/2000/svg" xmlns:xlink="http://www.w3.org/1999/xlink" width="1504.15" height="320" viewBox="0 0 1504.15 320">
  <defs>
    <pattern id="_10_dpi_30_" data-name="10 dpi 30%" width="28.8" height="28.8" patternTransform="translate(0.15 259.2)" patternUnits="userSpaceOnUse" viewBox="0 0 28.8 28.8">
      <rect width="28.8" height="28.8" fill="none"/>
      <g>
        <circle cx="28.8" cy="28.8" r="2.16" fill="#004000"/>
        <circle cx="14.4" cy="28.8" r="2.16" fill="#004000"/>
        <circle cx="28.8" cy="14.4" r="2.16" fill="#004000"/>
        <circle cx="14.4" cy="14.4" r="2.16" fill="#004000"/>
        <circle cx="7.2" cy="21.6" r="2.16" fill="#004000"/>
        <circle cx="21.6" cy="21.6" r="2.16" fill="#004000"/>
        <circle cx="7.2" cy="7.2" r="2.16" fill="#004000"/>
        <circle cx="21.6" cy="7.2" r="2.16" fill="#004000"/>
      </g>
      <g>
        <circle cy="28.8" r="2.16" fill="#004000"/>
        <circle cy="14.4" r="2.16" fill="#004000"/>
      </g>
      <g>
        <circle cx="28.8" r="2.16" fill="#004000"/>
        <circle cx="14.4" r="2.16" fill="#004000"/>
      </g>
      <circle r="2.16" fill="#004000"/>
    </pattern>
  </defs>
  <title>cactus</title>
  <g id="Layer_2" data-name="Layer 2">
    <g id="Layer_3_Vege_2" data-name="Layer_3_Vege/2">
      <g>
        <path d="M42.66,135.19V320H29V214.57a7.27,7.27,0,0,1-1.18.09H8.28c-.25,0-.48,0-.7,0A8.29,8.29,0,0,1,0,206.38v-20a8.42,8.42,0,0,1,7.71-8.49,8.28,8.28,0,0,1,8.84,8.27v12H27.82a7.41,7.41,0,0,1,1.18.09V149.11A13.93,13.93,0,0,1,42.66,135.19Z" fill="#009245"/>
        <path d="M85.15,204.21v20.23a8.28,8.28,0,0,1-7.58,8.25,5,5,0,0,1-.7,0H57.33c-.16,0-.31,0-.47,0V320H42.66V135.19h.28a13.93,13.93,0,0,1,13.92,13.92v67.06l.47,0H68.58v-12a8.28,8.28,0,1,1,16.57,0Z" fill="#33a86a"/>
        <path d="M85.15,204.09v20.25a8.29,8.29,0,0,1-7.59,8.26,5.05,5.05,0,0,1-.7,0H57.3c-.16,0-.31,0-.47,0V320H42.62V135h.28a13.94,13.94,0,0,1,13.94,13.94v67.13l.47,0H68.56v-12a8.29,8.29,0,1,1,16.58,0Z" fill="url(#_10_dpi_30_)"/>
        <path d="M1461.66,135.19V320H1448V214.57a7.27,7.27,0,0,1-1.18.09h-19.53c-.25,0-.48,0-.7,0a8.29,8.29,0,0,1-7.58-8.25v-20a8.42,8.42,0,0,1,7.71-8.49,8.28,8.28,0,0,1,8.84,8.27v12h11.27a7.41,7.41,0,0,1,1.18.09V149.11A13.93,13.93,0,0,1,1461.66,135.19Z" fill="#009245"/>
        <path d="M1504.15,204.21v20.23a8.28,8.28,0,0,1-7.58,8.25,5,5,0,0,1-.7,0h-19.53c-.16,0-.31,0-.47,0V320h-14.2V135.19h.28a13.93,13.93,0,0,1,13.92,13.92v67.06l.47,0h11.25v-12a8.28,8.28,0,1,1,16.57,0Z" fill="#33a86a"/>
        <path d="M1504.15,204.09v20.25a8.29,8.29,0,0,1-7.59,8.26,5.05,5.05,0,0,1-.7,0H1476.3c-.16,0-.31,0-.47,0V320h-14.22V135h.28a13.94,13.94,0,0,1,13.94,13.94v67.13l.47,0h11.26v-12a8.29,8.29,0,1,1,16.58,0Z" fill="url(#_10_dpi_30_)"/>
        <path d="M219.3.33V320H195.67V137.64a12.57,12.57,0,0,1-2,.16H159.84c-.43,0-.83,0-1.21-.05a14.34,14.34,0,0,1-13.12-14.27V88.85a14.57,14.57,0,0,1,13.33-14.68,14.33,14.33,0,0,1,15.3,14.3v20.67h19.49a12.81,12.81,0,0,1,2,.16V24.41A24.09,24.09,0,0,1,219.3.33Z" fill="#009245"/>
        <path d="M292.79,119.71v35A14.32,14.32,0,0,1,279.67,169a8.73,8.73,0,0,1-1.21.05H244.67c-.27,0-.54,0-.81,0V320H219.3V.33h.48a24.09,24.09,0,0,1,24.09,24.09v116l.81,0h19.46V119.71a14.33,14.33,0,1,1,28.66,0Z" fill="#33a86a"/>
        <path d="M292.79,119.5v35a14.33,14.33,0,0,1-13.13,14.29,8.74,8.74,0,0,1-1.21.05H244.62c-.27,0-.54,0-.81,0V320H219.22V0h.48a24.12,24.12,0,0,1,24.11,24.11V140.22l.81,0h19.48V119.5a14.34,14.34,0,1,1,28.68,0Z" fill="url(#_10_dpi_30_)"/>
        <path d="M1157.28,62.17V320h19.06V172.92a10.14,10.14,0,0,0,1.65.13h27.25c.35,0,.67,0,1,0a11.57,11.57,0,0,0,10.58-11.51V133.57A11.75,11.75,0,0,0,1206,121.73a11.56,11.56,0,0,0-12.34,11.53v16.67H1178a10.34,10.34,0,0,0-1.65.13V81.6A19.43,19.43,0,0,0,1157.28,62.17Z" fill="#009245"/>
        <path d="M1098,158.46v28.23a11.55,11.55,0,0,0,10.58,11.51,7,7,0,0,0,1,0h27.25c.22,0,.43,0,.65,0V320h19.82V62.17h-.39a19.43,19.43,0,0,0-19.43,19.43v93.55l-.65,0h-15.7V158.46a11.56,11.56,0,1,0-23.11,0Z" fill="#33a86a"/>
        <path d="M1098,158.29v28.26a11.56,11.56,0,0,0,10.59,11.52,7,7,0,0,0,1,0h27.28c.22,0,.43,0,.65,0V320h19.84V61.91h-.39a19.45,19.45,0,0,0-19.45,19.45V175l-.65,0h-15.71V158.29a11.57,11.57,0,1,0-23.14,0Z" fill="url(#_10_dpi_30_)"/>
        <path d="M847,38.29V320H826.2V159.29a11.08,11.08,0,0,1-1.8.14H794.63c-.38,0-.73,0-1.07,0A12.64,12.64,0,0,1,782,146.81V116.3a12.84,12.84,0,0,1,11.75-12.93A12.63,12.63,0,0,1,807.23,116v18.22H824.4a11.29,11.29,0,0,1,1.8.14V59.52A21.23,21.23,0,0,1,847,38.29Z" fill="#009245"/>
        <path d="M911.79,143.49v30.84a12.62,12.62,0,0,1-11.56,12.58,7.69,7.69,0,0,1-1.07,0H869.39c-.24,0-.47,0-.71,0V320H847V38.29h.43a21.23,21.23,0,0,1,21.23,21.23V161.73l.71,0h17.15V143.49a12.63,12.63,0,1,1,25.25,0Z" fill="#33a86a"/>
        <path d="M911.79,143.31v30.87a12.63,12.63,0,0,1-11.57,12.59,7.7,7.7,0,0,1-1.07,0H869.35c-.24,0-.47,0-.71,0V320H847V38h.43a21.25,21.25,0,0,1,21.25,21.25V161.57l.71,0h17.17V143.31a12.64,12.64,0,1,1,25.28,0Z" fill="url(#_10_dpi_30_)"/>
      </g>
    </g>
  </g>
</svg>
