<svg xmlns="http://www.w3.org/2000/svg" width="1416" height="580.05" viewBox="0 0 1416 580.05">
  <title>cascasdes</title>
  <g id="Layer_2" data-name="Layer 2">
    <g id="Foreground_main">
      <g>
        <polygon points="318.97 417.57 188.85 580.05 0 580.05 134.48 363.51 196.19 417.98 259.46 390.97 318.97 417.57" fill="#9e9486"/>
        <polygon points="716.25 580.05 188.85 580.05 318.97 417.57 319.88 417.98 369.3 348.05 386.7 323.44 404.24 345.76 449.25 403.05 554.14 335.9 572.97 334.65 667.61 417.48 716.25 580.05" fill="#5d4d35"/>
        <g>
          <polygon points="1416 580.05 810.47 580.05 948.58 346.01 1015.8 394.52 1015.8 323.44 1127.4 383.86 1190.11 294.05 1416 580.05" fill="#5d4d35"/>
          <polygon points="948.58 346.01 810.47 580.05 716.25 580.05 667.61 417.48 668.19 417.98 732.88 358.98 836.66 388.83 946.84 344.76 948.58 346.01" fill="#9e9486"/>
          <polygon points="554.35 335.89 449.46 403.05 404.44 345.75 386.9 323.43 369.5 348.05 320.08 417.98 259.66 390.96 196.4 417.98 134.69 363.5 222.7 221.78 289.52 336.94 372.69 122.27 480.02 323.43 646.36 0 788.53 309.93 841.84 218.94 912.22 290.02 1064.34 146.43 1190.31 294.05 1127.6 383.86 1016 323.43 1016 394.52 947.05 344.76 840.21 415.05 740.21 393.05 668.4 417.98 573.17 334.65 554.35 335.89" fill="#fff"/>
        </g>
        <line x1="325" y1="410.05" x2="318.97" y2="417.57" fill="none"/>
        <line x1="667.61" y1="417.48" x2="663" y2="402.05" fill="none"/>
        <path d="M947,345" fill="#9e9486"/>
        <line x1="1133" y1="362.05" x2="1133" y2="362.05" fill="none"/>
      </g>
    </g>
  </g>
</svg>
