<svg xmlns="http://www.w3.org/2000/svg" width="2495" height="120" viewBox="0 0 2495 120">
  <title>desert_rocks</title>
  <g id="Layer_2" data-name="Layer 2">
    <g id="Layer_4_Desert">
      <g>
        <g>
          <path d="M1531,37v83h-83A83,83,0,0,1,1531,37Z" fill="#8a8159"/>
          <path d="M1614,120h-83V37A83,83,0,0,1,1614,120Z" fill="#c5c0ac"/>
        </g>
        <g>
          <path d="M1451,41v79h79A79,79,0,0,0,1451,41Z" fill="#a7a082"/>
          <path d="M1372,120h79V41A79,79,0,0,0,1372,120Z" fill="#524923"/>
        </g>
        <g>
          <path d="M756,37v83H673A83,83,0,0,1,756,37Z" fill="#8a8159"/>
          <path d="M839,120H756V37A83,83,0,0,1,839,120Z" fill="#c5c0ac"/>
        </g>
        <g>
          <path d="M1263,62v58h-58A58,58,0,0,1,1263,62Z" fill="#8a8159"/>
          <path d="M1321,120h-58V62A58,58,0,0,1,1321,120Z" fill="#c5c0ac"/>
        </g>
        <g>
          <path d="M1184,37v83h-83A83,83,0,0,1,1184,37Z" fill="#8a8159"/>
          <path d="M1267,120h-83V37A83,83,0,0,1,1267,120Z" fill="#c5c0ac"/>
        </g>
        <g>
          <path d="M221,0V120H101A120,120,0,0,1,221,0Z" fill="#a7a082"/>
          <path d="M341,120H221V0A120,120,0,0,1,341,120Z" fill="#524923"/>
        </g>
        <g>
          <path d="M676,41v79h79A79,79,0,0,0,676,41Z" fill="#a7a082"/>
          <path d="M597,120h79V41A79,79,0,0,0,597,120Z" fill="#524923"/>
        </g>
        <g>
          <path d="M366,37v83H283A83,83,0,0,1,366,37Z" fill="#8a8159"/>
          <path d="M449,120H366V37A83,83,0,0,1,449,120Z" fill="#c5c0ac"/>
        </g>
        <g>
          <path d="M66,54v66H0A66,66,0,0,1,66,54Z" fill="#373118"/>
          <path d="M132,120H66V54A66,66,0,0,1,132,120Z" fill="#8a8159"/>
        </g>
        <g>
          <path d="M463,54v66H397A66,66,0,0,1,463,54Z" fill="#373118"/>
          <path d="M529,120H463V54A66,66,0,0,1,529,120Z" fill="#8a8159"/>
        </g>
        <g>
          <path d="M2187,0V120H2067A120,120,0,0,1,2187,0Z" fill="#a7a082"/>
          <path d="M2307,120H2187V0A120,120,0,0,1,2307,120Z" fill="#524923"/>
        </g>
        <g>
          <path d="M2332,37v83h-83A83,83,0,0,1,2332,37Z" fill="#8a8159"/>
          <path d="M2415,120h-83V37A83,83,0,0,1,2415,120Z" fill="#c5c0ac"/>
        </g>
        <g>
          <path d="M2429,54v66h-66A66,66,0,0,1,2429,54Z" fill="#373118"/>
          <path d="M2495,120h-66V54A66,66,0,0,1,2495,120Z" fill="#8a8159"/>
        </g>
        <g>
          <path d="M861.5,24.5V120H766A95.5,95.5,0,0,1,861.5,24.5Z" fill="#373118"/>
          <path d="M957,120H861.5V24.5A95.5,95.5,0,0,1,957,120Z" fill="#8a8159"/>
        </g>
        <g>
          <path d="M1884,37v83h83A83,83,0,0,0,1884,37Z" fill="#8a8159"/>
          <path d="M1801,120h83V37A83,83,0,0,0,1801,120Z" fill="#c5c0ac"/>
        </g>
        <g>
          <path d="M1964,41v79h-79A79,79,0,0,1,1964,41Z" fill="#a7a082"/>
          <path d="M2043,120h-79V41A79,79,0,0,1,2043,120Z" fill="#524923"/>
        </g>
        <g>
          <path d="M1778.5,24.5V120H1874A95.5,95.5,0,0,0,1778.5,24.5Z" fill="#373118"/>
          <path d="M1683,120h95.5V24.5A95.5,95.5,0,0,0,1683,120Z" fill="#8a8159"/>
        </g>
        <g>
          <path d="M1146.5,54v66h66A66,66,0,0,0,1146.5,54Z" fill="#373118"/>
          <path d="M1080.5,120h66V54A66,66,0,0,0,1080.5,120Z" fill="#8a8159"/>
        </g>
      </g>
    </g>
  </g>
</svg>
