<svg xmlns="http://www.w3.org/2000/svg" xmlns:xlink="http://www.w3.org/1999/xlink" width="1260.71" height="193.35" viewBox="0 0 1260.71 193.35">
  <defs>
    <pattern id="_10_dpi_30_" data-name="10 dpi 30%" width="28.8" height="28.8" patternTransform="translate(0.15)" patternUnits="userSpaceOnUse" viewBox="0 0 28.8 28.8">
      <rect width="28.8" height="28.8" fill="none"/>
      <g>
        <circle cx="28.8" cy="28.8" r="2.16" fill="#004000"/>
        <circle cx="14.4" cy="28.8" r="2.16" fill="#004000"/>
        <circle cx="28.8" cy="14.4" r="2.16" fill="#004000"/>
        <circle cx="14.4" cy="14.4" r="2.16" fill="#004000"/>
        <circle cx="7.2" cy="21.6" r="2.16" fill="#004000"/>
        <circle cx="21.6" cy="21.6" r="2.16" fill="#004000"/>
        <circle cx="7.2" cy="7.2" r="2.16" fill="#004000"/>
        <circle cx="21.6" cy="7.2" r="2.16" fill="#004000"/>
      </g>
      <g>
        <circle cy="28.8" r="2.16" fill="#004000"/>
        <circle cy="14.4" r="2.16" fill="#004000"/>
      </g>
      <g>
        <circle cx="28.8" r="2.16" fill="#004000"/>
        <circle cx="14.4" r="2.16" fill="#004000"/>
      </g>
      <circle r="2.16" fill="#004000"/>
    </pattern>
    <pattern id="_10_dpi_30_3" data-name="10 dpi 30%" width="28.8" height="28.8" patternUnits="userSpaceOnUse" viewBox="0 0 28.8 28.8">
      <rect width="28.8" height="28.8" fill="none"/>
      <g>
        <circle cx="28.8" cy="28.8" r="2.16" fill="#004000"/>
        <circle cx="14.4" cy="28.8" r="2.16" fill="#004000"/>
        <circle cx="28.8" cy="14.4" r="2.16" fill="#004000"/>
        <circle cx="14.4" cy="14.4" r="2.16" fill="#004000"/>
        <circle cx="7.2" cy="21.6" r="2.16" fill="#004000"/>
        <circle cx="21.6" cy="21.6" r="2.16" fill="#004000"/>
        <circle cx="7.2" cy="7.2" r="2.16" fill="#004000"/>
        <circle cx="21.6" cy="7.2" r="2.16" fill="#004000"/>
      </g>
      <g>
        <circle cy="28.8" r="2.16" fill="#004000"/>
        <circle cy="14.4" r="2.16" fill="#004000"/>
      </g>
      <g>
        <circle cx="28.8" r="2.16" fill="#004000"/>
        <circle cx="14.4" r="2.16" fill="#004000"/>
      </g>
      <circle r="2.16" fill="#004000"/>
    </pattern>
  </defs>
  <title>dougfir_sm</title>
  <g id="Layer_2" data-name="Layer 2">
    <g id="Layer_3_Vege_2" data-name="Layer_3_Vege/2">
      <g>
        <g>
          <path d="M64.4,144.46v43.95a4.94,4.94,0,0,1-4.94,4.94H54.62V144.46Z" fill="#8a5d3b"/>
          <path d="M54.62,144.46v48.89H49.79a4.94,4.94,0,0,1-4.94-4.94V144.46Z" fill="#68462c"/>
        </g>
        <g>
          <path d="M108.51,145.8,93.89,103.93a3.65,3.65,0,0,0-6.11-1.29L56.1,136.52a.9.9,0,0,1-.67.29H54.06v13.84h51a3.65,3.65,0,0,0,3.44-4.85Z" fill="#006838"/>
          <path d="M58,103.23,82.44,77.07h0a3.63,3.63,0,0,0,.77-3.69L76.42,53.9a3.65,3.65,0,0,0-6.2-1.19L56.12,68.92a.91.91,0,0,1-.7.32H54.06v35.21l1.43-.07A3.62,3.62,0,0,0,58,103.23Z" fill="#006838"/>
          <path d="M58,132.11l31.8-34h0a3.65,3.65,0,0,0,.78-3.69l-4-11.5a3.65,3.65,0,0,0-6.11-1.29l-24.34,26a.9.9,0,0,1-.67.29H54.06v25.4l1.43-.07A3.62,3.62,0,0,0,58,132.11Z" fill="#006838"/>
          <path d="M58,64.32,72.34,47.79a3.65,3.65,0,0,0,.69-3.6L59,4.09a3.62,3.62,0,0,0-3.69-2.45l-1.28.08v64l1.51-.16A3.69,3.69,0,0,0,58,64.32Z" fill="#006838"/>
        </g>
        <g>
          <path d="M103.07,149.29H53.43V138.18a2.26,2.26,0,0,0,1.67-.72l31.68-33.88a2.29,2.29,0,0,1,3.83.81l14.62,41.88A2.29,2.29,0,0,1,103.07,149.29Z" stroke-miterlimit="10" stroke-width="6" fill="url(#_10_dpi_30_)" stroke="url(#_10_dpi_30_3)"/>
          <path d="M79.45,78.14,55,104.3a2.27,2.27,0,0,1-1.56.72V72.6a2.28,2.28,0,0,0,1.72-.78L69.25,55.6a2.29,2.29,0,0,1,3.89.75l6.8,19.47A2.29,2.29,0,0,1,79.45,78.14Z" stroke-miterlimit="10" stroke-width="6" fill="url(#_10_dpi_30_)" stroke="url(#_10_dpi_30_3)"/>
          <path d="M86.79,97.16l-31.8,34a2.27,2.27,0,0,1-1.56.72V109.29a2.26,2.26,0,0,0,1.67-.72l24.34-26a2.29,2.29,0,0,1,3.83.81l4,11.5A2.3,2.3,0,0,1,86.79,97.16Z" stroke-miterlimit="10" stroke-width="6" fill="url(#_10_dpi_30_)" stroke="url(#_10_dpi_30_3)"/>
          <path d="M69.31,46.89,54.93,63.43a2.31,2.31,0,0,1-1.5.78V3a2.25,2.25,0,0,1,2.32,1.53l14,40.1A2.28,2.28,0,0,1,69.31,46.89Z" stroke-miterlimit="10" stroke-width="6" fill="url(#_10_dpi_30_)" stroke="url(#_10_dpi_30_3)"/>
        </g>
        <g>
          <path d="M52.78,136.35,20.66,104.23a3.92,3.92,0,0,0-6.48,1.48l-14,40a3.92,3.92,0,0,0,3.71,5.21h51V136.54H53.25A.65.65,0,0,1,52.78,136.35Z" fill="#004e2a"/>
          <path d="M52.78,68.78,38.15,54.15a3.92,3.92,0,0,0-6.48,1.48L24.93,74.94A3.9,3.9,0,0,0,25.86,79l24.51,24.51a3.91,3.91,0,0,0,2.76,1.15h.21l1.55-.08V69H53.25A.64.64,0,0,1,52.78,68.78Z" fill="#004e2a"/>
          <path d="M52.78,107.47,28.14,82.83a3.92,3.92,0,0,0-6.48,1.48l-4.21,12a3.94,3.94,0,0,0,.93,4.06l32,32a3.91,3.91,0,0,0,2.76,1.15h.21l1.55-.08V107.66H53.25A.65.65,0,0,1,52.78,107.47Z" fill="#004e2a"/>
          <path d="M53.14,1.37A3.87,3.87,0,0,0,49.7,4L34.94,46.26a3.94,3.94,0,0,0,.93,4.06L50.24,64.7A3.91,3.91,0,0,0,53,65.85l.39,0,1.47-.15V1.26Z" fill="#004e2a"/>
        </g>
      </g>
      <g>
        <g>
          <path d="M570.4,144.46v43.95a4.94,4.94,0,0,1-4.94,4.94h-4.84V144.46Z" fill="#8a5d3b"/>
          <path d="M560.62,144.46v48.89h-4.84a4.94,4.94,0,0,1-4.94-4.94V144.46Z" fill="#68462c"/>
        </g>
        <g>
          <path d="M614.51,145.8l-14.62-41.88a3.65,3.65,0,0,0-6.11-1.29L562.1,136.52a.9.9,0,0,1-.67.29h-1.36v13.84h51a3.65,3.65,0,0,0,3.44-4.85Z" fill="#006838"/>
          <path d="M564,103.23l24.46-26.16h0a3.63,3.63,0,0,0,.77-3.69l-6.8-19.47a3.65,3.65,0,0,0-6.2-1.19l-14.1,16.22a.91.91,0,0,1-.7.32h-1.36v35.21l1.43-.07A3.62,3.62,0,0,0,564,103.23Z" fill="#006838"/>
          <path d="M564,132.11l31.8-34h0a3.65,3.65,0,0,0,.78-3.69l-4-11.5a3.65,3.65,0,0,0-6.11-1.29l-24.34,26a.9.9,0,0,1-.67.29h-1.36v25.4l1.43-.07A3.62,3.62,0,0,0,564,132.11Z" fill="#006838"/>
          <path d="M564,64.32l14.38-16.54a3.65,3.65,0,0,0,.69-3.6L565,4.09a3.62,3.62,0,0,0-3.69-2.45l-1.28.08v64l1.51-.16A3.69,3.69,0,0,0,564,64.32Z" fill="#006838"/>
        </g>
        <g>
          <path d="M609.07,149.29H559.43V138.18a2.26,2.26,0,0,0,1.67-.72l31.68-33.88a2.29,2.29,0,0,1,3.83.81l14.62,41.88A2.29,2.29,0,0,1,609.07,149.29Z" stroke-miterlimit="10" stroke-width="6" fill="url(#_10_dpi_30_)" stroke="url(#_10_dpi_30_3)"/>
          <path d="M585.45,78.14,561,104.3a2.27,2.27,0,0,1-1.56.72V72.6a2.28,2.28,0,0,0,1.72-.78l14.1-16.22a2.29,2.29,0,0,1,3.89.75l6.8,19.47A2.29,2.29,0,0,1,585.45,78.14Z" stroke-miterlimit="10" stroke-width="6" fill="url(#_10_dpi_30_)" stroke="url(#_10_dpi_30_3)"/>
          <path d="M592.79,97.16l-31.8,34a2.27,2.27,0,0,1-1.56.72V109.29a2.26,2.26,0,0,0,1.67-.72l24.34-26a2.29,2.29,0,0,1,3.83.81l4,11.5A2.3,2.3,0,0,1,592.79,97.16Z" stroke-miterlimit="10" stroke-width="6" fill="url(#_10_dpi_30_)" stroke="url(#_10_dpi_30_3)"/>
          <path d="M575.31,46.89,560.93,63.43a2.31,2.31,0,0,1-1.5.78V3a2.25,2.25,0,0,1,2.32,1.53l14,40.1A2.28,2.28,0,0,1,575.31,46.89Z" stroke-miterlimit="10" stroke-width="6" fill="url(#_10_dpi_30_)" stroke="url(#_10_dpi_30_3)"/>
        </g>
        <g>
          <path d="M558.78,136.35l-32.12-32.12a3.92,3.92,0,0,0-6.48,1.48l-14,40a3.92,3.92,0,0,0,3.71,5.21h51V136.54h-1.63A.65.65,0,0,1,558.78,136.35Z" fill="#004e2a"/>
          <path d="M558.78,68.78,544.15,54.15a3.92,3.92,0,0,0-6.48,1.48l-6.74,19.31a3.9,3.9,0,0,0,.93,4.07l24.51,24.51a3.91,3.91,0,0,0,2.76,1.15h.21l1.55-.08V69h-1.63A.64.64,0,0,1,558.78,68.78Z" fill="#004e2a"/>
          <path d="M558.78,107.47,534.14,82.83a3.92,3.92,0,0,0-6.48,1.48l-4.21,12a3.94,3.94,0,0,0,.93,4.06l32,32a3.91,3.91,0,0,0,2.76,1.15h.21l1.55-.08V107.66h-1.63A.65.65,0,0,1,558.78,107.47Z" fill="#004e2a"/>
          <path d="M559.14,1.37A3.87,3.87,0,0,0,555.7,4L540.94,46.26a3.94,3.94,0,0,0,.93,4.06L556.24,64.7A3.91,3.91,0,0,0,559,65.85l.39,0,1.47-.15V1.26Z" fill="#004e2a"/>
        </g>
      </g>
      <g>
        <g>
          <path d="M706.4,144.46v43.95a4.94,4.94,0,0,1-4.94,4.94h-4.84V144.46Z" fill="#8a5d3b"/>
          <path d="M696.62,144.46v48.89h-4.84a4.94,4.94,0,0,1-4.94-4.94V144.46Z" fill="#68462c"/>
        </g>
        <g>
          <path d="M750.51,145.8l-14.62-41.88a3.65,3.65,0,0,0-6.11-1.29L698.1,136.52a.9.9,0,0,1-.67.29h-1.36v13.84h51a3.65,3.65,0,0,0,3.44-4.85Z" fill="#006838"/>
          <path d="M700,103.23l24.46-26.16h0a3.63,3.63,0,0,0,.77-3.69l-6.8-19.47a3.65,3.65,0,0,0-6.2-1.19l-14.1,16.22a.91.91,0,0,1-.7.32h-1.36v35.21l1.43-.07A3.62,3.62,0,0,0,700,103.23Z" fill="#006838"/>
          <path d="M700,132.11l31.8-34h0a3.65,3.65,0,0,0,.78-3.69l-4-11.5a3.65,3.65,0,0,0-6.11-1.29l-24.34,26a.9.9,0,0,1-.67.29h-1.36v25.4l1.43-.07A3.62,3.62,0,0,0,700,132.11Z" fill="#006838"/>
          <path d="M700,64.32l14.38-16.54a3.65,3.65,0,0,0,.69-3.6L701,4.09a3.62,3.62,0,0,0-3.69-2.45l-1.28.08v64l1.51-.16A3.69,3.69,0,0,0,700,64.32Z" fill="#006838"/>
        </g>
        <g>
          <path d="M745.07,149.29H695.43V138.18a2.26,2.26,0,0,0,1.67-.72l31.68-33.88a2.29,2.29,0,0,1,3.83.81l14.62,41.88A2.29,2.29,0,0,1,745.07,149.29Z" stroke-miterlimit="10" stroke-width="6" fill="url(#_10_dpi_30_)" stroke="url(#_10_dpi_30_3)"/>
          <path d="M721.45,78.14,697,104.3a2.27,2.27,0,0,1-1.56.72V72.6a2.28,2.28,0,0,0,1.72-.78l14.1-16.22a2.29,2.29,0,0,1,3.89.75l6.8,19.47A2.29,2.29,0,0,1,721.45,78.14Z" stroke-miterlimit="10" stroke-width="6" fill="url(#_10_dpi_30_)" stroke="url(#_10_dpi_30_3)"/>
          <path d="M728.79,97.16l-31.8,34a2.27,2.27,0,0,1-1.56.72V109.29a2.26,2.26,0,0,0,1.67-.72l24.34-26a2.29,2.29,0,0,1,3.83.81l4,11.5A2.3,2.3,0,0,1,728.79,97.16Z" stroke-miterlimit="10" stroke-width="6" fill="url(#_10_dpi_30_)" stroke="url(#_10_dpi_30_3)"/>
          <path d="M711.31,46.89,696.93,63.43a2.31,2.31,0,0,1-1.5.78V3a2.25,2.25,0,0,1,2.32,1.53l14,40.1A2.28,2.28,0,0,1,711.31,46.89Z" stroke-miterlimit="10" stroke-width="6" fill="url(#_10_dpi_30_)" stroke="url(#_10_dpi_30_3)"/>
        </g>
        <g>
          <path d="M694.78,136.35l-32.12-32.12a3.92,3.92,0,0,0-6.48,1.48l-14,40a3.92,3.92,0,0,0,3.71,5.21h51V136.54h-1.63A.65.65,0,0,1,694.78,136.35Z" fill="#004e2a"/>
          <path d="M694.78,68.78,680.15,54.15a3.92,3.92,0,0,0-6.48,1.48l-6.74,19.31a3.9,3.9,0,0,0,.93,4.07l24.51,24.51a3.91,3.91,0,0,0,2.76,1.15h.21l1.55-.08V69h-1.63A.64.64,0,0,1,694.78,68.78Z" fill="#004e2a"/>
          <path d="M694.78,107.47,670.14,82.83a3.92,3.92,0,0,0-6.48,1.48l-4.21,12a3.94,3.94,0,0,0,.93,4.06l32,32a3.91,3.91,0,0,0,2.76,1.15h.21l1.55-.08V107.66h-1.63A.65.65,0,0,1,694.78,107.47Z" fill="#004e2a"/>
          <path d="M695.14,1.37A3.87,3.87,0,0,0,691.7,4L676.94,46.26a3.94,3.94,0,0,0,.93,4.06L692.24,64.7A3.91,3.91,0,0,0,695,65.85l.39,0,1.47-.15V1.26Z" fill="#004e2a"/>
        </g>
      </g>
      <g>
        <g>
          <path d="M1216.4,144.46v43.95a4.94,4.94,0,0,1-4.94,4.94h-4.84V144.46Z" fill="#8a5d3b"/>
          <path d="M1206.62,144.46v48.89h-4.84a4.94,4.94,0,0,1-4.94-4.94V144.46Z" fill="#68462c"/>
        </g>
        <g>
          <path d="M1260.51,145.8l-14.62-41.88a3.65,3.65,0,0,0-6.11-1.29l-31.68,33.89a.9.9,0,0,1-.67.29h-1.36v13.84h51a3.65,3.65,0,0,0,3.44-4.85Z" fill="#006838"/>
          <path d="M1210,103.23l24.46-26.16h0a3.63,3.63,0,0,0,.77-3.69l-6.8-19.47a3.65,3.65,0,0,0-6.2-1.19l-14.1,16.22a.91.91,0,0,1-.7.32h-1.36v35.21l1.43-.07A3.62,3.62,0,0,0,1210,103.23Z" fill="#006838"/>
          <path d="M1210,132.11l31.8-34h0a3.65,3.65,0,0,0,.78-3.69l-4-11.5a3.65,3.65,0,0,0-6.11-1.29l-24.34,26a.9.9,0,0,1-.67.29h-1.36v25.4l1.43-.07A3.62,3.62,0,0,0,1210,132.11Z" fill="#006838"/>
          <path d="M1210,64.32l14.38-16.54a3.65,3.65,0,0,0,.69-3.6L1211,4.09a3.62,3.62,0,0,0-3.69-2.45l-1.28.08v64l1.51-.16A3.69,3.69,0,0,0,1210,64.32Z" fill="#006838"/>
        </g>
        <g>
          <path d="M1255.07,149.29h-49.64V138.18a2.26,2.26,0,0,0,1.67-.72l31.68-33.88a2.29,2.29,0,0,1,3.83.81l14.62,41.88A2.29,2.29,0,0,1,1255.07,149.29Z" stroke-miterlimit="10" stroke-width="6" fill="url(#_10_dpi_30_)" stroke="url(#_10_dpi_30_3)"/>
          <path d="M1231.45,78.14,1207,104.3a2.27,2.27,0,0,1-1.56.72V72.6a2.28,2.28,0,0,0,1.72-.78l14.1-16.22a2.29,2.29,0,0,1,3.89.75l6.8,19.47A2.29,2.29,0,0,1,1231.45,78.14Z" stroke-miterlimit="10" stroke-width="6" fill="url(#_10_dpi_30_)" stroke="url(#_10_dpi_30_3)"/>
          <path d="M1238.79,97.16l-31.8,34a2.27,2.27,0,0,1-1.56.72V109.29a2.26,2.26,0,0,0,1.67-.72l24.34-26a2.29,2.29,0,0,1,3.83.81l4,11.5A2.3,2.3,0,0,1,1238.79,97.16Z" stroke-miterlimit="10" stroke-width="6" fill="url(#_10_dpi_30_)" stroke="url(#_10_dpi_30_3)"/>
          <path d="M1221.31,46.89l-14.39,16.54a2.31,2.31,0,0,1-1.5.78V3a2.25,2.25,0,0,1,2.32,1.53l14,40.1A2.28,2.28,0,0,1,1221.31,46.89Z" stroke-miterlimit="10" stroke-width="6" fill="url(#_10_dpi_30_)" stroke="url(#_10_dpi_30_3)"/>
        </g>
        <g>
          <path d="M1204.78,136.35l-32.12-32.12a3.92,3.92,0,0,0-6.48,1.48l-14,40a3.92,3.92,0,0,0,3.71,5.21h51V136.54h-1.63A.65.65,0,0,1,1204.78,136.35Z" fill="#004e2a"/>
          <path d="M1204.78,68.78l-14.63-14.63a3.92,3.92,0,0,0-6.48,1.48l-6.74,19.31a3.9,3.9,0,0,0,.93,4.07l24.51,24.51a3.91,3.91,0,0,0,2.76,1.15h.21l1.55-.08V69h-1.63A.64.64,0,0,1,1204.78,68.78Z" fill="#004e2a"/>
          <path d="M1204.78,107.47l-24.65-24.64a3.92,3.92,0,0,0-6.48,1.48l-4.21,12a3.94,3.94,0,0,0,.93,4.06l32,32a3.91,3.91,0,0,0,2.76,1.15h.21l1.55-.08V107.66h-1.63A.65.65,0,0,1,1204.78,107.47Z" fill="#004e2a"/>
          <path d="M1205.14,1.37A3.87,3.87,0,0,0,1201.7,4l-14.76,42.27a3.94,3.94,0,0,0,.93,4.06l14.37,14.38a3.91,3.91,0,0,0,2.77,1.15l.39,0,1.47-.15V1.26Z" fill="#004e2a"/>
        </g>
      </g>
    </g>
  </g>
</svg>
