<svg xmlns="http://www.w3.org/2000/svg" xmlns:xlink="http://www.w3.org/1999/xlink" width="1721" height="352.49" viewBox="0 0 1721 352.49">
  <defs>
    <pattern id="_10_dpi_30_" data-name="10 dpi 30%" width="28.8" height="28.8" patternTransform="translate(0.15)" patternUnits="userSpaceOnUse" viewBox="0 0 28.8 28.8">
      <rect width="28.8" height="28.8" fill="none"/>
      <g>
        <circle cx="28.8" cy="28.8" r="2.16" fill="#004000"/>
        <circle cx="14.4" cy="28.8" r="2.16" fill="#004000"/>
        <circle cx="28.8" cy="14.4" r="2.16" fill="#004000"/>
        <circle cx="14.4" cy="14.4" r="2.16" fill="#004000"/>
        <circle cx="7.2" cy="21.6" r="2.16" fill="#004000"/>
        <circle cx="21.6" cy="21.6" r="2.16" fill="#004000"/>
        <circle cx="7.2" cy="7.2" r="2.16" fill="#004000"/>
        <circle cx="21.6" cy="7.2" r="2.16" fill="#004000"/>
      </g>
      <g>
        <circle cy="28.8" r="2.16" fill="#004000"/>
        <circle cy="14.4" r="2.16" fill="#004000"/>
      </g>
      <g>
        <circle cx="28.8" r="2.16" fill="#004000"/>
        <circle cx="14.4" r="2.16" fill="#004000"/>
      </g>
      <circle r="2.16" fill="#004000"/>
    </pattern>
    <pattern id="_10_dpi_30_3" data-name="10 dpi 30%" width="28.8" height="28.8" patternUnits="userSpaceOnUse" viewBox="0 0 28.8 28.8">
      <rect width="28.8" height="28.8" fill="none"/>
      <g>
        <circle cx="28.8" cy="28.8" r="2.16" fill="#004000"/>
        <circle cx="14.4" cy="28.8" r="2.16" fill="#004000"/>
        <circle cx="28.8" cy="14.4" r="2.16" fill="#004000"/>
        <circle cx="14.4" cy="14.4" r="2.16" fill="#004000"/>
        <circle cx="7.2" cy="21.6" r="2.16" fill="#004000"/>
        <circle cx="21.6" cy="21.6" r="2.16" fill="#004000"/>
        <circle cx="7.2" cy="7.2" r="2.16" fill="#004000"/>
        <circle cx="21.6" cy="7.2" r="2.16" fill="#004000"/>
      </g>
      <g>
        <circle cy="28.8" r="2.16" fill="#004000"/>
        <circle cy="14.4" r="2.16" fill="#004000"/>
      </g>
      <g>
        <circle cx="28.8" r="2.16" fill="#004000"/>
        <circle cx="14.4" r="2.16" fill="#004000"/>
      </g>
      <circle r="2.16" fill="#004000"/>
    </pattern>
  </defs>
  <title>dougfir_md</title>
  <g id="Layer_2" data-name="Layer 2">
    <g id="Layer_3_Vege_2" data-name="Layer_3_Vege/2">
      <g>
        <g>
          <path d="M118.18,262.79v80.64a9.06,9.06,0,0,1-9.06,9.06h-8.88V262.79Z" fill="#8a5d3b"/>
          <path d="M100.24,262.79v89.71H91.36a9.06,9.06,0,0,1-9.06-9.06V262.79Z" fill="#68462c"/>
        </g>
        <g>
          <path d="M199.12,265.25,172.29,188.4A6.7,6.7,0,0,0,161.08,186l-58.13,62.18a1.65,1.65,0,0,1-1.23.53h-2.5v25.4H192.8a6.7,6.7,0,0,0,6.32-8.9Z" fill="#006838"/>
          <path d="M106.41,187.12l44.88-48h0a6.67,6.67,0,0,0,1.42-6.78L140.24,96.6a6.7,6.7,0,0,0-11.38-2.19L103,124.17a1.67,1.67,0,0,1-1.28.58h-2.5v64.61l2.62-.12A6.64,6.64,0,0,0,106.41,187.12Z" fill="#006838"/>
          <path d="M106.41,240.12l58.35-62.42h0a6.7,6.7,0,0,0,1.43-6.78l-7.37-21.11a6.7,6.7,0,0,0-11.22-2.36l-44.66,47.77a1.65,1.65,0,0,1-1.23.53h-2.5v46.61l2.62-.12A6.64,6.64,0,0,0,106.41,240.12Z" fill="#006838"/>
          <path d="M106.35,115.72l26.4-30.34A6.69,6.69,0,0,0,134,78.77L108.32,5.19A6.65,6.65,0,0,0,101.56.71L99.21.85V118.29L102,118A6.76,6.76,0,0,0,106.35,115.72Z" fill="#006838"/>
        </g>
        <g>
          <path d="M192.8,271.65H101.71v-20.4a4.16,4.16,0,0,0,3.06-1.33l58.13-62.18a4.2,4.2,0,0,1,7,1.48l26.83,76.85A4.2,4.2,0,0,1,192.8,271.65Z" stroke-miterlimit="10" stroke-width="6" fill="url(#_10_dpi_30_)" stroke="url(#_10_dpi_30_3)"/>
          <path d="M149.46,137.4l-44.88,48a4.17,4.17,0,0,1-2.87,1.33V127.25a4.19,4.19,0,0,0,3.16-1.44l25.88-29.76a4.2,4.2,0,0,1,7.13,1.37l12.47,35.73A4.2,4.2,0,0,1,149.46,137.4Z" stroke-miterlimit="10" stroke-width="6" fill="url(#_10_dpi_30_)" stroke="url(#_10_dpi_30_3)"/>
          <path d="M162.93,176l-58.35,62.42a4.17,4.17,0,0,1-2.87,1.33V198.25a4.16,4.16,0,0,0,3.06-1.33l44.66-47.77a4.2,4.2,0,0,1,7,1.48l7.37,21.11A4.22,4.22,0,0,1,162.93,176Z" stroke-miterlimit="10" stroke-width="6" fill="url(#_10_dpi_30_)" stroke="url(#_10_dpi_30_3)"/>
          <path d="M130.86,83.73l-26.4,30.35a4.24,4.24,0,0,1-2.75,1.43V3.2A4.14,4.14,0,0,1,106,6l25.69,73.58A4.18,4.18,0,0,1,130.86,83.73Z" stroke-miterlimit="10" stroke-width="6" fill="url(#_10_dpi_30_)" stroke="url(#_10_dpi_30_3)"/>
        </g>
        <g>
          <path d="M96.86,247.9,37.92,189A7.19,7.19,0,0,0,26,191.68L.4,265.09a7.2,7.2,0,0,0,6.8,9.57h93.51v-26.4h-3A1.2,1.2,0,0,1,96.86,247.9Z" fill="#004e2a"/>
          <path d="M96.85,123.9,70,97.05a7.19,7.19,0,0,0-11.89,2.72L45.75,135.21a7.16,7.16,0,0,0,1.7,7.46l45,45a7.18,7.18,0,0,0,5.07,2.1h.38l2.84-.15V124.25h-3A1.18,1.18,0,0,1,96.85,123.9Z" fill="#004e2a"/>
          <path d="M96.86,194.9,51.63,149.68a7.19,7.19,0,0,0-11.88,2.71L32,174.49A7.23,7.23,0,0,0,33.74,182l58.68,58.69a7.18,7.18,0,0,0,5.07,2.1h.38l2.84-.15V195.25h-3A1.2,1.2,0,0,1,96.86,194.9Z" fill="#004e2a"/>
          <path d="M97.52.21A7.09,7.09,0,0,0,91.2,5L64.12,82.58A7.24,7.24,0,0,0,65.83,90L92.2,116.42a7.18,7.18,0,0,0,5.09,2.11c.24,0,.48,0,.72,0l2.7-.27V0Z" fill="#004e2a"/>
        </g>
      </g>
      <g>
        <g>
          <path d="M471.18,262.79v80.64a9.06,9.06,0,0,1-9.06,9.06h-8.88V262.79Z" fill="#8a5d3b"/>
          <path d="M453.24,262.79v89.71h-8.88a9.06,9.06,0,0,1-9.06-9.06V262.79Z" fill="#68462c"/>
        </g>
        <g>
          <path d="M552.12,265.25,525.29,188.4A6.7,6.7,0,0,0,514.08,186l-58.13,62.18a1.65,1.65,0,0,1-1.23.53h-2.5v25.4H545.8a6.7,6.7,0,0,0,6.32-8.9Z" fill="#006838"/>
          <path d="M459.41,187.12l44.88-48h0a6.67,6.67,0,0,0,1.42-6.78L493.24,96.6a6.7,6.7,0,0,0-11.38-2.19L456,124.17a1.67,1.67,0,0,1-1.28.58h-2.5v64.61l2.62-.12A6.64,6.64,0,0,0,459.41,187.12Z" fill="#006838"/>
          <path d="M459.41,240.12l58.35-62.42h0a6.7,6.7,0,0,0,1.43-6.78l-7.37-21.11a6.7,6.7,0,0,0-11.22-2.36l-44.66,47.77a1.65,1.65,0,0,1-1.23.53h-2.5v46.61l2.62-.12A6.64,6.64,0,0,0,459.41,240.12Z" fill="#006838"/>
          <path d="M459.35,115.72l26.4-30.34A6.69,6.69,0,0,0,487,78.77L461.32,5.19A6.65,6.65,0,0,0,454.56.71l-2.34.15V118.29L455,118A6.76,6.76,0,0,0,459.35,115.72Z" fill="#006838"/>
        </g>
        <g>
          <path d="M545.8,271.65H454.71v-20.4a4.16,4.16,0,0,0,3.06-1.33l58.13-62.18a4.2,4.2,0,0,1,7,1.48l26.83,76.85A4.2,4.2,0,0,1,545.8,271.65Z" stroke-miterlimit="10" stroke-width="6" fill="url(#_10_dpi_30_)" stroke="url(#_10_dpi_30_3)"/>
          <path d="M502.46,137.4l-44.88,48a4.17,4.17,0,0,1-2.87,1.33V127.25a4.19,4.19,0,0,0,3.16-1.44l25.88-29.76a4.2,4.2,0,0,1,7.13,1.37l12.47,35.73A4.2,4.2,0,0,1,502.46,137.4Z" stroke-miterlimit="10" stroke-width="6" fill="url(#_10_dpi_30_)" stroke="url(#_10_dpi_30_3)"/>
          <path d="M515.93,176l-58.35,62.42a4.17,4.17,0,0,1-2.87,1.33V198.25a4.16,4.16,0,0,0,3.06-1.33l44.66-47.77a4.2,4.2,0,0,1,7,1.48l7.37,21.11A4.22,4.22,0,0,1,515.93,176Z" stroke-miterlimit="10" stroke-width="6" fill="url(#_10_dpi_30_)" stroke="url(#_10_dpi_30_3)"/>
          <path d="M483.86,83.73l-26.4,30.35a4.24,4.24,0,0,1-2.75,1.43V3.2A4.14,4.14,0,0,1,459,6l25.69,73.58A4.18,4.18,0,0,1,483.86,83.73Z" stroke-miterlimit="10" stroke-width="6" fill="url(#_10_dpi_30_)" stroke="url(#_10_dpi_30_3)"/>
        </g>
        <g>
          <path d="M449.86,247.9,390.92,189A7.19,7.19,0,0,0,379,191.68l-25.63,73.4a7.2,7.2,0,0,0,6.8,9.57h93.51v-26.4h-3A1.2,1.2,0,0,1,449.86,247.9Z" fill="#004e2a"/>
          <path d="M449.85,123.9,423,97.05a7.19,7.19,0,0,0-11.89,2.72l-12.37,35.44a7.16,7.16,0,0,0,1.7,7.46l45,45a7.18,7.18,0,0,0,5.07,2.1h.38l2.84-.15V124.25h-3A1.18,1.18,0,0,1,449.85,123.9Z" fill="#004e2a"/>
          <path d="M449.86,194.9l-45.23-45.22a7.19,7.19,0,0,0-11.88,2.71L385,174.49a7.23,7.23,0,0,0,1.71,7.46l58.68,58.69a7.18,7.18,0,0,0,5.07,2.1h.38l2.84-.15V195.25h-3A1.2,1.2,0,0,1,449.86,194.9Z" fill="#004e2a"/>
          <path d="M450.52.21A7.09,7.09,0,0,0,444.2,5L417.12,82.58A7.24,7.24,0,0,0,418.83,90l26.37,26.38a7.18,7.18,0,0,0,5.09,2.11c.24,0,.48,0,.72,0l2.7-.27V0Z" fill="#004e2a"/>
        </g>
      </g>
      <g>
        <g>
          <path d="M1031.18,262.79v80.64a9.06,9.06,0,0,1-9.06,9.06h-8.88V262.79Z" fill="#8a5d3b"/>
          <path d="M1013.24,262.79v89.71h-8.88a9.06,9.06,0,0,1-9.06-9.06V262.79Z" fill="#68462c"/>
        </g>
        <g>
          <path d="M1112.12,265.25l-26.83-76.85a6.7,6.7,0,0,0-11.22-2.36l-58.13,62.18a1.65,1.65,0,0,1-1.23.53h-2.5v25.4h93.59a6.7,6.7,0,0,0,6.32-8.9Z" fill="#006838"/>
          <path d="M1019.41,187.12l44.88-48h0a6.67,6.67,0,0,0,1.42-6.78L1053.24,96.6a6.7,6.7,0,0,0-11.38-2.19L1016,124.17a1.67,1.67,0,0,1-1.28.58h-2.5v64.61l2.62-.12A6.64,6.64,0,0,0,1019.41,187.12Z" fill="#006838"/>
          <path d="M1019.41,240.12l58.35-62.42h0a6.7,6.7,0,0,0,1.43-6.78l-7.37-21.11a6.7,6.7,0,0,0-11.22-2.36l-44.66,47.77a1.65,1.65,0,0,1-1.23.53h-2.5v46.61l2.62-.12A6.64,6.64,0,0,0,1019.41,240.12Z" fill="#006838"/>
          <path d="M1019.35,115.72l26.4-30.34a6.69,6.69,0,0,0,1.27-6.61L1021.32,5.19a6.65,6.65,0,0,0-6.77-4.49l-2.34.15V118.29l2.77-.3A6.76,6.76,0,0,0,1019.35,115.72Z" fill="#006838"/>
        </g>
        <g>
          <path d="M1105.8,271.65h-91.09v-20.4a4.16,4.16,0,0,0,3.06-1.33l58.13-62.18a4.2,4.2,0,0,1,7,1.48l26.83,76.85A4.2,4.2,0,0,1,1105.8,271.65Z" stroke-miterlimit="10" stroke-width="6" fill="url(#_10_dpi_30_)" stroke="url(#_10_dpi_30_3)"/>
          <path d="M1062.46,137.4l-44.88,48a4.17,4.17,0,0,1-2.87,1.33V127.25a4.19,4.19,0,0,0,3.16-1.44l25.88-29.76a4.2,4.2,0,0,1,7.13,1.37l12.47,35.73A4.2,4.2,0,0,1,1062.46,137.4Z" stroke-miterlimit="10" stroke-width="6" fill="url(#_10_dpi_30_)" stroke="url(#_10_dpi_30_3)"/>
          <path d="M1075.93,176l-58.35,62.42a4.17,4.17,0,0,1-2.87,1.33V198.25a4.16,4.16,0,0,0,3.06-1.33l44.66-47.77a4.2,4.2,0,0,1,7,1.48l7.37,21.11A4.22,4.22,0,0,1,1075.93,176Z" stroke-miterlimit="10" stroke-width="6" fill="url(#_10_dpi_30_)" stroke="url(#_10_dpi_30_3)"/>
          <path d="M1043.86,83.73l-26.4,30.35a4.24,4.24,0,0,1-2.75,1.43V3.2A4.14,4.14,0,0,1,1019,6l25.69,73.58A4.18,4.18,0,0,1,1043.86,83.73Z" stroke-miterlimit="10" stroke-width="6" fill="url(#_10_dpi_30_)" stroke="url(#_10_dpi_30_3)"/>
        </g>
        <g>
          <path d="M1009.86,247.9,950.92,189A7.19,7.19,0,0,0,939,191.68l-25.63,73.4a7.2,7.2,0,0,0,6.8,9.57h93.51v-26.4h-3A1.2,1.2,0,0,1,1009.86,247.9Z" fill="#004e2a"/>
          <path d="M1009.85,123.9,983,97.05a7.19,7.19,0,0,0-11.89,2.72l-12.37,35.44a7.16,7.16,0,0,0,1.7,7.46l45,45a7.18,7.18,0,0,0,5.07,2.1h.38l2.84-.15V124.25h-3A1.18,1.18,0,0,1,1009.85,123.9Z" fill="#004e2a"/>
          <path d="M1009.86,194.9l-45.23-45.22a7.19,7.19,0,0,0-11.88,2.71L945,174.49a7.23,7.23,0,0,0,1.71,7.46l58.68,58.69a7.18,7.18,0,0,0,5.07,2.1h.38l2.84-.15V195.25h-3A1.2,1.2,0,0,1,1009.86,194.9Z" fill="#004e2a"/>
          <path d="M1010.52.21A7.09,7.09,0,0,0,1004.2,5L977.12,82.58A7.24,7.24,0,0,0,978.83,90l26.37,26.38a7.18,7.18,0,0,0,5.09,2.11c.24,0,.48,0,.72,0l2.7-.27V0Z" fill="#004e2a"/>
        </g>
      </g>
      <g>
        <g>
          <path d="M1639.18,262.79v80.64a9.06,9.06,0,0,1-9.06,9.06h-8.88V262.79Z" fill="#8a5d3b"/>
          <path d="M1621.24,262.79v89.71h-8.88a9.06,9.06,0,0,1-9.06-9.06V262.79Z" fill="#68462c"/>
        </g>
        <g>
          <path d="M1720.12,265.25l-26.83-76.85a6.7,6.7,0,0,0-11.22-2.36l-58.13,62.18a1.65,1.65,0,0,1-1.23.53h-2.5v25.4h93.59a6.7,6.7,0,0,0,6.32-8.9Z" fill="#006838"/>
          <path d="M1627.41,187.12l44.88-48h0a6.67,6.67,0,0,0,1.42-6.78L1661.24,96.6a6.7,6.7,0,0,0-11.38-2.19L1624,124.17a1.67,1.67,0,0,1-1.28.58h-2.5v64.61l2.62-.12A6.64,6.64,0,0,0,1627.41,187.12Z" fill="#006838"/>
          <path d="M1627.41,240.12l58.35-62.42h0a6.7,6.7,0,0,0,1.43-6.78l-7.37-21.11a6.7,6.7,0,0,0-11.22-2.36l-44.66,47.77a1.65,1.65,0,0,1-1.23.53h-2.5v46.61l2.62-.12A6.64,6.64,0,0,0,1627.41,240.12Z" fill="#006838"/>
          <path d="M1627.35,115.72l26.4-30.34a6.69,6.69,0,0,0,1.27-6.61L1629.32,5.19a6.65,6.65,0,0,0-6.77-4.49l-2.34.15V118.29l2.77-.3A6.76,6.76,0,0,0,1627.35,115.72Z" fill="#006838"/>
        </g>
        <g>
          <path d="M1713.8,271.65h-91.09v-20.4a4.16,4.16,0,0,0,3.06-1.33l58.13-62.18a4.2,4.2,0,0,1,7,1.48l26.83,76.85A4.2,4.2,0,0,1,1713.8,271.65Z" stroke-miterlimit="10" stroke-width="6" fill="url(#_10_dpi_30_)" stroke="url(#_10_dpi_30_3)"/>
          <path d="M1670.46,137.4l-44.88,48a4.17,4.17,0,0,1-2.87,1.33V127.25a4.19,4.19,0,0,0,3.16-1.44l25.88-29.76a4.2,4.2,0,0,1,7.13,1.37l12.47,35.73A4.2,4.2,0,0,1,1670.46,137.4Z" stroke-miterlimit="10" stroke-width="6" fill="url(#_10_dpi_30_)" stroke="url(#_10_dpi_30_3)"/>
          <path d="M1683.93,176l-58.35,62.42a4.17,4.17,0,0,1-2.87,1.33V198.25a4.16,4.16,0,0,0,3.06-1.33l44.66-47.77a4.2,4.2,0,0,1,7,1.48l7.37,21.11A4.22,4.22,0,0,1,1683.93,176Z" stroke-miterlimit="10" stroke-width="6" fill="url(#_10_dpi_30_)" stroke="url(#_10_dpi_30_3)"/>
          <path d="M1651.86,83.73l-26.4,30.35a4.24,4.24,0,0,1-2.75,1.43V3.2A4.14,4.14,0,0,1,1627,6l25.69,73.58A4.18,4.18,0,0,1,1651.86,83.73Z" stroke-miterlimit="10" stroke-width="6" fill="url(#_10_dpi_30_)" stroke="url(#_10_dpi_30_3)"/>
        </g>
        <g>
          <path d="M1617.86,247.9,1558.92,189a7.19,7.19,0,0,0-11.89,2.72l-25.63,73.4a7.2,7.2,0,0,0,6.8,9.57h93.51v-26.4h-3A1.2,1.2,0,0,1,1617.86,247.9Z" fill="#004e2a"/>
          <path d="M1617.85,123.9,1591,97.05a7.19,7.19,0,0,0-11.89,2.72l-12.37,35.44a7.16,7.16,0,0,0,1.7,7.46l45,45a7.18,7.18,0,0,0,5.07,2.1h.38l2.84-.15V124.25h-3A1.18,1.18,0,0,1,1617.85,123.9Z" fill="#004e2a"/>
          <path d="M1617.86,194.9l-45.23-45.22a7.19,7.19,0,0,0-11.88,2.71l-7.72,22.1a7.23,7.23,0,0,0,1.71,7.46l58.68,58.69a7.18,7.18,0,0,0,5.07,2.1h.38l2.84-.15V195.25h-3A1.2,1.2,0,0,1,1617.86,194.9Z" fill="#004e2a"/>
          <path d="M1618.52.21A7.09,7.09,0,0,0,1612.2,5l-27.08,77.56a7.24,7.24,0,0,0,1.71,7.46l26.37,26.38a7.18,7.18,0,0,0,5.09,2.11c.24,0,.48,0,.72,0l2.7-.27V0Z" fill="#004e2a"/>
        </g>
      </g>
    </g>
  </g>
</svg>
