<svg xmlns="http://www.w3.org/2000/svg" xmlns:xlink="http://www.w3.org/1999/xlink" width="1596.71" height="490.84" viewBox="0 0 1596.71 490.84">
  <defs>
    <pattern id="_10_dpi_30_" data-name="10 dpi 30%" width="28.8" height="28.8" patternTransform="translate(0.15)" patternUnits="userSpaceOnUse" viewBox="0 0 28.8 28.8">
      <rect width="28.8" height="28.8" fill="none"/>
      <g>
        <circle cx="28.8" cy="28.8" r="2.16" fill="#004000"/>
        <circle cx="14.4" cy="28.8" r="2.16" fill="#004000"/>
        <circle cx="28.8" cy="14.4" r="2.16" fill="#004000"/>
        <circle cx="14.4" cy="14.4" r="2.16" fill="#004000"/>
        <circle cx="7.2" cy="21.6" r="2.16" fill="#004000"/>
        <circle cx="21.6" cy="21.6" r="2.16" fill="#004000"/>
        <circle cx="7.2" cy="7.2" r="2.16" fill="#004000"/>
        <circle cx="21.6" cy="7.2" r="2.16" fill="#004000"/>
      </g>
      <g>
        <circle cy="28.8" r="2.16" fill="#004000"/>
        <circle cy="14.4" r="2.16" fill="#004000"/>
      </g>
      <g>
        <circle cx="28.8" r="2.16" fill="#004000"/>
        <circle cx="14.4" r="2.16" fill="#004000"/>
      </g>
      <circle r="2.16" fill="#004000"/>
    </pattern>
    <pattern id="_10_dpi_30_3" data-name="10 dpi 30%" width="28.8" height="28.8" patternUnits="userSpaceOnUse" viewBox="0 0 28.8 28.8">
      <rect width="28.8" height="28.8" fill="none"/>
      <g>
        <circle cx="28.8" cy="28.8" r="2.16" fill="#004000"/>
        <circle cx="14.4" cy="28.8" r="2.16" fill="#004000"/>
        <circle cx="28.8" cy="14.4" r="2.16" fill="#004000"/>
        <circle cx="14.4" cy="14.4" r="2.16" fill="#004000"/>
        <circle cx="7.2" cy="21.6" r="2.16" fill="#004000"/>
        <circle cx="21.6" cy="21.6" r="2.16" fill="#004000"/>
        <circle cx="7.2" cy="7.2" r="2.16" fill="#004000"/>
        <circle cx="21.6" cy="7.2" r="2.16" fill="#004000"/>
      </g>
      <g>
        <circle cy="28.8" r="2.16" fill="#004000"/>
        <circle cy="14.4" r="2.16" fill="#004000"/>
      </g>
      <g>
        <circle cx="28.8" r="2.16" fill="#004000"/>
        <circle cx="14.4" r="2.16" fill="#004000"/>
      </g>
      <circle r="2.16" fill="#004000"/>
    </pattern>
  </defs>
  <title>dougfir_lg</title>
  <g id="Layer_2" data-name="Layer 2">
    <g id="Layer_3_Vege_2" data-name="Layer_3_Vege/2">
      <g>
        <g>
          <path d="M1499,383V480a10.89,10.89,0,0,1-10.89,10.89h-10.67V383Z" fill="#8a5d3b"/>
          <path d="M1477.45,383V490.84h-10.67A10.89,10.89,0,0,1,1455.89,480V383Z" fill="#68462c"/>
        </g>
        <g>
          <path d="M1596.27,386,1564,293.67a8,8,0,0,0-13.48-2.84l-69.85,74.72a2,2,0,0,1-1.48.64h-3v30.52h112.46a8,8,0,0,0,7.59-10.7Z" fill="#006838"/>
          <path d="M1484.86,292.13l53.93-57.69h0a8,8,0,0,0,1.71-8.14l-15-42.93a8,8,0,0,0-13.67-2.63l-31.09,35.75a2,2,0,0,1-1.53.7h-3v77.64l3.15-.15A8,8,0,0,0,1484.86,292.13Z" fill="#006838"/>
          <path d="M1484.86,355.81l70.11-75h0a8.05,8.05,0,0,0,1.72-8.14l-8.86-25.36a8,8,0,0,0-13.48-2.84l-53.67,57.4a2,2,0,0,1-1.48.64h-3v56l3.15-.15A8,8,0,0,0,1484.86,355.81Z" fill="#006838"/>
          <path d="M1484.79,206.34l31.72-36.46a8,8,0,0,0,1.52-7.94l-30.87-88.41a8,8,0,0,0-8.13-5.39l-2.82.18V209.43l3.32-.36A8.13,8.13,0,0,0,1484.79,206.34Z" fill="#006838"/>
        </g>
        <g>
          <path d="M1588.67,393.7H1479.22V369.19a5,5,0,0,0,3.68-1.6l69.85-74.72a5,5,0,0,1,8.45,1.78L1593.43,387A5,5,0,0,1,1588.67,393.7Z" stroke-miterlimit="10" stroke-width="6" fill="url(#_10_dpi_30_)" stroke="url(#_10_dpi_30_3)"/>
          <path d="M1536.59,232.39l-53.93,57.69a5,5,0,0,1-3.45,1.6V220.19a5,5,0,0,0,3.8-1.73l31.1-35.76a5,5,0,0,1,8.57,1.65l15,42.93A5,5,0,0,1,1536.59,232.39Z" stroke-miterlimit="10" stroke-width="6" fill="url(#_10_dpi_30_)" stroke="url(#_10_dpi_30_3)"/>
          <path d="M1552.78,278.76l-70.11,75a5,5,0,0,1-3.45,1.6V305.51a5,5,0,0,0,3.68-1.6l53.66-57.4a5,5,0,0,1,8.45,1.78l8.86,25.37A5.07,5.07,0,0,1,1552.78,278.76Z" stroke-miterlimit="10" stroke-width="6" fill="url(#_10_dpi_30_)" stroke="url(#_10_dpi_30_3)"/>
          <path d="M1514.24,167.9l-31.72,36.47a5.1,5.1,0,0,1-3.3,1.72v-135a5,5,0,0,1,5.11,3.38l30.87,88.41A5,5,0,0,1,1514.24,167.9Z" stroke-miterlimit="10" stroke-width="6" fill="url(#_10_dpi_30_)" stroke="url(#_10_dpi_30_3)"/>
        </g>
        <g>
          <path d="M1473.39,365.16l-70.83-70.82a8.64,8.64,0,0,0-14.28,3.26l-30.8,88.2a8.65,8.65,0,0,0,8.18,11.49H1478V365.58h-3.6A1.44,1.44,0,0,1,1473.39,365.16Z" fill="#004e2a"/>
          <path d="M1473.38,216.17l-32.26-32.26a8.64,8.64,0,0,0-14.28,3.27L1412,229.75a8.61,8.61,0,0,0,2,9l54,54a8.63,8.63,0,0,0,6.1,2.53h.45l3.41-.18V216.59h-3.6A1.41,1.41,0,0,1,1473.38,216.17Z" fill="#004e2a"/>
          <path d="M1473.39,301.48,1419,247.14a8.64,8.64,0,0,0-14.28,3.26L1395.49,277a8.69,8.69,0,0,0,2.06,9l70.51,70.52a8.63,8.63,0,0,0,6.1,2.53h.45l3.41-.18V301.9h-3.6A1.44,1.44,0,0,1,1473.39,301.48Z" fill="#004e2a"/>
          <path d="M1474.18,67.54a8.52,8.52,0,0,0-7.59,5.79L1434,166.52a8.7,8.7,0,0,0,2.06,9l31.69,31.7a8.62,8.62,0,0,0,6.11,2.53c.29,0,.58,0,.86,0l3.25-.32V67.29Z" fill="#004e2a"/>
        </g>
      </g>
      <g>
        <g>
          <path d="M148.52,378.1V479.45a11.39,11.39,0,0,1-11.39,11.39H126V378.1Z" fill="#8a5d3b"/>
          <path d="M126,378.1V490.84H114.81a11.39,11.39,0,0,1-11.39-11.39V378.1Z" fill="#68462c"/>
        </g>
        <g>
          <path d="M250.24,381.2l-33.72-96.58a8.42,8.42,0,0,0-14.1-3l-73.06,78.15a2.07,2.07,0,0,1-1.55.67h-3.14v31.92H242.3a8.42,8.42,0,0,0,7.94-11.19Z" fill="#006838"/>
          <path d="M133.73,283l56.4-60.34h0a8.38,8.38,0,0,0,1.79-8.52l-15.67-44.9A8.42,8.42,0,0,0,162,166.5l-32.52,37.4a2.1,2.1,0,0,1-1.61.73h-3.14v81.2l3.29-.16A8.35,8.35,0,0,0,133.73,283Z" fill="#006838"/>
          <path d="M133.73,349.62l73.33-78.45h0a8.42,8.42,0,0,0,1.8-8.52l-9.26-26.53a8.41,8.41,0,0,0-14.1-3l-56.13,60a2.07,2.07,0,0,1-1.55.67h-3.14v58.58l3.29-.16A8.35,8.35,0,0,0,133.73,349.62Z" fill="#006838"/>
          <path d="M133.65,193.28l33.17-38.13a8.41,8.41,0,0,0,1.59-8.31L136.14,54.38a8.36,8.36,0,0,0-8.51-5.64l-2.95.18V196.51l3.48-.37A8.5,8.5,0,0,0,133.65,193.28Z" fill="#006838"/>
        </g>
        <g>
          <path d="M242.3,389.24H127.83V363.61a5.22,5.22,0,0,0,3.85-1.67l73.05-78.14a5.27,5.27,0,0,1,8.83,1.86l33.72,96.58A5.27,5.27,0,0,1,242.3,389.24Z" stroke-miterlimit="10" stroke-width="6" fill="url(#_10_dpi_30_)" stroke="url(#_10_dpi_30_3)"/>
          <path d="M187.83,220.53l-56.4,60.34a5.24,5.24,0,0,1-3.61,1.67V207.77a5.26,5.26,0,0,0,4-1.81l32.52-37.4a5.28,5.28,0,0,1,9,1.72L189,215.19A5.27,5.27,0,0,1,187.83,220.53Z" stroke-miterlimit="10" stroke-width="6" fill="url(#_10_dpi_30_)" stroke="url(#_10_dpi_30_3)"/>
          <path d="M204.76,269l-73.33,78.45a5.24,5.24,0,0,1-3.61,1.67V297a5.22,5.22,0,0,0,3.85-1.67l56.13-60a5.27,5.27,0,0,1,8.84,1.86l9.26,26.53A5.31,5.31,0,0,1,204.76,269Z" stroke-miterlimit="10" stroke-width="6" fill="url(#_10_dpi_30_)" stroke="url(#_10_dpi_30_3)"/>
          <path d="M164.46,153.08l-33.18,38.14a5.33,5.33,0,0,1-3.46,1.8V51.87a5.2,5.2,0,0,1,5.34,3.53l32.29,92.47A5.25,5.25,0,0,1,164.46,153.08Z" stroke-miterlimit="10" stroke-width="6" fill="url(#_10_dpi_30_)" stroke="url(#_10_dpi_30_3)"/>
        </g>
        <g>
          <path d="M121.73,359.4,47.65,285.33a9,9,0,0,0-14.94,3.41L.5,381a9.05,9.05,0,0,0,8.55,12H126.57V359.84H122.8A1.51,1.51,0,0,1,121.73,359.4Z" fill="#004e2a"/>
          <path d="M121.72,203.56,88,169.82A9,9,0,0,0,73,173.24L57.49,217.77a9,9,0,0,0,2.14,9.38l56.52,56.52a9,9,0,0,0,6.38,2.64H123l3.57-.19V204H122.8A1.48,1.48,0,0,1,121.72,203.56Z" fill="#004e2a"/>
          <path d="M121.73,292.79,64.89,236A9,9,0,0,0,50,239.37l-9.7,27.77a9.09,9.09,0,0,0,2.15,9.37l73.74,73.76a9,9,0,0,0,6.38,2.64H123l3.57-.19V293.23H122.8A1.51,1.51,0,0,1,121.73,292.79Z" fill="#004e2a"/>
          <path d="M122.55,48.11a8.91,8.91,0,0,0-7.94,6.05l-34,97.47A9.1,9.1,0,0,0,82.73,161l33.14,33.16a9,9,0,0,0,6.39,2.65c.3,0,.6,0,.9,0l3.4-.34V47.85Z" fill="#004e2a"/>
        </g>
      </g>
      <g>
        <g>
          <path d="M941.56,365.93v112.3a12.62,12.62,0,0,1-12.62,12.62H916.58V365.93Z" fill="#8a5d3b"/>
          <path d="M916.58,365.93V490.84H904.22a12.62,12.62,0,0,1-12.62-12.62V365.93Z" fill="#68462c"/>
        </g>
        <g>
          <path d="M1054.28,369.35l-37.36-107A9.32,9.32,0,0,0,1001.3,259l-80.95,86.59a2.29,2.29,0,0,1-1.71.74h-3.48v35.37h130.32a9.32,9.32,0,0,0,8.8-12.4Z" fill="#006838"/>
          <path d="M925.17,260.56l62.49-66.85h0a9.28,9.28,0,0,0,2-9.44l-17.37-49.75a9.33,9.33,0,0,0-15.84-3l-36,41.43a2.33,2.33,0,0,1-1.78.81h-3.48v90l3.65-.17A9.25,9.25,0,0,0,925.17,260.56Z" fill="#006838"/>
          <path d="M925.17,334.36l81.25-86.92h0a9.33,9.33,0,0,0,2-9.44l-10.26-29.39a9.32,9.32,0,0,0-15.62-3.29l-62.19,66.52a2.29,2.29,0,0,1-1.71.74h-3.48v64.91l3.65-.17A9.25,9.25,0,0,0,925.17,334.36Z" fill="#006838"/>
          <path d="M925.09,161.14l36.76-42.25a9.32,9.32,0,0,0,1.77-9.2L927.84,7.23A9.26,9.26,0,0,0,918.42,1l-3.26.2V164.72l3.85-.41A9.42,9.42,0,0,0,925.09,161.14Z" fill="#006838"/>
        </g>
        <g>
          <path d="M1045.47,378.27H918.63V349.86a5.79,5.79,0,0,0,4.26-1.85l80.94-86.58a5.84,5.84,0,0,1,9.79,2.06l37.36,107A5.84,5.84,0,0,1,1045.47,378.27Z" stroke-miterlimit="10" stroke-width="6" fill="url(#_10_dpi_30_)" stroke="url(#_10_dpi_30_3)"/>
          <path d="M985.12,191.33l-62.49,66.85a5.81,5.81,0,0,1-4,1.85V177.2a5.83,5.83,0,0,0,4.4-2l36-41.44a5.85,5.85,0,0,1,9.93,1.91l17.36,49.75A5.84,5.84,0,0,1,985.12,191.33Z" stroke-miterlimit="10" stroke-width="6" fill="url(#_10_dpi_30_)" stroke="url(#_10_dpi_30_3)"/>
          <path d="M1003.88,245.07,922.63,332a5.81,5.81,0,0,1-4,1.85V276.06a5.79,5.79,0,0,0,4.26-1.85l62.19-66.52a5.84,5.84,0,0,1,9.79,2.06l10.26,29.4A5.88,5.88,0,0,1,1003.88,245.07Z" stroke-miterlimit="10" stroke-width="6" fill="url(#_10_dpi_30_)" stroke="url(#_10_dpi_30_3)"/>
          <path d="M959.22,116.59l-36.76,42.26a5.91,5.91,0,0,1-3.83,2V4.46a5.76,5.76,0,0,1,5.92,3.91l35.77,102.46A5.82,5.82,0,0,1,959.22,116.59Z" stroke-miterlimit="10" stroke-width="6" fill="url(#_10_dpi_30_)" stroke="url(#_10_dpi_30_3)"/>
        </g>
        <g>
          <path d="M911.88,345.2,829.8,263.13a10,10,0,0,0-16.55,3.78L777.55,369.13A10,10,0,0,0,787,382.45H917.24V345.69h-4.18A1.67,1.67,0,0,1,911.88,345.2Z" fill="#004e2a"/>
          <path d="M911.87,172.53l-37.38-37.38a10,10,0,0,0-16.55,3.78L840.7,188.28a10,10,0,0,0,2.37,10.39l62.62,62.62a10,10,0,0,0,7.06,2.93h.52l4-.21V173h-4.18A1.64,1.64,0,0,1,911.87,172.53Z" fill="#004e2a"/>
          <path d="M911.88,271.4l-63-63a10,10,0,0,0-16.55,3.78L821.6,243A10.07,10.07,0,0,0,824,253.37l81.71,81.73a10,10,0,0,0,7.06,2.93h.52l4-.21V271.88h-4.18A1.67,1.67,0,0,1,911.88,271.4Z" fill="#004e2a"/>
          <path d="M912.79.29A9.88,9.88,0,0,0,904,7L866.29,115a10.08,10.08,0,0,0,2.38,10.39l36.72,36.74a10,10,0,0,0,7.08,2.94c.33,0,.67,0,1-.05l3.77-.37V0Z" fill="#004e2a"/>
        </g>
      </g>
    </g>
  </g>
</svg>
