<svg xmlns="http://www.w3.org/2000/svg" xmlns:xlink="http://www.w3.org/1999/xlink" width="694.79" height="490.84" viewBox="0 0 694.79 490.84">
  <defs>
    <pattern id="_10_dpi_30_" data-name="10 dpi 30%" width="28.8" height="28.8" patternTransform="translate(0.15)" patternUnits="userSpaceOnUse" viewBox="0 0 28.8 28.8">
      <rect width="28.8" height="28.8" fill="none"/>
      <g>
        <circle cx="28.8" cy="28.8" r="2.16" fill="#004000"/>
        <circle cx="14.4" cy="28.8" r="2.16" fill="#004000"/>
        <circle cx="28.8" cy="14.4" r="2.16" fill="#004000"/>
        <circle cx="14.4" cy="14.4" r="2.16" fill="#004000"/>
        <circle cx="7.2" cy="21.6" r="2.16" fill="#004000"/>
        <circle cx="21.6" cy="21.6" r="2.16" fill="#004000"/>
        <circle cx="7.2" cy="7.2" r="2.16" fill="#004000"/>
        <circle cx="21.6" cy="7.2" r="2.16" fill="#004000"/>
      </g>
      <g>
        <circle cy="28.8" r="2.16" fill="#004000"/>
        <circle cy="14.4" r="2.16" fill="#004000"/>
      </g>
      <g>
        <circle cx="28.8" r="2.16" fill="#004000"/>
        <circle cx="14.4" r="2.16" fill="#004000"/>
      </g>
      <circle r="2.16" fill="#004000"/>
    </pattern>
    <pattern id="_10_dpi_30_3" data-name="10 dpi 30%" width="28.8" height="28.8" patternUnits="userSpaceOnUse" viewBox="0 0 28.8 28.8">
      <rect width="28.8" height="28.8" fill="none"/>
      <g>
        <circle cx="28.8" cy="28.8" r="2.16" fill="#004000"/>
        <circle cx="14.4" cy="28.8" r="2.16" fill="#004000"/>
        <circle cx="28.8" cy="14.4" r="2.16" fill="#004000"/>
        <circle cx="14.4" cy="14.4" r="2.16" fill="#004000"/>
        <circle cx="7.2" cy="21.6" r="2.16" fill="#004000"/>
        <circle cx="21.6" cy="21.6" r="2.16" fill="#004000"/>
        <circle cx="7.2" cy="7.2" r="2.16" fill="#004000"/>
        <circle cx="21.6" cy="7.2" r="2.16" fill="#004000"/>
      </g>
      <g>
        <circle cy="28.8" r="2.16" fill="#004000"/>
        <circle cy="14.4" r="2.16" fill="#004000"/>
      </g>
      <g>
        <circle cx="28.8" r="2.16" fill="#004000"/>
        <circle cx="14.4" r="2.16" fill="#004000"/>
      </g>
      <circle r="2.16" fill="#004000"/>
    </pattern>
  </defs>
  <title>Doug2_2_lg</title>
  <g id="Layer_2" data-name="Layer 2">
    <g id="Layer_3_Vege_2" data-name="Layer_3_Vege/2">
      <g>
        <g>
          <path d="M164.56,365.93v112.3a12.62,12.62,0,0,1-12.62,12.62H139.58V365.93Z" fill="#8a5d3b"/>
          <path d="M139.58,365.93V490.84H127.22a12.62,12.62,0,0,1-12.62-12.62V365.93Z" fill="#68462c"/>
        </g>
        <g>
          <path d="M277.28,369.35l-37.36-107A9.32,9.32,0,0,0,224.3,259l-80.95,86.59a2.29,2.29,0,0,1-1.71.74h-3.48v35.37H268.47a9.32,9.32,0,0,0,8.8-12.4Z" fill="#006838"/>
          <path d="M148.17,260.56l62.49-66.85h0a9.28,9.28,0,0,0,2-9.44l-17.37-49.75a9.33,9.33,0,0,0-15.84-3l-36,41.43a2.33,2.33,0,0,1-1.78.81h-3.48v90l3.65-.17A9.25,9.25,0,0,0,148.17,260.56Z" fill="#006838"/>
          <path d="M148.17,334.36l81.25-86.92h0a9.33,9.33,0,0,0,2-9.44l-10.26-29.39a9.32,9.32,0,0,0-15.62-3.29l-62.19,66.52a2.29,2.29,0,0,1-1.71.74h-3.48v64.91l3.65-.17A9.25,9.25,0,0,0,148.17,334.36Z" fill="#006838"/>
          <path d="M148.09,161.14l36.76-42.25a9.32,9.32,0,0,0,1.77-9.2L150.84,7.23A9.26,9.26,0,0,0,141.42,1l-3.26.2V164.72l3.85-.41A9.42,9.42,0,0,0,148.09,161.14Z" fill="#006838"/>
        </g>
        <g>
          <path d="M268.47,378.27H141.63V349.86a5.79,5.79,0,0,0,4.26-1.85l80.94-86.58a5.84,5.84,0,0,1,9.79,2.06L274,370.5A5.84,5.84,0,0,1,268.47,378.27Z" stroke-miterlimit="10" stroke-width="6" fill="url(#_10_dpi_30_)" stroke="url(#_10_dpi_30_3)"/>
          <path d="M208.12,191.33l-62.49,66.85a5.81,5.81,0,0,1-4,1.85V177.2a5.83,5.83,0,0,0,4.4-2l36-41.44a5.85,5.85,0,0,1,9.93,1.91l17.36,49.75A5.84,5.84,0,0,1,208.12,191.33Z" stroke-miterlimit="10" stroke-width="6" fill="url(#_10_dpi_30_)" stroke="url(#_10_dpi_30_3)"/>
          <path d="M226.88,245.07,145.63,332a5.81,5.81,0,0,1-4,1.85V276.06a5.79,5.79,0,0,0,4.26-1.85l62.19-66.52a5.84,5.84,0,0,1,9.79,2.06l10.26,29.4A5.88,5.88,0,0,1,226.88,245.07Z" stroke-miterlimit="10" stroke-width="6" fill="url(#_10_dpi_30_)" stroke="url(#_10_dpi_30_3)"/>
          <path d="M182.22,116.59l-36.76,42.26a5.91,5.91,0,0,1-3.83,2V4.46a5.76,5.76,0,0,1,5.92,3.91l35.77,102.46A5.82,5.82,0,0,1,182.22,116.59Z" stroke-miterlimit="10" stroke-width="6" fill="url(#_10_dpi_30_)" stroke="url(#_10_dpi_30_3)"/>
        </g>
        <g>
          <path d="M134.88,345.2,52.8,263.13a10,10,0,0,0-16.55,3.78L.55,369.13A10,10,0,0,0,10,382.45H140.24V345.69h-4.18A1.67,1.67,0,0,1,134.88,345.2Z" fill="#004e2a"/>
          <path d="M134.87,172.53,97.49,135.15a10,10,0,0,0-16.55,3.78L63.7,188.28a10,10,0,0,0,2.37,10.39l62.62,62.62a10,10,0,0,0,7.06,2.93h.52l4-.21V173h-4.18A1.64,1.64,0,0,1,134.87,172.53Z" fill="#004e2a"/>
          <path d="M134.88,271.4l-63-63a10,10,0,0,0-16.55,3.78L44.6,243A10.07,10.07,0,0,0,47,253.37l81.71,81.73a10,10,0,0,0,7.06,2.93h.52l4-.21V271.88h-4.18A1.67,1.67,0,0,1,134.88,271.4Z" fill="#004e2a"/>
          <path d="M135.79.29A9.88,9.88,0,0,0,127,7L89.29,115a10.08,10.08,0,0,0,2.38,10.39l36.72,36.74a10,10,0,0,0,7.08,2.94c.33,0,.67,0,1-.05l3.77-.37V0Z" fill="#004e2a"/>
        </g>
      </g>
      <g>
        <g>
          <path d="M581.56,365.93v112.3a12.62,12.62,0,0,1-12.62,12.62H556.58V365.93Z" fill="#8a5d3b"/>
          <path d="M556.58,365.93V490.84H544.22a12.62,12.62,0,0,1-12.62-12.62V365.93Z" fill="#68462c"/>
        </g>
        <g>
          <path d="M694.28,369.35l-37.36-107A9.32,9.32,0,0,0,641.3,259l-80.95,86.59a2.29,2.29,0,0,1-1.71.74h-3.48v35.37H685.47a9.32,9.32,0,0,0,8.8-12.4Z" fill="#006838"/>
          <path d="M565.17,260.56l62.49-66.85h0a9.28,9.28,0,0,0,2-9.44l-17.37-49.75a9.33,9.33,0,0,0-15.84-3l-36,41.43a2.33,2.33,0,0,1-1.78.81h-3.48v90l3.65-.17A9.25,9.25,0,0,0,565.17,260.56Z" fill="#006838"/>
          <path d="M565.17,334.36l81.25-86.92h0a9.33,9.33,0,0,0,2-9.44l-10.26-29.39a9.32,9.32,0,0,0-15.62-3.29l-62.19,66.52a2.29,2.29,0,0,1-1.71.74h-3.48v64.91l3.65-.17A9.25,9.25,0,0,0,565.17,334.36Z" fill="#006838"/>
          <path d="M565.09,161.14l36.76-42.25a9.32,9.32,0,0,0,1.77-9.2L567.84,7.23A9.26,9.26,0,0,0,558.42,1l-3.26.2V164.72l3.85-.41A9.42,9.42,0,0,0,565.09,161.14Z" fill="#006838"/>
        </g>
        <g>
          <path d="M685.47,378.27H558.63V349.86a5.79,5.79,0,0,0,4.26-1.85l80.94-86.58a5.84,5.84,0,0,1,9.79,2.06L691,370.5A5.84,5.84,0,0,1,685.47,378.27Z" stroke-miterlimit="10" stroke-width="6" fill="url(#_10_dpi_30_)" stroke="url(#_10_dpi_30_3)"/>
          <path d="M625.12,191.33l-62.49,66.85a5.81,5.81,0,0,1-4,1.85V177.2a5.83,5.83,0,0,0,4.4-2l36-41.44a5.85,5.85,0,0,1,9.93,1.91l17.36,49.75A5.84,5.84,0,0,1,625.12,191.33Z" stroke-miterlimit="10" stroke-width="6" fill="url(#_10_dpi_30_)" stroke="url(#_10_dpi_30_3)"/>
          <path d="M643.88,245.07,562.63,332a5.81,5.81,0,0,1-4,1.85V276.06a5.79,5.79,0,0,0,4.26-1.85l62.19-66.52a5.84,5.84,0,0,1,9.79,2.06l10.26,29.4A5.88,5.88,0,0,1,643.88,245.07Z" stroke-miterlimit="10" stroke-width="6" fill="url(#_10_dpi_30_)" stroke="url(#_10_dpi_30_3)"/>
          <path d="M599.22,116.59l-36.76,42.26a5.91,5.91,0,0,1-3.83,2V4.46a5.76,5.76,0,0,1,5.92,3.91l35.77,102.46A5.82,5.82,0,0,1,599.22,116.59Z" stroke-miterlimit="10" stroke-width="6" fill="url(#_10_dpi_30_)" stroke="url(#_10_dpi_30_3)"/>
        </g>
        <g>
          <path d="M551.88,345.2,469.8,263.13a10,10,0,0,0-16.55,3.78L417.55,369.13A10,10,0,0,0,427,382.45H557.24V345.69h-4.18A1.67,1.67,0,0,1,551.88,345.2Z" fill="#004e2a"/>
          <path d="M551.87,172.53l-37.38-37.38a10,10,0,0,0-16.55,3.78L480.7,188.28a10,10,0,0,0,2.37,10.39l62.62,62.62a10,10,0,0,0,7.06,2.93h.52l4-.21V173h-4.18A1.64,1.64,0,0,1,551.87,172.53Z" fill="#004e2a"/>
          <path d="M551.88,271.4l-63-63a10,10,0,0,0-16.55,3.78L461.6,243A10.07,10.07,0,0,0,464,253.37l81.71,81.73a10,10,0,0,0,7.06,2.93h.52l4-.21V271.88h-4.18A1.67,1.67,0,0,1,551.88,271.4Z" fill="#004e2a"/>
          <path d="M552.79.29A9.88,9.88,0,0,0,544,7L506.29,115a10.08,10.08,0,0,0,2.38,10.39l36.72,36.74a10,10,0,0,0,7.08,2.94c.33,0,.67,0,1-.05l3.77-.37V0Z" fill="#004e2a"/>
        </g>
      </g>
    </g>
  </g>
</svg>
