<svg xmlns="http://www.w3.org/2000/svg" width="46.7" height="73.9" viewBox="0 0 46.7 73.9">
  <title>fire</title>
  <g id="Layer_2" data-name="Layer 2">
    <g id="fire">
      <g id="rightlog">
        <rect x="4.86" y="57.26" width="38.76" height="7.93" rx="3" ry="3" transform="matrix(-0.86, -0.51, 0.51, -0.86, 13.57, 126.21)" fill="#765220"/>
        <g>
          <path d="M36.67,73.59A2,2,0,0,0,39.44,73l2.1-3.31a2,2,0,0,0-.62-2.77l-2.69-1.61a2,2,0,0,0-2.77.62l-2.1,3.31A2,2,0,0,0,34,72Z" fill="#d49a49"/>
          <path d="M37,72.06a1.26,1.26,0,0,0,1.75-.39L40,69.58a1.26,1.26,0,0,0-.39-1.75l-1.7-1a1.26,1.26,0,0,0-1.75.39L34.88,69.3A1.26,1.26,0,0,0,35.27,71Z" fill="none" stroke="#cf9450" stroke-miterlimit="10"/>
          <path d="M37.23,70.64a.58.58,0,0,0,.8-.18l.61-1a.58.58,0,0,0-.18-.8l-.78-.47a.58.58,0,0,0-.8.18l-.61,1a.58.58,0,0,0,.18.8Z" fill="none" stroke="#cf9450" stroke-miterlimit="10"/>
        </g>
      </g>
      <g id="leftlog">
        <rect x="4.86" y="57.26" width="38.76" height="7.93" rx="3" ry="3" transform="translate(-27.36 20.32) rotate(-30)" fill="#8f6326"/>
        <g>
          <path d="M13.85,71.71A2,2,0,0,0,14.58,69l-2-3.4a2,2,0,0,0-2.74-.73L7.21,66.48a2,2,0,0,0-.73,2.74l2,3.4a2,2,0,0,0,2.74.73Z" fill="#d49a49"/>
          <path d="M12.62,70.74A1.26,1.26,0,0,0,13.09,69l-1.24-2.14a1.26,1.26,0,0,0-1.73-.46l-1.68,1A1.26,1.26,0,0,0,8,69.17l1.24,2.14a1.26,1.26,0,0,0,1.73.46Z" fill="none" stroke="#cf9450" stroke-miterlimit="10"/>
          <path d="M11.49,69.85a.58.58,0,0,0,.21-.8l-.57-1a.58.58,0,0,0-.8-.21l-.78.48a.58.58,0,0,0-.21.8l.57,1a.58.58,0,0,0,.8.21Z" fill="none" stroke="#cf9450" stroke-miterlimit="10"/>
        </g>
      </g>
      <path class="backflame" d="M28.21,0s.22,11.47,7,20.7A28.23,28.23,0,0,1,41,41.4s2.2,0,4-4.85c0,0,5.73,11.89-3.52,20.7S21.6,63.43,20.28,63.43,7.07,61.67,3.54,54.62,1.34,41.4,1.34,37.44A38.79,38.79,0,0,0,0,27.75c-.44-1.32,7,3.08,7.93,4C7.95,31.71,12.35,8.81,28.21,0Z" fill="#ef4c31"/>
      <path id="middle-flame" d="M35.51,59.51a16.17,16.17,0,0,1-13.84,4c-.87,0-8.65-1.15-11-5.77S9.27,49.13,9.27,46.53a25.4,25.4,0,0,0-.87-6.34c-.29-.87,4.61,2,5.19,2.6,0,0,2.88-15,13.26-20.76a26.28,26.28,0,0,0,4.61,13.55S44.16,51.44,35.51,59.51Z" fill="#fecd35"/>
      <path class="front-flame" d="M25.8,64.12a7.81,7.81,0,0,1-6.84-2c-4.27-4,2-11.82,2-11.82a13,13,0,0,0,2.28-6.69c5.13,2.85,6.55,10.26,6.55,10.26S34.07,63.12,25.8,64.12Z" fill="#f9e34f"/>
    </g>
  </g>
</svg>
