<svg xmlns="http://www.w3.org/2000/svg" width="1224.28" height="236.62" viewBox="0 0 1224.28 236.62">
  <title>hump3_1</title>
  <g id="Layer_2" data-name="Layer 2">
    <g id="Layer_5_mWhitney">
      <path d="M444,236.62S539.75,0,730.14,0s286.14,236.62,286.14,236.62Z" fill="#4b4701"/>
      <path d="M0,236.62S95.75,0,286.14,0,572.28,236.62,572.28,236.62Z" fill="#4b4701"/>
      <path d="M202.28,236.62s80.93-200,241.86-200S686,236.62,686,236.62Z" fill="#968d02"/>
      <path d="M892.35,236.62s42.8-105.76,127.9-105.76,127.9,105.76,127.9,105.76Z" fill="#aba435"/>
      <path d="M612.28,236.62s42.8-105.76,127.9-105.76,127.9,105.76,127.9,105.76Z" fill="#aba435"/>
      <path d="M987.3,236.62s39.65-98,118.49-98,118.49,98,118.49,98Z" fill="#c0bb67"/>
      <path d="M544.28,236.62s40.49-100.06,121-100.06,121,100.06,121,100.06Z" fill="#c0bb67"/>
      <path d="M112.28,236.62s40.49-100.06,121-100.06,121,100.06,121,100.06Z" fill="#c0bb67"/>
    </g>
  </g>
</svg>
