<svg xmlns="http://www.w3.org/2000/svg" width="260.55" height="223.75" viewBox="0 0 260.55 223.75">
  <title>market</title>
  <g id="Layer_2" data-name="Layer 2">
    <g id="Market">
      <g>
        <rect y="184.88" width="260.55" height="16.32" fill="#3a322c"/>
        <rect x="5.94" y="55.79" width="249.27" height="129.38" fill="#883c30"/>
        <rect x="90.51" y="88.73" width="45.11" height="91.99" fill="#a9ddf3" stroke="#4d4d4d" stroke-miterlimit="10" stroke-width="3"/>
        <line x1="3.75" y1="201.29" x2="13.35" y2="185.47" fill="none" stroke="#564a41" stroke-miterlimit="10"/>
        <line x1="10.39" y1="201.2" x2="14.26" y2="185.17" fill="none" stroke="#6b4d35" stroke-miterlimit="10"/>
        <line x1="19.01" y1="185.17" x2="15.13" y2="201.2" fill="none" stroke="#6b4d35" stroke-miterlimit="10"/>
        <line x1="19.88" y1="201.2" x2="23.75" y2="185.17" fill="none" stroke="#6b4d35" stroke-miterlimit="10"/>
        <line x1="24.63" y1="201.2" x2="28.5" y2="185.17" fill="none" stroke="#6b4d35" stroke-miterlimit="10"/>
        <line x1="29.38" y1="201.2" x2="33.25" y2="185.17" fill="none" stroke="#6b4d35" stroke-miterlimit="10"/>
        <line x1="34.13" y1="201.2" x2="38" y2="185.17" fill="none" stroke="#6b4d35" stroke-miterlimit="10"/>
        <line x1="38.87" y1="201.2" x2="42.75" y2="185.17" fill="none" stroke="#6b4d35" stroke-miterlimit="10"/>
        <line x1="43.62" y1="201.2" x2="47.49" y2="185.17" fill="none" stroke="#6b4d35" stroke-miterlimit="10"/>
        <line x1="48.37" y1="201.2" x2="52.24" y2="185.17" fill="none" stroke="#6b4d35" stroke-miterlimit="10"/>
        <line x1="53.12" y1="201.2" x2="56.99" y2="185.17" fill="none" stroke="#6b4d35" stroke-miterlimit="10"/>
        <line x1="57.87" y1="201.2" x2="61.74" y2="185.17" fill="none" stroke="#6b4d35" stroke-miterlimit="10"/>
        <line x1="62.62" y1="201.2" x2="66.49" y2="185.17" fill="none" stroke="#6b4d35" stroke-miterlimit="10"/>
        <line x1="67.36" y1="201.2" x2="71.24" y2="185.17" fill="none" stroke="#6b4d35" stroke-miterlimit="10"/>
        <line x1="72.11" y1="201.2" x2="75.98" y2="185.17" fill="none" stroke="#6b4d35" stroke-miterlimit="10"/>
        <line x1="76.86" y1="201.2" x2="80.73" y2="185.17" fill="none" stroke="#6b4d35" stroke-miterlimit="10"/>
        <line x1="81.61" y1="201.2" x2="85.48" y2="185.17" fill="none" stroke="#6b4d35" stroke-miterlimit="10"/>
        <line x1="86.36" y1="201.2" x2="90.23" y2="185.17" fill="none" stroke="#6b4d35" stroke-miterlimit="10"/>
        <line x1="91.1" y1="201.2" x2="94.98" y2="185.17" fill="none" stroke="#6b4d35" stroke-miterlimit="10"/>
        <line x1="95.85" y1="201.2" x2="99.72" y2="185.17" fill="none" stroke="#6b4d35" stroke-miterlimit="10"/>
        <line x1="100.6" y1="201.2" x2="104.47" y2="185.17" fill="none" stroke="#6b4d35" stroke-miterlimit="10"/>
        <line x1="105.35" y1="201.2" x2="109.22" y2="185.17" fill="none" stroke="#6b4d35" stroke-miterlimit="10"/>
        <line x1="110.1" y1="201.2" x2="113.97" y2="185.17" fill="none" stroke="#6b4d35" stroke-miterlimit="10"/>
        <line x1="114.84" y1="201.2" x2="118.72" y2="185.17" fill="none" stroke="#6b4d35" stroke-miterlimit="10"/>
        <line x1="119.59" y1="201.2" x2="123.46" y2="185.17" fill="none" stroke="#6b4d35" stroke-miterlimit="10"/>
        <line x1="124.34" y1="201.2" x2="128.21" y2="185.17" fill="none" stroke="#6b4d35" stroke-miterlimit="10"/>
        <line x1="129.09" y1="201.2" x2="132.96" y2="185.17" fill="none" stroke="#6b4d35" stroke-miterlimit="10"/>
        <line x1="133.84" y1="201.2" x2="137.71" y2="185.17" fill="none" stroke="#6b4d35" stroke-miterlimit="10"/>
        <line x1="138.58" y1="201.2" x2="142.46" y2="185.17" fill="none" stroke="#6b4d35" stroke-miterlimit="10"/>
        <line x1="143.33" y1="201.2" x2="147.2" y2="185.17" fill="none" stroke="#6b4d35" stroke-miterlimit="10"/>
        <line x1="148.08" y1="201.2" x2="151.95" y2="185.17" fill="none" stroke="#6b4d35" stroke-miterlimit="10"/>
        <line x1="152.83" y1="201.2" x2="156.7" y2="185.17" fill="none" stroke="#6b4d35" stroke-miterlimit="10"/>
        <line x1="157.58" y1="201.2" x2="161.45" y2="185.17" fill="none" stroke="#6b4d35" stroke-miterlimit="10"/>
        <line x1="162.32" y1="201.2" x2="166.2" y2="185.17" fill="none" stroke="#6b4d35" stroke-miterlimit="10"/>
        <line x1="167.07" y1="201.2" x2="170.94" y2="185.17" fill="none" stroke="#6b4d35" stroke-miterlimit="10"/>
        <line x1="171.82" y1="201.2" x2="175.69" y2="185.17" fill="none" stroke="#6b4d35" stroke-miterlimit="10"/>
        <line x1="176.57" y1="201.2" x2="180.44" y2="185.17" fill="none" stroke="#6b4d35" stroke-miterlimit="10"/>
        <line x1="181.32" y1="201.2" x2="185.19" y2="185.17" fill="none" stroke="#6b4d35" stroke-miterlimit="10"/>
        <line x1="186.06" y1="201.2" x2="189.94" y2="185.17" fill="none" stroke="#6b4d35" stroke-miterlimit="10"/>
        <line x1="190.81" y1="201.2" x2="194.68" y2="185.17" fill="none" stroke="#6b4d35" stroke-miterlimit="10"/>
        <line x1="195.56" y1="201.2" x2="199.43" y2="185.17" fill="none" stroke="#6b4d35" stroke-miterlimit="10"/>
        <line x1="200.31" y1="201.2" x2="204.18" y2="185.17" fill="none" stroke="#6b4d35" stroke-miterlimit="10"/>
        <line x1="205.06" y1="201.2" x2="208.93" y2="185.17" fill="none" stroke="#6b4d35" stroke-miterlimit="10"/>
        <line x1="209.8" y1="201.2" x2="213.68" y2="185.17" fill="none" stroke="#6b4d35" stroke-miterlimit="10"/>
        <line x1="214.55" y1="201.2" x2="218.42" y2="185.17" fill="none" stroke="#6b4d35" stroke-miterlimit="10"/>
        <line x1="219.3" y1="201.2" x2="223.17" y2="185.17" fill="none" stroke="#6b4d35" stroke-miterlimit="10"/>
        <line x1="224.05" y1="201.2" x2="227.92" y2="185.17" fill="none" stroke="#6b4d35" stroke-miterlimit="10"/>
        <line x1="228.8" y1="201.2" x2="232.67" y2="185.17" fill="none" stroke="#6b4d35" stroke-miterlimit="10"/>
        <line x1="233.54" y1="201.2" x2="237.42" y2="185.17" fill="none" stroke="#6b4d35" stroke-miterlimit="10"/>
        <line x1="238.29" y1="201.2" x2="242.16" y2="185.17" fill="none" stroke="#6b4d35" stroke-miterlimit="10"/>
        <line x1="243.04" y1="201.2" x2="246.91" y2="185.17" fill="none" stroke="#6b4d35" stroke-miterlimit="10"/>
        <line x1="247.79" y1="201.2" x2="251.66" y2="185.17" fill="none" stroke="#6b4d35" stroke-miterlimit="10"/>
        <line x1="91.1" y1="114.25" x2="116.33" y2="89.03" fill="none" stroke="#eaf1f3" stroke-miterlimit="10" stroke-width="2" opacity="0.62"/>
        <line x1="90.51" y1="178.37" x2="135.72" y2="133.16" fill="none" stroke="#eaf1f3" stroke-miterlimit="10" stroke-width="3" opacity="0.62"/>
        <line x1="90.51" y1="126.14" x2="127.92" y2="88.73" fill="none" stroke="#eaf1f3" stroke-miterlimit="10" stroke-width="2" opacity="0.62"/>
        <rect x="90.51" y="88.73" width="45.11" height="91.99" fill="none" stroke="#4d4d4d" stroke-miterlimit="10" stroke-width="3"/>
        <line x1="90.81" y1="133.24" x2="135.91" y2="133.24" fill="#a9ddf3" stroke="#4d4d4d" stroke-miterlimit="10" stroke-width="3"/>
        <rect x="91.4" y="131.76" width="22.55" height="3.56" fill="#4d4d4d"/>
        <g>
          <rect x="180.33" y="89.03" width="55.24" height="58.76" fill="#a9ddf3" stroke="#4d4d4d" stroke-miterlimit="10" stroke-width="3"/>
          <g opacity="0.62">
            <rect x="176.72" y="97.38" width="25.8" height="1.19" transform="translate(-14.91 158.98) rotate(-43.93)" fill="#eaf1f3"/>
          </g>
          <g opacity="0.62">
            <rect x="175.62" y="99.95" width="32.21" height="1.19" transform="translate(-14.94 165.02) rotate(-45)" fill="#eaf1f3"/>
          </g>
          <g opacity="0.62">
            <rect x="208.26" y="135.56" width="32.21" height="1.19" transform="translate(-30.56 198.53) rotate(-45)" fill="#eaf1f3"/>
          </g>
          <g opacity="0.62">
            <rect x="173.83" y="103.59" width="44.41" height="2.37" transform="translate(-16.67 169.31) rotate(-45)" fill="#eaf1f3"/>
          </g>
          <g>
            <line x1="208.21" y1="89.03" x2="208.21" y2="147.78" fill="#a9ddf3" stroke="#4d4d4d" stroke-miterlimit="10" stroke-width="3"/>
            <line x1="194.4" y1="89.03" x2="194.4" y2="147.78" fill="#a9ddf3" stroke="#4d4d4d" stroke-miterlimit="10" stroke-width="3"/>
            <line x1="222.02" y1="89.03" x2="222.02" y2="147.78" fill="#a9ddf3" stroke="#4d4d4d" stroke-miterlimit="10" stroke-width="3"/>
            <line x1="180.84" y1="103.59" x2="236.08" y2="103.59" fill="#a9ddf3" stroke="#4d4d4d" stroke-miterlimit="10" stroke-width="3"/>
            <line x1="179.83" y1="118.4" x2="235.07" y2="118.4" fill="#a9ddf3" stroke="#4d4d4d" stroke-miterlimit="10" stroke-width="3"/>
            <line x1="179.83" y1="133.22" x2="235.07" y2="133.22" fill="#a9ddf3" stroke="#4d4d4d" stroke-miterlimit="10" stroke-width="3"/>
            <rect x="180.33" y="89.03" width="55.24" height="58.76" fill="none" stroke="#4d4d4d" stroke-miterlimit="10" stroke-width="3"/>
          </g>
        </g>
        <rect y="201.2" width="260.55" height="22.55" fill="#564a41"/>
        <rect x="5.93" y="7.12" width="248.09" height="48.67" fill="#6b4d35"/>
        <rect y="70.63" width="260.55" height="7.12" fill="#5f5f60"/>
        <rect x="4.75" width="250.46" height="7.12" fill="#503a28"/>
        <polygon points="260.55 70.63 0 70.63 5.93 55.79 254.61 55.79 260.55 70.63" fill="#797f8b"/>
        <line x1="15.23" y1="7.12" x2="15.23" y2="55.79" fill="none" stroke="#736357" stroke-miterlimit="10"/>
        <line x1="24.81" y1="7.12" x2="24.81" y2="55.79" fill="none" stroke="#736357" stroke-miterlimit="10"/>
        <line x1="34.4" y1="7.12" x2="34.4" y2="55.79" fill="none" stroke="#736357" stroke-miterlimit="10"/>
        <line x1="43.99" y1="7.12" x2="43.99" y2="55.79" fill="none" stroke="#736357" stroke-miterlimit="10"/>
        <line x1="53.58" y1="7.12" x2="53.58" y2="55.79" fill="none" stroke="#736357" stroke-miterlimit="10"/>
        <line x1="63.16" y1="7.12" x2="63.16" y2="55.79" fill="none" stroke="#736357" stroke-miterlimit="10"/>
        <line x1="72.75" y1="7.12" x2="72.75" y2="55.79" fill="none" stroke="#736357" stroke-miterlimit="10"/>
        <line x1="82.34" y1="7.12" x2="82.34" y2="55.79" fill="none" stroke="#736357" stroke-miterlimit="10"/>
        <line x1="91.92" y1="7.12" x2="91.92" y2="55.79" fill="none" stroke="#736357" stroke-miterlimit="10"/>
        <line x1="101.51" y1="7.12" x2="101.51" y2="55.79" fill="none" stroke="#736357" stroke-miterlimit="10"/>
        <line x1="111.1" y1="7.12" x2="111.1" y2="55.79" fill="none" stroke="#736357" stroke-miterlimit="10"/>
        <line x1="120.69" y1="7.12" x2="120.69" y2="55.79" fill="none" stroke="#736357" stroke-miterlimit="10"/>
        <line x1="130.27" y1="7.12" x2="130.27" y2="55.79" fill="none" stroke="#736357" stroke-miterlimit="10"/>
        <line x1="139.86" y1="7.12" x2="139.86" y2="55.79" fill="none" stroke="#736357" stroke-miterlimit="10"/>
        <line x1="149.45" y1="7.12" x2="149.45" y2="55.79" fill="none" stroke="#736357" stroke-miterlimit="10"/>
        <line x1="159.04" y1="7.12" x2="159.04" y2="55.79" fill="none" stroke="#736357" stroke-miterlimit="10"/>
        <line x1="168.62" y1="7.12" x2="168.62" y2="55.79" fill="none" stroke="#736357" stroke-miterlimit="10"/>
        <line x1="178.21" y1="7.12" x2="178.21" y2="55.79" fill="none" stroke="#736357" stroke-miterlimit="10"/>
        <line x1="187.8" y1="7.12" x2="187.8" y2="55.79" fill="none" stroke="#736357" stroke-miterlimit="10"/>
        <line x1="197.39" y1="7.12" x2="197.39" y2="55.79" fill="none" stroke="#736357" stroke-miterlimit="10"/>
        <line x1="206.97" y1="7.12" x2="206.97" y2="55.79" fill="none" stroke="#736357" stroke-miterlimit="10"/>
        <line x1="216.56" y1="7.12" x2="216.56" y2="55.79" fill="none" stroke="#736357" stroke-miterlimit="10"/>
        <line x1="226.15" y1="7.12" x2="226.15" y2="55.79" fill="none" stroke="#736357" stroke-miterlimit="10"/>
        <line x1="235.74" y1="7.12" x2="235.74" y2="55.79" fill="none" stroke="#736357" stroke-miterlimit="10"/>
        <line x1="245.32" y1="7.12" x2="245.32" y2="55.79" fill="none" stroke="#736357" stroke-miterlimit="10"/>
        <line x1="254.32" y1="7.12" x2="254.32" y2="55.79" fill="none" stroke="#736357" stroke-miterlimit="10"/>
        <rect y="77.75" width="10.68" height="123.45" fill="#6b4d35"/>
        <rect x="10.68" y="77.75" width="2.97" height="123.45" fill="#736357"/>
        <rect x="151.94" y="77.75" width="10.68" height="123.45" fill="#6b4d35"/>
        <rect x="162.62" y="77.75" width="2.97" height="123.45" fill="#736357"/>
        <g>
          <rect x="246.9" y="77.75" width="10.68" height="123.45" fill="#6b4d35"/>
          <rect x="257.58" y="77.75" width="2.97" height="123.45" fill="#736357"/>
        </g>
        <g>
          <rect x="201.51" y="97.62" width="6.5" height="84.28" transform="translate(344.52 -65) rotate(90)" fill="#6b4d35"/>
          <rect x="203.86" y="101.77" width="1.81" height="84.28" transform="translate(348.67 -60.85) rotate(90)" fill="#736357"/>
        </g>
        <g>
          <rect x="202.99" y="131.74" width="6.5" height="87.25" transform="translate(381.61 -30.88) rotate(90)" fill="#6b4d35"/>
          <rect x="205.34" y="135.9" width="1.81" height="87.25" transform="translate(385.76 -26.72) rotate(90)" fill="#736357"/>
        </g>
        <g>
          <rect x="20.68" y="89.03" width="55.24" height="58.76" fill="#a9ddf3" stroke="#4d4d4d" stroke-miterlimit="10" stroke-width="3"/>
          <g opacity="0.62">
            <rect x="17.07" y="97.38" width="25.8" height="1.19" transform="translate(-59.59 48.21) rotate(-43.93)" fill="#eaf1f3"/>
          </g>
          <g opacity="0.62">
            <rect x="15.96" y="99.95" width="32.21" height="1.19" transform="translate(-61.7 52.13) rotate(-45)" fill="#eaf1f3"/>
          </g>
          <g opacity="0.62">
            <rect x="48.61" y="135.56" width="32.21" height="1.19" transform="translate(-77.32 85.64) rotate(-45)" fill="#eaf1f3"/>
          </g>
          <g opacity="0.62">
            <rect x="14.18" y="103.59" width="44.41" height="2.37" transform="translate(-63.43 56.42) rotate(-45)" fill="#eaf1f3"/>
          </g>
          <g>
            <line x1="48.55" y1="89.03" x2="48.55" y2="147.78" fill="#a9ddf3" stroke="#4d4d4d" stroke-miterlimit="10" stroke-width="3"/>
            <line x1="34.74" y1="89.03" x2="34.74" y2="147.78" fill="#a9ddf3" stroke="#4d4d4d" stroke-miterlimit="10" stroke-width="3"/>
            <line x1="62.36" y1="89.03" x2="62.36" y2="147.78" fill="#a9ddf3" stroke="#4d4d4d" stroke-miterlimit="10" stroke-width="3"/>
            <line x1="21.18" y1="103.59" x2="76.43" y2="103.59" fill="#a9ddf3" stroke="#4d4d4d" stroke-miterlimit="10" stroke-width="3"/>
            <line x1="20.18" y1="118.4" x2="75.42" y2="118.4" fill="#a9ddf3" stroke="#4d4d4d" stroke-miterlimit="10" stroke-width="3"/>
            <line x1="20.18" y1="133.22" x2="75.42" y2="133.22" fill="#a9ddf3" stroke="#4d4d4d" stroke-miterlimit="10" stroke-width="3"/>
            <rect x="20.68" y="89.03" width="55.24" height="58.76" fill="none" stroke="#4d4d4d" stroke-miterlimit="10" stroke-width="3"/>
          </g>
        </g>
      </g>
    </g>
  </g>
</svg>
