<svg xmlns="http://www.w3.org/2000/svg" width="141.43" height="333.79" viewBox="0 0 141.43 333.79">
  <title>northern_terminius</title>
  <g id="Layer_2" data-name="Layer 2">
    <g id="Layer_2_Rock">
      <g>
        <rect x="21.43" y="198.74" width="21.43" height="135.05" fill="#898a8b"/>
        <path d="M0,200.84V333.79H21.43V198.74H2.11A2.11,2.11,0,0,0,0,200.84Z" fill="#b6b8ba"/>
        <rect y="208.36" width="42.87" height="9.69" transform="translate(42.87 426.42) rotate(-180)" fill="#231f20"/>
        <path d="M28,198.74H70.91a0,0,0,0,1,0,0V329.56a3.66,3.66,0,0,1-3.66,3.66H31.71A3.66,3.66,0,0,1,28,329.56V198.74a0,0,0,0,1,0,0Z" transform="translate(98.96 531.96) rotate(-180)" fill="#898b8d" opacity="0.32"/>
        <path d="M74.68,0V333.79H96.11V1.91A1.91,1.91,0,0,0,94.2,0Z" fill="#67686a"/>
        <path d="M53.25,1.91V333.79H74.68V0H55.15A1.91,1.91,0,0,0,53.25,1.91Z" fill="#898b8d"/>
        <rect x="53.24" y="8.64" width="42.87" height="9.69" transform="translate(149.35 26.98) rotate(-180)" fill="#231f20"/>
        <path d="M49.44,68.4V333.79H70.87V70.38a2,2,0,0,0-2-2Z" fill="#797a7b"/>
        <path d="M28,70.38V333.79H49.44V68.4H30A2,2,0,0,0,28,70.38Z" fill="#a1a2a4"/>
        <rect x="28" y="77.89" width="42.87" height="9.69" transform="translate(98.88 165.48) rotate(-180)" fill="#231f20"/>
        <g>
          <path d="M88.66,45.78A28.21,28.21,0,0,0,77,25.6a4,4,0,0,0-4.65,0A28.22,28.22,0,0,0,60.69,45.67a4,4,0,0,0,2.3,4,28.28,28.28,0,0,0,23.34.1A4,4,0,0,0,88.66,45.78Z" fill="#fff"/>
          <path d="M74.78,48.46a24.18,24.18,0,0,0,10-2.13.18.18,0,0,0,.09-.18A24.4,24.4,0,0,0,74.77,28.71a.17.17,0,0,0-.19,0A24.42,24.42,0,0,0,64.5,46.06a.18.18,0,0,0,.09.18A24.19,24.19,0,0,0,74.78,48.46Z" fill="#225168"/>
        </g>
        <g>
          <path d="M70.67,143.39h42.87a0,0,0,0,1,0,0V330.21a3.58,3.58,0,0,1-3.58,3.58H74.25a3.58,3.58,0,0,1-3.58-3.58V143.39a0,0,0,0,1,0,0Z" transform="translate(184.2 477.18) rotate(-180)" fill="#231f20" opacity="0.32"/>
          <path d="M95,333.79h22.19V145.44a2,2,0,0,0-2-2H95.81Z" fill="#898a8b"/>
          <path d="M74.3,145.44V333.79H95l.84-190.4H76.34A2,2,0,0,0,74.3,145.44Z" fill="#b6b8ba"/>
          <rect x="74.29" y="153.03" width="42.87" height="9.69" transform="translate(191.46 315.75) rotate(-180)" fill="#231f20"/>
          <line x1="95.81" y1="143.39" x2="95.81" y2="143.18" fill="none"/>
        </g>
        <g>
          <path d="M93.17,238.59H117a0,0,0,0,1,0,0v91.54a3.66,3.66,0,0,1-3.66,3.66H93.17a0,0,0,0,1,0,0v-95.2A0,0,0,0,1,93.17,238.59Z" transform="translate(210.16 572.38) rotate(-180)" fill="#898b8d" opacity="0.32"/>
          <path d="M120,240.66v93.13h21.43v-91a2.09,2.09,0,0,0-2.08-2.09Z" fill="#adadae"/>
          <path d="M98.56,242.75v91H120V240.66H100.65A2.09,2.09,0,0,0,98.56,242.75Z" fill="#e6e7e8"/>
          <rect x="98.56" y="248.96" width="42.87" height="9.69" transform="translate(239.99 507.61) rotate(-180)" fill="#231f20"/>
        </g>
      </g>
    </g>
  </g>
</svg>
