<svg xmlns="http://www.w3.org/2000/svg" width="1414.03" height="476.73" viewBox="0 0 1414.03 476.73">
  <title>shasta</title>
  <g id="Layer_2" data-name="Layer 2">
    <g id="Layer_5_mWhitney">
      <g id="mw_8">
        <polygon points="428.57 157.61 428.57 476.73 0 476.73 428.57 157.61" fill="#806e56"/>
        <polygon points="857.14 476.73 428.57 476.73 428.57 157.61 857.14 476.73" fill="#aa9372"/>
        <path d="M554.1,251.08a113.71,113.71,0,0,1-21,1.87,106.07,106.07,0,0,1-27.79-3.43c-6.09,6.94-23.59,11.95-44.23,11.95a112.68,112.68,0,0,1-22.1-2.08c-7.06,6.23-23.61,10.6-42.89,10.6-16.58,0-31.14-3.23-39.38-8.11a108.55,108.55,0,0,1-25.61,2.86c-15.18,0-28.65-2.71-37.15-6.89L308,247.38l120.56-89.77,104.72,78Z" fill="#fff"/>
      </g>
      <g id="mw_5">
        <polygon points="776.35 11.73 776.35 474.13 138.67 474.13 776.35 11.73" fill="#aa9372"/>
        <polygon points="1414.03 474.13 776.35 474.13 776.35 11.73 1414.03 474.13" fill="#806e56"/>
        <path d="M1081.27,231.64a281.92,281.92,0,0,1-50.8,4.41c-25.17,0-48.38-3-67.14-8.06-14.73,16.33-57,28.11-106.86,28.11-19.31,0-28.8-23.39-44.68-26.52-17.06,14.66-65.75,46.56-112.34,46.56-40.06,0-70.8-33-90.71-44.45C591,236,565.32,263.8,542.44,263.8c-36.67,0-77.7-2.56-98.24-12.41l56-40.38L776.35,0,1031,195.2Z" fill="#fff"/>
      </g>
    </g>
  </g>
</svg>
