<svg xmlns="http://www.w3.org/2000/svg" width="1722.5" height="592" viewBox="0 0 1722.5 592">
  <title>sister_1</title>
  <g id="Layer_2" data-name="Layer 2">
    <g id="Layer_5_mWhitney">
      <g id="mw_8">
        <polygon points="1245.5 115 1245.5 592 768.5 592 1245.5 115" fill="#463a28"/>
        <polygon points="1722.5 592 1245.5 592 1245.5 115 1722.5 592" fill="#5d4d35"/>
        <path d="M1385.09,254.84l.1.1c-33.24-16.89-33.55,45.83-35.16,61.16-.21,2-.6,4.34-2.35,5.38-2,1.19-4.51,0-6.45-1.24-11.45-7.5-55.6-69.46-65.6-40.24-5,14.72-8.67,32.68-16.63,45.8,2.55-4.2-33.67-32.16-38.25-34.38-12.58-6.09-22.29-6.56-32.39,4.35-15.6,16.86-10.45,49.84-35,59.46a7.16,7.16,0,0,1-4.81.52c-2.82-1-3.73-4.42-4.16-7.37A280.83,280.83,0,0,1,1142,290c.2-3.13.39-6.51-1.32-9.15-1.84-2.85-5.36-4-8.6-5l-36.46-11L1245.54,115Z" fill="#fff"/>
      </g>
      <g id="mw_8-2" data-name="mw_8">
        <polygon points="404.5 0.05 404.5 592 0 592 404.5 0.05" fill="#463a28"/>
        <polygon points="809 592 404.5 592 404.5 0.05 809 592" fill="#5d4d35"/>
        <path d="M522.87,173.59l.09.13c-28.18-21-28.45,56.87-29.81,75.9-.18,2.51-.51,5.39-2,6.68-1.68,1.47-3.82,0-5.47-1.53-9.71-9.3-47.15-86.2-55.63-49.94-4.27,18.27-7.35,40.56-14.11,56.84,2.16-5.21-28.55-39.91-32.44-42.67-10.67-7.56-18.9-8.15-27.47,5.39-13.23,20.92-8.86,61.85-29.65,73.79-1.3.75-2.76,1.31-4.08.65-2.39-1.18-3.16-5.49-3.53-9.14a508.57,508.57,0,0,1-2.06-72.45c.17-3.89.33-8.08-1.12-11.36-1.56-3.53-4.54-5-7.3-6.2l-30.92-13.6L404.53,0Z" fill="#fff"/>
      </g>
    </g>
  </g>
</svg>
