<svg xmlns="http://www.w3.org/2000/svg" width="1124.78" height="557.97" viewBox="0 0 1124.78 557.97">
  <title>sister_2</title>
  <g id="Layer_2" data-name="Layer 2">
    <g id="Layer_5_mWhitney">
      <g id="mw_8">
        <polygon points="562.39 0.01 562.39 557.97 0 557.97 562.39 0.01" fill="#463a28"/>
        <polygon points="1124.79 557.97 562.39 557.97 562.39 0.01 1124.79 557.97" fill="#5d4d35"/>
        <path d="M727.14,163.41c2.09,4.12,9.83,46.55,7.65,46.55-22,0-54.78-37.32-71.23-49.46,3.76,16.78-11.88,104.4-34.73,104.46-31.76.07-40.93-61.71-50.76-83.08-1.48,12.79-.13,26.79-2.42,40.13-.7,4.09-1.63,8.28-4,11.68-2.86,4.1-7.46,6.57-11.83,9-22.17,12.38-41.82,29.88-61.93,45.25-4,3-8.19,6.17-13.14,6.79-23.35,2.94-30.47-72.06-35.46-87.39-1.81-5.56-4-11.18-8.11-15.39-3.22-3.32-56.71-15.57-55.51-16.75Q474.33,87.91,562.4,0L699.81,136.33q13.55,13.44,27.16,26.81A1.07,1.07,0,0,1,727.14,163.41Z" fill="#fff"/>
      </g>
    </g>
  </g>
</svg>
