<svg xmlns="http://www.w3.org/2000/svg" width="365.95" height="143.76" viewBox="0 0 365.95 143.76">
  <title>tent2</title>
  <g id="Layer_2" data-name="Layer 2">
    <g id="Layer_3_Vege_2" data-name="Layer_3_Vege/2">
      <g>
        <path d="M296.65,134.9v-11a2.5,2.5,0,0,1,2.5-2.5h0a2.5,2.5,0,0,1,2.5,2.5v11Z" fill="#b3942f"/>
        <path d="M61.65,134.9v-11a2.5,2.5,0,0,1,2.5-2.5h0a2.5,2.5,0,0,1,2.5,2.5v11Z" fill="#b3942f"/>
        <line x1="181.15" y1="0.4" x2="359.15" y2="134.4" fill="none" stroke="#351312" stroke-miterlimit="10"/>
        <path d="M58.65,133.9c3.78,13.24,243.78,13,244,0,0,0-107-83-122-83C161.65,50.9,58.65,133.9,58.65,133.9Z" fill="#351312"/>
        <path d="M302.83,133.74C231.17,136,196.23,77,180.65,50.9,165.09,77,130.2,136,58.65,133.9c0,0,86.19-72.14,118.92-128.45,1-1.8,2-3.59,3-5.35q1.62,3.06,3.47,6.19C217.21,62.42,302.83,133.74,302.83,133.74Z" fill="#ef4c31"/>
        <line x1="181.15" y1="0.4" x2="3.15" y2="134.4" fill="none" stroke="#351312" stroke-miterlimit="10"/>
        <path d="M359.24,132.05l1.83-5.72a2.5,2.5,0,0,1,3.14-1.62h0a2.5,2.5,0,0,1,1.62,3.14l-3.35,10.48h0A5,5,0,0,1,359.24,132.05Z" fill="#b3942f"/>
        <path d="M6.71,132.05l-1.83-5.72a2.5,2.5,0,0,0-3.14-1.62h0a2.5,2.5,0,0,0-1.62,3.14l3.35,10.48h0A5,5,0,0,0,6.71,132.05Z" fill="#b3942f"/>
      </g>
    </g>
  </g>
</svg>
