<svg xmlns="http://www.w3.org/2000/svg" xmlns:xlink="http://www.w3.org/1999/xlink" width="658.71" height="141.84" viewBox="0 0 658.71 141.84">
  <defs>
    <pattern id="_10_dpi_30_" data-name="10 dpi 30%" width="28.8" height="28.8" patternTransform="translate(0.15)" patternUnits="userSpaceOnUse" viewBox="0 0 28.8 28.8">
      <rect width="28.8" height="28.8" fill="none"/>
      <g>
        <circle cx="28.8" cy="28.8" r="2.16" fill="#004000"/>
        <circle cx="14.4" cy="28.8" r="2.16" fill="#004000"/>
        <circle cx="28.8" cy="14.4" r="2.16" fill="#004000"/>
        <circle cx="14.4" cy="14.4" r="2.16" fill="#004000"/>
        <circle cx="7.2" cy="21.6" r="2.16" fill="#004000"/>
        <circle cx="21.6" cy="21.6" r="2.16" fill="#004000"/>
        <circle cx="7.2" cy="7.2" r="2.16" fill="#004000"/>
        <circle cx="21.6" cy="7.2" r="2.16" fill="#004000"/>
      </g>
      <g>
        <circle cy="28.8" r="2.16" fill="#004000"/>
        <circle cy="14.4" r="2.16" fill="#004000"/>
      </g>
      <g>
        <circle cx="28.8" r="2.16" fill="#004000"/>
        <circle cx="14.4" r="2.16" fill="#004000"/>
      </g>
      <circle r="2.16" fill="#004000"/>
    </pattern>
  </defs>
  <title>trees_sm_s2</title>
  <g id="Layer_2" data-name="Layer 2">
    <g id="Layer_3_Vege_2" data-name="Layer_3_Vege/2">
      <g>
        <g>
          <path d="M304.12,106.08v32.15a3.61,3.61,0,0,1-3.61,3.61H297V106.08Z" fill="#8a5d3b"/>
          <path d="M297,106.08v35.76h-3.54a3.61,3.61,0,0,1-3.61-3.61V106.08Z" fill="#68462c"/>
        </g>
        <path d="M296.93,0V118.41H254.79a2.66,2.66,0,0,1-2.3-4l18-31.25a2.66,2.66,0,0,0-2.3-4h-4.74a2.65,2.65,0,0,1-2.3-4L275.72,50a2.67,2.67,0,0,0-2.31-4,2.66,2.66,0,0,1-2.66-2.67,2.6,2.6,0,0,1,.36-1.32L294.62,1.33A2.64,2.64,0,0,1,296.93,0Z" fill="#004e2a"/>
        <path d="M296.93,0V118.41H254.79a2.66,2.66,0,0,1-2.3-4l18-31.25a2.66,2.66,0,0,0-2.3-4h-4.74a2.65,2.65,0,0,1-2.3-4L275.72,50a2.67,2.67,0,0,0-2.31-4,2.66,2.66,0,0,1-2.66-2.67,2.6,2.6,0,0,1,.36-1.32L294.62,1.33A2.64,2.64,0,0,1,296.93,0Z" fill="url(#_10_dpi_30_)"/>
        <path d="M339.05,118.41H296.93V0a2.63,2.63,0,0,1,2.3,1.33L322.73,42a2.66,2.66,0,0,1-2.3,4h0a2.66,2.66,0,0,0-2.3,4l14.53,25.16a2.66,2.66,0,0,1-2.31,4h-4.72a2.66,2.66,0,0,0-2.31,4l18,31.25A2.66,2.66,0,0,1,339.05,118.41Z" fill="#006838"/>
      </g>
      <g>
        <g>
          <path d="M621.12,106.08v32.15a3.61,3.61,0,0,1-3.61,3.61H614V106.08Z" fill="#8a5d3b"/>
          <path d="M614,106.08v35.76h-3.54a3.61,3.61,0,0,1-3.61-3.61V106.08Z" fill="#68462c"/>
        </g>
        <path d="M613.93,0V118.41H571.79a2.66,2.66,0,0,1-2.3-4l18-31.25a2.66,2.66,0,0,0-2.3-4h-4.74a2.65,2.65,0,0,1-2.3-4L592.72,50a2.67,2.67,0,0,0-2.31-4,2.66,2.66,0,0,1-2.66-2.67,2.6,2.6,0,0,1,.36-1.32L611.62,1.33A2.64,2.64,0,0,1,613.93,0Z" fill="#004e2a"/>
        <path d="M613.93,0V118.41H571.79a2.66,2.66,0,0,1-2.3-4l18-31.25a2.66,2.66,0,0,0-2.3-4h-4.74a2.65,2.65,0,0,1-2.3-4L592.72,50a2.67,2.67,0,0,0-2.31-4,2.66,2.66,0,0,1-2.66-2.67,2.6,2.6,0,0,1,.36-1.32L611.62,1.33A2.64,2.64,0,0,1,613.93,0Z" fill="url(#_10_dpi_30_)"/>
        <path d="M656.05,118.41H613.93V0a2.63,2.63,0,0,1,2.3,1.33L639.73,42a2.66,2.66,0,0,1-2.3,4h0a2.66,2.66,0,0,0-2.3,4l14.53,25.16a2.66,2.66,0,0,1-2.31,4h-4.72a2.66,2.66,0,0,0-2.31,4l18,31.25A2.66,2.66,0,0,1,656.05,118.41Z" fill="#006838"/>
      </g>
      <g>
        <g>
          <path d="M492.86,116.53l-.14,22.77a2.56,2.56,0,0,1-2.57,2.54l-2.51,0,.16-25.33Z" fill="#8a5d3b"/>
          <path d="M487.8,116.5l-.16,25.33-2.51,0a2.56,2.56,0,0,1-2.54-2.57l.14-22.77Z" fill="#68462c"/>
        </g>
        <path d="M488.24,41.37l-.53,83.86L457.87,125a1.88,1.88,0,0,1-1.61-2.84l12.92-22.05a1.89,1.89,0,0,0-1.61-2.84l-3.36,0a1.88,1.88,0,0,1-1.61-2.83L473,76.7a1.89,1.89,0,0,0-1.62-2.84,1.89,1.89,0,0,1-1.87-1.9,1.84,1.84,0,0,1,.26-.94L486.6,42.3A1.87,1.87,0,0,1,488.24,41.37Z" fill="#004e2a"/>
        <path d="M488.24,41.37l-.53,83.86L457.87,125a1.88,1.88,0,0,1-1.61-2.84l12.92-22.05a1.89,1.89,0,0,0-1.61-2.84l-3.36,0a1.88,1.88,0,0,1-1.61-2.83L473,76.7a1.89,1.89,0,0,0-1.62-2.84,1.89,1.89,0,0,1-1.87-1.9,1.84,1.84,0,0,1,.26-.94L486.6,42.3A1.87,1.87,0,0,1,488.24,41.37Z" fill="url(#_10_dpi_30_)"/>
        <path d="M517.55,125.42l-29.83-.19.53-83.86a1.87,1.87,0,0,1,1.62,1l16.47,28.93a1.88,1.88,0,0,1-1.65,2.82h0A1.89,1.89,0,0,0,503,76.89l10.18,17.89a1.88,1.88,0,0,1-1.66,2.81l-3.34,0a1.89,1.89,0,0,0-1.66,2.82L519.2,122.6A1.88,1.88,0,0,1,517.55,125.42Z" fill="#006838"/>
      </g>
      <g>
        <g>
          <path d="M36.86,116.53l-.14,22.77a2.56,2.56,0,0,1-2.57,2.54l-2.51,0,.16-25.33Z" fill="#8a5d3b"/>
          <path d="M31.8,116.5l-.16,25.33-2.51,0a2.56,2.56,0,0,1-2.54-2.57l.14-22.77Z" fill="#68462c"/>
        </g>
        <path d="M32.24,41.37l-.53,83.86L1.87,125A1.88,1.88,0,0,1,.26,122.2l12.92-22.05a1.89,1.89,0,0,0-1.61-2.84l-3.36,0A1.88,1.88,0,0,1,6.6,94.46L17,76.7a1.89,1.89,0,0,0-1.62-2.84A1.89,1.89,0,0,1,13.51,72a1.84,1.84,0,0,1,.26-.94L30.6,42.3A1.87,1.87,0,0,1,32.24,41.37Z" fill="#004e2a"/>
        <path d="M32.24,41.37l-.53,83.86L1.87,125A1.88,1.88,0,0,1,.26,122.2l12.92-22.05a1.89,1.89,0,0,0-1.61-2.84l-3.36,0A1.88,1.88,0,0,1,6.6,94.46L17,76.7a1.89,1.89,0,0,0-1.62-2.84A1.89,1.89,0,0,1,13.51,72a1.84,1.84,0,0,1,.26-.94L30.6,42.3A1.87,1.87,0,0,1,32.24,41.37Z" fill="url(#_10_dpi_30_)"/>
        <path d="M61.55,125.42l-29.83-.19.53-83.86a1.87,1.87,0,0,1,1.62,1L50.33,71.26a1.88,1.88,0,0,1-1.65,2.82h0A1.89,1.89,0,0,0,47,76.89L57.21,94.78a1.88,1.88,0,0,1-1.66,2.81l-3.34,0a1.89,1.89,0,0,0-1.66,2.82L63.2,122.6A1.88,1.88,0,0,1,61.55,125.42Z" fill="#006838"/>
      </g>
      <g>
        <g>
          <path d="M166.12,106.08v32.15a3.61,3.61,0,0,1-3.61,3.61H159V106.08Z" fill="#8a5d3b"/>
          <path d="M159,106.08v35.76h-3.54a3.61,3.61,0,0,1-3.61-3.61V106.08Z" fill="#68462c"/>
        </g>
        <path d="M158.93,0V118.41H116.79a2.66,2.66,0,0,1-2.3-4l18-31.25a2.66,2.66,0,0,0-2.3-4h-4.74a2.65,2.65,0,0,1-2.3-4L137.72,50a2.67,2.67,0,0,0-2.31-4,2.66,2.66,0,0,1-2.66-2.67,2.6,2.6,0,0,1,.36-1.32L156.62,1.33A2.64,2.64,0,0,1,158.93,0Z" fill="#004e2a"/>
        <path d="M158.93,0V118.41H116.79a2.66,2.66,0,0,1-2.3-4l18-31.25a2.66,2.66,0,0,0-2.3-4h-4.74a2.65,2.65,0,0,1-2.3-4L137.72,50a2.67,2.67,0,0,0-2.31-4,2.66,2.66,0,0,1-2.66-2.67,2.6,2.6,0,0,1,.36-1.32L156.62,1.33A2.64,2.64,0,0,1,158.93,0Z" fill="url(#_10_dpi_30_)"/>
        <path d="M201.05,118.41H158.93V0a2.63,2.63,0,0,1,2.3,1.33L184.73,42a2.66,2.66,0,0,1-2.3,4h0a2.66,2.66,0,0,0-2.3,4l14.53,25.16a2.66,2.66,0,0,1-2.31,4h-4.72a2.66,2.66,0,0,0-2.31,4l18,31.25A2.66,2.66,0,0,1,201.05,118.41Z" fill="#006838"/>
      </g>
    </g>
  </g>
</svg>
