<svg xmlns="http://www.w3.org/2000/svg" xmlns:xlink="http://www.w3.org/1999/xlink" width="1669.9" height="316.84" viewBox="0 0 1669.9 316.84">
  <defs>
    <pattern id="_10_dpi_30_" data-name="10 dpi 30%" width="28.8" height="28.8" patternTransform="translate(0.15)" patternUnits="userSpaceOnUse" viewBox="0 0 28.8 28.8">
      <rect width="28.8" height="28.8" fill="none"/>
      <g>
        <circle cx="28.8" cy="28.8" r="2.16" fill="#004000"/>
        <circle cx="14.4" cy="28.8" r="2.16" fill="#004000"/>
        <circle cx="28.8" cy="14.4" r="2.16" fill="#004000"/>
        <circle cx="14.4" cy="14.4" r="2.16" fill="#004000"/>
        <circle cx="7.2" cy="21.6" r="2.16" fill="#004000"/>
        <circle cx="21.6" cy="21.6" r="2.16" fill="#004000"/>
        <circle cx="7.2" cy="7.2" r="2.16" fill="#004000"/>
        <circle cx="21.6" cy="7.2" r="2.16" fill="#004000"/>
      </g>
      <g>
        <circle cy="28.8" r="2.16" fill="#004000"/>
        <circle cy="14.4" r="2.16" fill="#004000"/>
      </g>
      <g>
        <circle cx="28.8" r="2.16" fill="#004000"/>
        <circle cx="14.4" r="2.16" fill="#004000"/>
      </g>
      <circle r="2.16" fill="#004000"/>
    </pattern>
  </defs>
  <title>trees_large_south</title>
  <g id="Layer_2" data-name="Layer 2">
    <g id="Layer_3_Vege_2" data-name="Layer_3_Vege/2">
      <g>
        <g>
          <path d="M888.44,244.28v65.23a7.33,7.33,0,0,1-7.33,7.33h-7.18V244.28Z" fill="#8a5d3b"/>
          <path d="M873.93,244.28v72.57h-7.18a7.33,7.33,0,0,1-7.33-7.33V244.28Z" fill="#68462c"/>
        </g>
        <path d="M873.86,29V269.29H788.35a5.4,5.4,0,0,1-4.67-8.1l36.62-63.42a5.4,5.4,0,0,0-4.67-8.1H806a5.38,5.38,0,0,1-4.67-8.08l29.49-51.06a5.41,5.41,0,0,0-4.69-8.1,5.4,5.4,0,0,1-5.39-5.42,5.28,5.28,0,0,1,.73-2.69l47.7-82.6A5.36,5.36,0,0,1,873.86,29Z" fill="#004e2a"/>
        <path d="M873.86,29V269.29H788.35a5.4,5.4,0,0,1-4.67-8.1l36.62-63.42a5.4,5.4,0,0,0-4.67-8.1H806a5.38,5.38,0,0,1-4.67-8.08l29.49-51.06a5.41,5.41,0,0,0-4.69-8.1,5.4,5.4,0,0,1-5.39-5.42,5.28,5.28,0,0,1,.73-2.69l47.7-82.6A5.36,5.36,0,0,1,873.86,29Z" fill="url(#_10_dpi_30_)"/>
        <path d="M959.34,269.29H873.86V29a5.35,5.35,0,0,1,4.67,2.71l47.7,82.6a5.4,5.4,0,0,1-4.67,8.1h0a5.4,5.4,0,0,0-4.67,8.1l29.49,51.06a5.39,5.39,0,0,1-4.69,8.08h-9.58a5.41,5.41,0,0,0-4.69,8.1L964,261.18A5.4,5.4,0,0,1,959.34,269.29Z" fill="#006838"/>
      </g>
      <g>
        <g>
          <path d="M697.6,255.9v54.79a6.16,6.16,0,0,1-6.16,6.16h-6V255.9Z" fill="#8a5d3b"/>
          <path d="M685.41,255.9v60.95h-6a6.16,6.16,0,0,1-6.16-6.16V255.9Z" fill="#68462c"/>
        </g>
        <path d="M685.35,75.08V276.9H613.54a4.53,4.53,0,0,1-3.92-6.81l30.76-53.27a4.54,4.54,0,0,0-3.92-6.81h-8.09a4.52,4.52,0,0,1-3.92-6.79l24.76-42.89a4.55,4.55,0,0,0-3.94-6.81,4.54,4.54,0,0,1-4.53-4.55,4.43,4.43,0,0,1,.61-2.26l40.06-69.38A4.5,4.5,0,0,1,685.35,75.08Z" fill="#004e2a"/>
        <path d="M685.35,75.08V276.9H613.54a4.53,4.53,0,0,1-3.92-6.81l30.76-53.27a4.54,4.54,0,0,0-3.92-6.81h-8.09a4.52,4.52,0,0,1-3.92-6.79l24.76-42.89a4.55,4.55,0,0,0-3.94-6.81,4.54,4.54,0,0,1-4.53-4.55,4.43,4.43,0,0,1,.61-2.26l40.06-69.38A4.5,4.5,0,0,1,685.35,75.08Z" fill="url(#_10_dpi_30_)"/>
        <path d="M757.15,276.9h-71.8V75.08a4.49,4.49,0,0,1,3.92,2.28l40.06,69.38a4.53,4.53,0,0,1-3.92,6.81h0a4.54,4.54,0,0,0-3.92,6.81l24.76,42.89A4.53,4.53,0,0,1,742.3,210h-8a4.54,4.54,0,0,0-3.94,6.81l30.76,53.27A4.53,4.53,0,0,1,757.15,276.9Z" fill="#006838"/>
      </g>
      <g>
        <g>
          <path d="M88.6,255.9v54.79a6.16,6.16,0,0,1-6.16,6.16h-6V255.9Z" fill="#8a5d3b"/>
          <path d="M76.41,255.9v60.95h-6a6.16,6.16,0,0,1-6.16-6.16V255.9Z" fill="#68462c"/>
        </g>
        <path d="M76.35,75.08V276.9H4.54A4.53,4.53,0,0,1,.62,270.1l30.76-53.27A4.54,4.54,0,0,0,27.45,210H19.37a4.52,4.52,0,0,1-3.92-6.79l24.76-42.89a4.55,4.55,0,0,0-3.94-6.81A4.54,4.54,0,0,1,31.74,149a4.43,4.43,0,0,1,.61-2.26L72.41,77.36A4.5,4.5,0,0,1,76.35,75.08Z" fill="#004e2a"/>
        <path d="M76.35,75.08V276.9H4.54A4.53,4.53,0,0,1,.62,270.1l30.76-53.27A4.54,4.54,0,0,0,27.45,210H19.37a4.52,4.52,0,0,1-3.92-6.79l24.76-42.89a4.55,4.55,0,0,0-3.94-6.81A4.54,4.54,0,0,1,31.74,149a4.43,4.43,0,0,1,.61-2.26L72.41,77.36A4.5,4.5,0,0,1,76.35,75.08Z" fill="url(#_10_dpi_30_)"/>
        <path d="M148.15,276.9H76.35V75.08a4.49,4.49,0,0,1,3.92,2.28l40.06,69.38a4.53,4.53,0,0,1-3.92,6.81h0a4.54,4.54,0,0,0-3.92,6.81l24.76,42.89A4.53,4.53,0,0,1,133.3,210h-8a4.54,4.54,0,0,0-3.94,6.81l30.76,53.27A4.53,4.53,0,0,1,148.15,276.9Z" fill="#006838"/>
      </g>
      <g>
        <g>
          <path d="M1242.6,255.9v54.79a6.16,6.16,0,0,1-6.16,6.16h-6V255.9Z" fill="#8a5d3b"/>
          <path d="M1230.41,255.9v60.95h-6a6.16,6.16,0,0,1-6.16-6.16V255.9Z" fill="#68462c"/>
        </g>
        <path d="M1230.35,75.08V276.9h-71.82a4.53,4.53,0,0,1-3.92-6.81l30.76-53.27a4.54,4.54,0,0,0-3.92-6.81h-8.09a4.52,4.52,0,0,1-3.92-6.79l24.76-42.89a4.55,4.55,0,0,0-3.94-6.81,4.54,4.54,0,0,1-4.53-4.55,4.43,4.43,0,0,1,.61-2.26l40.06-69.38A4.5,4.5,0,0,1,1230.35,75.08Z" fill="#004e2a"/>
        <path d="M1230.35,75.08V276.9h-71.82a4.53,4.53,0,0,1-3.92-6.81l30.76-53.27a4.54,4.54,0,0,0-3.92-6.81h-8.09a4.52,4.52,0,0,1-3.92-6.79l24.76-42.89a4.55,4.55,0,0,0-3.94-6.81,4.54,4.54,0,0,1-4.53-4.55,4.43,4.43,0,0,1,.61-2.26l40.06-69.38A4.5,4.5,0,0,1,1230.35,75.08Z" fill="url(#_10_dpi_30_)"/>
        <path d="M1302.15,276.9h-71.8V75.08a4.49,4.49,0,0,1,3.92,2.28l40.06,69.38a4.53,4.53,0,0,1-3.92,6.81h0a4.54,4.54,0,0,0-3.92,6.81l24.76,42.89a4.53,4.53,0,0,1-3.94,6.79h-8a4.54,4.54,0,0,0-3.94,6.81l30.76,53.27A4.53,4.53,0,0,1,1302.15,276.9Z" fill="#006838"/>
      </g>
      <g>
        <g>
          <path d="M1609.5,259.4V311a5.8,5.8,0,0,1-5.8,5.8H1598V259.4Z" fill="#8a5d3b"/>
          <path d="M1598,259.4v57.44h-5.68a5.8,5.8,0,0,1-5.8-5.8V259.4Z" fill="#68462c"/>
        </g>
        <path d="M1598,89V279.2h-67.68a4.27,4.27,0,0,1-3.7-6.41l29-50.2a4.28,4.28,0,0,0-3.7-6.41h-7.62a4.26,4.26,0,0,1-3.7-6.39l23.34-40.42a4.29,4.29,0,0,0-3.71-6.41,4.28,4.28,0,0,1-4.27-4.29,4.18,4.18,0,0,1,.57-2.13l37.76-65.39A4.24,4.24,0,0,1,1598,89Z" fill="#004e2a"/>
        <path d="M1598,89V279.2h-67.68a4.27,4.27,0,0,1-3.7-6.41l29-50.2a4.28,4.28,0,0,0-3.7-6.41h-7.62a4.26,4.26,0,0,1-3.7-6.39l23.34-40.42a4.29,4.29,0,0,0-3.71-6.41,4.28,4.28,0,0,1-4.27-4.29,4.18,4.18,0,0,1,.57-2.13l37.76-65.39A4.24,4.24,0,0,1,1598,89Z" fill="url(#_10_dpi_30_)"/>
        <path d="M1665.62,279.2H1598V89a4.23,4.23,0,0,1,3.7,2.14l37.76,65.39a4.27,4.27,0,0,1-3.7,6.41h0a4.28,4.28,0,0,0-3.7,6.41l23.34,40.42a4.27,4.27,0,0,1-3.71,6.39H1644a4.28,4.28,0,0,0-3.71,6.41l29,50.2A4.27,4.27,0,0,1,1665.62,279.2Z" fill="#006838"/>
      </g>
      <g>
        <g>
          <path d="M1462.12,237v71.81a8.07,8.07,0,0,1-8.07,8.07h-7.91V237Z" fill="#8a5d3b"/>
          <path d="M1446.15,237v79.88h-7.91a8.07,8.07,0,0,1-8.07-8.07V237Z" fill="#68462c"/>
        </g>
        <path d="M1446.07,0V264.5h-94.12a5.94,5.94,0,0,1-5.14-8.92l40.31-69.81a6,6,0,0,0-5.14-8.92h-10.6a5.93,5.93,0,0,1-5.14-8.89l32.46-56.21a6,6,0,0,0-5.17-8.92,6,6,0,0,1-5.94-6,5.81,5.81,0,0,1,.8-3L1440.9,3A5.9,5.9,0,0,1,1446.07,0Z" fill="#004e2a"/>
        <path d="M1446.07,0V264.5h-94.12a5.94,5.94,0,0,1-5.14-8.92l40.31-69.81a6,6,0,0,0-5.14-8.92h-10.6a5.93,5.93,0,0,1-5.14-8.89l32.46-56.21a6,6,0,0,0-5.17-8.92,6,6,0,0,1-5.94-6,5.81,5.81,0,0,1,.8-3L1440.9,3A5.9,5.9,0,0,1,1446.07,0Z" fill="url(#_10_dpi_30_)"/>
        <path d="M1540.16,264.5h-94.09V0a5.88,5.88,0,0,1,5.14,3l52.51,90.93a5.94,5.94,0,0,1-5.14,8.92h0a6,6,0,0,0-5.14,8.92L1525.86,168a5.94,5.94,0,0,1-5.17,8.89h-10.54a6,6,0,0,0-5.17,8.92l40.31,69.81A5.94,5.94,0,0,1,1540.16,264.5Z" fill="#006838"/>
      </g>
    </g>
  </g>
</svg>
