<svg xmlns="http://www.w3.org/2000/svg" xmlns:xlink="http://www.w3.org/1999/xlink" width="615" height="490.84" viewBox="0 0 615 490.84">
  <defs>
    <pattern id="_10_dpi_30_" data-name="10 dpi 30%" width="28.8" height="28.8" patternTransform="translate(0.15)" patternUnits="userSpaceOnUse" viewBox="0 0 28.8 28.8">
      <rect width="28.8" height="28.8" fill="none"/>
      <g>
        <circle cx="28.8" cy="28.8" r="2.16" fill="#004000"/>
        <circle cx="14.4" cy="28.8" r="2.16" fill="#004000"/>
        <circle cx="28.8" cy="14.4" r="2.16" fill="#004000"/>
        <circle cx="14.4" cy="14.4" r="2.16" fill="#004000"/>
        <circle cx="7.2" cy="21.6" r="2.16" fill="#004000"/>
        <circle cx="21.6" cy="21.6" r="2.16" fill="#004000"/>
        <circle cx="7.2" cy="7.2" r="2.16" fill="#004000"/>
        <circle cx="21.6" cy="7.2" r="2.16" fill="#004000"/>
      </g>
      <g>
        <circle cy="28.8" r="2.16" fill="#004000"/>
        <circle cy="14.4" r="2.16" fill="#004000"/>
      </g>
      <g>
        <circle cx="28.8" r="2.16" fill="#004000"/>
        <circle cx="14.4" r="2.16" fill="#004000"/>
      </g>
      <circle r="2.16" fill="#004000"/>
    </pattern>
    <pattern id="_10_dpi_30_3" data-name="10 dpi 30%" width="28.8" height="28.8" patternUnits="userSpaceOnUse" viewBox="0 0 28.8 28.8">
      <rect width="28.8" height="28.8" fill="none"/>
      <g>
        <circle cx="28.8" cy="28.8" r="2.16" fill="#004000"/>
        <circle cx="14.4" cy="28.8" r="2.16" fill="#004000"/>
        <circle cx="28.8" cy="14.4" r="2.16" fill="#004000"/>
        <circle cx="14.4" cy="14.4" r="2.16" fill="#004000"/>
        <circle cx="7.2" cy="21.6" r="2.16" fill="#004000"/>
        <circle cx="21.6" cy="21.6" r="2.16" fill="#004000"/>
        <circle cx="7.2" cy="7.2" r="2.16" fill="#004000"/>
        <circle cx="21.6" cy="7.2" r="2.16" fill="#004000"/>
      </g>
      <g>
        <circle cy="28.8" r="2.16" fill="#004000"/>
        <circle cy="14.4" r="2.16" fill="#004000"/>
      </g>
      <g>
        <circle cx="28.8" r="2.16" fill="#004000"/>
        <circle cx="14.4" r="2.16" fill="#004000"/>
      </g>
      <circle r="2.16" fill="#004000"/>
    </pattern>
  </defs>
  <title>trees_last</title>
  <g id="Layer_2" data-name="Layer 2">
    <g id="Layer_3_Vege_2" data-name="Layer_3_Vege/2">
      <g>
        <g>
          <path d="M301.56,365.93v112.3a12.62,12.62,0,0,1-12.62,12.62H276.58V365.93Z" fill="#8a5d3b"/>
          <path d="M276.58,365.93V490.84H264.22a12.62,12.62,0,0,1-12.62-12.62V365.93Z" fill="#68462c"/>
        </g>
        <g>
          <path d="M414.28,369.35l-37.36-107A9.32,9.32,0,0,0,361.3,259l-80.95,86.59a2.29,2.29,0,0,1-1.71.74h-3.48v35.37H405.47a9.32,9.32,0,0,0,8.8-12.4Z" fill="#006838"/>
          <path d="M285.17,260.56l62.49-66.85h0a9.28,9.28,0,0,0,2-9.44l-17.37-49.75a9.33,9.33,0,0,0-15.84-3l-36,41.43a2.33,2.33,0,0,1-1.78.81h-3.48v90l3.65-.17A9.25,9.25,0,0,0,285.17,260.56Z" fill="#006838"/>
          <path d="M285.17,334.36l81.25-86.92h0a9.33,9.33,0,0,0,2-9.44l-10.26-29.39a9.32,9.32,0,0,0-15.62-3.29l-62.19,66.52a2.29,2.29,0,0,1-1.71.74h-3.48v64.91l3.65-.17A9.25,9.25,0,0,0,285.17,334.36Z" fill="#006838"/>
          <path d="M285.09,161.14l36.76-42.25a9.32,9.32,0,0,0,1.77-9.2L287.84,7.23A9.26,9.26,0,0,0,278.42,1l-3.26.2V164.72l3.85-.41A9.42,9.42,0,0,0,285.09,161.14Z" fill="#006838"/>
        </g>
        <g>
          <path d="M405.47,378.27H278.63V349.86a5.79,5.79,0,0,0,4.26-1.85l80.94-86.58a5.84,5.84,0,0,1,9.79,2.06L411,370.5A5.84,5.84,0,0,1,405.47,378.27Z" stroke-miterlimit="10" stroke-width="6" fill="url(#_10_dpi_30_)" stroke="url(#_10_dpi_30_3)"/>
          <path d="M345.12,191.33l-62.49,66.85a5.81,5.81,0,0,1-4,1.85V177.2a5.83,5.83,0,0,0,4.4-2l36-41.44a5.85,5.85,0,0,1,9.93,1.91l17.36,49.75A5.84,5.84,0,0,1,345.12,191.33Z" stroke-miterlimit="10" stroke-width="6" fill="url(#_10_dpi_30_)" stroke="url(#_10_dpi_30_3)"/>
          <path d="M363.88,245.07,282.63,332a5.81,5.81,0,0,1-4,1.85V276.06a5.79,5.79,0,0,0,4.26-1.85l62.19-66.52a5.84,5.84,0,0,1,9.79,2.06l10.26,29.4A5.88,5.88,0,0,1,363.88,245.07Z" stroke-miterlimit="10" stroke-width="6" fill="url(#_10_dpi_30_)" stroke="url(#_10_dpi_30_3)"/>
          <path d="M319.22,116.59l-36.76,42.26a5.91,5.91,0,0,1-3.83,2V4.46a5.76,5.76,0,0,1,5.92,3.91l35.77,102.46A5.82,5.82,0,0,1,319.22,116.59Z" stroke-miterlimit="10" stroke-width="6" fill="url(#_10_dpi_30_)" stroke="url(#_10_dpi_30_3)"/>
        </g>
        <g>
          <path d="M271.88,345.2,189.8,263.13a10,10,0,0,0-16.55,3.78L137.55,369.13A10,10,0,0,0,147,382.45H277.24V345.69h-4.18A1.67,1.67,0,0,1,271.88,345.2Z" fill="#004e2a"/>
          <path d="M271.87,172.53l-37.38-37.38a10,10,0,0,0-16.55,3.78L200.7,188.28a10,10,0,0,0,2.37,10.39l62.62,62.62a10,10,0,0,0,7.06,2.93h.52l4-.21V173h-4.18A1.64,1.64,0,0,1,271.87,172.53Z" fill="#004e2a"/>
          <path d="M271.88,271.4l-63-63a10,10,0,0,0-16.55,3.78L181.6,243A10.07,10.07,0,0,0,184,253.37l81.71,81.73a10,10,0,0,0,7.06,2.93h.52l4-.21V271.88h-4.18A1.67,1.67,0,0,1,271.88,271.4Z" fill="#004e2a"/>
          <path d="M272.79.29A9.88,9.88,0,0,0,264,7L226.29,115a10.08,10.08,0,0,0,2.38,10.39l36.72,36.74a10,10,0,0,0,7.08,2.94c.33,0,.67,0,1-.05l3.77-.37V0Z" fill="#004e2a"/>
        </g>
      </g>
      <g>
        <g>
          <path d="M375.4,442V485.9a4.94,4.94,0,0,1-4.94,4.94h-4.84V442Z" fill="#8a5d3b"/>
          <path d="M365.62,442v48.89h-4.84a4.94,4.94,0,0,1-4.94-4.94V442Z" fill="#68462c"/>
        </g>
        <g>
          <path d="M419.51,443.3l-14.62-41.88a3.65,3.65,0,0,0-6.11-1.29L367.1,434a.9.9,0,0,1-.67.29h-1.36v13.84h51a3.65,3.65,0,0,0,3.44-4.85Z" fill="#006838"/>
          <path d="M369,400.72l24.46-26.16h0a3.63,3.63,0,0,0,.77-3.69l-6.8-19.47a3.65,3.65,0,0,0-6.2-1.19l-14.1,16.22a.91.91,0,0,1-.7.32h-1.36v35.21l1.43-.07A3.62,3.62,0,0,0,369,400.72Z" fill="#006838"/>
          <path d="M369,429.6l31.8-34h0a3.65,3.65,0,0,0,.78-3.69l-4-11.5a3.65,3.65,0,0,0-6.11-1.29l-24.34,26a.9.9,0,0,1-.67.29h-1.36v25.4l1.43-.07A3.62,3.62,0,0,0,369,429.6Z" fill="#006838"/>
          <path d="M369,361.82l14.38-16.54a3.65,3.65,0,0,0,.69-3.6l-14-40.09a3.62,3.62,0,0,0-3.69-2.45l-1.28.08v64l1.51-.16A3.69,3.69,0,0,0,369,361.82Z" fill="#006838"/>
        </g>
        <g>
          <path d="M414.07,446.79H364.43V435.67a2.26,2.26,0,0,0,1.67-.72l31.68-33.88a2.29,2.29,0,0,1,3.83.81l14.62,41.88A2.29,2.29,0,0,1,414.07,446.79Z" stroke-miterlimit="10" stroke-width="6" fill="url(#_10_dpi_30_)" stroke="url(#_10_dpi_30_3)"/>
          <path d="M390.45,375.63,366,401.79a2.27,2.27,0,0,1-1.56.72V370.1a2.28,2.28,0,0,0,1.72-.78l14.1-16.22a2.29,2.29,0,0,1,3.89.75l6.8,19.47A2.29,2.29,0,0,1,390.45,375.63Z" stroke-miterlimit="10" stroke-width="6" fill="url(#_10_dpi_30_)" stroke="url(#_10_dpi_30_3)"/>
          <path d="M397.79,394.66l-31.8,34a2.27,2.27,0,0,1-1.56.72V406.79a2.26,2.26,0,0,0,1.67-.72l24.34-26a2.29,2.29,0,0,1,3.83.81l4,11.5A2.3,2.3,0,0,1,397.79,394.66Z" stroke-miterlimit="10" stroke-width="6" fill="url(#_10_dpi_30_)" stroke="url(#_10_dpi_30_3)"/>
          <path d="M380.31,344.38l-14.39,16.54a2.31,2.31,0,0,1-1.5.78V300.5a2.25,2.25,0,0,1,2.32,1.53l14,40.1A2.28,2.28,0,0,1,380.31,344.38Z" stroke-miterlimit="10" stroke-width="6" fill="url(#_10_dpi_30_)" stroke="url(#_10_dpi_30_3)"/>
        </g>
        <g>
          <path d="M363.78,433.85l-32.12-32.12a3.92,3.92,0,0,0-6.48,1.48l-14,40a3.92,3.92,0,0,0,3.71,5.21h51V434h-1.63A.65.65,0,0,1,363.78,433.85Z" fill="#004e2a"/>
          <path d="M363.78,366.27l-14.63-14.63a3.92,3.92,0,0,0-6.48,1.48l-6.74,19.31a3.9,3.9,0,0,0,.93,4.07L361.36,401a3.91,3.91,0,0,0,2.76,1.15h.21l1.55-.08v-35.6h-1.63A.64.64,0,0,1,363.78,366.27Z" fill="#004e2a"/>
          <path d="M363.78,405l-24.65-24.64a3.92,3.92,0,0,0-6.48,1.48l-4.21,12a3.94,3.94,0,0,0,.93,4.06l32,32a3.91,3.91,0,0,0,2.76,1.15h.21l1.55-.08V405.15h-1.63A.65.65,0,0,1,363.78,405Z" fill="#004e2a"/>
          <path d="M364.14,298.87a3.87,3.87,0,0,0-3.44,2.62l-14.76,42.27a3.94,3.94,0,0,0,.93,4.06l14.37,14.38a3.91,3.91,0,0,0,2.77,1.15l.39,0,1.47-.15V298.76Z" fill="#004e2a"/>
        </g>
      </g>
      <g>
        <g>
          <path d="M64.4,442V485.9a4.94,4.94,0,0,1-4.94,4.94H54.62V442Z" fill="#8a5d3b"/>
          <path d="M54.62,442v48.89H49.79a4.94,4.94,0,0,1-4.94-4.94V442Z" fill="#68462c"/>
        </g>
        <g>
          <path d="M108.51,443.3,93.89,401.42a3.65,3.65,0,0,0-6.11-1.29L56.1,434a.9.9,0,0,1-.67.29H54.06v13.84h51a3.65,3.65,0,0,0,3.44-4.85Z" fill="#006838"/>
          <path d="M58,400.72l24.46-26.16h0a3.63,3.63,0,0,0,.77-3.69l-6.8-19.47a3.65,3.65,0,0,0-6.2-1.19l-14.1,16.22a.91.91,0,0,1-.7.32H54.06v35.21l1.43-.07A3.62,3.62,0,0,0,58,400.72Z" fill="#006838"/>
          <path d="M58,429.6l31.8-34h0a3.65,3.65,0,0,0,.78-3.69l-4-11.5a3.65,3.65,0,0,0-6.11-1.29l-24.34,26a.9.9,0,0,1-.67.29H54.06v25.4l1.43-.07A3.62,3.62,0,0,0,58,429.6Z" fill="#006838"/>
          <path d="M58,361.82l14.38-16.54a3.65,3.65,0,0,0,.69-3.6L59,301.59a3.62,3.62,0,0,0-3.69-2.45l-1.28.08v64l1.51-.16A3.69,3.69,0,0,0,58,361.82Z" fill="#006838"/>
        </g>
        <g>
          <path d="M103.07,446.79H53.43V435.67a2.26,2.26,0,0,0,1.67-.72l31.68-33.88a2.29,2.29,0,0,1,3.83.81l14.62,41.88A2.29,2.29,0,0,1,103.07,446.79Z" stroke-miterlimit="10" stroke-width="6" fill="url(#_10_dpi_30_)" stroke="url(#_10_dpi_30_3)"/>
          <path d="M79.45,375.63,55,401.79a2.27,2.27,0,0,1-1.56.72V370.1a2.28,2.28,0,0,0,1.72-.78l14.1-16.22a2.29,2.29,0,0,1,3.89.75l6.8,19.47A2.29,2.29,0,0,1,79.45,375.63Z" stroke-miterlimit="10" stroke-width="6" fill="url(#_10_dpi_30_)" stroke="url(#_10_dpi_30_3)"/>
          <path d="M86.79,394.66l-31.8,34a2.27,2.27,0,0,1-1.56.72V406.79a2.26,2.26,0,0,0,1.67-.72l24.34-26a2.29,2.29,0,0,1,3.83.81l4,11.5A2.3,2.3,0,0,1,86.79,394.66Z" stroke-miterlimit="10" stroke-width="6" fill="url(#_10_dpi_30_)" stroke="url(#_10_dpi_30_3)"/>
          <path d="M69.31,344.38,54.93,360.92a2.31,2.31,0,0,1-1.5.78V300.5A2.25,2.25,0,0,1,55.74,302l14,40.1A2.28,2.28,0,0,1,69.31,344.38Z" stroke-miterlimit="10" stroke-width="6" fill="url(#_10_dpi_30_)" stroke="url(#_10_dpi_30_3)"/>
        </g>
        <g>
          <path d="M52.78,433.85,20.66,401.73a3.92,3.92,0,0,0-6.48,1.48l-14,40a3.92,3.92,0,0,0,3.71,5.21h51V434H53.25A.65.65,0,0,1,52.78,433.85Z" fill="#004e2a"/>
          <path d="M52.78,366.27,38.15,351.64a3.92,3.92,0,0,0-6.48,1.48l-6.74,19.31a3.9,3.9,0,0,0,.93,4.07L50.36,401a3.91,3.91,0,0,0,2.76,1.15h.21l1.55-.08v-35.6H53.25A.64.64,0,0,1,52.78,366.27Z" fill="#004e2a"/>
          <path d="M52.78,405,28.14,380.32a3.92,3.92,0,0,0-6.48,1.48l-4.21,12a3.94,3.94,0,0,0,.93,4.06l32,32A3.91,3.91,0,0,0,53.13,431h.21l1.55-.08V405.15H53.25A.65.65,0,0,1,52.78,405Z" fill="#004e2a"/>
          <path d="M53.14,298.87a3.87,3.87,0,0,0-3.44,2.62L34.94,343.76a3.94,3.94,0,0,0,.93,4.06L50.24,362.2A3.91,3.91,0,0,0,53,363.35l.39,0,1.47-.15V298.76Z" fill="#004e2a"/>
        </g>
      </g>
      <g>
        <g>
          <path d="M533.18,401.13v80.64a9.06,9.06,0,0,1-9.06,9.06h-8.88V401.13Z" fill="#8a5d3b"/>
          <path d="M515.24,401.13v89.71h-8.88a9.06,9.06,0,0,1-9.06-9.06V401.13Z" fill="#68462c"/>
        </g>
        <g>
          <path d="M614.12,403.6l-26.83-76.85a6.7,6.7,0,0,0-11.22-2.36l-58.13,62.18a1.65,1.65,0,0,1-1.23.53h-2.5v25.4H607.8a6.7,6.7,0,0,0,6.32-8.9Z" fill="#006838"/>
          <path d="M521.41,325.47l44.88-48h0a6.67,6.67,0,0,0,1.42-6.78l-12.47-35.73a6.7,6.7,0,0,0-11.38-2.19L518,262.52a1.67,1.67,0,0,1-1.28.58h-2.5v64.61l2.62-.12A6.64,6.64,0,0,0,521.41,325.47Z" fill="#006838"/>
          <path d="M521.41,378.47,579.76,316h0a6.7,6.7,0,0,0,1.43-6.78l-7.37-21.11a6.7,6.7,0,0,0-11.22-2.36l-44.66,47.77a1.65,1.65,0,0,1-1.23.53h-2.5v46.61l2.62-.12A6.64,6.64,0,0,0,521.41,378.47Z" fill="#006838"/>
          <path d="M521.35,254.07l26.4-30.34a6.69,6.69,0,0,0,1.27-6.61l-25.69-73.57a6.65,6.65,0,0,0-6.77-4.49l-2.34.15V256.64l2.77-.3A6.76,6.76,0,0,0,521.35,254.07Z" fill="#006838"/>
        </g>
        <g>
          <path d="M607.8,410H516.71V389.6a4.16,4.16,0,0,0,3.06-1.33l58.13-62.18a4.2,4.2,0,0,1,7,1.48l26.83,76.85A4.2,4.2,0,0,1,607.8,410Z" stroke-miterlimit="10" stroke-width="6" fill="url(#_10_dpi_30_)" stroke="url(#_10_dpi_30_3)"/>
          <path d="M564.46,275.75l-44.88,48a4.17,4.17,0,0,1-2.87,1.33V265.6a4.19,4.19,0,0,0,3.16-1.44l25.88-29.76a4.2,4.2,0,0,1,7.13,1.37l12.47,35.73A4.2,4.2,0,0,1,564.46,275.75Z" stroke-miterlimit="10" stroke-width="6" fill="url(#_10_dpi_30_)" stroke="url(#_10_dpi_30_3)"/>
          <path d="M577.93,314.34l-58.35,62.42a4.17,4.17,0,0,1-2.87,1.33V336.6a4.16,4.16,0,0,0,3.06-1.33l44.66-47.77a4.2,4.2,0,0,1,7,1.48l7.37,21.11A4.22,4.22,0,0,1,577.93,314.34Z" stroke-miterlimit="10" stroke-width="6" fill="url(#_10_dpi_30_)" stroke="url(#_10_dpi_30_3)"/>
          <path d="M545.86,222.08l-26.4,30.35a4.24,4.24,0,0,1-2.75,1.43V141.55a4.14,4.14,0,0,1,4.25,2.81l25.69,73.58A4.18,4.18,0,0,1,545.86,222.08Z" stroke-miterlimit="10" stroke-width="6" fill="url(#_10_dpi_30_)" stroke="url(#_10_dpi_30_3)"/>
        </g>
        <g>
          <path d="M511.86,386.25l-58.95-58.94A7.19,7.19,0,0,0,441,330l-25.63,73.4a7.2,7.2,0,0,0,6.8,9.57h93.51V386.6h-3A1.2,1.2,0,0,1,511.86,386.25Z" fill="#004e2a"/>
          <path d="M511.85,262.25,485,235.4a7.19,7.19,0,0,0-11.89,2.72l-12.37,35.44a7.16,7.16,0,0,0,1.7,7.46l45,45a7.18,7.18,0,0,0,5.07,2.1h.38l2.84-.15V262.6h-3A1.18,1.18,0,0,1,511.85,262.25Z" fill="#004e2a"/>
          <path d="M511.86,333.25,466.63,288a7.19,7.19,0,0,0-11.88,2.71L447,312.84a7.23,7.23,0,0,0,1.71,7.46L507.42,379a7.18,7.18,0,0,0,5.07,2.1h.38l2.84-.15V333.6h-3A1.2,1.2,0,0,1,511.86,333.25Z" fill="#004e2a"/>
          <path d="M512.52,138.56a7.09,7.09,0,0,0-6.32,4.82l-27.08,77.56a7.24,7.24,0,0,0,1.71,7.46l26.37,26.38a7.18,7.18,0,0,0,5.09,2.11c.24,0,.48,0,.72,0l2.7-.27V138.35Z" fill="#004e2a"/>
        </g>
      </g>
    </g>
  </g>
</svg>
