<svg xmlns="http://www.w3.org/2000/svg" xmlns:xlink="http://www.w3.org/1999/xlink" width="1051.37" height="355.84" viewBox="0 0 1051.37 355.84">
  <defs>
    <pattern id="_10_dpi_30_" data-name="10 dpi 30%" width="28.8" height="28.8" patternTransform="translate(0.15)" patternUnits="userSpaceOnUse" viewBox="0 0 28.8 28.8">
      <rect width="28.8" height="28.8" fill="none"/>
      <g>
        <circle cx="28.8" cy="28.8" r="2.16" fill="#004000"/>
        <circle cx="14.4" cy="28.8" r="2.16" fill="#004000"/>
        <circle cx="28.8" cy="14.4" r="2.16" fill="#004000"/>
        <circle cx="14.4" cy="14.4" r="2.16" fill="#004000"/>
        <circle cx="7.2" cy="21.6" r="2.16" fill="#004000"/>
        <circle cx="21.6" cy="21.6" r="2.16" fill="#004000"/>
        <circle cx="7.2" cy="7.2" r="2.16" fill="#004000"/>
        <circle cx="21.6" cy="7.2" r="2.16" fill="#004000"/>
      </g>
      <g>
        <circle cy="28.8" r="2.16" fill="#004000"/>
        <circle cy="14.4" r="2.16" fill="#004000"/>
      </g>
      <g>
        <circle cx="28.8" r="2.16" fill="#004000"/>
        <circle cx="14.4" r="2.16" fill="#004000"/>
      </g>
      <circle r="2.16" fill="#004000"/>
    </pattern>
  </defs>
  <title>trees_lg_s2</title>
  <g id="Layer_2" data-name="Layer 2">
    <g id="Layer_3_Vege_2" data-name="Layer_3_Vege/2">
      <g>
        <g>
          <path d="M590.42,266.13v80.64a9.06,9.06,0,0,1-9.06,9.06h-8.88V266.13Z" fill="#8a5d3b"/>
          <path d="M572.47,266.13v89.71H563.6a9.06,9.06,0,0,1-9.06-9.06V266.13Z" fill="#68462c"/>
        </g>
        <path d="M572.38,0V297.05H466.68a6.67,6.67,0,0,1-5.77-10l45.27-78.41a6.68,6.68,0,0,0-5.77-10h-11.9a6.65,6.65,0,0,1-5.77-10l36.45-63.12a6.69,6.69,0,0,0-5.8-10,6.68,6.68,0,0,1-6.67-6.7,6.53,6.53,0,0,1,.9-3.32l59-102.12A6.63,6.63,0,0,1,572.38,0Z" fill="#004e2a"/>
        <path d="M572.38,0V297.05H466.68a6.67,6.67,0,0,1-5.77-10l45.27-78.41a6.68,6.68,0,0,0-5.77-10h-11.9a6.65,6.65,0,0,1-5.77-10l36.45-63.12a6.69,6.69,0,0,0-5.8-10,6.68,6.68,0,0,1-6.67-6.7,6.53,6.53,0,0,1,.9-3.32l59-102.12A6.63,6.63,0,0,1,572.38,0Z" fill="url(#_10_dpi_30_)"/>
        <path d="M678.06,297.05H572.38V0a6.61,6.61,0,0,1,5.77,3.35l59,102.12a6.67,6.67,0,0,1-5.77,10h0a6.68,6.68,0,0,0-5.77,10L662,188.63a6.67,6.67,0,0,1-5.8,10H644.36a6.68,6.68,0,0,0-5.8,10L683.83,287A6.67,6.67,0,0,1,678.06,297.05Z" fill="#006838"/>
      </g>
      <g>
        <g>
          <path d="M971.89,280.25v68a7.64,7.64,0,0,1-7.64,7.64h-7.48V280.25Z" fill="#8a5d3b"/>
          <path d="M956.77,280.25v75.59h-7.48a7.64,7.64,0,0,1-7.64-7.64v-68Z" fill="#68462c"/>
        </g>
        <path d="M956.7,56V306.31H867.63a5.62,5.62,0,0,1-4.86-8.44l38.15-66.07a5.63,5.63,0,0,0-4.86-8.44H886a5.61,5.61,0,0,1-4.86-8.42l30.71-53.19a5.64,5.64,0,0,0-4.89-8.44,5.63,5.63,0,0,1-5.62-5.64,5.5,5.5,0,0,1,.76-2.8l49.69-86A5.58,5.58,0,0,1,956.7,56Z" fill="#004e2a"/>
        <path d="M956.7,56V306.31H867.63a5.62,5.62,0,0,1-4.86-8.44l38.15-66.07a5.63,5.63,0,0,0-4.86-8.44H886a5.61,5.61,0,0,1-4.86-8.42l30.71-53.19a5.64,5.64,0,0,0-4.89-8.44,5.63,5.63,0,0,1-5.62-5.64,5.5,5.5,0,0,1,.76-2.8l49.69-86A5.58,5.58,0,0,1,956.7,56Z" fill="url(#_10_dpi_30_)"/>
        <path d="M1045.74,306.31h-89V56a5.57,5.57,0,0,1,4.86,2.82l49.69,86a5.62,5.62,0,0,1-4.86,8.44h0a5.63,5.63,0,0,0-4.86,8.44l30.71,53.19a5.62,5.62,0,0,1-4.89,8.42h-10a5.63,5.63,0,0,0-4.89,8.44l38.15,66.07A5.62,5.62,0,0,1,1045.74,306.31Z" fill="#006838"/>
      </g>
      <g>
        <g>
          <path d="M88.6,294.9v54.79a6.16,6.16,0,0,1-6.16,6.16h-6V294.9Z" fill="#8a5d3b"/>
          <path d="M76.41,294.9v60.95h-6a6.16,6.16,0,0,1-6.16-6.16V294.9Z" fill="#68462c"/>
        </g>
        <path d="M76.35,114.08V315.9H4.54A4.53,4.53,0,0,1,.62,309.1l30.76-53.27A4.54,4.54,0,0,0,27.45,249H19.37a4.52,4.52,0,0,1-3.92-6.79l24.76-42.89a4.55,4.55,0,0,0-3.94-6.81A4.54,4.54,0,0,1,31.74,188a4.43,4.43,0,0,1,.61-2.26l40.06-69.38A4.5,4.5,0,0,1,76.35,114.08Z" fill="#004e2a"/>
        <path d="M76.35,114.08V315.9H4.54A4.53,4.53,0,0,1,.62,309.1l30.76-53.27A4.54,4.54,0,0,0,27.45,249H19.37a4.52,4.52,0,0,1-3.92-6.79l24.76-42.89a4.55,4.55,0,0,0-3.94-6.81A4.54,4.54,0,0,1,31.74,188a4.43,4.43,0,0,1,.61-2.26l40.06-69.38A4.5,4.5,0,0,1,76.35,114.08Z" fill="url(#_10_dpi_30_)"/>
        <path d="M148.15,315.9H76.35V114.08a4.49,4.49,0,0,1,3.92,2.28l40.06,69.38a4.53,4.53,0,0,1-3.92,6.81h0a4.54,4.54,0,0,0-3.92,6.81l24.76,42.89A4.53,4.53,0,0,1,133.3,249h-8a4.54,4.54,0,0,0-3.94,6.81l30.76,53.27A4.53,4.53,0,0,1,148.15,315.9Z" fill="#006838"/>
      </g>
    </g>
  </g>
</svg>
