<svg xmlns="http://www.w3.org/2000/svg" xmlns:xlink="http://www.w3.org/1999/xlink" width="938.52" height="201.01" viewBox="0 0 938.52 201.01">
  <defs>
    <pattern id="_10_dpi_30_" data-name="10 dpi 30%" width="28.8" height="28.8" patternTransform="translate(0.15)" patternUnits="userSpaceOnUse" viewBox="0 0 28.8 28.8">
      <rect width="28.8" height="28.8" fill="none"/>
      <g>
        <circle cx="28.8" cy="28.8" r="2.16" fill="#004000"/>
        <circle cx="14.4" cy="28.8" r="2.16" fill="#004000"/>
        <circle cx="28.8" cy="14.4" r="2.16" fill="#004000"/>
        <circle cx="14.4" cy="14.4" r="2.16" fill="#004000"/>
        <circle cx="7.2" cy="21.6" r="2.16" fill="#004000"/>
        <circle cx="21.6" cy="21.6" r="2.16" fill="#004000"/>
        <circle cx="7.2" cy="7.2" r="2.16" fill="#004000"/>
        <circle cx="21.6" cy="7.2" r="2.16" fill="#004000"/>
      </g>
      <g>
        <circle cy="28.8" r="2.16" fill="#004000"/>
        <circle cy="14.4" r="2.16" fill="#004000"/>
      </g>
      <g>
        <circle cx="28.8" r="2.16" fill="#004000"/>
        <circle cx="14.4" r="2.16" fill="#004000"/>
      </g>
      <circle r="2.16" fill="#004000"/>
    </pattern>
  </defs>
  <title>trees_md_s2</title>
  <g id="Layer_2" data-name="Layer 2">
    <g id="Layer_3_Vege_2" data-name="Layer_3_Vege/2">
      <g>
        <g>
          <path d="M885.23,150.33v45.55a5.12,5.12,0,0,1-5.12,5.12h-5V150.33Z" fill="#8a5d3b"/>
          <path d="M875.1,150.33V201h-5a5.12,5.12,0,0,1-5.12-5.12V150.33Z" fill="#68462c"/>
        </g>
        <path d="M875,0V167.8H815.34a3.77,3.77,0,0,1-3.26-5.66l25.57-44.29a3.77,3.77,0,0,0-3.26-5.66h-6.72a3.76,3.76,0,0,1-3.26-5.64L845,70.89a3.78,3.78,0,0,0-3.28-5.66A3.77,3.77,0,0,1,838,61.45a3.69,3.69,0,0,1,.51-1.88L871.77,1.89A3.74,3.74,0,0,1,875,0Z" fill="#004e2a"/>
        <path d="M875,0V167.8H815.34a3.77,3.77,0,0,1-3.26-5.66l25.57-44.29a3.77,3.77,0,0,0-3.26-5.66h-6.72a3.76,3.76,0,0,1-3.26-5.64L845,70.89a3.78,3.78,0,0,0-3.28-5.66A3.77,3.77,0,0,1,838,61.45a3.69,3.69,0,0,1,.51-1.88L871.77,1.89A3.74,3.74,0,0,1,875,0Z" fill="url(#_10_dpi_30_)"/>
        <path d="M934.74,167.8H875V0a3.73,3.73,0,0,1,3.26,1.89l33.31,57.68a3.77,3.77,0,0,1-3.26,5.66h0a3.77,3.77,0,0,0-3.26,5.66l20.59,35.66a3.77,3.77,0,0,1-3.28,5.64h-6.69a3.78,3.78,0,0,0-3.28,5.66L938,162.14A3.77,3.77,0,0,1,934.74,167.8Z" fill="#006838"/>
      </g>
      <g>
        <g>
          <path d="M747.71,157.18v39.4a4.43,4.43,0,0,1-4.43,4.43h-4.34V157.18Z" fill="#8a5d3b"/>
          <path d="M738.95,157.18V201h-4.34a4.43,4.43,0,0,1-4.43-4.43v-39.4Z" fill="#68462c"/>
        </g>
        <path d="M738.9,27.16V172.28H687.26a3.26,3.26,0,0,1-2.82-4.89l22.12-38.3a3.26,3.26,0,0,0-2.82-4.89h-5.81a3.25,3.25,0,0,1-2.82-4.88l17.81-30.84a3.27,3.27,0,0,0-2.83-4.89,3.26,3.26,0,0,1-3.26-3.27,3.19,3.19,0,0,1,.44-1.62L736.07,28.8A3.24,3.24,0,0,1,738.9,27.16Z" fill="#004e2a"/>
        <path d="M738.9,27.16V172.28H687.26a3.26,3.26,0,0,1-2.82-4.89l22.12-38.3a3.26,3.26,0,0,0-2.82-4.89h-5.81a3.25,3.25,0,0,1-2.82-4.88l17.81-30.84a3.27,3.27,0,0,0-2.83-4.89,3.26,3.26,0,0,1-3.26-3.27,3.19,3.19,0,0,1,.44-1.62L736.07,28.8A3.24,3.24,0,0,1,738.9,27.16Z" fill="url(#_10_dpi_30_)"/>
        <path d="M790.53,172.28H738.9V27.16a3.23,3.23,0,0,1,2.82,1.64l28.81,49.89a3.26,3.26,0,0,1-2.82,4.89h0a3.26,3.26,0,0,0-2.82,4.89l17.81,30.84a3.26,3.26,0,0,1-2.83,4.88h-5.78a3.27,3.27,0,0,0-2.83,4.89l22.12,38.3A3.26,3.26,0,0,1,790.53,172.28Z" fill="#006838"/>
      </g>
      <g>
        <g>
          <path d="M411.23,150.33v45.55a5.12,5.12,0,0,1-5.12,5.12h-5V150.33Z" fill="#8a5d3b"/>
          <path d="M401.1,150.33V201h-5a5.12,5.12,0,0,1-5.12-5.12V150.33Z" fill="#68462c"/>
        </g>
        <path d="M401,0V167.8H341.34a3.77,3.77,0,0,1-3.26-5.66l25.57-44.29a3.77,3.77,0,0,0-3.26-5.66h-6.72a3.76,3.76,0,0,1-3.26-5.64L371,70.89a3.78,3.78,0,0,0-3.28-5.66A3.77,3.77,0,0,1,364,61.45a3.69,3.69,0,0,1,.51-1.88L397.77,1.89A3.74,3.74,0,0,1,401,0Z" fill="#004e2a"/>
        <path d="M401,0V167.8H341.34a3.77,3.77,0,0,1-3.26-5.66l25.57-44.29a3.77,3.77,0,0,0-3.26-5.66h-6.72a3.76,3.76,0,0,1-3.26-5.64L371,70.89a3.78,3.78,0,0,0-3.28-5.66A3.77,3.77,0,0,1,364,61.45a3.69,3.69,0,0,1,.51-1.88L397.77,1.89A3.74,3.74,0,0,1,401,0Z" fill="url(#_10_dpi_30_)"/>
        <path d="M460.74,167.8H401V0a3.73,3.73,0,0,1,3.26,1.89l33.31,57.68a3.77,3.77,0,0,1-3.26,5.66h0a3.77,3.77,0,0,0-3.26,5.66l20.59,35.66a3.77,3.77,0,0,1-3.28,5.64h-6.69a3.78,3.78,0,0,0-3.28,5.66L464,162.14A3.77,3.77,0,0,1,460.74,167.8Z" fill="#006838"/>
      </g>
      <g>
        <g>
          <path d="M52,165.25v32.15A3.61,3.61,0,0,1,48.37,201H44.83V165.25Z" fill="#8a5d3b"/>
          <path d="M44.83,165.25V201H41.29a3.61,3.61,0,0,1-3.61-3.61V165.25Z" fill="#68462c"/>
        </g>
        <path d="M44.8,59.16V177.57H2.66a2.66,2.66,0,0,1-2.3-4l18-31.25a2.66,2.66,0,0,0-2.3-4H11.36a2.65,2.65,0,0,1-2.3-4l14.53-25.16a2.67,2.67,0,0,0-2.31-4,2.66,2.66,0,0,1-2.66-2.67A2.6,2.6,0,0,1,19,101.2L42.49,60.5A2.64,2.64,0,0,1,44.8,59.16Z" fill="#004e2a"/>
        <path d="M44.8,59.16V177.57H2.66a2.66,2.66,0,0,1-2.3-4l18-31.25a2.66,2.66,0,0,0-2.3-4H11.36a2.65,2.65,0,0,1-2.3-4l14.53-25.16a2.67,2.67,0,0,0-2.31-4,2.66,2.66,0,0,1-2.66-2.67A2.6,2.6,0,0,1,19,101.2L42.49,60.5A2.64,2.64,0,0,1,44.8,59.16Z" fill="url(#_10_dpi_30_)"/>
        <path d="M86.92,177.57H44.8V59.16a2.63,2.63,0,0,1,2.3,1.33L70.6,101.2a2.66,2.66,0,0,1-2.3,4h0a2.66,2.66,0,0,0-2.3,4l14.53,25.16a2.66,2.66,0,0,1-2.31,4H73.49a2.66,2.66,0,0,0-2.31,4l18,31.25A2.66,2.66,0,0,1,86.92,177.57Z" fill="#006838"/>
      </g>
      <g>
        <g>
          <path d="M287.71,157.18v39.4a4.43,4.43,0,0,1-4.43,4.43h-4.34V157.18Z" fill="#8a5d3b"/>
          <path d="M278.95,157.18V201h-4.34a4.43,4.43,0,0,1-4.43-4.43v-39.4Z" fill="#68462c"/>
        </g>
        <path d="M278.9,27.16V172.28H227.26a3.26,3.26,0,0,1-2.82-4.89l22.12-38.3a3.26,3.26,0,0,0-2.82-4.89h-5.81a3.25,3.25,0,0,1-2.82-4.88l17.81-30.84a3.27,3.27,0,0,0-2.83-4.89,3.26,3.26,0,0,1-3.26-3.27,3.19,3.19,0,0,1,.44-1.62L276.07,28.8A3.24,3.24,0,0,1,278.9,27.16Z" fill="#004e2a"/>
        <path d="M278.9,27.16V172.28H227.26a3.26,3.26,0,0,1-2.82-4.89l22.12-38.3a3.26,3.26,0,0,0-2.82-4.89h-5.81a3.25,3.25,0,0,1-2.82-4.88l17.81-30.84a3.27,3.27,0,0,0-2.83-4.89,3.26,3.26,0,0,1-3.26-3.27,3.19,3.19,0,0,1,.44-1.62L276.07,28.8A3.24,3.24,0,0,1,278.9,27.16Z" fill="url(#_10_dpi_30_)"/>
        <path d="M330.53,172.28H278.9V27.16a3.23,3.23,0,0,1,2.82,1.64l28.81,49.89a3.26,3.26,0,0,1-2.82,4.89h0a3.26,3.26,0,0,0-2.82,4.89l17.81,30.84a3.26,3.26,0,0,1-2.83,4.88h-5.78a3.27,3.27,0,0,0-2.83,4.89l22.12,38.3A3.26,3.26,0,0,1,330.53,172.28Z" fill="#006838"/>
      </g>
    </g>
  </g>
</svg>
