<svg xmlns="http://www.w3.org/2000/svg" xmlns:xlink="http://www.w3.org/1999/xlink" width="1356.75" height="166.52" viewBox="0 0 1356.75 166.52">
  <defs>
    <pattern id="_10_dpi_30_" data-name="10 dpi 30%" width="28.8" height="28.8" patternTransform="translate(0.15)" patternUnits="userSpaceOnUse" viewBox="0 0 28.8 28.8">
      <rect width="28.8" height="28.8" fill="none"/>
      <g>
        <circle cx="28.8" cy="28.8" r="2.16" fill="#004000"/>
        <circle cx="14.4" cy="28.8" r="2.16" fill="#004000"/>
        <circle cx="28.8" cy="14.4" r="2.16" fill="#004000"/>
        <circle cx="14.4" cy="14.4" r="2.16" fill="#004000"/>
        <circle cx="7.2" cy="21.6" r="2.16" fill="#004000"/>
        <circle cx="21.6" cy="21.6" r="2.16" fill="#004000"/>
        <circle cx="7.2" cy="7.2" r="2.16" fill="#004000"/>
        <circle cx="21.6" cy="7.2" r="2.16" fill="#004000"/>
      </g>
      <g>
        <circle cy="28.8" r="2.16" fill="#004000"/>
        <circle cy="14.4" r="2.16" fill="#004000"/>
      </g>
      <g>
        <circle cx="28.8" r="2.16" fill="#004000"/>
        <circle cx="14.4" r="2.16" fill="#004000"/>
      </g>
      <circle r="2.16" fill="#004000"/>
    </pattern>
  </defs>
  <title>tress_med_s</title>
  <g id="Layer_2" data-name="Layer 2">
    <g id="Layer_3_Vege_2" data-name="Layer_3_Vege/2">
      <g>
        <g>
          <path d="M1326.84,138.08v25.57a2.87,2.87,0,0,1-2.87,2.87h-2.82V138.08Z" fill="#8a5d3b"/>
          <path d="M1321.15,138.08v28.45h-2.82a2.87,2.87,0,0,1-2.87-2.87V138.08Z" fill="#68462c"/>
        </g>
        <path d="M1321.12,53.68v94.2H1287.6a2.12,2.12,0,0,1-1.83-3.18l14.36-24.86a2.12,2.12,0,0,0-1.83-3.18h-3.77a2.11,2.11,0,0,1-1.83-3.17l11.56-20a2.12,2.12,0,0,0-1.84-3.18,2.12,2.12,0,0,1-2.11-2.12,2.07,2.07,0,0,1,.28-1.05l18.7-32.38A2.1,2.1,0,0,1,1321.12,53.68Z" fill="#004e2a"/>
        <path d="M1321.12,53.68v94.2H1287.6a2.12,2.12,0,0,1-1.83-3.18l14.36-24.86a2.12,2.12,0,0,0-1.83-3.18h-3.77a2.11,2.11,0,0,1-1.83-3.17l11.56-20a2.12,2.12,0,0,0-1.84-3.18,2.12,2.12,0,0,1-2.11-2.12,2.07,2.07,0,0,1,.28-1.05l18.7-32.38A2.1,2.1,0,0,1,1321.12,53.68Z" fill="url(#_10_dpi_30_)"/>
        <path d="M1354.63,147.88h-33.51V53.68a2.1,2.1,0,0,1,1.83,1.06l18.7,32.38a2.12,2.12,0,0,1-1.83,3.18h0a2.12,2.12,0,0,0-1.83,3.18l11.56,20a2.11,2.11,0,0,1-1.84,3.17h-3.76a2.12,2.12,0,0,0-1.84,3.18l14.36,24.86A2.12,2.12,0,0,1,1354.63,147.88Z" fill="#006838"/>
      </g>
      <g>
        <g>
          <path d="M1193.47,130.77v32.15a3.61,3.61,0,0,1-3.61,3.61h-3.54V130.77Z" fill="#8a5d3b"/>
          <path d="M1186.32,130.77v35.76h-3.54a3.61,3.61,0,0,1-3.61-3.61V130.77Z" fill="#68462c"/>
        </g>
        <path d="M1186.28,24.68V143.09h-42.14a2.66,2.66,0,0,1-2.3-4l18-31.25a2.66,2.66,0,0,0-2.3-4h-4.74a2.65,2.65,0,0,1-2.3-4l14.53-25.16a2.67,2.67,0,0,0-2.31-4,2.66,2.66,0,0,1-2.66-2.67,2.6,2.6,0,0,1,.36-1.32L1184,26A2.64,2.64,0,0,1,1186.28,24.68Z" fill="#004e2a"/>
        <path d="M1186.28,24.68V143.09h-42.14a2.66,2.66,0,0,1-2.3-4l18-31.25a2.66,2.66,0,0,0-2.3-4h-4.74a2.65,2.65,0,0,1-2.3-4l14.53-25.16a2.67,2.67,0,0,0-2.31-4,2.66,2.66,0,0,1-2.66-2.67,2.6,2.6,0,0,1,.36-1.32L1184,26A2.64,2.64,0,0,1,1186.28,24.68Z" fill="url(#_10_dpi_30_)"/>
        <path d="M1228.41,143.09h-42.12V24.68a2.63,2.63,0,0,1,2.3,1.33l23.51,40.71a2.66,2.66,0,0,1-2.3,4h0a2.66,2.66,0,0,0-2.3,4L1222,99.87a2.66,2.66,0,0,1-2.31,4H1215a2.66,2.66,0,0,0-2.31,4l18,31.25A2.66,2.66,0,0,1,1228.41,143.09Z" fill="#006838"/>
      </g>
      <g>
        <g>
          <path d="M369,124.54v37.74a4.24,4.24,0,0,1-4.24,4.24h-4.15v-42Z" fill="#8a5d3b"/>
          <path d="M360.63,124.54v42h-4.15a4.24,4.24,0,0,1-4.24-4.24V124.54Z" fill="#68462c"/>
        </g>
        <path d="M360.59,0V139H311.13a3.12,3.12,0,0,1-2.7-4.69l21.19-36.69a3.13,3.13,0,0,0-2.7-4.69h-5.57a3.11,3.11,0,0,1-2.7-4.67L335.7,58.73A3.13,3.13,0,0,0,333,54a3.13,3.13,0,0,1-3.12-3.13,3.05,3.05,0,0,1,.42-1.55l27.6-47.79A3.1,3.1,0,0,1,360.59,0Z" fill="#004e2a"/>
        <path d="M360.59,0V139H311.13a3.12,3.12,0,0,1-2.7-4.69l21.19-36.69a3.13,3.13,0,0,0-2.7-4.69h-5.57a3.11,3.11,0,0,1-2.7-4.67L335.7,58.73A3.13,3.13,0,0,0,333,54a3.13,3.13,0,0,1-3.12-3.13,3.05,3.05,0,0,1,.42-1.55l27.6-47.79A3.1,3.1,0,0,1,360.59,0Z" fill="url(#_10_dpi_30_)"/>
        <path d="M410,139H360.59V0a3.09,3.09,0,0,1,2.7,1.57l27.6,47.79a3.12,3.12,0,0,1-2.7,4.69h0a3.13,3.13,0,0,0-2.7,4.69l17.06,29.54a3.12,3.12,0,0,1-2.71,4.67h-5.54a3.13,3.13,0,0,0-2.71,4.69l21.19,36.69A3.12,3.12,0,0,1,410,139Z" fill="#006838"/>
      </g>
      <g>
        <g>
          <path d="M61,124.54v37.74a4.24,4.24,0,0,1-4.24,4.24H52.63v-42Z" fill="#8a5d3b"/>
          <path d="M52.63,124.54v42H48.48a4.24,4.24,0,0,1-4.24-4.24V124.54Z" fill="#68462c"/>
        </g>
        <path d="M52.59,0V139H3.13a3.12,3.12,0,0,1-2.7-4.69L21.61,97.63a3.13,3.13,0,0,0-2.7-4.69H13.34a3.11,3.11,0,0,1-2.7-4.67L27.7,58.73A3.13,3.13,0,0,0,25,54a3.13,3.13,0,0,1-3.12-3.13,3.05,3.05,0,0,1,.42-1.55L49.88,1.57A3.1,3.1,0,0,1,52.59,0Z" fill="#004e2a"/>
        <path d="M52.59,0V139H3.13a3.12,3.12,0,0,1-2.7-4.69L21.61,97.63a3.13,3.13,0,0,0-2.7-4.69H13.34a3.11,3.11,0,0,1-2.7-4.67L27.7,58.73A3.13,3.13,0,0,0,25,54a3.13,3.13,0,0,1-3.12-3.13,3.05,3.05,0,0,1,.42-1.55L49.88,1.57A3.1,3.1,0,0,1,52.59,0Z" fill="url(#_10_dpi_30_)"/>
        <path d="M102,139H52.59V0a3.09,3.09,0,0,1,2.7,1.57l27.6,47.79A3.12,3.12,0,0,1,80.19,54h0a3.13,3.13,0,0,0-2.7,4.69L94.53,88.27a3.12,3.12,0,0,1-2.71,4.67H86.28a3.13,3.13,0,0,0-2.71,4.69l21.19,36.69A3.12,3.12,0,0,1,102,139Z" fill="#006838"/>
      </g>
    </g>
  </g>
</svg>
