<svg xmlns="http://www.w3.org/2000/svg" xmlns:xlink="http://www.w3.org/1999/xlink" width="1936.75" height="129.8" viewBox="0 0 1936.75 129.8">
  <defs>
    <pattern id="_10_dpi_30_" data-name="10 dpi 30%" width="28.8" height="28.8" patternTransform="translate(0.15)" patternUnits="userSpaceOnUse" viewBox="0 0 28.8 28.8">
      <rect width="28.8" height="28.8" fill="none"/>
      <g>
        <circle cx="28.8" cy="28.8" r="2.16" fill="#004000"/>
        <circle cx="14.4" cy="28.8" r="2.16" fill="#004000"/>
        <circle cx="28.8" cy="14.4" r="2.16" fill="#004000"/>
        <circle cx="14.4" cy="14.4" r="2.16" fill="#004000"/>
        <circle cx="7.2" cy="21.6" r="2.16" fill="#004000"/>
        <circle cx="21.6" cy="21.6" r="2.16" fill="#004000"/>
        <circle cx="7.2" cy="7.2" r="2.16" fill="#004000"/>
        <circle cx="21.6" cy="7.2" r="2.16" fill="#004000"/>
      </g>
      <g>
        <circle cy="28.8" r="2.16" fill="#004000"/>
        <circle cy="14.4" r="2.16" fill="#004000"/>
      </g>
      <g>
        <circle cx="28.8" r="2.16" fill="#004000"/>
        <circle cx="14.4" r="2.16" fill="#004000"/>
      </g>
      <circle r="2.16" fill="#004000"/>
    </pattern>
  </defs>
  <title>tress_sm_s</title>
  <g id="Layer_2" data-name="Layer 2">
    <g id="Layer_3_Vege_2" data-name="Layer_3_Vege/2">
      <g>
        <g>
          <path d="M822.84,101.35v25.57A2.87,2.87,0,0,1,820,129.8h-2.82V101.35Z" fill="#8a5d3b"/>
          <path d="M817.15,101.35V129.8h-2.82a2.87,2.87,0,0,1-2.87-2.87V101.35Z" fill="#68462c"/>
        </g>
        <path d="M817.12,17v94.2H783.6a2.12,2.12,0,0,1-1.83-3.18l14.36-24.86a2.12,2.12,0,0,0-1.83-3.18h-3.77a2.11,2.11,0,0,1-1.83-3.17l11.56-20a2.12,2.12,0,0,0-1.84-3.18,2.12,2.12,0,0,1-2.11-2.12,2.07,2.07,0,0,1,.28-1.05L815.28,18A2.1,2.1,0,0,1,817.12,17Z" fill="#004e2a"/>
        <path d="M817.12,17v94.2H783.6a2.12,2.12,0,0,1-1.83-3.18l14.36-24.86a2.12,2.12,0,0,0-1.83-3.18h-3.77a2.11,2.11,0,0,1-1.83-3.17l11.56-20a2.12,2.12,0,0,0-1.84-3.18,2.12,2.12,0,0,1-2.11-2.12,2.07,2.07,0,0,1,.28-1.05L815.28,18A2.1,2.1,0,0,1,817.12,17Z" fill="url(#_10_dpi_30_)"/>
        <path d="M850.63,111.15H817.12V17A2.1,2.1,0,0,1,819,18l18.7,32.38a2.12,2.12,0,0,1-1.83,3.18h0A2.12,2.12,0,0,0,834,56.75l11.56,20a2.11,2.11,0,0,1-1.84,3.17h-3.76a2.12,2.12,0,0,0-1.84,3.18L852.46,108A2.12,2.12,0,0,1,850.63,111.15Z" fill="#006838"/>
      </g>
      <g>
        <g>
          <path d="M1529.84,101.35v25.57a2.87,2.87,0,0,1-2.87,2.87h-2.82V101.35Z" fill="#8a5d3b"/>
          <path d="M1524.15,101.35V129.8h-2.82a2.87,2.87,0,0,1-2.87-2.87V101.35Z" fill="#68462c"/>
        </g>
        <path d="M1524.12,17v94.2H1490.6a2.12,2.12,0,0,1-1.83-3.18l14.36-24.86a2.12,2.12,0,0,0-1.83-3.18h-3.77a2.11,2.11,0,0,1-1.83-3.17l11.56-20a2.12,2.12,0,0,0-1.84-3.18,2.12,2.12,0,0,1-2.11-2.12,2.07,2.07,0,0,1,.28-1.05L1522.28,18A2.1,2.1,0,0,1,1524.12,17Z" fill="#004e2a"/>
        <path d="M1524.12,17v94.2H1490.6a2.12,2.12,0,0,1-1.83-3.18l14.36-24.86a2.12,2.12,0,0,0-1.83-3.18h-3.77a2.11,2.11,0,0,1-1.83-3.17l11.56-20a2.12,2.12,0,0,0-1.84-3.18,2.12,2.12,0,0,1-2.11-2.12,2.07,2.07,0,0,1,.28-1.05L1522.28,18A2.1,2.1,0,0,1,1524.12,17Z" fill="url(#_10_dpi_30_)"/>
        <path d="M1557.63,111.15h-33.51V17A2.1,2.1,0,0,1,1526,18l18.7,32.38a2.12,2.12,0,0,1-1.83,3.18h0a2.12,2.12,0,0,0-1.83,3.18l11.56,20a2.11,2.11,0,0,1-1.84,3.17h-3.76a2.12,2.12,0,0,0-1.84,3.18L1559.46,108A2.12,2.12,0,0,1,1557.63,111.15Z" fill="#006838"/>
      </g>
      <g>
        <g>
          <path d="M627.84,97.58v29a3.25,3.25,0,0,1-3.25,3.25h-3.19V97.58Z" fill="#8a5d3b"/>
          <path d="M621.39,97.58V129.8h-3.19a3.25,3.25,0,0,1-3.25-3.25v-29Z" fill="#68462c"/>
        </g>
        <path d="M621.36,2V108.68h-38a2.4,2.4,0,0,1-2.07-3.6l16.26-28.16a2.4,2.4,0,0,0-2.07-3.6h-4.27a2.39,2.39,0,0,1-2.07-3.59l13.09-22.67a2.4,2.4,0,0,0-2.08-3.6,2.4,2.4,0,0,1-2.39-2.41,2.34,2.34,0,0,1,.32-1.19L619.28,3.2A2.38,2.38,0,0,1,621.36,2Z" fill="#004e2a"/>
        <path d="M621.36,2V108.68h-38a2.4,2.4,0,0,1-2.07-3.6l16.26-28.16a2.4,2.4,0,0,0-2.07-3.6h-4.27a2.39,2.39,0,0,1-2.07-3.59l13.09-22.67a2.4,2.4,0,0,0-2.08-3.6,2.4,2.4,0,0,1-2.39-2.41,2.34,2.34,0,0,1,.32-1.19L619.28,3.2A2.38,2.38,0,0,1,621.36,2Z" fill="url(#_10_dpi_30_)"/>
        <path d="M659.31,108.68h-38V2a2.37,2.37,0,0,1,2.07,1.2l21.18,36.67a2.4,2.4,0,0,1-2.07,3.6h0a2.4,2.4,0,0,0-2.07,3.6l13.09,22.67a2.39,2.39,0,0,1-2.08,3.59h-4.25a2.4,2.4,0,0,0-2.08,3.6l16.26,28.16A2.4,2.4,0,0,1,659.31,108.68Z" fill="#006838"/>
      </g>
      <g>
        <g>
          <path d="M1906.84,101.35v25.57a2.87,2.87,0,0,1-2.87,2.87h-2.82V101.35Z" fill="#8a5d3b"/>
          <path d="M1901.15,101.35V129.8h-2.82a2.87,2.87,0,0,1-2.87-2.87V101.35Z" fill="#68462c"/>
        </g>
        <path d="M1901.12,17v94.2H1867.6a2.12,2.12,0,0,1-1.83-3.18l14.36-24.86a2.12,2.12,0,0,0-1.83-3.18h-3.77a2.11,2.11,0,0,1-1.83-3.17l11.56-20a2.12,2.12,0,0,0-1.84-3.18,2.12,2.12,0,0,1-2.11-2.12,2.07,2.07,0,0,1,.28-1.05L1899.28,18A2.1,2.1,0,0,1,1901.12,17Z" fill="#004e2a"/>
        <path d="M1901.12,17v94.2H1867.6a2.12,2.12,0,0,1-1.83-3.18l14.36-24.86a2.12,2.12,0,0,0-1.83-3.18h-3.77a2.11,2.11,0,0,1-1.83-3.17l11.56-20a2.12,2.12,0,0,0-1.84-3.18,2.12,2.12,0,0,1-2.11-2.12,2.07,2.07,0,0,1,.28-1.05L1899.28,18A2.1,2.1,0,0,1,1901.12,17Z" fill="url(#_10_dpi_30_)"/>
        <path d="M1934.63,111.15h-33.51V17A2.1,2.1,0,0,1,1903,18l18.7,32.38a2.12,2.12,0,0,1-1.83,3.18h0a2.12,2.12,0,0,0-1.83,3.18l11.56,20a2.11,2.11,0,0,1-1.84,3.17h-3.76a2.12,2.12,0,0,0-1.84,3.18L1936.46,108A2.12,2.12,0,0,1,1934.63,111.15Z" fill="#006838"/>
      </g>
      <g>
        <g>
          <path d="M1739.84,95.58v29a3.25,3.25,0,0,1-3.25,3.25h-3.19V95.58Z" fill="#8a5d3b"/>
          <path d="M1733.39,95.58V127.8h-3.19a3.25,3.25,0,0,1-3.25-3.25v-29Z" fill="#68462c"/>
        </g>
        <path d="M1733.36,0V106.68h-38a2.4,2.4,0,0,1-2.07-3.6l16.26-28.16a2.4,2.4,0,0,0-2.07-3.6h-4.27a2.39,2.39,0,0,1-2.07-3.59l13.09-22.67a2.4,2.4,0,0,0-2.08-3.6,2.4,2.4,0,0,1-2.39-2.41,2.34,2.34,0,0,1,.32-1.19L1731.28,1.2A2.38,2.38,0,0,1,1733.36,0Z" fill="#004e2a"/>
        <path d="M1733.36,0V106.68h-38a2.4,2.4,0,0,1-2.07-3.6l16.26-28.16a2.4,2.4,0,0,0-2.07-3.6h-4.27a2.39,2.39,0,0,1-2.07-3.59l13.09-22.67a2.4,2.4,0,0,0-2.08-3.6,2.4,2.4,0,0,1-2.39-2.41,2.34,2.34,0,0,1,.32-1.19L1731.28,1.2A2.38,2.38,0,0,1,1733.36,0Z" fill="url(#_10_dpi_30_)"/>
        <path d="M1771.31,106.68h-38V0a2.37,2.37,0,0,1,2.07,1.2l21.18,36.67a2.4,2.4,0,0,1-2.07,3.6h0a2.4,2.4,0,0,0-2.07,3.6l13.09,22.67a2.39,2.39,0,0,1-2.08,3.59h-4.25a2.4,2.4,0,0,0-2.08,3.6l16.26,28.16A2.4,2.4,0,0,1,1771.31,106.68Z" fill="#006838"/>
      </g>
      <g>
        <g>
          <path d="M440.84,97.58v29a3.25,3.25,0,0,1-3.25,3.25h-3.19V97.58Z" fill="#8a5d3b"/>
          <path d="M434.39,97.58V129.8h-3.19a3.25,3.25,0,0,1-3.25-3.25v-29Z" fill="#68462c"/>
        </g>
        <path d="M434.36,2V108.68h-38a2.4,2.4,0,0,1-2.07-3.6l16.26-28.16a2.4,2.4,0,0,0-2.07-3.6h-4.27a2.39,2.39,0,0,1-2.07-3.59l13.09-22.67a2.4,2.4,0,0,0-2.08-3.6,2.4,2.4,0,0,1-2.39-2.41,2.34,2.34,0,0,1,.32-1.19L432.28,3.2A2.38,2.38,0,0,1,434.36,2Z" fill="#004e2a"/>
        <path d="M434.36,2V108.68h-38a2.4,2.4,0,0,1-2.07-3.6l16.26-28.16a2.4,2.4,0,0,0-2.07-3.6h-4.27a2.39,2.39,0,0,1-2.07-3.59l13.09-22.67a2.4,2.4,0,0,0-2.08-3.6,2.4,2.4,0,0,1-2.39-2.41,2.34,2.34,0,0,1,.32-1.19L432.28,3.2A2.38,2.38,0,0,1,434.36,2Z" fill="url(#_10_dpi_30_)"/>
        <path d="M472.31,108.68h-38V2a2.37,2.37,0,0,1,2.07,1.2l21.18,36.67a2.4,2.4,0,0,1-2.07,3.6h0a2.4,2.4,0,0,0-2.07,3.6l13.09,22.67a2.39,2.39,0,0,1-2.08,3.59h-4.25a2.4,2.4,0,0,0-2.08,3.6l16.26,28.16A2.4,2.4,0,0,1,472.31,108.68Z" fill="#006838"/>
      </g>
      <g>
        <g>
          <path d="M46.84,97.58v29a3.25,3.25,0,0,1-3.25,3.25H40.39V97.58Z" fill="#8a5d3b"/>
          <path d="M40.39,97.58V129.8H37.21A3.25,3.25,0,0,1,34,126.54v-29Z" fill="#68462c"/>
        </g>
        <path d="M40.36,2V108.68H2.4a2.4,2.4,0,0,1-2.07-3.6L16.59,76.93a2.4,2.4,0,0,0-2.07-3.6H10.24a2.39,2.39,0,0,1-2.07-3.59L21.26,47.07a2.4,2.4,0,0,0-2.08-3.6,2.4,2.4,0,0,1-2.39-2.41,2.34,2.34,0,0,1,.32-1.19L38.28,3.2A2.38,2.38,0,0,1,40.36,2Z" fill="#004e2a"/>
        <path d="M40.36,2V108.68H2.4a2.4,2.4,0,0,1-2.07-3.6L16.59,76.93a2.4,2.4,0,0,0-2.07-3.6H10.24a2.39,2.39,0,0,1-2.07-3.59L21.26,47.07a2.4,2.4,0,0,0-2.08-3.6,2.4,2.4,0,0,1-2.39-2.41,2.34,2.34,0,0,1,.32-1.19L38.28,3.2A2.38,2.38,0,0,1,40.36,2Z" fill="url(#_10_dpi_30_)"/>
        <path d="M78.31,108.68h-38V2a2.37,2.37,0,0,1,2.07,1.2L63.61,39.88a2.4,2.4,0,0,1-2.07,3.6h0a2.4,2.4,0,0,0-2.07,3.6L72.55,69.74a2.39,2.39,0,0,1-2.08,3.59H66.21a2.4,2.4,0,0,0-2.08,3.6l16.26,28.16A2.4,2.4,0,0,1,78.31,108.68Z" fill="#006838"/>
      </g>
    </g>
  </g>
</svg>
