<svg xmlns="http://www.w3.org/2000/svg" width="1151.93" height="35.6" viewBox="0 0 1151.93 35.6">
  <title>water_2</title>
  <g id="Layer_2" data-name="Layer 2">
    <g id="Layer_5_mWhitney">
      <path id="water_2" d="M1151.93,14.8V35.6H0V14.8a14.81,14.81,0,0,1,29.61,0,14.8,14.8,0,0,1,29.61,0,14.81,14.81,0,0,1,29.61,0,14.81,14.81,0,0,1,29.61,0,14.8,14.8,0,0,1,29.61,0,14.8,14.8,0,0,1,29.61,0,14.8,14.8,0,0,1,29.61,0,14.81,14.81,0,0,1,29.61,0,14.8,14.8,0,0,1,29.61,0,14.8,14.8,0,0,1,29.61,0,14.81,14.81,0,0,1,29.61,0,14.8,14.8,0,0,1,29.61,0,14.81,14.81,0,0,1,29.15-3.68,14.8,14.8,0,0,1,29.14,3.68,14.8,14.8,0,0,1,29.61,0,14.81,14.81,0,0,1,29.61,0,14.8,14.8,0,0,1,29.61,0,14.8,14.8,0,0,1,29.61,0,14.8,14.8,0,0,1,29.61,0,14.8,14.8,0,0,1,29.61,0,14.81,14.81,0,0,1,29.61,0,14.8,14.8,0,0,1,29.61,0,14.8,14.8,0,0,1,29.61,0,14.81,14.81,0,0,1,29.61,0,14.8,14.8,0,0,1,29.61,0A14.81,14.81,0,0,1,768,9.55a14.8,14.8,0,0,1,28.64,5.25,14.8,14.8,0,0,1,29.61,0,14.81,14.81,0,0,1,29.61,0,14.8,14.8,0,0,1,29.61,0,14.8,14.8,0,0,1,29.61,0,14.8,14.8,0,0,1,29.61,0,14.8,14.8,0,0,1,29.61,0,14.81,14.81,0,0,1,29.61,0,14.8,14.8,0,0,1,29.61,0,14.8,14.8,0,0,1,29.61,0,14.81,14.81,0,0,1,29.61,0,14.8,14.8,0,0,1,29.61,0,14.8,14.8,0,0,1,29.61,0Z" fill="#1f80aa"/>
    </g>
  </g>
</svg>
