<svg xmlns="http://www.w3.org/2000/svg" width="1149.93" height="35.6" viewBox="0 0 1149.93 35.6">
  <title>water_4</title>
  <g id="Layer_2" data-name="Layer 2">
    <g id="Layer_5_mWhitney">
      <path id="water_4" d="M1149.93,14.8V35.6H0V14.8a14.81,14.81,0,0,1,29.61,0,14.8,14.8,0,0,1,29.61,0,14.81,14.81,0,0,1,29.61,0,14.81,14.81,0,0,1,29.61,0,14.8,14.8,0,0,1,29.61,0,14.8,14.8,0,0,1,29.61,0,14.8,14.8,0,0,1,29.61,0,14.81,14.81,0,0,1,29.61,0,14.8,14.8,0,0,1,29.61,0,14.8,14.8,0,0,1,29.61,0,14.81,14.81,0,0,1,29.61,0,14.8,14.8,0,0,1,29.61,0,14.81,14.81,0,0,1,28.15-6.41,14.8,14.8,0,0,1,28.14,6.41,14.8,14.8,0,0,1,29.61,0,14.81,14.81,0,0,1,29.61,0,14.8,14.8,0,0,1,29.61,0,14.8,14.8,0,0,1,29.61,0,14.8,14.8,0,0,1,29.61,0,14.8,14.8,0,0,1,29.61,0,14.81,14.81,0,0,1,29.61,0,14.8,14.8,0,0,1,29.61,0,14.8,14.8,0,0,1,29.61,0,14.81,14.81,0,0,1,29.61,0,14.8,14.8,0,0,1,29.61,0A14.8,14.8,0,0,1,766,9.58a14.79,14.79,0,0,1,28.64,5.22,14.8,14.8,0,0,1,29.61,0,14.81,14.81,0,0,1,29.61,0,14.8,14.8,0,0,1,29.61,0,14.8,14.8,0,0,1,29.61,0,14.8,14.8,0,0,1,29.61,0,14.8,14.8,0,0,1,29.61,0,14.81,14.81,0,0,1,29.61,0,14.8,14.8,0,0,1,29.61,0,14.8,14.8,0,0,1,29.61,0,14.81,14.81,0,0,1,29.61,0,14.8,14.8,0,0,1,29.61,0,14.8,14.8,0,0,1,29.61,0Z" fill="#0a2b39"/>
    </g>
  </g>
</svg>
