<svg xmlns="http://www.w3.org/2000/svg" width="1150.93" height="35.61" viewBox="0 0 1150.93 35.61">
  <title>water_3</title>
  <g id="Layer_2" data-name="Layer 2">
    <g id="Layer_5_mWhitney">
      <path id="water_3" d="M1150.93,14.81v20.8H0V14.81a14.8,14.8,0,1,1,29.61,0,14.81,14.81,0,1,1,29.61,0,14.8,14.8,0,1,1,29.61,0,14.81,14.81,0,1,1,29.61,0,14.81,14.81,0,1,1,29.61,0,14.8,14.8,0,1,1,29.61,0,14.8,14.8,0,1,1,29.61,0,14.81,14.81,0,1,1,29.61,0,14.8,14.8,0,1,1,29.61,0,14.8,14.8,0,1,1,29.61,0,14.81,14.81,0,1,1,29.61,0,14.8,14.8,0,1,1,29.61,0A14.81,14.81,0,0,1,384,9.56a14.8,14.8,0,0,1,28.64,5.25,14.8,14.8,0,1,1,29.61,0,14.8,14.8,0,1,1,29.61,0,14.8,14.8,0,1,1,29.61,0,14.81,14.81,0,1,1,29.61,0,14.8,14.8,0,1,1,29.61,0,14.8,14.8,0,1,1,29.61,0,14.81,14.81,0,1,1,29.61,0,14.8,14.8,0,1,1,29.61,0,14.8,14.8,0,1,1,29.61,0,14.81,14.81,0,1,1,29.61,0,14.8,14.8,0,1,1,29.61,0A14.81,14.81,0,0,1,767,9.56a14.8,14.8,0,0,1,28.64,5.25,14.8,14.8,0,1,1,29.61,0,14.8,14.8,0,1,1,29.61,0,14.8,14.8,0,1,1,29.61,0,14.81,14.81,0,1,1,29.61,0,14.8,14.8,0,1,1,29.61,0,14.8,14.8,0,1,1,29.61,0,14.81,14.81,0,1,1,29.61,0,14.8,14.8,0,1,1,29.61,0,14.8,14.8,0,1,1,29.61,0,14.81,14.81,0,1,1,29.61,0,14.8,14.8,0,1,1,29.61,0,14.8,14.8,0,1,1,29.61,0Z" fill="#155671"/>
    </g>
  </g>
</svg>
