<svg xmlns="http://www.w3.org/2000/svg" width="1379.43" height="613" viewBox="0 0 1379.43 613">
  <title>whitney</title>
  <g id="Layer_2" data-name="Layer 2">
    <g id="Layer_5_mWhitney">
      <g>
        <g id="mw_10">
          <polygon points="1181.76 218.48 1181.76 613 984.09 613 1181.76 218.48" fill="#aa9372"/>
          <polygon points="1379.42 613 1181.76 613 1181.76 218.48 1379.42 613" fill="#e3c498"/>
          <path d="M1239.66,334a21.48,21.48,0,0,1-22.51-1.92,21.47,21.47,0,0,1-30.59,12.19,21.48,21.48,0,0,1-37.95,3.09,21.48,21.48,0,0,1-28.95-5l6.49-12.95,55.61-111,48.3,96.4Z" fill="#fff"/>
        </g>
        <g id="mw_5">
          <polygon points="637.42 0.01 637.42 613 330.3 613 637.42 0.01" fill="#aa9372"/>
          <polygon points="944.55 613 637.42 613 637.42 0.01 944.55 613" fill="#e3c498"/>
          <path d="M727.39,179.54a33.38,33.38,0,0,1-35-3,33.35,33.35,0,0,1-47.53,18.94,33.37,33.37,0,0,1-59,4.8,33.38,33.38,0,0,1-45-7.74L551,172.44,637.43,0l75,149.79Z" fill="#fff"/>
        </g>
        <g id="mw_4">
          <polygon points="525.42 79 525.42 613 257.88 613 525.42 79" fill="#aa9372"/>
          <polygon points="792.97 613 525.42 613 525.42 79 792.97 613" fill="#e3c498"/>
          <path d="M603.79,235.4a29.07,29.07,0,0,1-30.47-2.6,29.05,29.05,0,0,1-41.4,16.5,29.07,29.07,0,0,1-51.36,4.18,29.07,29.07,0,0,1-39.18-6.74l8.78-17.52L525.43,79,590.8,209.48Z" fill="#fff"/>
        </g>
        <g id="mw_8">
          <polygon points="970.42 258 970.42 613 792.56 613 970.42 258" fill="#aa9372"/>
          <polygon points="1148.29 613 970.42 613 970.42 258 1148.29 613" fill="#e3c498"/>
          <path d="M1022.52,362a19.33,19.33,0,0,1-20.26-1.73,19.31,19.31,0,0,1-27.52,11A19.33,19.33,0,0,1,940.6,374a19.33,19.33,0,0,1-26-4.48l5.84-11.65,50-99.87,43.46,86.74Z" fill="#fff"/>
        </g>
        <g id="mw_6">
          <polygon points="754.42 126 754.42 613 510.43 613 754.42 126" fill="#aa9372"/>
          <polygon points="998.42 613 754.42 613 754.42 126 998.42 613" fill="#e3c498"/>
          <path d="M825.9,268.64a26.52,26.52,0,0,1-27.79-2.37,26.5,26.5,0,0,1-37.76,15.05,26.51,26.51,0,0,1-46.84,3.81A26.52,26.52,0,0,1,677.78,279l8-16,68.64-137L814,245Z" fill="#fff"/>
        </g>
        <g id="mw_7">
          <polygon points="849.42 194 849.42 613 639.5 613 849.42 194" fill="#aa9372"/>
          <polygon points="1059.35 613 849.42 613 849.42 194 1059.35 613" fill="#e3c498"/>
          <path d="M910.92,316.72a22.81,22.81,0,0,1-23.91-2,22.8,22.8,0,0,1-32.49,12.95,22.81,22.81,0,0,1-40.3,3.28,22.81,22.81,0,0,1-30.74-5.29l6.89-13.75L849.43,194l51.29,102.38Z" fill="#fff"/>
        </g>
        <g id="mw_9">
          <polygon points="1040.42 287 1040.42 613 877.09 613 1040.42 287" fill="#aa9372"/>
          <polygon points="1203.76 613 1040.42 613 1040.42 287 1203.76 613" fill="#e3c498"/>
          <path d="M1088.27,382.48a17.75,17.75,0,0,1-18.6-1.59A17.74,17.74,0,0,1,1044.39,391a17.75,17.75,0,0,1-31.35,2.55,17.75,17.75,0,0,1-23.92-4.12l5.36-10.7L1040.43,287l39.91,79.66Z" fill="#fff"/>
        </g>
        <g id="mw_9-2" data-name="mw_9">
          <polygon points="659.42 355 659.42 613 530.16 613 659.42 355" fill="#aa9372"/>
          <polygon points="788.69 613 659.42 613 659.42 355 788.69 613" fill="#e3c498"/>
          <path d="M697.29,430.57a14,14,0,0,1-14.72-1.26,14,14,0,0,1-20,8,14,14,0,0,1-24.81,2A14,14,0,0,1,618.82,436l4.24-8.47L659.43,355,691,418Z" fill="#fff"/>
        </g>
        <g id="mw_2">
          <polygon points="259.43 258 259.43 613 81.56 613 259.43 258" fill="#aa9372"/>
          <polygon points="437.29 613 259.43 613 259.43 258 437.29 613" fill="#e3c498"/>
          <path d="M311.52,362a19.33,19.33,0,0,1-20.26-1.73,19.31,19.31,0,0,1-27.52,11A19.33,19.33,0,0,1,229.6,374a19.33,19.33,0,0,1-26-4.48l5.84-11.65,50-99.87,43.46,86.74Z" fill="#fff"/>
        </g>
        <g id="mw_3">
          <polygon points="379.43 216.95 379.43 613 180.99 613 379.43 216.95" fill="#aa9372"/>
          <polygon points="577.86 613 379.43 613 379.43 216.95 577.86 613" fill="#e3c498"/>
          <path d="M437.55,332.95a21.56,21.56,0,0,1-22.6-1.93,21.55,21.55,0,0,1-30.71,12.24,21.56,21.56,0,0,1-38.09,3.1,21.56,21.56,0,0,1-29.06-5l6.51-13,55.82-111.41,48.49,96.78Z" fill="#fff"/>
        </g>
        <g id="mw_1">
          <polygon points="146.3 321 146.3 613 0 613 146.3 321" fill="#aa9372"/>
          <polygon points="292.6 613 146.3 613 146.3 321 292.6 613" fill="#e3c498"/>
          <path d="M189.15,406.52a15.9,15.9,0,0,1-16.66-1.42,15.89,15.89,0,0,1-22.64,9,15.9,15.9,0,0,1-28.08,2.28,15.9,15.9,0,0,1-21.42-3.69l4.8-9.58L146.3,321,182,392.35Z" fill="#fff"/>
        </g>
      </g>
    </g>
  </g>
</svg>
