<svg xmlns="http://www.w3.org/2000/svg" width="1379.43" height="396.05" viewBox="0 0 1379.43 396.05">
  <title>whitney1</title>
  <g id="Layer_2" data-name="Layer 2">
    <g id="Layer_5_mWhitney">
      <g>
        <g id="mw_10">
          <polygon points="1181.76 1.53 1181.76 396.05 984.09 396.05 1181.76 1.53" fill="#aa9372"/>
          <polygon points="1379.42 396.05 1181.76 396.05 1181.76 1.53 1379.42 396.05" fill="#e3c498"/>
          <path d="M1239.66,117.08a21.48,21.48,0,0,1-22.51-1.92,21.47,21.47,0,0,1-30.59,12.19,21.48,21.48,0,0,1-37.95,3.09,21.48,21.48,0,0,1-28.95-5l6.49-12.95,55.61-111,48.3,96.4Z" fill="#fff"/>
        </g>
        <g id="mw_9">
          <polygon points="1040.42 70.06 1040.42 396.05 877.09 396.05 1040.42 70.06" fill="#aa9372"/>
          <polygon points="1203.76 396.05 1040.42 396.05 1040.42 70.06 1203.76 396.05" fill="#e3c498"/>
          <path d="M1088.27,165.54a17.75,17.75,0,0,1-18.6-1.59A17.74,17.74,0,0,1,1044.39,174a17.75,17.75,0,0,1-31.35,2.55,17.75,17.75,0,0,1-23.92-4.12l5.36-10.7,45.95-91.71,39.91,79.66Z" fill="#fff"/>
        </g>
        <g id="mw_9-2" data-name="mw_9">
          <polygon points="659.42 138.06 659.42 396.05 530.16 396.05 659.42 138.06" fill="#aa9372"/>
          <polygon points="788.69 396.05 659.42 396.05 659.42 138.06 788.69 396.05" fill="#e3c498"/>
          <path d="M697.29,213.62a14,14,0,0,1-14.72-1.26,14,14,0,0,1-20,8,14,14,0,0,1-24.81,2,14,14,0,0,1-18.93-3.26l4.24-8.47,36.36-72.58,31.58,63Z" fill="#fff"/>
        </g>
        <g id="mw_3">
          <polygon points="379.43 0 379.43 396.05 180.99 396.05 379.43 0" fill="#aa9372"/>
          <polygon points="577.86 396.05 379.43 396.05 379.43 0 577.86 396.05" fill="#e3c498"/>
          <path d="M437.55,116a21.56,21.56,0,0,1-22.6-1.93,21.55,21.55,0,0,1-30.71,12.24,21.56,21.56,0,0,1-38.09,3.1,21.56,21.56,0,0,1-29.06-5l6.51-13L379.43,0l48.49,96.78Z" fill="#fff"/>
        </g>
        <g id="mw_1">
          <polygon points="146.3 104.06 146.3 396.05 0 396.05 146.3 104.06" fill="#aa9372"/>
          <polygon points="292.6 396.05 146.3 396.05 146.3 104.06 292.6 396.05" fill="#e3c498"/>
          <path d="M189.15,189.58a15.9,15.9,0,0,1-16.66-1.42,15.89,15.89,0,0,1-22.64,9,15.9,15.9,0,0,1-28.08,2.28,15.9,15.9,0,0,1-21.42-3.69l4.8-9.58,41.16-82.14L182,175.4Z" fill="#fff"/>
        </g>
      </g>
    </g>
  </g>
</svg>
