<svg xmlns="http://www.w3.org/2000/svg" width="1066.73" height="613" viewBox="0 0 1066.73 613">
  <title>whitney2</title>
  <g id="Layer_2" data-name="Layer 2">
    <g id="Layer_5_mWhitney">
      <g id="mw_5">
        <polygon points="555.86 0.01 555.86 613 248.74 613 555.86 0.01" fill="#aa9372"/>
        <polygon points="862.99 613 555.86 613 555.86 0.01 862.99 613" fill="#e3c498"/>
        <path d="M645.83,179.54a33.38,33.38,0,0,1-35-3,33.35,33.35,0,0,1-47.53,18.94,33.37,33.37,0,0,1-59,4.8,33.38,33.38,0,0,1-45-7.74l10.08-20.11L555.87,0l75,149.79Z" fill="#fff"/>
      </g>
      <g id="mw_4">
        <polygon points="443.86 79 443.86 613 176.32 613 443.86 79" fill="#aa9372"/>
        <polygon points="711.41 613 443.86 613 443.86 79 711.41 613" fill="#e3c498"/>
        <path d="M522.23,235.4a29.07,29.07,0,0,1-30.47-2.6,29.05,29.05,0,0,1-41.4,16.5A29.07,29.07,0,0,1,399,253.49a29.07,29.07,0,0,1-39.18-6.74l8.78-17.52L443.86,79l65.37,130.48Z" fill="#fff"/>
      </g>
      <g id="mw_8">
        <polygon points="888.86 258 888.86 613 711 613 888.86 258" fill="#aa9372"/>
        <polygon points="1066.73 613 888.86 613 888.86 258 1066.73 613" fill="#e3c498"/>
        <path d="M941,362a19.33,19.33,0,0,1-20.26-1.73,19.31,19.31,0,0,1-27.52,11A19.33,19.33,0,0,1,859,374a19.33,19.33,0,0,1-26-4.48l5.84-11.65,50-99.87,43.46,86.74Z" fill="#fff"/>
      </g>
      <g id="mw_6">
        <polygon points="672.86 126 672.86 613 428.86 613 672.86 126" fill="#aa9372"/>
        <polygon points="916.86 613 672.86 613 672.86 126 916.86 613" fill="#e3c498"/>
        <path d="M744.33,268.64a26.52,26.52,0,0,1-27.79-2.37,26.5,26.5,0,0,1-37.76,15.05,26.51,26.51,0,0,1-46.84,3.81A26.52,26.52,0,0,1,596.21,279l8-16,68.64-137,59.62,119Z" fill="#fff"/>
      </g>
      <g id="mw_7">
        <polygon points="767.86 194 767.86 613 557.93 613 767.86 194" fill="#aa9372"/>
        <polygon points="977.79 613 767.86 613 767.86 194 977.79 613" fill="#e3c498"/>
        <path d="M829.35,316.72a22.81,22.81,0,0,1-23.91-2A22.8,22.8,0,0,1,773,327.63a22.81,22.81,0,0,1-40.3,3.28,22.81,22.81,0,0,1-30.74-5.29l6.89-13.75L767.86,194l51.29,102.38Z" fill="#fff"/>
      </g>
      <g id="mw_2">
        <polygon points="177.86 258 177.86 613 0 613 177.86 258" fill="#aa9372"/>
        <polygon points="355.73 613 177.86 613 177.86 258 355.73 613" fill="#e3c498"/>
        <path d="M230,362a19.33,19.33,0,0,1-20.26-1.73,19.31,19.31,0,0,1-27.52,11A19.33,19.33,0,0,1,148,374a19.33,19.33,0,0,1-26-4.48l5.84-11.65,50-99.87,43.46,86.74Z" fill="#fff"/>
      </g>
    </g>
  </g>
</svg>
