<svg xmlns="http://www.w3.org/2000/svg" width="109.59" height="107.53" viewBox="0 0 109.59 107.53">
  <title>nav_main</title>
  <g id="Layer_2" data-name="Layer 2">
    <g id="Layer_1-2" data-name="Layer 1">
      <g>
        <path d="M54.43,107.53a105.4,105.4,0,0,1-43.52-9.3A18.55,18.55,0,0,1,.09,79.45l4.07.4-4.07-.4A106.29,106.29,0,0,1,44,3.47a18.52,18.52,0,0,1,21.59,0,106.39,106.39,0,0,1,43.89,75.58A18.58,18.58,0,0,1,98.81,97.85,105.43,105.43,0,0,1,54.43,107.53Zm.38-99.35a10.34,10.34,0,0,0-6,1.94A98.11,98.11,0,0,0,8.23,80.25a10.38,10.38,0,0,0,6,10.52,97.28,97.28,0,0,0,40.17,8.58,97.32,97.32,0,0,0,41-8.94,10.41,10.41,0,0,0,6-10.53A98.21,98.21,0,0,0,60.84,10.12,10.34,10.34,0,0,0,54.81,8.18Z" fill="#666"/>
        <path d="M54.43,89.57a87.57,87.57,0,0,1-36.16-7.72.67.67,0,0,1-.31-.65A88.35,88.35,0,0,1,54.47,18.06a.62.62,0,0,1,.67,0A88.43,88.43,0,0,1,91.63,80.88a.67.67,0,0,1-.33.66A87.6,87.6,0,0,1,54.43,89.57Z" fill="#666"/>
      </g>
    </g>
  </g>
</svg>
